M48
;Layer_Color=9474304
;FILE_FORMAT=4:3
METRIC,TZ
;TYPE=PLATED
T1F00S00C0.250
T2F00S00C1.000
%
T01
X3500Y-96500
X7425Y-96425
X10800Y-95500
X12500
X14000
X14875Y-91775
X10025Y-91250
X10300Y-89200
X8675Y-88625
X7426Y-87905
X4675Y-88975
X2250Y-88700
X2250Y-89700
Y-90500
X20430Y-90650
X21476Y-92255
X22626Y-91626
X24050Y-92625
X25550
X27050Y-92625
Y-94150
Y-95300
X25900
X24950Y-94525
X24225Y-96275
X22825Y-95925
X49225Y-91625
X49925Y-89000
X48525Y-88825
X48825Y-87350
X51600Y-62501
X53100Y-60101
X54600Y-59876
X53175Y-49900
X48250Y-50251
X47500Y-51001
X46750Y-51751
X46000Y-52501
X45250Y-53251
X44500Y-54001
X43750Y-54751
X43000Y-55501
X39200Y-49301
X34125
X33750Y-55501
X33000Y-54751
X32250Y-54001
X31500Y-53251
X30750Y-52501
X30000Y-51751
X29250Y-51001
X28500Y-50251
X17900Y-51600
X15400
X10425Y-53151
X9250Y-53126
X7750Y-55251
X6000
Y-57751
X7750
X11950Y-59126
X10200Y-62575
X12250Y-66626
X15350Y-66701
X14200Y-69351
X12850Y-69426
X10200Y-69950
X9275Y-69425
X9575Y-74925
X11125Y-76375
X12575Y-75450
X13950Y-75625
X16025Y-75926
X17650Y-75826
X15650Y-73501
X11850Y-73126
X10575Y-79425
X9250Y-79630
X8975Y-80750
X8750Y-82100
X10450Y-82525
X9750Y-83750
X8475Y-84200
X8473Y-86727
X10300Y-87100
X10450Y-85925
X12275Y-86750
X12250Y-84300
X12225Y-81950
X4725Y-80175
X4750Y-78050
X2300Y-78500
X600
X1675Y-82100
X2275Y-81500
Y-82700
X1675Y-83300
Y-84500
X2275Y-83900
Y-85100
X1675Y-85700
Y-86900
X2275Y-86300
X1750Y-74000
X0
X21250Y-73426
Y-72226
X21150Y-67126
Y-65526
X20450Y-60925
X18050Y-61926
Y-62826
X17950Y-68026
X17925Y-69301
X21350Y-58126
X19190Y-40815
X16650
X14110
X14500Y-36501
Y-34751
Y-33251
Y-31751
X16000
Y-33251
X17250Y-30100
X15500Y-20501
X14000
Y-13501
X15500
X16900Y-11201
X19650Y-10750
X34500Y-13501
Y-15501
X34650Y-34801
X33100
X33075Y-36276
X33500Y-40501
X32000
X30500
X10250Y-36501
X8050Y-32676
X5600Y-32776
X2460Y-41310
X36057Y-42520
X37257
Y-43720
X36057
X35500Y-39501
X36450Y-39275
X37200Y-38551
X38500Y-38551
X39825
X39250Y-39751
X42450Y-40751
X41775Y-44451
X47000Y-40801
X44700Y-35201
X44500Y-31501
X42000
X42450Y-33525
X39800Y-35201
X38200
X36600
X39500Y-31501
Y-15501
Y-13501
X37000
Y-15501
X12000Y-3200
X10500Y-3201
T02
X36751Y-7041
Y-4501
X39291
Y-7041
X34211
Y-4501
X31671
X29131
Y-7041
X31671
X26591
X24051
X21511
X18971
X16431
Y-4501
X18971
X21511
X24051
X26591
M30
