%FSLAX43Y43*%
%MOMM*%
G71*
G01*
G75*
G04 Layer_Physical_Order=1*
G04 Layer_Color=255*
%ADD10C,0.500*%
%ADD11C,0.200*%
%ADD12C,0.250*%
%ADD13C,0.400*%
%ADD14C,1.700*%
%ADD15R,1.700X1.700*%
%ADD16C,0.550*%
G36*
X57200Y-9401D02*
Y-61101D01*
X56800Y-61501D01*
X52200D01*
X51400Y-60701D01*
Y-39301D01*
X47600Y-35501D01*
X33100D01*
X32400Y-34801D01*
Y-33801D01*
X33000Y-33201D01*
X49600D01*
X52500Y-36101D01*
X52500Y-50275D01*
X52800Y-50575D01*
X53500D01*
X53750Y-50325D01*
Y-12500D01*
X43650Y-2426D01*
X15325D01*
X13050Y-4701D01*
X7100D01*
X2200Y-9601D01*
Y-23701D01*
X2200Y-37225D01*
X10900Y-45925D01*
Y-53300D01*
X10600Y-53600D01*
X9100D01*
X8800Y-53301D01*
Y-48901D01*
X2500Y-42601D01*
X-1000D01*
X-1500Y-42101D01*
Y-8001D01*
X5900Y-601D01*
X48400D01*
X57200Y-9401D01*
D02*
G37*
G36*
X37550Y-41176D02*
Y-44376D01*
X35650D01*
Y-41326D01*
X35375Y-41051D01*
X30450D01*
X30150Y-40776D01*
Y-40451D01*
X30450Y-40151D01*
X36525D01*
X37550Y-41176D01*
D02*
G37*
G36*
X45864Y-6464D02*
X45816Y-6582D01*
X40341D01*
Y-5991D01*
X38241D01*
Y-8091D01*
X40341D01*
Y-7499D01*
X46899D01*
X52500Y-13100D01*
Y-29600D01*
X49600Y-32500D01*
X25600Y-32501D01*
X23000Y-29901D01*
Y-22258D01*
X30497Y-14760D01*
X30497Y-14760D01*
X30563Y-14661D01*
X30587Y-14544D01*
Y-7493D01*
X30711Y-7468D01*
X30754Y-7570D01*
X30922Y-7789D01*
X31141Y-7958D01*
X31397Y-8064D01*
X31671Y-8100D01*
X31945Y-8064D01*
X32200Y-7958D01*
X32420Y-7789D01*
X32588Y-7570D01*
X32694Y-7315D01*
X32730Y-7041D01*
X32694Y-6766D01*
X32588Y-6511D01*
X32420Y-6292D01*
X32200Y-6123D01*
X31945Y-6018D01*
X31671Y-5981D01*
X31397Y-6018D01*
X31141Y-6123D01*
X30922Y-6292D01*
X30754Y-6511D01*
X30711Y-6613D01*
X30587Y-6589D01*
Y-5651D01*
X30587Y-5651D01*
X30563Y-5534D01*
X30497Y-5434D01*
X30497Y-5434D01*
X30225Y-5162D01*
Y-4826D01*
X30156Y-4757D01*
X30190Y-4501D01*
X30154Y-4226D01*
X30048Y-3971D01*
X29880Y-3752D01*
X29660Y-3583D01*
X29405Y-3478D01*
X29131Y-3441D01*
X28857Y-3478D01*
X28601Y-3583D01*
X28382Y-3752D01*
X28214Y-3971D01*
X28119Y-4201D01*
X27603D01*
X27508Y-3971D01*
X27340Y-3752D01*
X27120Y-3583D01*
X26865Y-3478D01*
X26591Y-3441D01*
X26317Y-3478D01*
X26061Y-3583D01*
X25842Y-3752D01*
X25674Y-3971D01*
X25579Y-4201D01*
X25063D01*
X24968Y-3971D01*
X24800Y-3752D01*
X24580Y-3583D01*
X24325Y-3478D01*
X24051Y-3441D01*
X23777Y-3478D01*
X23521Y-3583D01*
X23302Y-3752D01*
X23134Y-3971D01*
X23039Y-4201D01*
X22523D01*
X22428Y-3971D01*
X22260Y-3752D01*
X22040Y-3583D01*
X21785Y-3478D01*
X21511Y-3441D01*
X21237Y-3478D01*
X20981Y-3583D01*
X20762Y-3752D01*
X20594Y-3971D01*
X20499Y-4201D01*
X19983D01*
X19888Y-3971D01*
X19720Y-3752D01*
X19500Y-3583D01*
X19245Y-3478D01*
X18971Y-3441D01*
X18697Y-3478D01*
X18441Y-3583D01*
X18222Y-3752D01*
X18054Y-3971D01*
X17948Y-4226D01*
X17912Y-4501D01*
X17937Y-4689D01*
X17800Y-4826D01*
X17800Y-8625D01*
X16050Y-10375D01*
X16050Y-21201D01*
X14350Y-22901D01*
X14350D01*
X14357Y-22918D01*
X8775Y-28501D01*
Y-37076D01*
X7850Y-38000D01*
X3850D01*
X2725Y-36875D01*
Y-9625D01*
X7150Y-5200D01*
X13275D01*
X15400Y-3075D01*
X42475D01*
X45864Y-6464D01*
D02*
G37*
G36*
X18900Y-51525D02*
Y-76450D01*
X18600Y-76750D01*
X16825D01*
X16525Y-76450D01*
Y-63725D01*
X14700Y-61875D01*
X14700Y-51501D01*
X15000Y-51201D01*
X18575Y-51200D01*
X18900Y-51525D01*
D02*
G37*
G36*
X8425Y-48975D02*
Y-58156D01*
X7241Y-59341D01*
X7169Y-59448D01*
X7165Y-59469D01*
X7144Y-59575D01*
Y-74850D01*
X7165Y-74956D01*
X7169Y-74977D01*
X7241Y-75084D01*
X8156Y-76000D01*
X13100Y-80944D01*
Y-88550D01*
X8525Y-93125D01*
Y-93944D01*
X6658D01*
X3581Y-90867D01*
Y-89725D01*
X3581Y-89725D01*
X3558Y-89608D01*
X3491Y-89509D01*
X2726Y-88743D01*
X2734Y-88700D01*
X2697Y-88515D01*
X2592Y-88358D01*
X2435Y-88253D01*
X2250Y-88216D01*
X2065Y-88253D01*
X1908Y-88358D01*
X1803Y-88515D01*
X1766Y-88700D01*
X1803Y-88885D01*
X1908Y-89042D01*
X2048Y-89136D01*
Y-89263D01*
X1907Y-89357D01*
X1802Y-89514D01*
X1766Y-89700D01*
X1802Y-89885D01*
X1907Y-90042D01*
Y-90158D01*
X1802Y-90315D01*
X1766Y-90500D01*
X1802Y-90685D01*
X1907Y-90842D01*
X1944Y-90867D01*
Y-91100D01*
X1944Y-91100D01*
X1967Y-91217D01*
X2034Y-91316D01*
X6434Y-95716D01*
X6434Y-95716D01*
X6533Y-95783D01*
X6650Y-95806D01*
X8525D01*
Y-96075D01*
X7800Y-96800D01*
X3400D01*
X-75Y-93325D01*
X-77Y-91833D01*
X-69Y-91814D01*
X-28Y-91501D01*
X-35D01*
Y-76800D01*
Y-76501D01*
X-28D01*
X-69Y-76187D01*
X-100Y-76114D01*
D01*
X-190Y-75895D01*
X-383Y-75645D01*
X-633Y-75452D01*
X-925Y-75331D01*
X-1239Y-75290D01*
Y-75296D01*
X-1575D01*
Y-43500D01*
X-1000Y-42925D01*
X2375D01*
X8425Y-48975D01*
D02*
G37*
%LPC*%
G36*
X16331Y-7141D02*
X15385D01*
X15408Y-7315D01*
X15514Y-7570D01*
X15682Y-7789D01*
X15901Y-7958D01*
X16157Y-8064D01*
X16331Y-8086D01*
Y-7141D01*
D02*
G37*
G36*
X17477D02*
X16531D01*
Y-8086D01*
X16705Y-8064D01*
X16960Y-7958D01*
X17180Y-7789D01*
X17348Y-7570D01*
X17454Y-7315D01*
X17477Y-7141D01*
D02*
G37*
G36*
X36751Y-5981D02*
X36477Y-6018D01*
X36221Y-6123D01*
X36002Y-6292D01*
X35834Y-6511D01*
X35728Y-6766D01*
X35692Y-7041D01*
X35728Y-7315D01*
X35834Y-7570D01*
X36002Y-7789D01*
X36221Y-7958D01*
X36477Y-8064D01*
X36751Y-8100D01*
X37025Y-8064D01*
X37280Y-7958D01*
X37500Y-7789D01*
X37668Y-7570D01*
X37774Y-7315D01*
X37810Y-7041D01*
X37774Y-6766D01*
X37668Y-6511D01*
X37500Y-6292D01*
X37280Y-6123D01*
X37025Y-6018D01*
X36751Y-5981D01*
D02*
G37*
G36*
X2300Y-78016D02*
X2115Y-78053D01*
X1958Y-78158D01*
X1933Y-78194D01*
X967D01*
X943Y-78158D01*
X786Y-78053D01*
X600Y-78016D01*
X415Y-78053D01*
X258Y-78158D01*
X153Y-78315D01*
X116Y-78500D01*
X153Y-78686D01*
X258Y-78843D01*
X415Y-78948D01*
X600Y-78984D01*
X786Y-78948D01*
X943Y-78843D01*
X967Y-78806D01*
X1933D01*
X1958Y-78843D01*
X2115Y-78948D01*
X2300Y-78984D01*
X2485Y-78948D01*
X2642Y-78843D01*
X2747Y-78686D01*
X2784Y-78500D01*
X2747Y-78315D01*
X2642Y-78158D01*
X2485Y-78053D01*
X2300Y-78016D01*
D02*
G37*
G36*
X9250Y-79145D02*
X9065Y-79182D01*
X8908Y-79287D01*
X8803Y-79444D01*
X8766Y-79630D01*
X8803Y-79815D01*
X8908Y-79972D01*
X9065Y-80077D01*
X9135Y-80091D01*
X9262Y-80219D01*
X9182Y-80317D01*
X9160Y-80303D01*
X8975Y-80266D01*
X8790Y-80303D01*
X8633Y-80408D01*
X8528Y-80565D01*
X8491Y-80750D01*
X8499Y-80793D01*
X8098Y-81194D01*
X2642D01*
X2618Y-81158D01*
X2461Y-81053D01*
X2275Y-81016D01*
X2090Y-81053D01*
X1933Y-81158D01*
X1828Y-81315D01*
X1791Y-81500D01*
X1797Y-81532D01*
X1707Y-81622D01*
X1675Y-81616D01*
X1490Y-81653D01*
X1333Y-81758D01*
X1228Y-81915D01*
X1191Y-82100D01*
X1228Y-82286D01*
X1333Y-82443D01*
X1490Y-82548D01*
X1675Y-82584D01*
X1707Y-82578D01*
X1766Y-82637D01*
Y-82764D01*
X1707Y-82822D01*
X1675Y-82816D01*
X1490Y-82853D01*
X1333Y-82958D01*
X1228Y-83115D01*
X1191Y-83300D01*
X1228Y-83486D01*
X1333Y-83643D01*
X1490Y-83748D01*
X1675Y-83784D01*
X1707Y-83778D01*
X1766Y-83837D01*
Y-83964D01*
X1707Y-84022D01*
X1675Y-84016D01*
X1490Y-84053D01*
X1333Y-84158D01*
X1228Y-84315D01*
X1191Y-84500D01*
X1228Y-84686D01*
X1333Y-84843D01*
X1490Y-84948D01*
X1675Y-84984D01*
X1707Y-84978D01*
X1766Y-85037D01*
Y-85164D01*
X1707Y-85222D01*
X1675Y-85216D01*
X1490Y-85253D01*
X1333Y-85358D01*
X1228Y-85515D01*
X1191Y-85700D01*
X1228Y-85886D01*
X1333Y-86043D01*
X1490Y-86148D01*
X1675Y-86184D01*
X1707Y-86178D01*
X1797Y-86268D01*
X1791Y-86300D01*
X1828Y-86486D01*
X1933Y-86643D01*
X2090Y-86748D01*
X2275Y-86784D01*
X2461Y-86748D01*
X2618Y-86643D01*
X2642Y-86606D01*
X4598D01*
X6834Y-88841D01*
X6933Y-88908D01*
X7050Y-88931D01*
X7050Y-88931D01*
X8308D01*
X8333Y-88967D01*
X8490Y-89072D01*
X8675Y-89109D01*
X8860Y-89072D01*
X9017Y-88967D01*
X9122Y-88810D01*
X9159Y-88625D01*
X9122Y-88440D01*
X9112Y-88425D01*
X9172Y-88313D01*
X10730D01*
X10730Y-88313D01*
X10860Y-88287D01*
X10886Y-88282D01*
X11018Y-88193D01*
X11463Y-87748D01*
X11463Y-87748D01*
X11552Y-87615D01*
X11583Y-87459D01*
Y-82475D01*
Y-81555D01*
X11583Y-81555D01*
X11557Y-81424D01*
X11552Y-81399D01*
X11463Y-81266D01*
X11463Y-81266D01*
X9711Y-79514D01*
X9697Y-79444D01*
X9592Y-79287D01*
X9435Y-79182D01*
X9250Y-79145D01*
D02*
G37*
G36*
X34211Y-5981D02*
X33937Y-6018D01*
X33681Y-6123D01*
X33462Y-6292D01*
X33294Y-6511D01*
X33188Y-6766D01*
X33152Y-7041D01*
X33188Y-7315D01*
X33294Y-7570D01*
X33462Y-7789D01*
X33681Y-7958D01*
X33937Y-8064D01*
X34211Y-8100D01*
X34485Y-8064D01*
X34740Y-7958D01*
X34960Y-7789D01*
X35128Y-7570D01*
X35234Y-7315D01*
X35270Y-7041D01*
X35234Y-6766D01*
X35128Y-6511D01*
X34960Y-6292D01*
X34740Y-6123D01*
X34485Y-6018D01*
X34211Y-5981D01*
D02*
G37*
G36*
X39191Y-4601D02*
X38245D01*
X38268Y-4775D01*
X38374Y-5030D01*
X38542Y-5249D01*
X38761Y-5418D01*
X39017Y-5524D01*
X39191Y-5546D01*
Y-4601D01*
D02*
G37*
G36*
X36751Y-3441D02*
X36477Y-3478D01*
X36221Y-3583D01*
X36002Y-3752D01*
X35834Y-3971D01*
X35728Y-4226D01*
X35692Y-4501D01*
X35728Y-4775D01*
X35834Y-5030D01*
X36002Y-5249D01*
X36221Y-5418D01*
X36477Y-5524D01*
X36751Y-5560D01*
X37025Y-5524D01*
X37280Y-5418D01*
X37500Y-5249D01*
X37668Y-5030D01*
X37774Y-4775D01*
X37810Y-4501D01*
X37774Y-4226D01*
X37668Y-3971D01*
X37500Y-3752D01*
X37280Y-3583D01*
X37025Y-3478D01*
X36751Y-3441D01*
D02*
G37*
G36*
X40337Y-4601D02*
X39391D01*
Y-5546D01*
X39565Y-5524D01*
X39820Y-5418D01*
X40040Y-5249D01*
X40208Y-5030D01*
X40314Y-4775D01*
X40337Y-4601D01*
D02*
G37*
G36*
X39391Y-3455D02*
Y-4401D01*
X40337D01*
X40314Y-4226D01*
X40208Y-3971D01*
X40040Y-3752D01*
X39820Y-3583D01*
X39565Y-3478D01*
X39391Y-3455D01*
D02*
G37*
G36*
X39191D02*
X39017Y-3478D01*
X38761Y-3583D01*
X38542Y-3752D01*
X38374Y-3971D01*
X38268Y-4226D01*
X38245Y-4401D01*
X39191D01*
Y-3455D01*
D02*
G37*
G36*
X16531Y-5995D02*
Y-6941D01*
X17477D01*
X17454Y-6766D01*
X17348Y-6511D01*
X17180Y-6292D01*
X16960Y-6123D01*
X16705Y-6018D01*
X16531Y-5995D01*
D02*
G37*
G36*
X16331D02*
X16157Y-6018D01*
X15901Y-6123D01*
X15682Y-6292D01*
X15514Y-6511D01*
X15408Y-6766D01*
X15385Y-6941D01*
X16331D01*
Y-5995D01*
D02*
G37*
G36*
X16431Y-3441D02*
X16157Y-3478D01*
X15901Y-3583D01*
X15682Y-3752D01*
X15514Y-3971D01*
X15408Y-4226D01*
X15372Y-4501D01*
X15408Y-4775D01*
X15514Y-5030D01*
X15682Y-5249D01*
X15901Y-5418D01*
X16157Y-5524D01*
X16431Y-5560D01*
X16705Y-5524D01*
X16960Y-5418D01*
X17180Y-5249D01*
X17348Y-5030D01*
X17454Y-4775D01*
X17490Y-4501D01*
X17454Y-4226D01*
X17348Y-3971D01*
X17180Y-3752D01*
X16960Y-3583D01*
X16705Y-3478D01*
X16431Y-3441D01*
D02*
G37*
G36*
X34211D02*
X33937Y-3478D01*
X33681Y-3583D01*
X33462Y-3752D01*
X33294Y-3971D01*
X33188Y-4226D01*
X33152Y-4501D01*
X33188Y-4775D01*
X33294Y-5030D01*
X33462Y-5249D01*
X33681Y-5418D01*
X33937Y-5524D01*
X34211Y-5560D01*
X34485Y-5524D01*
X34740Y-5418D01*
X34960Y-5249D01*
X35128Y-5030D01*
X35234Y-4775D01*
X35270Y-4501D01*
X35234Y-4226D01*
X35128Y-3971D01*
X34960Y-3752D01*
X34740Y-3583D01*
X34485Y-3478D01*
X34211Y-3441D01*
D02*
G37*
G36*
X31671D02*
X31397Y-3478D01*
X31141Y-3583D01*
X30922Y-3752D01*
X30754Y-3971D01*
X30648Y-4226D01*
X30612Y-4501D01*
X30648Y-4775D01*
X30754Y-5030D01*
X30922Y-5249D01*
X31141Y-5418D01*
X31397Y-5524D01*
X31671Y-5560D01*
X31945Y-5524D01*
X32200Y-5418D01*
X32420Y-5249D01*
X32588Y-5030D01*
X32694Y-4775D01*
X32730Y-4501D01*
X32694Y-4226D01*
X32588Y-3971D01*
X32420Y-3752D01*
X32200Y-3583D01*
X31945Y-3478D01*
X31671Y-3441D01*
D02*
G37*
%LPD*%
D10*
X53175Y-49900D02*
Y-12850D01*
X47366Y-7041D02*
X53175Y-12850D01*
X39291Y-7041D02*
X47366D01*
X19190Y-40815D02*
X21350Y-42974D01*
Y-58126D02*
Y-42974D01*
Y-65326D02*
Y-58126D01*
X21150Y-65526D02*
X21350Y-65326D01*
D11*
X30281Y-14544D02*
Y-5651D01*
X17250Y-27575D02*
X30281Y-14544D01*
X17250Y-30100D02*
Y-27575D01*
X29131Y-14338D02*
Y-7041D01*
Y-4501D02*
X30281Y-5651D01*
X26591Y-4501D02*
X27900Y-5810D01*
Y-15003D02*
Y-5810D01*
X26591Y-15747D02*
Y-7041D01*
X21511Y-4501D02*
X22775Y-5765D01*
Y-18997D02*
Y-5765D01*
X21511Y-19696D02*
Y-7041D01*
X18971Y-20530D02*
Y-7041D01*
Y-4501D02*
X20250Y-5780D01*
X16200Y-90225D02*
X21125Y-95150D01*
X16200Y-90225D02*
Y-81475D01*
X21125Y-95150D02*
X23100D01*
X21550Y-91450D02*
Y-90575D01*
X20100Y-89125D02*
X21550Y-90575D01*
X20100Y-89125D02*
Y-65675D01*
X21550Y-91450D02*
X22725Y-92625D01*
X20447Y-91225D02*
X21476Y-92255D01*
X20192Y-91225D02*
X20447D01*
X16650Y-40815D02*
X19650Y-43815D01*
Y-89870D02*
Y-43815D01*
X14110Y-40815D02*
X19250Y-45955D01*
Y-90283D02*
Y-45955D01*
X36076Y-38901D02*
X36450Y-39275D01*
X19250Y-90283D02*
X20192Y-91225D01*
X19650Y-89870D02*
X20430Y-90650D01*
X9850Y-87100D02*
X10300D01*
X9537Y-75700D02*
X10425D01*
X8275Y-74438D02*
Y-60078D01*
Y-74438D02*
X9537Y-75700D01*
X8675Y-74025D02*
X9575Y-74925D01*
X8675Y-74025D02*
Y-60244D01*
X12650Y-56269D01*
X8275Y-60078D02*
X12250Y-56103D01*
X6531Y-94250D02*
X12150D01*
X3275Y-90994D02*
X6531Y-94250D01*
X3275Y-90994D02*
Y-89725D01*
X6616Y-94900D02*
X11900D01*
X2825Y-91109D02*
X6616Y-94900D01*
X6650Y-95500D02*
X10800D01*
X2250Y-88700D02*
X3275Y-89725D01*
X12150Y-94250D02*
X13400Y-95500D01*
X11900Y-94900D02*
X12500Y-95500D01*
X13400D02*
X14000D01*
X17800Y-89562D02*
Y-79925D01*
X14700Y-76825D02*
X17800Y-79925D01*
X14700Y-76825D02*
Y-71276D01*
X16600Y-90059D02*
Y-81025D01*
X17000Y-89894D02*
Y-80850D01*
X11850Y-75700D02*
X17000Y-80850D01*
X17400Y-89728D02*
Y-80300D01*
X12575Y-75475D02*
X17400Y-80300D01*
X16600Y-90059D02*
X21166Y-94625D01*
X17000Y-89894D02*
X21331Y-94225D01*
X17400Y-89728D02*
X21497Y-93825D01*
X17800Y-89562D02*
X21663Y-93425D01*
X26325D01*
X21497Y-93825D02*
X25575D01*
X21331Y-94225D02*
X24650D01*
X21166Y-94625D02*
X23550D01*
X22626Y-91626D02*
Y-90601D01*
X20675Y-88650D02*
X22626Y-90601D01*
X20100Y-65675D02*
X20450Y-65325D01*
Y-60925D01*
X20575Y-66101D02*
X21150Y-65526D01*
X20575Y-71551D02*
Y-66101D01*
X16000Y-31751D02*
X22000D01*
X16000Y-33251D02*
X22800D01*
X15250Y-34001D02*
X22700D01*
X14500Y-33251D02*
X15250Y-34001D01*
X38634Y-36935D02*
X39825Y-38126D01*
X27834Y-36935D02*
X38634D01*
X21900Y-31001D02*
X27834Y-36935D01*
X10425Y-75700D02*
X16200Y-81475D01*
X12275Y-69950D02*
Y-66651D01*
X15650Y-73501D02*
X16025Y-73876D01*
Y-75926D02*
Y-73876D01*
X14200Y-69351D02*
X15350Y-68201D01*
Y-66701D01*
X15150Y-32401D02*
X16000Y-33251D01*
X33000Y-54751D02*
X43750D01*
X32250Y-54001D02*
X44500D01*
X31500Y-53251D02*
X45250D01*
X30750Y-52501D02*
X46000D01*
X30000Y-51751D02*
X46750D01*
X29250Y-51001D02*
X47500D01*
X33750Y-55501D02*
X43000D01*
X28500Y-50251D02*
X48250D01*
X39825Y-44426D02*
Y-38551D01*
Y-44426D02*
X42500Y-47101D01*
X23300Y-36501D02*
X26300Y-39501D01*
X35500D01*
X14500Y-36501D02*
X23300D01*
X22700Y-34751D02*
X26850Y-38901D01*
X36076D01*
X14500Y-34751D02*
X22700D01*
X37150Y-38501D02*
X37200Y-38551D01*
X27200Y-38501D02*
X37150D01*
X22700Y-34001D02*
X27200Y-38501D01*
X27400Y-37851D02*
X37800D01*
X38500Y-38551D01*
X22800Y-33251D02*
X27400Y-37851D01*
X38350Y-37401D02*
X39250Y-38301D01*
X27650Y-37401D02*
X38350D01*
X22000Y-31751D02*
X27650Y-37401D01*
X39250Y-39751D02*
Y-38301D01*
X39825Y-38551D02*
Y-38126D01*
X42500Y-47101D02*
X47900D01*
X50700Y-49901D01*
X42100Y-47601D02*
X47700D01*
X41700Y-48001D02*
X47500D01*
X47700Y-47601D02*
X50300Y-50201D01*
X47500Y-48001D02*
X49500Y-50001D01*
X38500Y-40401D02*
Y-38551D01*
X37200Y-39751D02*
Y-38551D01*
X39375Y-44876D02*
X42100Y-47601D01*
X39375Y-44876D02*
Y-41276D01*
X38500Y-40401D02*
X39375Y-41276D01*
X38975Y-45276D02*
X41700Y-48001D01*
X38975Y-45276D02*
Y-41526D01*
X37200Y-39751D02*
X38975Y-41526D01*
X11850Y-74300D02*
Y-73126D01*
X20675Y-88650D02*
Y-72801D01*
X21250Y-72226D01*
X20575Y-71551D02*
X21250Y-72226D01*
X48825Y-87350D02*
X49500Y-86675D01*
Y-50001D01*
X50700Y-88225D02*
Y-49901D01*
X51600Y-89250D02*
Y-62501D01*
X49225Y-91625D02*
X51600Y-89250D01*
X12551Y-75426D02*
X12575Y-75450D01*
X12551Y-75426D02*
X12600Y-75376D01*
X11850Y-74300D02*
X11850Y-74300D01*
X12575Y-75475D02*
Y-75450D01*
X11850Y-75700D02*
Y-74300D01*
X10500Y-74925D02*
X16600Y-81025D01*
X49925Y-89000D02*
X50700Y-88225D01*
X50300Y-87050D02*
Y-50201D01*
X48525Y-88825D02*
X50300Y-87050D01*
X12850Y-69426D02*
X14700Y-71276D01*
X13950Y-75625D02*
Y-71625D01*
X12275Y-69950D02*
X13950Y-71625D01*
X21150Y-67126D02*
X21850Y-67826D01*
Y-87425D02*
Y-67826D01*
Y-87425D02*
X27050Y-92625D01*
X21250Y-88325D02*
Y-73426D01*
Y-88325D02*
X25550Y-92625D01*
X22725D02*
X24050D01*
X600Y-78500D02*
X2300D01*
X24225Y-95300D02*
X25900D01*
X26325Y-93425D02*
X27050Y-94150D01*
X25575Y-93825D02*
X27050Y-95300D01*
X24650Y-94225D02*
X24950Y-94525D01*
X23550Y-94625D02*
X24225Y-95300D01*
X23100Y-95150D02*
X24225Y-96275D01*
X12850Y-69426D02*
X12900Y-69375D01*
X12600Y-75376D02*
Y-71513D01*
X11850Y-73126D02*
Y-71329D01*
X14215Y-32401D02*
X15150D01*
X14500Y-31751D02*
X15099D01*
X15849Y-31001D01*
X21900D01*
X19650Y-20425D02*
Y-10750D01*
X14500Y-31751D02*
Y-28969D01*
X29131Y-14338D01*
X20250Y-20391D02*
Y-5780D01*
X13925Y-32110D02*
X14215Y-32401D01*
X13925Y-32110D02*
Y-28979D01*
X27900Y-15003D01*
X13525Y-32276D02*
X14500Y-33251D01*
X13525Y-32276D02*
Y-28813D01*
X26591Y-15747D01*
X11375Y-28126D02*
X18971Y-20530D01*
X11775Y-28300D02*
X19650Y-20425D01*
X12175Y-28466D02*
X20250Y-20391D01*
X12575Y-28631D02*
X21511Y-19696D01*
X12975Y-28797D02*
X22775Y-18997D01*
X12975Y-42125D02*
Y-28797D01*
X12575Y-42291D02*
Y-28631D01*
X12175Y-42456D02*
Y-28466D01*
X11775Y-42622D02*
Y-28300D01*
X11375Y-42788D02*
Y-28126D01*
X10250Y-42228D02*
Y-36501D01*
Y-42228D02*
X12250Y-44228D01*
X13850Y-57225D02*
Y-43566D01*
X11375Y-42788D02*
X12650Y-44063D01*
X11775Y-42622D02*
X13050Y-43897D01*
X12175Y-42456D02*
X13450Y-43731D01*
X12575Y-42291D02*
X13850Y-43566D01*
X12975Y-42125D02*
X14250Y-43400D01*
X11950Y-59126D02*
X13850Y-57225D01*
X13450Y-56600D02*
Y-43731D01*
X13050Y-56434D02*
Y-43897D01*
X12650Y-56269D02*
Y-44063D01*
X12250Y-56103D02*
Y-44228D01*
X9275Y-60209D02*
X13050Y-56434D01*
X9275Y-69425D02*
Y-60209D01*
X12250Y-66626D02*
X12275Y-66651D01*
X11175Y-70654D02*
X11850Y-71329D01*
X11175Y-58875D02*
X13450Y-56600D01*
X11575Y-59500D02*
X11950Y-59126D01*
X11575Y-70488D02*
X12600Y-71513D01*
X11575Y-70488D02*
Y-59500D01*
X11175Y-70654D02*
Y-58875D01*
X10200Y-69950D02*
Y-62575D01*
X12900Y-69375D02*
Y-59025D01*
X14250Y-57675D01*
Y-43400D01*
X9575Y-74925D02*
X10500D01*
X1675Y-83300D02*
X9300D01*
X2275Y-83900D02*
X8175D01*
X9241Y-85925D02*
X10450D01*
X7446Y-85700D02*
X8473Y-86727D01*
X1675Y-85700D02*
X7446D01*
X2275Y-86300D02*
X4725D01*
X7050Y-88625D01*
X8675D01*
X2250Y-89700D02*
X2263D01*
X2825Y-90262D01*
Y-91109D02*
Y-90262D01*
X2250Y-91100D02*
X6650Y-95500D01*
X2250Y-91100D02*
Y-90500D01*
X2275Y-85100D02*
X7850D01*
X9850Y-87100D01*
X1675Y-84500D02*
X7816D01*
X9241Y-85925D01*
X2275Y-81500D02*
X8225D01*
X8175Y-83900D02*
X8475Y-84200D01*
X1675Y-82100D02*
X8750D01*
X8225Y-81500D02*
X8975Y-80750D01*
X9300Y-83300D02*
X9750Y-83750D01*
X2275Y-82700D02*
X9800D01*
X9975Y-82525D01*
X10450D01*
D12*
X14875Y-91775D02*
Y-82250D01*
X7475Y-74850D02*
X14875Y-82250D01*
X7475Y-74850D02*
Y-59575D01*
X11350Y-55700D02*
Y-44725D01*
X7475Y-59575D02*
X11350Y-55700D01*
X14875Y-91775D02*
X19025Y-95925D01*
X22825D01*
X9500Y-28875D02*
X16900Y-21475D01*
Y-11201D01*
X9500Y-42875D02*
Y-28875D01*
Y-42875D02*
X11350Y-44725D01*
D13*
X42475Y-36276D02*
X47000Y-40801D01*
X33075Y-36276D02*
X42475D01*
X41775Y-41426D02*
X42450Y-40751D01*
X41775Y-44451D02*
Y-41426D01*
X34125Y-49301D02*
X39200D01*
X7426Y-87905D02*
X10730D01*
X11175Y-87459D01*
Y-81555D01*
X9250Y-79630D02*
X11175Y-81555D01*
D14*
X29131Y-4501D02*
D03*
X39291D02*
D03*
X36751D02*
D03*
Y-7041D02*
D03*
X34211Y-4501D02*
D03*
Y-7041D02*
D03*
X31671Y-4501D02*
D03*
Y-7041D02*
D03*
X29131D02*
D03*
X16431D02*
D03*
X18971D02*
D03*
Y-4501D02*
D03*
X21511Y-7041D02*
D03*
Y-4501D02*
D03*
X24051Y-7041D02*
D03*
Y-4501D02*
D03*
X26591D02*
D03*
Y-7041D02*
D03*
X16431Y-4501D02*
D03*
D15*
X39291Y-7041D02*
D03*
D16*
X37257Y-42520D02*
D03*
Y-43720D02*
D03*
X36057Y-42520D02*
D03*
Y-43720D02*
D03*
X2460Y-41310D02*
D03*
X10025Y-91250D02*
D03*
X17900Y-51600D02*
D03*
X19190Y-40815D02*
D03*
X16650D02*
D03*
X14110D02*
D03*
X36450Y-39275D02*
D03*
X20430Y-90650D02*
D03*
X8473Y-86727D02*
D03*
X8675Y-88625D02*
D03*
X10575Y-79425D02*
D03*
X14875Y-91775D02*
D03*
X14000Y-95500D02*
D03*
X12500D02*
D03*
X10800D02*
D03*
X4675Y-88975D02*
D03*
X12000Y-3200D02*
D03*
X20450Y-60925D02*
D03*
X24050Y-92625D02*
D03*
X17250Y-30100D02*
D03*
X12225Y-81950D02*
D03*
X22626Y-91626D02*
D03*
X2250Y-88700D02*
D03*
X12850Y-69426D02*
D03*
X18050Y-62826D02*
D03*
Y-61926D02*
D03*
X33100Y-34801D02*
D03*
X16000Y-33251D02*
D03*
Y-31751D02*
D03*
X6000Y-55251D02*
D03*
Y-57751D02*
D03*
X7750D02*
D03*
Y-55251D02*
D03*
X44500Y-31501D02*
D03*
X42000D02*
D03*
X39500D02*
D03*
Y-13501D02*
D03*
X37000D02*
D03*
X39500Y-15501D02*
D03*
X37000D02*
D03*
X34500D02*
D03*
Y-13501D02*
D03*
X15500Y-20501D02*
D03*
X14000D02*
D03*
X8050Y-32676D02*
D03*
X5600Y-32776D02*
D03*
X14000Y-13501D02*
D03*
X15500D02*
D03*
X10425Y-53151D02*
D03*
X9250Y-53126D02*
D03*
X15400Y-51600D02*
D03*
X41775Y-44451D02*
D03*
X15350Y-66701D02*
D03*
X0Y-74000D02*
D03*
X42450Y-40751D02*
D03*
X34125Y-49301D02*
D03*
X53100Y-60101D02*
D03*
X12575Y-75450D02*
D03*
X21250Y-73426D02*
D03*
Y-72226D02*
D03*
X21150Y-67126D02*
D03*
X16900Y-11201D02*
D03*
X44700Y-35201D02*
D03*
X21150Y-65526D02*
D03*
X43000Y-55501D02*
D03*
X44500Y-54001D02*
D03*
X45250Y-53251D02*
D03*
X46000Y-52501D02*
D03*
X46750Y-51751D02*
D03*
X47500Y-51001D02*
D03*
X48250Y-50251D02*
D03*
X33750Y-55501D02*
D03*
X33000Y-54751D02*
D03*
X32250Y-54001D02*
D03*
X31500Y-53251D02*
D03*
X30750Y-52501D02*
D03*
X30000Y-51751D02*
D03*
X29250Y-51001D02*
D03*
X28500Y-50251D02*
D03*
X43750Y-54751D02*
D03*
X39825Y-38551D02*
D03*
X39250Y-39751D02*
D03*
X38500Y-38551D02*
D03*
X37200Y-38551D02*
D03*
X35500Y-39501D02*
D03*
X10250Y-36501D02*
D03*
X14500Y-31751D02*
D03*
Y-33251D02*
D03*
Y-34751D02*
D03*
Y-36501D02*
D03*
X10500Y-3201D02*
D03*
X36600Y-35201D02*
D03*
X38200D02*
D03*
X39800D02*
D03*
X39200Y-49301D02*
D03*
X15650Y-73501D02*
D03*
X11950Y-59126D02*
D03*
X21350Y-58126D02*
D03*
X47000Y-40801D02*
D03*
X16025Y-75926D02*
D03*
X14200Y-69351D02*
D03*
X54600Y-59876D02*
D03*
X34650Y-34801D02*
D03*
X4750Y-78050D02*
D03*
X32000Y-40501D02*
D03*
X30500D02*
D03*
X33500D02*
D03*
X33075Y-36276D02*
D03*
X17950Y-68026D02*
D03*
X17925Y-69301D02*
D03*
X10300Y-89200D02*
D03*
X12250Y-84300D02*
D03*
X12275Y-86750D02*
D03*
X25550Y-92625D02*
D03*
X27050Y-92625D02*
D03*
X48825Y-87350D02*
D03*
X49225Y-91625D02*
D03*
X51600Y-62501D02*
D03*
X53175Y-49900D02*
D03*
X11125Y-76375D02*
D03*
X4725Y-80175D02*
D03*
X7425Y-96425D02*
D03*
X21476Y-92255D02*
D03*
X49925Y-89000D02*
D03*
X48525Y-88825D02*
D03*
X13950Y-75625D02*
D03*
X2300Y-78500D02*
D03*
X600D02*
D03*
X27050Y-94150D02*
D03*
Y-95300D02*
D03*
X24950Y-94525D02*
D03*
X25900Y-95300D02*
D03*
X24225Y-96275D02*
D03*
X22825Y-95925D02*
D03*
X1750Y-74000D02*
D03*
X11850Y-73126D02*
D03*
X19650Y-10750D02*
D03*
X9275Y-69425D02*
D03*
X12250Y-66626D02*
D03*
X10200Y-69950D02*
D03*
Y-62575D02*
D03*
X9575Y-74925D02*
D03*
X3500Y-96500D02*
D03*
X2250Y-89700D02*
D03*
Y-90500D02*
D03*
X7426Y-87905D02*
D03*
X2275Y-81500D02*
D03*
X1675Y-82100D02*
D03*
Y-83300D02*
D03*
X2275Y-82700D02*
D03*
X1675Y-84500D02*
D03*
X2275Y-83900D02*
D03*
X1675Y-85700D02*
D03*
X2275Y-85100D02*
D03*
X1675Y-86900D02*
D03*
X2275Y-86300D02*
D03*
X10300Y-87100D02*
D03*
X10450Y-85925D02*
D03*
X8475Y-84200D02*
D03*
X9250Y-79630D02*
D03*
X8750Y-82100D02*
D03*
X8975Y-80750D02*
D03*
X9750Y-83750D02*
D03*
X10450Y-82525D02*
D03*
X17650Y-75826D02*
D03*
X42450Y-33525D02*
D03*
M02*
