%FSLAX43Y43*%
%MOMM*%
G71*
G01*
G75*
G04 Layer_Color=16711935*
%ADD10C,0.500*%
%ADD11C,0.200*%
%ADD12C,0.250*%
%ADD13C,0.400*%
%ADD14C,1.700*%
%ADD15R,1.700X1.700*%
%ADD16C,0.550*%
%ADD17R,1.800X2.200*%
%ADD18R,0.300X1.300*%
%ADD19R,0.700X0.300*%
%ADD20R,1.000X0.400*%
%ADD21R,1.100X1.500*%
%ADD22R,1.700X1.700*%
%ADD23R,1.100X0.250*%
%ADD24R,1.500X1.700*%
%ADD25R,2.800X2.800*%
%ADD26O,0.250X0.700*%
%ADD27O,0.700X0.250*%
%ADD28O,1.750X0.250*%
%ADD29R,0.700X1.100*%
%ADD30R,1.300X0.600*%
%ADD31R,0.400X0.400*%
%ADD32R,1.400X0.600*%
%ADD33R,0.700X0.700*%
%ADD34R,0.550X0.600*%
%ADD35R,0.800X0.650*%
%ADD36R,0.500X0.600*%
%ADD37R,1.000X0.950*%
%ADD38R,0.900X0.600*%
%ADD39R,0.600X0.550*%
%ADD40R,0.650X0.800*%
%ADD41R,0.600X0.500*%
%ADD42R,0.600X0.900*%
%ADD43C,0.800*%
%ADD44C,0.300*%
%ADD45C,0.254*%
%ADD46C,1.800*%
%ADD47R,1.800X1.800*%
%ADD48C,5.000*%
%ADD49R,1.900X2.300*%
%ADD50R,0.400X1.400*%
%ADD51R,0.800X0.400*%
%ADD52R,1.100X0.500*%
%ADD53R,1.200X1.600*%
%ADD54R,1.800X1.800*%
%ADD55R,1.200X0.350*%
%ADD56R,1.600X1.800*%
%ADD57R,2.900X2.900*%
%ADD58O,0.350X0.800*%
%ADD59O,0.800X0.350*%
%ADD60O,1.850X0.350*%
%ADD61R,0.840X1.240*%
%ADD62R,1.400X0.700*%
%ADD63R,0.500X0.500*%
%ADD64R,1.500X0.700*%
%ADD65R,0.800X0.800*%
%ADD66R,0.650X0.700*%
%ADD67R,0.900X0.750*%
%ADD68R,0.600X0.700*%
%ADD69R,1.100X1.050*%
%ADD70R,1.000X0.700*%
%ADD71R,0.700X0.650*%
%ADD72R,0.750X0.900*%
%ADD73R,0.700X0.600*%
%ADD74R,0.700X1.000*%
%ADD75C,0.900*%
G36*
X20262Y-67506D02*
X18412D01*
Y-64706D01*
X20262D01*
Y-67506D01*
D02*
G37*
G36*
X14800Y-60126D02*
X12950D01*
Y-57326D01*
X14800D01*
Y-60126D01*
D02*
G37*
G36*
X14712Y-67506D02*
X12862D01*
Y-64706D01*
X14712D01*
Y-67506D01*
D02*
G37*
G36*
X14720Y-74218D02*
X12870D01*
Y-71418D01*
X14720D01*
Y-74218D01*
D02*
G37*
G36*
X20270D02*
X18420D01*
Y-71418D01*
X20270D01*
Y-74218D01*
D02*
G37*
G36*
X39057Y-44520D02*
X38257D01*
Y-41720D01*
X39057D01*
Y-44520D01*
D02*
G37*
G36*
X38057Y-41520D02*
X35257D01*
Y-40720D01*
X38057D01*
Y-41520D01*
D02*
G37*
G36*
X35057Y-44520D02*
X34257D01*
Y-41720D01*
X35057D01*
Y-44520D01*
D02*
G37*
G36*
X20350Y-60126D02*
X18500D01*
Y-57326D01*
X20350D01*
Y-60126D01*
D02*
G37*
G36*
X38057Y-45520D02*
X35257D01*
Y-44720D01*
X38057D01*
Y-45520D01*
D02*
G37*
D46*
X692Y-48930D02*
D03*
Y-46390D02*
D03*
Y-43850D02*
D03*
Y-41310D02*
D03*
Y-38770D02*
D03*
Y-36230D02*
D03*
Y-33690D02*
D03*
Y-31150D02*
D03*
Y-28610D02*
D03*
X29131Y-4501D02*
D03*
X39291D02*
D03*
X36751D02*
D03*
Y-7041D02*
D03*
X34211Y-4501D02*
D03*
Y-7041D02*
D03*
X31671Y-4501D02*
D03*
Y-7041D02*
D03*
X29131D02*
D03*
X16431D02*
D03*
X18971D02*
D03*
Y-4501D02*
D03*
X21511Y-7041D02*
D03*
Y-4501D02*
D03*
X24051Y-7041D02*
D03*
Y-4501D02*
D03*
X26591D02*
D03*
Y-7041D02*
D03*
X16431Y-4501D02*
D03*
D47*
X39291Y-7041D02*
D03*
D48*
X211Y-2351D02*
D03*
X55511D02*
D03*
Y-97651D02*
D03*
X211D02*
D03*
D49*
X32225Y-63275D02*
D03*
X49025D02*
D03*
D50*
X34375Y-57625D02*
D03*
X34875D02*
D03*
X35375D02*
D03*
X35875D02*
D03*
X36375D02*
D03*
X36875D02*
D03*
X37375D02*
D03*
X37875D02*
D03*
X38375D02*
D03*
X38875D02*
D03*
X39375D02*
D03*
X39875D02*
D03*
X40375D02*
D03*
X40875D02*
D03*
X41375D02*
D03*
X41875D02*
D03*
X42375D02*
D03*
X42875D02*
D03*
X43375D02*
D03*
X43875D02*
D03*
X44375D02*
D03*
X44875D02*
D03*
X45375D02*
D03*
X45875D02*
D03*
X46375D02*
D03*
X46875D02*
D03*
D51*
X5961Y-78200D02*
D03*
Y-77600D02*
D03*
Y-81200D02*
D03*
Y-80600D02*
D03*
Y-80000D02*
D03*
Y-79400D02*
D03*
Y-78800D02*
D03*
Y-84200D02*
D03*
Y-83600D02*
D03*
Y-83000D02*
D03*
Y-82400D02*
D03*
Y-81800D02*
D03*
Y-87200D02*
D03*
Y-86600D02*
D03*
Y-86000D02*
D03*
Y-85400D02*
D03*
Y-84800D02*
D03*
Y-87800D02*
D03*
Y-88400D02*
D03*
Y-89000D02*
D03*
Y-89600D02*
D03*
Y-90200D02*
D03*
X3461Y-78500D02*
D03*
Y-77900D02*
D03*
Y-77300D02*
D03*
Y-81500D02*
D03*
Y-80900D02*
D03*
Y-80300D02*
D03*
Y-79700D02*
D03*
Y-79100D02*
D03*
Y-84500D02*
D03*
Y-83900D02*
D03*
Y-83300D02*
D03*
Y-82700D02*
D03*
Y-82100D02*
D03*
Y-87500D02*
D03*
Y-86900D02*
D03*
Y-86300D02*
D03*
Y-85700D02*
D03*
Y-85100D02*
D03*
Y-88100D02*
D03*
Y-88700D02*
D03*
Y-89300D02*
D03*
Y-89900D02*
D03*
Y-90500D02*
D03*
D52*
X3961Y-91050D02*
D03*
Y-76750D02*
D03*
D53*
X19190Y-51600D02*
D03*
X16650D02*
D03*
X14110D02*
D03*
X19190Y-42700D02*
D03*
X16650D02*
D03*
X14110D02*
D03*
D54*
X692Y-26070D02*
D03*
D55*
X51926Y-90600D02*
D03*
Y-89100D02*
D03*
Y-91600D02*
D03*
Y-91100D02*
D03*
Y-88600D02*
D03*
Y-86100D02*
D03*
Y-88100D02*
D03*
Y-87600D02*
D03*
Y-85100D02*
D03*
Y-87100D02*
D03*
Y-85600D02*
D03*
Y-86600D02*
D03*
Y-83100D02*
D03*
Y-82600D02*
D03*
Y-84600D02*
D03*
Y-84100D02*
D03*
Y-81100D02*
D03*
Y-82100D02*
D03*
Y-81600D02*
D03*
Y-69100D02*
D03*
Y-68600D02*
D03*
Y-83600D02*
D03*
Y-80600D02*
D03*
Y-68100D02*
D03*
Y-67100D02*
D03*
Y-67600D02*
D03*
Y-80100D02*
D03*
Y-79600D02*
D03*
Y-90100D02*
D03*
Y-89600D02*
D03*
Y-78100D02*
D03*
Y-77600D02*
D03*
Y-79100D02*
D03*
Y-78600D02*
D03*
Y-76100D02*
D03*
Y-75600D02*
D03*
Y-77100D02*
D03*
Y-76600D02*
D03*
Y-74100D02*
D03*
Y-73600D02*
D03*
Y-75100D02*
D03*
Y-74600D02*
D03*
Y-72100D02*
D03*
Y-71600D02*
D03*
Y-73100D02*
D03*
Y-72600D02*
D03*
Y-71100D02*
D03*
Y-70600D02*
D03*
Y-70100D02*
D03*
Y-69600D02*
D03*
D56*
X55826Y-93250D02*
D03*
Y-65450D02*
D03*
D57*
X36657Y-43120D02*
D03*
D58*
X36857Y-45120D02*
D03*
X37257D02*
D03*
X38057D02*
D03*
X37657D02*
D03*
X36057D02*
D03*
X36457D02*
D03*
X35657D02*
D03*
X35257D02*
D03*
Y-41120D02*
D03*
X35657D02*
D03*
X36457D02*
D03*
X36057D02*
D03*
X37657D02*
D03*
X38057D02*
D03*
X37257D02*
D03*
X36857D02*
D03*
D59*
X38657Y-44520D02*
D03*
Y-44120D02*
D03*
Y-43320D02*
D03*
Y-43720D02*
D03*
Y-42120D02*
D03*
Y-41720D02*
D03*
Y-42520D02*
D03*
Y-42920D02*
D03*
X34657D02*
D03*
Y-42520D02*
D03*
Y-41720D02*
D03*
Y-42120D02*
D03*
Y-43720D02*
D03*
Y-43320D02*
D03*
Y-44120D02*
D03*
Y-44520D02*
D03*
D60*
X13795Y-74218D02*
D03*
Y-73818D02*
D03*
Y-73418D02*
D03*
Y-73018D02*
D03*
Y-72618D02*
D03*
Y-72218D02*
D03*
Y-71818D02*
D03*
X19345Y-74218D02*
D03*
Y-73818D02*
D03*
Y-73418D02*
D03*
Y-73018D02*
D03*
Y-72618D02*
D03*
Y-72218D02*
D03*
Y-71818D02*
D03*
Y-71418D02*
D03*
X13795D02*
D03*
X13875Y-60126D02*
D03*
Y-59726D02*
D03*
Y-59326D02*
D03*
Y-58926D02*
D03*
Y-58526D02*
D03*
Y-58126D02*
D03*
Y-57726D02*
D03*
X19425Y-60126D02*
D03*
Y-59726D02*
D03*
Y-59326D02*
D03*
Y-58926D02*
D03*
Y-58526D02*
D03*
Y-58126D02*
D03*
Y-57726D02*
D03*
Y-57326D02*
D03*
X13875D02*
D03*
X13787Y-67506D02*
D03*
Y-67106D02*
D03*
Y-66706D02*
D03*
Y-66306D02*
D03*
Y-65906D02*
D03*
Y-65506D02*
D03*
Y-65106D02*
D03*
X19337Y-67506D02*
D03*
Y-67106D02*
D03*
Y-66706D02*
D03*
Y-66306D02*
D03*
Y-65906D02*
D03*
Y-65506D02*
D03*
Y-65106D02*
D03*
Y-64706D02*
D03*
X13787D02*
D03*
D61*
X42450Y-38901D02*
D03*
X44350D02*
D03*
Y-36301D02*
D03*
X43400D02*
D03*
X42450D02*
D03*
D62*
X14000Y-92725D02*
D03*
X16100Y-93675D02*
D03*
Y-91775D02*
D03*
D63*
X51150Y-46000D02*
D03*
Y-47400D02*
D03*
D64*
X55125Y-46750D02*
D03*
X53225Y-45800D02*
D03*
Y-47700D02*
D03*
D65*
X53100Y-61101D02*
D03*
Y-62501D02*
D03*
X10500Y-4301D02*
D03*
Y-5701D02*
D03*
D66*
X17500Y-92775D02*
D03*
Y-91775D02*
D03*
D67*
X52075Y-41350D02*
D03*
X53275D02*
D03*
X15450Y-69326D02*
D03*
X16650D02*
D03*
D68*
X54600Y-61101D02*
D03*
X54600Y-62151D02*
D03*
X41800Y-45501D02*
D03*
X41800Y-46551D02*
D03*
X12000Y-4501D02*
D03*
X12000Y-5551D02*
D03*
D69*
X53400Y-43325D02*
D03*
X51800D02*
D03*
X18175Y-77450D02*
D03*
X19775D02*
D03*
D70*
X18675Y-75826D02*
D03*
X19775D02*
D03*
X34150Y-38826D02*
D03*
X33050D02*
D03*
X19350Y-61926D02*
D03*
X20450D02*
D03*
X19100Y-69301D02*
D03*
X20200D02*
D03*
D71*
X10275Y-94525D02*
D03*
X9275D02*
D03*
X11325D02*
D03*
X12325D02*
D03*
X10275Y-93625D02*
D03*
X9275D02*
D03*
X11325D02*
D03*
X12325D02*
D03*
X10275Y-92725D02*
D03*
X9275D02*
D03*
X11325D02*
D03*
X12325D02*
D03*
D72*
X19190Y-38099D02*
D03*
Y-39299D02*
D03*
X16650Y-38099D02*
D03*
Y-39299D02*
D03*
X14110Y-38099D02*
D03*
Y-39299D02*
D03*
X36600Y-37501D02*
D03*
Y-36301D02*
D03*
X38200Y-37501D02*
D03*
Y-36301D02*
D03*
X39800Y-37501D02*
D03*
Y-36301D02*
D03*
X43400Y-44801D02*
D03*
Y-46001D02*
D03*
X775Y-75975D02*
D03*
Y-74775D02*
D03*
X10850Y-59726D02*
D03*
Y-58526D02*
D03*
X10725Y-65851D02*
D03*
Y-64651D02*
D03*
X10838Y-73545D02*
D03*
Y-72345D02*
D03*
D73*
X34125Y-37201D02*
D03*
X33075Y-37201D02*
D03*
X44300Y-40801D02*
D03*
X45350Y-40801D02*
D03*
X42450Y-34400D02*
D03*
X43500Y-34400D02*
D03*
D74*
X40200Y-45351D02*
D03*
Y-46451D02*
D03*
X46100Y-37751D02*
D03*
Y-36651D02*
D03*
D75*
X11875Y-91725D02*
D03*
X9275Y-95500D02*
D03*
Y-91750D02*
D03*
X8350Y-93625D02*
D03*
X10500Y-7950D02*
D03*
X10850Y-61176D02*
D03*
X10750Y-67401D02*
D03*
X21375Y-59150D02*
D03*
X21956Y-66306D02*
D03*
X22150Y-72825D02*
D03*
X11800Y-65850D02*
D03*
X11950Y-72250D02*
D03*
X15050Y-77250D02*
D03*
X12175Y-60700D02*
D03*
X53275Y-39475D02*
D03*
X47299Y-37751D02*
D03*
X42875Y-47275D02*
D03*
X24625Y-79250D02*
D03*
X25875Y-79650D02*
D03*
X27125Y-80050D02*
D03*
X28375Y-80450D02*
D03*
X24900Y-81875D02*
D03*
X28650Y-83075D02*
D03*
X27400Y-82675D02*
D03*
X26150Y-82275D02*
D03*
X26425Y-84900D02*
D03*
X27675Y-85300D02*
D03*
X28925Y-85700D02*
D03*
X25175Y-84500D02*
D03*
X26700Y-87525D02*
D03*
X25450Y-87125D02*
D03*
X28100Y-77825D02*
D03*
X26850Y-77425D02*
D03*
X25600Y-77025D02*
D03*
X24350Y-76625D02*
D03*
X9570Y-73545D02*
D03*
X11825Y-68425D02*
D03*
X22550Y-92625D02*
D03*
X19190Y-40815D02*
D03*
X16650D02*
D03*
X14110D02*
D03*
X36450Y-39275D02*
D03*
X14000Y-95500D02*
D03*
X12500D02*
D03*
X10800D02*
D03*
X24050Y-92625D02*
D03*
X12850Y-69426D02*
D03*
X42450Y-40751D02*
D03*
X12575Y-75450D02*
D03*
X39250Y-39751D02*
D03*
X47000Y-40801D02*
D03*
X16025Y-75926D02*
D03*
X14200Y-69351D02*
D03*
X34650Y-34801D02*
D03*
X25550Y-92625D02*
D03*
X27050Y-92625D02*
D03*
X48825Y-87350D02*
D03*
X51600Y-62501D02*
D03*
X53175Y-49900D02*
D03*
X11125Y-76375D02*
D03*
X49925Y-89000D02*
D03*
X48525Y-88825D02*
D03*
X13950Y-75625D02*
D03*
X24950Y-94525D02*
D03*
X22825Y-95925D02*
D03*
X9275Y-69425D02*
D03*
X10200Y-62575D02*
D03*
X9575Y-74925D02*
D03*
M02*
