G04 ================== begin FILE IDENTIFICATION RECORD ==================*
G04 Layout Name:  E:/øÔ√¿¿º/new/SAME70-XPLD/gerber/SAME70-XPLD_150600-151013.brd*
G04 Film Name:    BOTTOM*
G04 File Format:  Gerber RS274X*
G04 File Origin:  Cadence Allegro 16.6-S006*
G04 Origin Date:  Tue Oct 13 10:22:20 2015*
G04 *
G04 Layer:  VIA CLASS/BOTTOM*
G04 Layer:  PIN/BOTTOM*
G04 Layer:  ETCH/BOTTOM*
G04 Layer:  BOARD GEOMETRY/OUTLINE*
G04 *
G04 Offset:    (0.000 0.000)*
G04 Mirror:    No*
G04 Mode:      Positive*
G04 Rotation:  0*
G04 FullContactRelief:  No*
G04 UndefLineWidth:     5.000*
G04 ================== end FILE IDENTIFICATION RECORD ====================*
%FSLAX55Y55*MOIN*%
%IR0*IPPOS*OFA0.00000B0.00000*MIA0B0*SFA1.00000B1.00000*%
%ADD30R,.06X.11*%
%ADD22R,.028X.11*%
%ADD19C,.128*%
%ADD24R,.022X.02*%
%ADD23R,.02X.022*%
%ADD33R,.04X.05*%
%ADD32R,.05X.04*%
%ADD25R,.035X.03*%
%ADD31R,.04X.07*%
%ADD26R,.03X.035*%
%ADD14O,.055X.042*%
%ADD37O,.042X.055*%
%ADD13O,.075X.043*%
%ADD36O,.043X.075*%
%ADD34C,.012*%
%ADD28C,.03*%
%ADD27R,.028X.07*%
%ADD16C,.04*%
%ADD12C,.024*%
%ADD35C,.016*%
%ADD29C,.052*%
%ADD11C,.062*%
%ADD18C,.072*%
%ADD10C,.018*%
%ADD15C,.055*%
%ADD20C,.083*%
%ADD17R,.062X.062*%
%ADD21R,.055X.055*%
%ADD38C,.005*%
%ADD39C,.0075*%
%ADD40C,.01*%
%ADD41C,.02*%
%ADD42C,.015*%
%ADD43C,.08*%
%ADD44C,.03937*%
%ADD47C,.120004*%
%ADD48C,.162005*%
%ADD52C,.034004*%
%ADD50C,.071004*%
%ADD46O,.071004X.058004*%
%ADD45O,.058004X.071004*%
%ADD55C,.046004*%
%ADD54C,.064004*%
%ADD53C,.028004*%
%ADD51C,.084004*%
%ADD49C,.078004*%
G75*
%LPD*%
G75*
G36*
G01X-326740Y2250D02*
Y278802D01*
G02X-326619Y279017I250J0D01*
G01X-326196Y279272D01*
X-326064Y279276D01*
X-326006Y279245D01*
G03X-324630Y278904I1376J2610D01*
G01X-321430D01*
G03Y284805I0J2950D01*
G01X-324630D01*
G03X-326006Y284464I0J-2950D01*
G01X-326064Y284434D01*
X-326196Y284437D01*
X-326619Y284692D01*
G02X-326740Y284906I129J214D01*
G01Y311676D01*
G02X-326619Y311891I250J0D01*
G01X-326196Y312146D01*
X-326064Y312150D01*
X-326006Y312119D01*
G03X-324630Y311778I1376J2610D01*
G01X-321430D01*
G03Y317679I0J2950D01*
G01X-324630D01*
G03X-326006Y317338I0J-2950D01*
G01X-326064Y317308D01*
X-326196Y317311D01*
X-326619Y317566D01*
G02X-326740Y317780I129J214D01*
G01Y411135D01*
G02X-326490Y411385I250J0D01*
G01X-324143D01*
G02X-323920Y411248I0J-250D01*
G01X-323687Y410786D01*
X-323698Y410646D01*
X-323741Y410589D01*
G03X-314076I4833J-3557D01*
G01X-314118Y410646D01*
X-314129Y410786D01*
X-313896Y411248D01*
G02X-313673Y411385I223J-113D01*
G01X-211132D01*
G02X-210882Y411135I0J-250D01*
G01Y399635D01*
G03X-210632Y399385I250J0D01*
G01X-203532D01*
G03X-203282Y399635I0J250D01*
G01Y411135D01*
G02X-203032Y411385I250J0D01*
G01X-103652D01*
G02X-103402Y411135I0J-250D01*
G01Y399635D01*
G03X-103152Y399385I250J0D01*
G01X-96052D01*
G03X-95802Y399635I0J250D01*
G01Y411135D01*
G02X-95552Y411385I250J0D01*
G01X-74818D01*
G02X-74604Y411264I0J-250D01*
G01X-74349Y410841D01*
X-74345Y410710D01*
X-74376Y410652D01*
G03X-74716Y409276I2610J-1376D01*
G01Y406076D01*
G03X-68816I2950J0D01*
G01Y409276D01*
G03X-69156Y410652I-2950J0D01*
G01X-69187Y410710D01*
X-69183Y410841D01*
X-68928Y411264D01*
G02X-68714Y411385I214J-129D01*
G01X-41944D01*
G02X-41730Y411264I0J-250D01*
G01X-41475Y410841D01*
X-41471Y410710D01*
X-41502Y410652D01*
G03X-41842Y409276I2610J-1376D01*
G01Y406076D01*
G03X-35942I2950J0D01*
G01Y409276D01*
G03X-36282Y410652I-2950J0D01*
G01X-36313Y410710D01*
X-36309Y410841D01*
X-36054Y411264D01*
G02X-35840Y411385I214J-129D01*
G01X-2250D01*
G02X-2000Y411135I0J-250D01*
G01Y2250D01*
G02X-2250Y2000I-250J0D01*
G01X-326490D01*
G02X-326740Y2250I0J250D01*
G37*
%LPC*%
G75*
G36*
G01X-52837Y321491D02*
X-51395Y320048D01*
X-51343Y320030D01*
G02X-53144Y318229I-488J-1313D01*
G01X-53162Y318280D01*
X-53873Y318991D01*
G03X-54050Y319064I-177J-177D01*
G01X-73571D01*
G03X-73804Y318904I0J-250D01*
G02Y321724I-3636J1410D01*
G03X-73571Y321564I233J90D01*
G01X-53014D01*
G02X-52837Y321491I0J-250D01*
G37*
G36*
G01X-48009Y311948D02*
Y316430D01*
G02X-47936Y316607I250J0D01*
G01X-46157Y318386D01*
X-46119Y318493D01*
X-46125Y318550D01*
G02X-44084Y316509I2287J246D01*
G01X-44140Y316515D01*
X-44247Y316477D01*
X-45236Y315489D01*
G03X-45309Y315312I177J-177D01*
G01Y311948D01*
X-45301Y311918D01*
G02X-48017I-1358J-342D01*
G01X-48009Y311948D01*
G37*
G36*
G01X-49627Y311491D02*
X-49240Y311104D01*
X-49189Y311086D01*
G02X-50816Y308959I-488J-1313D01*
G03X-51019Y309064I-203J-145D01*
G01X-73571D01*
G03X-73804Y308904I0J-250D01*
G02Y311724I-3636J1410D01*
G03X-73571Y311564I233J90D01*
G01X-49804D01*
G02X-49627Y311491I0J-250D01*
G37*
G36*
G01X-309829Y15583D02*
X-302529D01*
G02X-302279Y15333I0J-250D01*
G01Y8032D01*
G02X-302529Y7782I-250J0D01*
G01X-309829D01*
G02X-310079Y8032I0J250D01*
G01Y15333D01*
G02X-309829Y15583I250J0D01*
G37*
G36*
G01X-271091Y288191D02*
X-263790D01*
G02X-263540Y287941I0J-250D01*
G01Y280641D01*
G02X-263790Y280391I-250J0D01*
G01X-271091D01*
G02X-271341Y280641I0J250D01*
G01Y287941D01*
G02X-271091Y288191I250J0D01*
G37*
G36*
G01X-99541Y303181D02*
X-92241D01*
G02X-91991Y302931I0J-250D01*
G01Y295630D01*
G02X-92241Y295380I-250J0D01*
G01X-99541D01*
G02X-99791Y295630I0J250D01*
G01Y302931D01*
G02X-99541Y303181I250J0D01*
G37*
G36*
G01X-31091Y304175D02*
X-23791D01*
G02X-23541Y303925I0J-250D01*
G01Y296625D01*
G02X-23791Y296375I-250J0D01*
G01X-31091D01*
G02X-31341Y296625I0J250D01*
G01Y303925D01*
G02X-31091Y304175I250J0D01*
G37*
G36*
G01Y364175D02*
X-23791D01*
G02X-23541Y363925I0J-250D01*
G01Y356625D01*
G02X-23791Y356375I-250J0D01*
G01X-31091D01*
G02X-31341Y356625I0J250D01*
G01Y363925D01*
G02X-31091Y364175I250J0D01*
G37*
G36*
G01X-15561Y312643D02*
X-34912D01*
G02X-35088Y312716I0J250D01*
G01X-40775Y318403D01*
G02X-40848Y318579I177J177D01*
G01Y326398D01*
G03X-40921Y326574I-250J0D01*
G01X-42794Y328447D01*
X-42954Y328472D01*
X-43026Y328436D01*
G02X-46229Y331256I-1034J2055D01*
G01X-46205Y331324D01*
X-46237Y331465D01*
X-50790Y336019D01*
G03X-50967Y336092I-177J-177D01*
G01X-53406D01*
X-53439Y336059D01*
G02X-53616Y335986I-177J177D01*
G01X-53620D01*
X-53979Y335602D01*
X-54014Y335505D01*
X-54011Y335453D01*
G02X-56805I-1397J-92D01*
G01X-56802Y335505D01*
X-56837Y335602D01*
X-57122Y335907D01*
G03X-57304Y335986I-182J-171D01*
G01X-65414D01*
G03X-65596Y335907I0J-250D01*
G01X-65881Y335602D01*
X-65916Y335505D01*
X-65913Y335453D01*
G02X-68259Y334332I-1397J-92D01*
G01X-68293Y334362D01*
X-68377Y334397D01*
X-68797Y334407D01*
X-68883Y334378D01*
X-68918Y334348D01*
G02X-71212Y335470I-895J1077D01*
G01X-71211Y335521D01*
X-71247Y335615D01*
X-71533Y335910D01*
G03X-71712Y335986I-180J-174D01*
G01X-73569D01*
G03X-73751Y335907I0J-250D01*
G01X-74036Y335602D01*
X-74071Y335505D01*
X-74068Y335453D01*
G02X-76405Y334323I-1397J-92D01*
G01X-76436Y334352D01*
X-76515Y334385D01*
X-76913Y334408D01*
X-76995Y334384D01*
X-77030Y334360D01*
G02X-79241Y335490I-811J1141D01*
G01X-79242Y335539D01*
X-79280Y335630D01*
X-79565Y335913D01*
G03X-79741Y335986I-176J-177D01*
G01X-81559D01*
X-81665Y336092D01*
X-82589D01*
G02X-82766Y336165I0J250D01*
G01X-88871Y342270D01*
G03X-89047Y342343I-177J-177D01*
G01X-90096D01*
G03X-90292Y342247I0J-250D01*
G01X-90571Y341892D01*
X-90595Y341780D01*
X-90582Y341724D01*
G02X-90875Y340297I-1652J-404D01*
G01X-90912Y340248D01*
X-90932Y340126D01*
X-90759Y339617D01*
X-90669Y339532D01*
X-90609Y339515D01*
G02X-92423Y338900I-456J-1638D01*
G01X-92386Y338949D01*
X-92366Y339072D01*
X-92539Y339580D01*
X-92629Y339665D01*
X-92689Y339682D01*
G02X-93794Y340646I456J1638D01*
G01X-93816Y340697D01*
X-93900Y340772D01*
X-94379Y340910D01*
X-94490Y340892D01*
X-94536Y340860D01*
G02X-97004Y341471I-963J1401D01*
G01X-97036Y341530D01*
X-97150Y341602D01*
X-97719Y341621D01*
X-97838Y341557D01*
X-97873Y341500D01*
G02X-97818Y343178I-1450J888D01*
G01X-97786Y343118D01*
X-97672Y343047D01*
X-97103Y343028D01*
X-96984Y343092D01*
X-96949Y343149D01*
G02X-93938Y342935I1450J-888D01*
G01X-93916Y342884D01*
X-93832Y342810D01*
X-93353Y342672D01*
X-93242Y342690D01*
X-93196Y342721D01*
G02X-92706Y342953I963J-1401D01*
G01X-92642Y342972D01*
X-92550Y343067D01*
X-92426Y343548D01*
G03X-92491Y343787I-242J62D01*
G01X-103306Y354602D01*
G03X-103482Y354675I-177J-177D01*
G01X-104213D01*
G03X-104463Y354425I0J-250D01*
G01Y342548D01*
G02X-104713Y342298I-250J0D01*
G01X-111813D01*
G02X-112063Y342548I0J250D01*
G01Y349266D01*
G03X-112219Y349498I-250J0D01*
G01X-112720Y349700D01*
X-112869Y349669D01*
X-112922Y349614D01*
G02X-114970Y356622I-3018J2921D01*
G01X-114888Y356603D01*
X-114735Y356670D01*
X-114460Y357164D01*
G03X-114501Y357462I-218J122D01*
G01X-134489Y377450D01*
G02X-134562Y377626I177J177D01*
G01Y378831D01*
G02X-131365Y378939I1600J0D01*
G01X-131362Y378894D01*
X-131324Y378812D01*
X-110461Y357948D01*
G03X-110285Y357875I177J177D01*
G01X-102157D01*
G02X-101980Y357802I0J-250D01*
G01X-95370Y351192D01*
G03X-95127Y351128I177J177D01*
G01X-94642Y351262D01*
X-94548Y351359D01*
X-94532Y351425D01*
G02X-94171Y352068I1359J-339D01*
G03X-94099Y352244I-178J175D01*
G01Y367783D01*
G02X-94026Y367959I250J0D01*
G01X-91422Y370563D01*
G03X-91349Y370740I-177J177D01*
G01Y384066D01*
G02X-91276Y384243I250J0D01*
G01X-88512Y387007D01*
G02X-88335Y387080I177J-177D01*
G01X-72413D01*
G03X-72182Y387234I0J250D01*
G01X-72153Y387304D01*
X-72182Y387453D01*
X-72533Y387804D01*
G03X-72710Y387877I-177J-177D01*
G01X-74992D01*
G02Y393077I0J2600D01*
G01X-70556D01*
G02X-70379Y393004I0J-250D01*
G01X-69087Y391712D01*
G03X-68910Y391639I177J177D01*
G01X-56222D01*
G03X-55972Y391889I0J250D01*
G01Y393983D01*
G02X-55899Y394160I250J0D01*
G01X-54263Y395796D01*
G02X-54086Y395869I177J-177D01*
G01X-49719D01*
G03X-49469Y396119I0J250D01*
G01Y396515D01*
G02X-43669I2900J0D01*
G01Y395215D01*
G02X-45110Y392709I-2900J0D01*
G01X-45160Y392680D01*
X-45224Y392583D01*
X-45283Y392132D01*
G03X-45212Y391923I248J-32D01*
G01X-44848Y391560D01*
G02X-44775Y391383I-177J-177D01*
G01Y387700D01*
G02X-44848Y387523I-250J0D01*
G01X-44865Y387507D01*
G03X-44919Y387234I177J-177D01*
G01X-44890Y387164D01*
X-44764Y387080D01*
X-44119D01*
G02X-43942Y387007I0J-250D01*
G01X-39016Y382081D01*
G02X-38943Y381904I-177J-177D01*
G01Y369222D01*
G03X-38831Y369013I250J0D01*
G02Y366681I-775J-1166D01*
G03X-38943Y366472I138J-208D01*
G01Y361627D01*
G03X-38861Y361442I250J0D01*
G02Y359372I-943J-1035D01*
G03X-38943Y359187I168J-185D01*
G01Y354862D01*
X-38927Y354819D01*
G02Y353845I-1313J-487D01*
G01X-38943Y353802D01*
Y349861D01*
G03X-38870Y349684I250J0D01*
G01X-21980Y332794D01*
X-21867Y332757D01*
X-21808Y332766D01*
G02X-20108Y328636I340J-2275D01*
G03X-20210Y328435I148J-202D01*
G01Y320929D01*
G03X-20097Y320720I250J0D01*
G02Y316872I-1261J-1924D01*
G03X-20210Y316663I137J-209D01*
G01Y314593D01*
G03X-19960Y314343I250J0D01*
G01X-16265D01*
G03X-16089Y314416I0J250D01*
G01X-12684Y317821D01*
X-12652Y317962D01*
X-12676Y318030D01*
G02X-11273Y316627I2169J766D01*
G01X-11341Y316651D01*
X-11482Y316619D01*
X-15384Y312716D01*
G02X-15561Y312643I-177J177D01*
G37*
G36*
G01X-302927Y299838D02*
X-309355D01*
G02X-309532Y299911I0J250D01*
G01X-311150Y301529D01*
G02X-311223Y301706I177J177D01*
G01Y303901D01*
G03X-311473Y304151I-250J0D01*
G01X-311869D01*
G02Y309952I0J2900D01*
G01X-310569D01*
G02X-308063Y308511I0J-2900D01*
G01X-308034Y308461D01*
X-307937Y308396D01*
X-307487Y308338D01*
G03X-307278Y308409I32J248D01*
G01X-306915Y308772D01*
G02X-306738Y308845I177J-177D01*
G01X-303054D01*
G02X-302877Y308772I0J-250D01*
G01X-301361Y307256D01*
G02X-301288Y307079I-177J-177D01*
G01Y306372D01*
G03X-301038Y306122I250J0D01*
G01X-265178D01*
G03X-265001Y306195I0J250D01*
G01X-246146Y325050D01*
G03X-246092Y325322I-177J177D01*
G01X-246121Y325392D01*
X-246247Y325477D01*
X-282654D01*
G02X-282831Y325550I0J250D01*
G01X-287032Y329751D01*
G02X-287105Y329928I177J177D01*
G01Y339181D01*
G03X-287255Y339410I-250J0D01*
G01X-287742Y339624D01*
X-287889Y339599D01*
X-287944Y339549D01*
G02X-285774Y342867I-5489J5957D01*
G01X-285803Y342784D01*
X-285745Y342620D01*
X-285258Y342315D01*
G03X-284948Y342350I133J212D01*
G01X-284738Y342560D01*
G03X-284665Y342737I-177J177D01*
G01Y394467D01*
G03X-284738Y394644I-250J0D01*
G01X-287490Y397395D01*
G02X-287563Y397572I177J177D01*
G01Y405524D01*
G02X-287490Y405701I250J0D01*
G01X-285747Y407444D01*
G02X-285570Y407517I177J-177D01*
G01X-258813D01*
G02X-258636Y407444I0J-250D01*
G01X-238154Y386962D01*
G03X-237937Y386892I177J177D01*
G01X-237476Y386967D01*
X-237379Y387039D01*
X-237353Y387093D01*
G02X-236108Y387872I1255J-622D01*
G01X-236059Y387872D01*
X-235968Y387910D01*
X-235558Y388320D01*
X-235520Y388421D01*
X-235524Y388476D01*
G02X-235508Y388801I1397J96D01*
G01X-235499Y388856D01*
X-235530Y388965D01*
X-235862Y389340D01*
X-235965Y389384D01*
X-236022Y389382D01*
G02X-234697Y390552I-56J1399D01*
G01X-234706Y390497D01*
X-234675Y390388D01*
X-234343Y390013D01*
X-234240Y389969D01*
X-234183Y389971D01*
G02X-232735Y388723I56J-1399D01*
G01X-232725Y388628D01*
X-232582Y388500D01*
X-231355D01*
G02X-231178Y388427I0J-250D01*
G01X-217892Y375141D01*
G03X-217716Y375068I177J177D01*
G01X-215665D01*
G03X-215479Y375152I0J250D01*
G02Y373284I1044J-934D01*
G03X-215665Y373368I-186J-167D01*
G01X-216565D01*
G03X-216815Y373118I0J-250D01*
G01Y370102D01*
G03X-216565Y369852I250J0D01*
G01X-203564D01*
G02X-203387Y369779I0J-250D01*
G01X-197727Y364119D01*
G03X-197550Y364046I177J177D01*
G01X-156116D01*
G02X-155868Y364034I0J-2600D01*
G01X-155856Y364033D01*
X-152724D01*
G02Y358833I0J-2600D01*
G01X-157180D01*
X-157193Y358846D01*
X-199705D01*
G02X-199881Y358919I0J250D01*
G01X-205541Y364579D01*
G03X-205718Y364652I-177J-177D01*
G01X-217204D01*
G03X-217381Y364579I0J-250D01*
G01X-240030Y341930D01*
G03X-240103Y341753I177J-177D01*
G01Y323843D01*
G02X-240176Y323666I-250J0D01*
G01X-262847Y300995D01*
G02X-263024Y300922I-177J177D01*
G01X-301636D01*
G03X-301813Y300849I0J-250D01*
G01X-302750Y299911D01*
G02X-302927Y299838I-177J177D01*
G37*
G36*
G01X-92720Y7866D02*
X-92713Y7818D01*
G02X-94651Y6337I-1387J-194D01*
G01X-94698Y6357D01*
X-191170D01*
G02X-191347Y6430I0J250D01*
G01X-195643Y10726D01*
X-195795Y10754D01*
X-195866Y10723D01*
G02X-199636Y11068I-1574J3568D01*
G03X-199777Y11111I-141J-207D01*
G01X-205104D01*
G03X-205245Y11068I0J-250D01*
G02X-209636I-2195J3224D01*
G03X-209777Y11111I-141J-207D01*
G01X-215104D01*
G03X-215245Y11068I0J-250D01*
G02X-219636I-2195J3224D01*
G03X-219777Y11111I-141J-207D01*
G01X-225104D01*
G03X-225245Y11068I0J-250D01*
G02X-229636I-2195J3224D01*
G03X-229777Y11111I-141J-207D01*
G01X-235104D01*
G03X-235245Y11068I0J-250D01*
G02X-239636I-2195J3224D01*
G03X-239777Y11111I-141J-207D01*
G01X-245104D01*
G03X-245245Y11068I0J-250D01*
G02X-251334Y14510I-2195J3224D01*
G01X-251332Y14564D01*
X-251370Y14663D01*
X-267068Y30362D01*
X-267168Y30400D01*
X-267221Y30397D01*
G02X-270715Y36410I-219J3894D01*
G03X-270675Y36545I-210J136D01*
G01Y42037D01*
G03X-270715Y42173I-250J0D01*
G02Y46410I3275J2119D01*
G01X-270695Y46440D01*
X-270675Y46509D01*
Y48080D01*
G03X-270925Y48330I-250J0D01*
G01X-275691D01*
G03X-275868Y48257I0J-250D01*
G01X-283192Y40933D01*
G02X-283369Y40859I-177J177D01*
G01X-284492D01*
G03X-284678Y40776I0J-250D01*
G02Y42643I-1044J933D01*
G03X-284492Y42560I186J167D01*
G01X-284073D01*
G03X-283896Y42633I0J250D01*
G01X-276572Y49957D01*
G02X-276396Y50030I177J-177D01*
G01X-270925D01*
G03X-270675Y50280I0J250D01*
G01Y52037D01*
G03X-270715Y52173I-250J0D01*
G02Y56410I3275J2118D01*
G01X-270695Y56440D01*
X-270675Y56509D01*
Y58169D01*
G03X-270925Y58419I-250J0D01*
G01X-277476D01*
G03X-277653Y58346I0J-250D01*
G01X-284283Y51715D01*
X-284321Y51629D01*
X-284323Y51583D01*
G02X-285518Y53027I-1399J60D01*
G01X-285460Y53019D01*
X-285347Y53056D01*
X-278357Y60046D01*
G02X-278181Y60119I177J-177D01*
G01X-270925D01*
G03X-270675Y60369I0J250D01*
G01Y62037D01*
G03X-270715Y62173I-250J0D01*
G02Y66410I3275J2119D01*
G03X-270675Y66545I-210J136D01*
G01Y68219D01*
G03X-270925Y68469I-250J0D01*
G01X-289286D01*
X-289424Y68356D01*
X-289442Y68268D01*
G02X-290737Y69941I-1373J275D01*
G01X-290684Y69938D01*
X-290584Y69976D01*
X-290464Y70096D01*
G02X-290288Y70169I177J-177D01*
G01X-270925D01*
G03X-270675Y70419I0J250D01*
G01Y72073D01*
X-270695Y72142D01*
X-270715Y72173D01*
G02Y76410I3275J2119D01*
G03X-270675Y76545I-210J136D01*
G01Y78233D01*
G03X-270925Y78483I-250J0D01*
G01X-289348D01*
X-289479Y78388D01*
X-289504Y78311D01*
G02X-290756Y80147I-1330J438D01*
G01X-290703Y80144D01*
X-290603Y80182D01*
X-290602Y80183D01*
X-270925D01*
G03X-270675Y80433I0J250D01*
G01Y82073D01*
X-270695Y82142D01*
X-270715Y82173D01*
G02X-270716Y86407I3275J2118D01*
G01X-270669Y86482D01*
X-270687Y86657D01*
X-291956Y107926D01*
G03X-292132Y107999I-177J-177D01*
G01X-293749D01*
G02X-293926Y108072I0J250D01*
G01X-303220Y117366D01*
X-303272Y117386D01*
G02X-304097Y118210I488J1313D01*
G01X-304116Y118262D01*
X-309568Y123714D01*
G02X-309641Y123891I177J177D01*
G01Y240687D01*
G02X-309568Y240864I250J0D01*
G01X-304849Y245583D01*
G03X-304780Y245801I-177J177D01*
G01X-304857Y246262D01*
X-304930Y246359D01*
X-304984Y246386D01*
G02X-302712Y248658I743J1529D01*
G01X-302685Y248604D01*
X-302588Y248531D01*
X-302127Y248454D01*
G03X-301909Y248523I41J247D01*
G01X-280364Y270068D01*
G02X-280187Y270141I177J-177D01*
G01X-269898D01*
G03X-269659Y270318I0J250D01*
G01X-269496Y270854D01*
X-269551Y271010D01*
X-269619Y271056D01*
G02X-265262I2179J3235D01*
G01X-265330Y271010D01*
X-265385Y270854D01*
X-265221Y270318D01*
G03X-264982Y270141I239J73D01*
G01X-259401D01*
G02X-259224Y270068I0J-250D01*
G01X-258380Y269224D01*
G03X-258203Y269151I177J177D01*
G01X-234466D01*
G03X-234289Y269224I0J250D01*
G01X-224726Y278787D01*
G03X-224653Y278963I-177J177D01*
G01Y306520D01*
G02X-224580Y306696I250J0D01*
G01X-220465Y310812D01*
G02X-220288Y310885I177J-177D01*
G01X-218495D01*
G03X-218319Y310958I0J250D01*
G01X-204280Y324997D01*
G03X-204207Y325174I-177J177D01*
G01Y330591D01*
G03X-204457Y330841I-250J0D01*
G01X-208761D01*
X-208886Y330757D01*
X-208916Y330687D01*
G02X-209631Y333394I-2122J887D01*
G03X-209478Y333341I153J198D01*
G01X-205025D01*
G03X-204813Y333459I0J250D01*
G01X-204554Y333874D01*
X-204547Y334003D01*
X-204576Y334061D01*
G02X-204284Y335689I1258J615D01*
G03X-204207Y335870I-173J181D01*
G01Y340384D01*
G02X-204134Y340561I250J0D01*
G01X-203922Y340772D01*
G03X-203849Y340949I-177J177D01*
G01Y342048D01*
G03X-204099Y342298I-250J0D01*
G01X-210632D01*
G02X-210882Y342548I0J250D01*
G01Y354649D01*
G02X-210632Y354899I250J0D01*
G01X-203532D01*
G02X-203282Y354649I0J-250D01*
G01Y345471D01*
G03X-203032Y345221I250J0D01*
G01X-199577D01*
G03X-199400Y345295I0J250D01*
G01X-197534Y347161D01*
X-197507Y347316D01*
X-197540Y347388D01*
G02X-195679Y349249I1268J593D01*
G01X-195607Y349216D01*
X-195452Y349243D01*
X-192176Y352519D01*
G02X-191999Y352592I177J-177D01*
G01X-191099D01*
G03X-190922Y352665I0J250D01*
G01X-190252Y353335D01*
G02X-190075Y353408I177J-177D01*
G01X-164076D01*
G03X-163840Y353576I0J250D01*
G01X-163659Y354098D01*
X-163704Y354251D01*
X-163766Y354300D01*
G02X-162464Y358048I1302J1648D01*
G01X-149374D01*
G03X-149197Y358121I0J250D01*
G01X-148671Y358647D01*
G03X-148598Y358824I-177J177D01*
G01Y364911D01*
G02X-148572Y365240I2100J0D01*
G01X-148569Y365260D01*
Y369639D01*
G02X-148496Y369816I250J0D01*
G01X-146928Y371384D01*
G02X-146751Y371457I177J-177D01*
G01X-131659D01*
G02X-131482Y371384I0J-250D01*
G01X-129711Y369613D01*
G02X-129638Y369436I-177J-177D01*
G01Y364280D01*
G02X-129711Y364103I-250J0D01*
G01X-131151Y362663D01*
G02X-131328Y362590I-177J177D01*
G01X-144148D01*
G03X-144398Y362340I0J-250D01*
G01Y357084D01*
G02X-144471Y356907I-250J0D01*
G01X-146241Y355136D01*
X-146260Y355094D01*
G02X-146877Y354300I-1919J854D01*
G01X-146939Y354251D01*
X-146984Y354098D01*
X-146803Y353576D01*
G03X-146566Y353408I236J82D01*
G01X-136530D01*
G02X-136353Y353335I0J-250D01*
G01X-135683Y352665D01*
G03X-135506Y352592I177J177D01*
G01X-132967D01*
G02X-132790Y352519I0J-250D01*
G01X-128289Y348018D01*
G03X-128113Y347945I177J177D01*
G01X-123570D01*
G02X-123393Y347872I0J-250D01*
G01X-122170Y346649D01*
G03X-121993Y346576I177J177D01*
G01X-120667D01*
G02X-120490Y346503I0J-250D01*
G01X-119282Y345295D01*
G03X-119105Y345221I177J177D01*
G01X-113863D01*
G02X-113613Y344971I0J-250D01*
G01Y336871D01*
G02X-113863Y336621I-250J0D01*
G01X-114913D01*
G03X-115163Y336371I0J-250D01*
G01Y332608D01*
G02X-115236Y332431I-250J0D01*
G01X-115371Y332296D01*
G03X-115444Y332120I177J-177D01*
G01Y326741D01*
G02X-115694Y326491I-250J0D01*
G01X-115726D01*
Y305874D01*
G03X-115653Y305697I250J0D01*
G01X-112025Y302069D01*
G03X-111671I177J177D01*
G01X-103121Y310619D01*
G02X-102945Y310692I177J-177D01*
G01X-88646D01*
G03X-88483Y310753I0J250D01*
G02X-88717Y308885I912J-1063D01*
G03X-88922Y308992I-205J-144D01*
G01X-102240D01*
G03X-102417Y308919I0J-250D01*
G01X-107478Y303858D01*
G03X-107516Y303554I177J-177D01*
G01X-107226Y303063D01*
X-107066Y303000D01*
X-106984Y303024D01*
G02X-109137Y301443I1093J-3744D01*
G03X-109181Y301770I-208J139D01*
G01X-109211Y301796D01*
G03X-109552Y301784I-164J-189D01*
G01X-110376Y300960D01*
G03X-110449Y300783I177J-177D01*
G01Y286529D01*
G03X-110376Y286353I250J0D01*
G01X-105419Y281396D01*
G03X-105242Y281323I177J177D01*
G01X-81314D01*
X-81182Y281419D01*
X-81157Y281497D01*
G02X-73724I3717J-1183D01*
G01X-73700Y281419D01*
X-73568Y281323D01*
X-48044D01*
G03X-47882Y281382I0J250D01*
G02X-46071I906J-1068D01*
G03X-45910Y281323I162J191D01*
G01X-31302D01*
X-31171Y281418D01*
X-31146Y281495D01*
G02X-24205Y278098I3705J-1220D01*
G01X-24255Y278023D01*
X-24238Y277845D01*
X-22557Y276164D01*
G03X-22381Y276091I177J177D01*
G01X-22158D01*
G02X-21981Y276018I0J-250D01*
G01X-19610Y273646D01*
X-19442Y273624D01*
X-19369Y273665D01*
G02X-14205Y268098I1928J-3390D01*
G01X-14255Y268023D01*
X-14238Y267845D01*
X-14129Y267736D01*
G02X-14056Y267559I-177J-177D01*
G01Y262278D01*
G03X-14025Y262157I250J0D01*
G02Y258393I-3416J-1882D01*
G03X-14056Y258272I219J-121D01*
G01Y252278D01*
G03X-14025Y252157I250J0D01*
G02Y248393I-3416J-1882D01*
G03X-14056Y248272I219J-121D01*
G01Y242278D01*
G03X-14025Y242157I250J0D01*
G02Y238393I-3416J-1882D01*
G03X-14056Y238272I219J-121D01*
G01Y232278D01*
G03X-14025Y232157I250J0D01*
G02Y228393I-3416J-1882D01*
G03X-14056Y228272I219J-121D01*
G01Y222278D01*
G03X-14025Y222157I250J0D01*
G02Y218393I-3416J-1882D01*
G03X-14056Y218272I219J-121D01*
G01Y212278D01*
G03X-14025Y212157I250J0D01*
G02Y208393I-3416J-1882D01*
G03X-14056Y208272I219J-121D01*
G01Y162278D01*
G03X-14025Y162158I250J0D01*
G02Y158393I-3416J-1882D01*
G03X-14056Y158272I219J-121D01*
G01Y152278D01*
G03X-14025Y152158I250J0D01*
G02Y148393I-3416J-1882D01*
G03X-14056Y148272I219J-121D01*
G01Y142278D01*
G03X-14025Y142158I250J0D01*
G02Y138393I-3416J-1882D01*
G03X-14056Y138272I219J-121D01*
G01Y132278D01*
G03X-14025Y132158I250J0D01*
G02Y128393I-3416J-1882D01*
G03X-14056Y128272I219J-121D01*
G01Y122278D01*
G03X-14025Y122158I250J0D01*
G02Y118393I-3416J-1882D01*
G03X-14056Y118272I219J-121D01*
G01Y112278D01*
G03X-14025Y112158I250J0D01*
G02Y108393I-3416J-1882D01*
G03X-14056Y108272I219J-121D01*
G01Y102278D01*
G03X-14025Y102158I250J0D01*
G02Y98393I-3416J-1882D01*
G03X-14056Y98272I219J-121D01*
G01Y92278D01*
G03X-14025Y92158I250J0D01*
G02Y88393I-3416J-1882D01*
G03X-14056Y88273I219J-121D01*
G01Y82278D01*
G03X-14025Y82158I250J0D01*
G02Y78393I-3416J-1882D01*
G03X-14056Y78272I219J-121D01*
G01Y72278D01*
G03X-14025Y72158I250J0D01*
G02Y68393I-3416J-1882D01*
G03X-14056Y68272I219J-121D01*
G01Y50065D01*
G02X-14129Y49888I-250J0D01*
G01X-16179Y47838D01*
G03X-16251Y47635I177J-177D01*
G01X-16204Y47192D01*
X-16144Y47096D01*
X-16097Y47065D01*
G02X-18255Y45967I-760J-1176D01*
G01X-18252Y46020D01*
X-18290Y46120D01*
X-18708Y46538D01*
G03X-18885Y46611I-177J-177D01*
G01X-64603D01*
G03X-64779Y46538I0J-250D01*
G01X-72632Y38685D01*
G03X-72686Y38412I177J-177D01*
G01X-72657Y38342D01*
X-72531Y38258D01*
X-69265D01*
G03X-69088Y38331I0J250D01*
G01X-68263Y39156D01*
X-68225Y39256D01*
X-68228Y39309D01*
G02X-66908Y37989I1398J78D01*
G01X-66961Y37992D01*
X-67061Y37954D01*
X-68190Y36825D01*
G03X-68244Y36552I177J-177D01*
G01X-68215Y36482D01*
X-68089Y36398D01*
X-40257D01*
G03X-40080Y36471I0J250D01*
G01X-39554Y36997D01*
X-39516Y37097D01*
X-39519Y37150D01*
G02X-38199Y35830I1398J78D01*
G01X-38252Y35833D01*
X-38352Y35795D01*
X-38905Y35242D01*
G03X-38959Y34970I177J-177D01*
G01X-38930Y34900D01*
X-38804Y34815D01*
X-32063D01*
G03X-31886Y34888I0J250D01*
G01X-31251Y35523D01*
X-31213Y35623D01*
X-31216Y35676D01*
G02X-29896Y34356I1398J78D01*
G01X-29949Y34359D01*
X-30049Y34321D01*
X-31182Y33188D01*
G02X-31358Y33115I-177J177D01*
G01X-54236D01*
G03X-54439Y33010I0J-250D01*
G01X-54711Y32628D01*
X-54728Y32508D01*
X-54708Y32450D01*
G02X-57045Y31025I-1322J-460D01*
G03X-57226Y31103I-181J-172D01*
G01X-72568D01*
G03X-72818Y30853I0J-250D01*
G01Y12772D01*
G02X-72891Y12595I-250J0D01*
G01X-74909Y10577D01*
G02X-75086Y10504I-177J177D01*
G01X-76508D01*
X-76537Y10497D01*
G02X-78344I-904J3794D01*
G01X-78373Y10504D01*
X-86508D01*
X-86537Y10497D01*
G02X-88344I-904J3794D01*
G01X-88373Y10504D01*
X-90666D01*
G03X-90854Y10419I0J-250D01*
G01X-91137Y10096D01*
X-91169Y9993D01*
X-91162Y9939D01*
G02X-92305Y8379I-1388J-181D01*
G01X-92353Y8371D01*
X-92436Y8319D01*
X-92696Y7960D01*
X-92720Y7866D01*
G37*
G54D47*
X-291775Y12181D03*
X-10451Y403570D03*
G54D48*
X-293433Y390506D03*
G54D52*
X-303969Y264737D03*
X-99206Y316549D03*
X-94989Y316651D03*
X-91051Y316574D03*
X-91026Y320969D03*
X-94964Y321046D03*
X-102334Y338640D03*
G54D50*
X-312724Y353104D03*
Y392908D03*
X-306741Y343104D03*
Y382908D03*
G54D46*
X-311219Y289532D03*
G54D45*
X-64089Y395865D03*
G54D55*
X-10507Y330491D03*
G54D54*
X-198618Y352535D03*
G54D53*
X-236241Y336839D03*
X-186979Y369149D03*
G54D51*
X-302032Y256790D03*
G54D49*
X-316179Y21682D03*
Y11683D03*
Y41682D03*
Y31682D03*
Y61683D03*
Y51683D03*
Y81682D03*
Y71682D03*
Y101683D03*
Y91683D03*
X-306179Y21682D03*
Y41682D03*
Y31682D03*
Y61683D03*
Y51683D03*
Y81682D03*
Y71682D03*
Y101683D03*
Y91683D03*
X-77441Y300314D03*
Y290314D03*
X-17441Y280275D03*
Y290275D03*
X-27441D03*
X-17441Y300275D03*
Y350275D03*
X-27441D03*
X-17441Y360275D03*
%LPD*%
G75*
G36*
G01X-310423Y304132D02*
X-310399Y304156D01*
G03X-307681Y306792I-170J2895D01*
G01X-307677Y306836D01*
X-307640Y306915D01*
X-306583Y307972D01*
G02X-306406Y308045I177J-177D01*
G01X-303386D01*
G02X-303209Y307972I0J-250D01*
G01X-302161Y306924D01*
G02X-302088Y306747I-177J-177D01*
G01Y301809D01*
G02X-302161Y301632I-250J0D01*
G01X-303082Y300711D01*
G02X-303259Y300638I-177J177D01*
G01X-309023D01*
G02X-309200Y300711I0J250D01*
G01X-310350Y301861D01*
G02X-310423Y302038I177J177D01*
G01Y304132D01*
G37*
G36*
G01X-282499Y326350D02*
X-286232Y330083D01*
G02X-286305Y330260I177J177D01*
G01Y334152D01*
G02X-286133Y334389I250J0D01*
G01X-285606Y334564D01*
X-285451Y334515D01*
X-285403Y334450D01*
G03X-283668Y341809I3978J2947D01*
G01X-283741Y341772D01*
X-283901Y341798D01*
X-283958Y341855D01*
G02Y342209I177J177D01*
G01X-283938Y342229D01*
G03X-283865Y342406I-177J177D01*
G01Y393523D01*
G02X-283757Y393728I250J0D01*
G01X-283367Y393997D01*
X-283245Y394012D01*
X-283187Y393990D01*
G03X-285819Y400897I1762J4626D01*
G01X-285859Y400820D01*
X-286016Y400749D01*
X-286572Y400885D01*
G02X-286762Y401128I59J243D01*
G01Y405192D01*
G02X-286689Y405369I250J0D01*
G01X-285415Y406643D01*
G02X-285238Y406716I177J-177D01*
G01X-259144D01*
G02X-258967Y406643I0J-250D01*
G01X-232020Y379696D01*
G02X-231949Y379492I-177J-177D01*
G01X-231998Y379047D01*
X-232058Y378951D01*
X-232107Y378920D01*
G03X-231793Y376406I749J-1183D01*
G01X-231716Y376381D01*
X-231621Y376250D01*
Y359964D01*
G02X-231694Y359787I-250J0D01*
G01X-245540Y345941D01*
G03X-245613Y345764I177J-177D01*
G01Y327511D01*
G02X-245686Y327334I-250J0D01*
G01X-246670Y326350D01*
G02X-246847Y326277I-177J177D01*
G01X-282322D01*
G02X-282499Y326350I0J250D01*
G37*
G36*
G01X-158113Y85205D02*
X-158067Y85186D01*
X-154694D01*
G02X-154517Y85113I0J-250D01*
G01X-153519Y84115D01*
G02X-153446Y83938I-177J-177D01*
G01Y75686D01*
G02X-153519Y75509I-250J0D01*
G01X-155075Y73953D01*
G02X-155252Y73880I-177J177D01*
G01X-159134D01*
G02X-159311Y73953I0J250D01*
G01X-161363Y76005D01*
G02X-161436Y76182I177J177D01*
G01Y84142D01*
G02X-161363Y84319I250J0D01*
G01X-160531Y85151D01*
G02X-160354Y85224I177J-177D01*
G01X-158209D01*
G02X-158113Y85205I0J-250D01*
G37*
G36*
G01X-146419Y370657D02*
X-131991D01*
G02X-131814Y370584I0J-250D01*
G01X-130511Y369281D01*
G02X-130438Y369104I-177J-177D01*
G01Y364612D01*
G02X-130511Y364435I-250J0D01*
G01X-131483Y363463D01*
G02X-131660Y363390I-177J177D01*
G01X-146471D01*
G02X-146648Y363463I0J250D01*
G01X-147696Y364511D01*
G02X-147769Y364688I177J177D01*
G01Y369307D01*
G02X-147696Y369484I250J0D01*
G01X-146596Y370584D01*
G02X-146419Y370657I177J-177D01*
G37*
G36*
G01X-86890Y72643D02*
X-86844Y72624D01*
X-83471D01*
G02X-83294Y72551I0J-250D01*
G01X-82296Y71553D01*
G02X-82223Y71376I-177J-177D01*
G01Y63124D01*
G02X-82296Y62947I-250J0D01*
G01X-83852Y61391D01*
G02X-84029Y61318I-177J177D01*
G01X-87911D01*
G02X-88088Y61391I0J250D01*
G01X-90140Y63443D01*
G02X-90213Y63620I177J177D01*
G01Y71580D01*
G02X-90140Y71757I250J0D01*
G01X-89308Y72589D01*
G02X-89131Y72662I177J-177D01*
G01X-86986D01*
G02X-86890Y72643I0J-250D01*
G37*
G36*
G01X-46705Y392285D02*
X-45649Y391229D01*
G02X-45576Y391052I-177J-177D01*
G01Y388031D01*
G02X-45649Y387854I-250J0D01*
G01X-46696Y386807D01*
G02X-46873Y386734I-177J177D01*
G01X-53916D01*
G02X-54093Y386807I0J250D01*
G01X-55099Y387813D01*
G02X-55172Y387990I177J177D01*
G01Y393651D01*
G02X-55099Y393828I250J0D01*
G01X-53932Y394995D01*
G02X-53755Y395068I177J-177D01*
G01X-49488D01*
X-49464Y395044D01*
G03X-46829Y392326I2895J170D01*
G01X-46785Y392322D01*
X-46705Y392285D01*
G37*
%LPC*%
G75*
G36*
G01X-271773Y389056D02*
X-265172D01*
G02X-264922Y388806I0J-250D01*
G01Y382206D01*
G02X-265172Y381956I-250J0D01*
G01X-271773D01*
G02X-272023Y382206I0J250D01*
G01Y388806D01*
G02X-271773Y389056I250J0D01*
G37*
G54D52*
X-245926Y369402D03*
X-235843Y372778D03*
G54D50*
X-268472Y355506D03*
X-258473Y350506D03*
Y360506D03*
X-268472Y375506D03*
Y365506D03*
X-258473Y370506D03*
Y380506D03*
%LPD*%
G75*
G54D10*
X-325413Y3233D03*
X-325514Y49386D03*
X-325650Y90431D03*
X-325413Y126405D03*
X-311585Y146793D03*
X-325720Y160078D03*
X-325616Y186857D03*
X-325751Y215934D03*
X-325683Y241156D03*
X-325818Y263403D03*
X-325244Y324194D03*
X-324976Y354418D03*
X-324705Y385052D03*
X-325652Y410204D03*
X-293262Y3199D03*
X-292854Y27004D03*
X-302784Y118698D03*
X-292383Y106387D03*
X-302785Y134806D03*
X-299541Y137451D03*
X-304209Y142009D03*
X-303812Y146736D03*
X-304209Y171691D03*
X-304565Y161757D03*
X-299895Y186314D03*
X-293246Y196822D03*
X-304318Y213671D03*
X-301990Y220927D03*
X-301988Y241883D03*
X-293868Y287814D03*
X-299483Y319458D03*
X-294436Y308607D03*
X-304115Y410204D03*
X-285722Y41710D03*
X-290758Y46140D03*
X-291772Y61084D03*
X-285722Y51642D03*
X-290834Y78749D03*
X-288526Y75082D03*
X-290815Y68543D03*
X-276966Y85358D03*
X-282635Y140544D03*
Y169197D03*
X-291402Y177129D03*
X-279524Y184335D03*
X-281928Y208468D03*
X-279039Y204416D03*
X-277571Y194401D03*
X-290516Y196683D03*
X-281544Y223890D03*
X-273920Y272194D03*
X-285418Y268202D03*
X-277008Y303522D03*
X-275005Y323853D03*
X-289777Y335689D03*
X-286500Y355026D03*
X-287106Y382617D03*
X-279197Y410272D03*
X-266955Y3201D03*
X-257865Y31393D03*
X-269593Y27950D03*
X-257984Y35429D03*
X-272771Y56723D03*
X-272940Y46783D03*
X-272841Y76364D03*
X-272469Y67303D03*
X-258063Y179804D03*
X-258290Y187175D03*
X-255497Y208254D03*
X-271529Y205832D03*
X-262327Y219527D03*
X-262458Y236147D03*
Y231347D03*
X-261072Y271991D03*
X-257827Y300594D03*
X-266011Y307371D03*
X-238149Y3436D03*
X-248169Y40653D03*
X-243464Y37606D03*
X-237950Y53385D03*
X-237990Y57430D03*
X-238033Y61457D03*
X-238660Y79333D03*
X-247557Y64795D03*
X-238545Y66758D03*
X-238506Y69319D03*
X-239225Y87710D03*
X-252918Y87472D03*
X-252939Y97664D03*
X-251730Y137281D03*
X-247818Y123209D03*
X-245723Y131948D03*
X-254494Y129311D03*
X-237900Y136725D03*
X-251477Y139989D03*
X-244784Y142107D03*
X-245169Y139700D03*
X-236310Y147933D03*
X-239367Y155324D03*
X-237836Y139126D03*
X-239415Y152797D03*
X-244965Y158334D03*
X-243051Y164244D03*
X-242930Y161704D03*
X-240932Y159658D03*
X-236292Y208169D03*
X-240922Y204226D03*
X-253733Y227961D03*
X-251748Y229844D03*
X-237112Y218638D03*
X-253601Y242422D03*
X-250158Y242509D03*
X-252054Y245369D03*
X-249413Y230559D03*
X-254462Y263614D03*
X-246189Y249455D03*
X-236241Y336839D03*
X-248210Y324504D03*
X-236179Y325477D03*
X-239165Y328190D03*
X-239177Y325477D03*
X-236198Y328126D03*
X-249945Y331906D03*
X-249869Y328323D03*
X-246642Y328399D03*
X-246718Y331982D03*
X-242209Y394719D03*
X-252521Y410136D03*
X-221041Y9184D03*
X-227312Y42078D03*
X-227441Y38754D03*
X-228860Y53512D03*
X-224603Y67508D03*
X-221297Y68524D03*
X-234458Y136099D03*
X-231172Y133032D03*
X-231654Y152149D03*
X-220908Y139062D03*
X-223446Y145850D03*
X-228585Y139062D03*
X-231123Y145850D03*
X-220887D03*
X-223467Y139062D03*
X-218482Y139689D03*
X-228564Y145850D03*
X-231144Y139062D03*
X-228170Y152128D03*
X-222089Y153099D03*
X-234114Y139034D03*
X-219441Y206395D03*
X-228906Y202217D03*
X-224250Y197297D03*
X-223455Y207730D03*
X-219417Y203988D03*
X-227730Y214573D03*
X-227756Y219794D03*
X-232709Y222901D03*
X-222081D03*
X-218224Y215927D03*
X-225827Y266710D03*
X-230440Y276116D03*
X-225798Y270985D03*
X-229814Y270441D03*
X-227398Y304246D03*
X-219703Y299112D03*
X-220465Y290272D03*
X-219677Y305819D03*
X-228010Y339972D03*
X-220198Y340010D03*
X-224285Y324556D03*
X-233101Y336250D03*
Y328339D03*
X-220871Y351201D03*
X-227530Y345261D03*
X-221463Y371326D03*
X-224531Y376392D03*
X-231358Y377737D03*
X-236098Y386471D03*
X-236078Y390781D03*
X-234127Y388572D03*
X-225436Y384872D03*
X-199809Y3842D03*
X-207440Y36652D03*
X-202617Y34717D03*
X-215530Y45041D03*
X-205016Y54185D03*
X-210187Y56329D03*
X-210334Y53674D03*
X-200103Y60909D03*
X-200074Y56724D03*
X-207271Y63782D03*
X-211693Y68970D03*
X-205408Y132991D03*
X-214998Y154656D03*
X-215769Y145850D03*
X-205501Y151958D03*
X-210706Y139059D03*
X-205598Y143374D03*
X-205520Y139073D03*
X-201787Y142625D03*
X-199812Y141097D03*
X-206134Y156392D03*
X-203935Y183811D03*
X-207010Y209911D03*
X-206925Y203978D03*
X-207095Y207213D03*
X-207103Y197996D03*
X-216374Y207523D03*
X-216354Y209858D03*
X-212501Y193804D03*
X-216671Y201488D03*
X-204541Y221460D03*
X-206376Y216135D03*
X-206979Y221514D03*
X-202886Y226307D03*
X-201743Y228670D03*
X-206500Y231328D03*
X-203916Y240692D03*
X-204029Y237675D03*
X-206935Y248366D03*
X-216914Y230405D03*
X-207115Y256930D03*
X-201908Y264539D03*
X-206876Y260872D03*
X-216845Y255406D03*
X-206915Y251002D03*
X-211939Y267004D03*
X-201908Y268032D03*
X-206392Y274288D03*
X-211980Y282880D03*
X-206722Y277558D03*
X-214851Y287338D03*
X-206595Y297131D03*
X-206747Y306149D03*
X-203318Y334676D03*
X-201616Y325887D03*
X-206438Y328249D03*
X-215311Y329208D03*
Y339410D03*
X-206290Y334067D03*
X-202656Y350744D03*
X-213367Y359772D03*
X-217061Y356017D03*
X-209689D03*
X-215541Y348015D03*
X-214435Y374218D03*
X-214351Y371391D03*
X-217032Y363532D03*
X-209718Y363475D03*
X-203595Y381130D03*
X-212318Y410204D03*
X-201616Y405703D03*
X-207052Y397777D03*
X-212539Y405754D03*
X-189403Y42514D03*
X-183296Y61233D03*
X-188255Y44769D03*
X-188521Y122005D03*
X-197802Y133007D03*
X-186090Y121933D03*
X-197032Y152423D03*
X-196996Y155348D03*
X-196610Y140663D03*
X-184354Y174061D03*
Y171761D03*
X-182433Y164704D03*
X-195828Y159115D03*
X-187954Y163178D03*
X-184458Y160593D03*
X-182686Y162355D03*
X-190057Y157900D03*
X-191778Y156361D03*
X-187941Y158832D03*
X-197912Y178376D03*
X-195773Y192655D03*
X-180565Y182644D03*
X-184295Y176421D03*
X-193101Y183651D03*
X-186573Y174723D03*
X-191429Y193474D03*
X-187232Y197619D03*
X-186657Y195337D03*
X-196687Y221862D03*
X-192953Y216654D03*
X-197475Y231235D03*
X-183796Y236827D03*
X-182586Y262987D03*
X-184955Y263038D03*
X-185645Y266636D03*
X-187101Y254190D03*
X-183122Y254119D03*
X-194059Y268001D03*
X-184205Y279771D03*
X-192459Y277134D03*
X-184161Y277045D03*
X-194446Y285183D03*
X-197824Y279442D03*
X-183520Y282036D03*
X-180639Y284228D03*
X-181008Y281939D03*
X-193512Y296521D03*
X-181396Y286537D03*
X-193817Y305844D03*
X-196977Y335182D03*
X-185168Y325887D03*
X-196672D03*
X-191659D03*
X-193220Y335349D03*
X-188642Y335090D03*
X-196272Y347981D03*
X-186913Y356138D03*
X-184034Y354834D03*
X-186979Y369149D03*
X-183549Y366659D03*
X-182768Y410004D03*
X-173775Y3504D03*
X-172341Y31390D03*
X-162526Y33649D03*
X-173686Y44829D03*
X-175425Y172730D03*
X-178771Y158562D03*
X-175545Y166928D03*
X-177716Y160937D03*
X-179617Y192725D03*
X-164611Y175517D03*
X-177314Y183829D03*
X-170522Y193283D03*
X-169100Y209632D03*
X-176060Y204181D03*
X-170565Y195687D03*
Y198039D03*
X-170421Y200494D03*
X-178114Y214218D03*
X-167602Y212022D03*
X-166176Y248366D03*
X-177989Y265185D03*
X-167606Y262248D03*
X-167799Y264586D03*
X-175802Y259323D03*
X-173940Y257379D03*
X-171226Y255243D03*
X-176721Y282553D03*
X-176735Y280189D03*
X-170712Y277407D03*
X-172431Y267969D03*
X-163452Y268070D03*
X-164243Y283791D03*
X-163186Y276989D03*
X-166219Y279897D03*
X-166177Y277295D03*
X-175498Y297604D03*
X-162290Y304558D03*
X-177965Y335108D03*
X-179274Y357447D03*
X-164071Y366896D03*
X-146763Y3436D03*
X-157341Y43028D03*
X-152809Y47156D03*
X-146387Y100003D03*
X-144914Y85771D03*
X-148190Y154597D03*
X-155760Y155283D03*
X-147120Y143795D03*
X-156652Y183616D03*
X-150274Y202043D03*
X-152328Y197282D03*
X-148132Y209122D03*
X-155979Y200095D03*
X-149565Y227933D03*
X-151400Y244500D03*
X-150900Y238000D03*
X-154700Y248500D03*
X-159800Y259500D03*
X-148164Y255866D03*
X-143926Y256130D03*
X-144858Y266631D03*
X-148041Y258569D03*
X-159870Y267427D03*
X-154767Y267672D03*
X-146364Y282524D03*
X-144535Y285815D03*
X-146809Y277215D03*
X-158670Y328882D03*
X-161316Y340905D03*
X-150057Y345091D03*
X-158631Y383632D03*
X-150919Y410071D03*
X-132290Y40653D03*
X-137114Y53849D03*
X-135099Y57315D03*
X-137720Y83916D03*
X-137470Y111336D03*
X-139807Y116577D03*
X-130966Y148145D03*
X-136984Y144310D03*
X-131500Y159574D03*
X-133303Y171132D03*
X-131500Y164669D03*
X-126601Y181674D03*
X-125026Y179540D03*
X-136051Y192745D03*
X-135073Y183795D03*
X-141549Y194342D03*
X-131902Y211652D03*
X-131874Y208701D03*
X-126575Y193461D03*
X-132105Y198421D03*
X-132162Y204937D03*
X-133684Y228444D03*
X-139933Y215775D03*
X-132517Y215580D03*
X-132342Y219220D03*
X-133917Y242540D03*
X-135167Y233282D03*
X-134040Y231022D03*
X-132037Y262859D03*
X-133376Y250234D03*
X-125555Y267280D03*
X-137700Y257800D03*
X-140749Y276990D03*
X-126446Y325717D03*
X-135485Y325695D03*
X-134301Y346275D03*
X-137401Y348283D03*
X-132962Y378831D03*
X-128406Y362729D03*
X-116940Y3504D03*
X-115514Y42470D03*
X-110325Y31390D03*
X-120792Y42079D03*
X-110441Y45174D03*
X-118754Y54996D03*
X-115078Y59528D03*
X-110681Y62104D03*
X-124480Y95269D03*
X-116501Y108023D03*
X-118795Y125030D03*
Y157392D03*
X-123603Y167880D03*
X-116378Y163027D03*
X-119208Y160720D03*
X-124010Y185866D03*
X-111081Y180750D03*
X-124162Y182512D03*
X-117300Y200831D03*
X-109854Y195948D03*
X-122857Y209657D03*
X-112858Y197145D03*
X-122618Y218704D03*
X-118421Y225139D03*
X-122341Y230982D03*
X-120500Y247120D03*
X-122600Y242718D03*
X-117236Y236808D03*
X-108696Y253010D03*
X-111200Y253177D03*
X-112699Y257215D03*
X-112916Y262102D03*
X-123069Y328323D03*
X-120223Y330470D03*
X-114303Y325985D03*
X-114473Y330692D03*
X-108941Y330711D03*
X-120045Y335641D03*
X-120071Y325960D03*
X-109043Y326239D03*
X-108865Y335794D03*
X-114531Y335590D03*
X-118665Y358917D03*
X-118178Y346441D03*
X-115522Y346542D03*
X-112854Y372385D03*
X-112549Y366947D03*
X-112422Y361153D03*
X-106447Y384431D03*
X-112773Y381891D03*
X-119949Y410206D03*
X-92769Y3504D03*
X-92550Y9758D03*
X-94100Y7624D03*
X-88255Y39738D03*
X-102429Y26940D03*
X-100068Y44260D03*
X-88280Y42253D03*
X-103048Y71500D03*
X-102948Y64317D03*
X-102849Y66751D03*
X-102949Y69066D03*
X-91748Y99546D03*
X-91045Y107891D03*
X-101600Y128763D03*
X-89661Y141667D03*
X-87984Y174477D03*
X-104856Y168287D03*
X-91743Y168823D03*
X-93725Y165495D03*
X-92380Y184167D03*
X-90245Y180788D03*
X-90630Y216946D03*
X-90668Y219283D03*
X-90783Y221595D03*
X-90757Y223970D03*
X-91115Y240787D03*
X-95017Y286967D03*
X-98804Y291345D03*
X-103808Y358701D03*
X-95359Y357088D03*
X-89255Y356132D03*
X-90116Y347901D03*
X-103147Y349566D03*
X-90106Y351008D03*
X-90126Y353481D03*
X-93173Y351086D03*
X-105075Y369722D03*
X-97555Y369391D03*
X-94923Y364487D03*
X-93615Y375867D03*
X-89331Y382589D03*
X-91852Y379007D03*
X-99232Y383796D03*
X-105059Y405754D03*
X-99572Y397777D03*
X-94136Y405703D03*
X-70589Y3267D03*
X-71195Y29708D03*
X-70353Y39545D03*
X-72529Y109355D03*
X-70273Y119173D03*
X-87291Y128672D03*
X-69496Y162048D03*
X-70930Y170966D03*
X-83971Y186986D03*
X-83822Y200955D03*
X-83619Y198186D03*
X-77738Y220033D03*
X-71209Y219600D03*
X-81434Y246706D03*
X-87571Y309690D03*
X-75465Y335361D03*
X-69813Y335425D03*
X-77841Y335501D03*
X-81213Y368864D03*
X-81677Y361757D03*
X-85869Y409868D03*
X-58459Y20717D03*
X-62662Y13532D03*
X-63268Y44526D03*
X-66830Y39387D03*
X-56030Y31990D03*
X-62372Y57990D03*
X-63965Y49492D03*
X-58466Y53774D03*
X-55855Y67845D03*
X-51228Y75075D03*
X-53874Y94731D03*
X-58662Y111317D03*
X-52293Y100946D03*
X-64020Y103144D03*
X-60740Y106109D03*
X-50529Y133694D03*
X-52192Y136306D03*
X-68156Y121963D03*
X-65168Y144185D03*
X-54554Y157519D03*
X-58400Y208576D03*
X-52014Y200803D03*
X-67151Y193576D03*
X-52147Y226623D03*
X-65034Y214627D03*
X-54265Y246253D03*
X-66909Y248509D03*
X-52206Y248528D03*
X-60908Y244072D03*
X-65030Y237427D03*
X-67092Y257548D03*
X-62877Y255193D03*
X-67081Y268162D03*
X-57542Y278467D03*
X-51831Y318717D03*
X-67290Y315420D03*
X-55408Y335361D03*
X-63352Y335236D03*
X-59380D03*
X-67310Y335361D03*
X-63708Y344052D03*
X-61116Y344734D03*
X-66805Y377840D03*
X-60217Y381965D03*
X-45300Y40000D03*
X-38121Y37228D03*
X-40751Y56980D03*
X-44731Y66474D03*
X-44447Y78594D03*
X-44350Y74597D03*
X-44395Y94711D03*
X-44261Y86627D03*
X-48657Y91724D03*
X-44370Y90636D03*
X-44194Y82602D03*
X-50470Y98669D03*
X-44316Y98659D03*
X-47996Y130489D03*
X-37662Y138130D03*
X-45108Y168896D03*
X-35604Y177333D03*
X-32795Y204381D03*
X-39606Y212094D03*
X-44316Y229112D03*
X-49302Y219218D03*
X-37239Y220275D03*
X-42832Y236873D03*
X-38098Y243838D03*
X-36698Y233486D03*
X-42689Y234222D03*
X-33433Y241935D03*
X-49540Y239248D03*
X-38181Y262063D03*
X-38023Y252621D03*
X-45083Y268138D03*
X-46977Y280314D03*
X-47461Y284535D03*
X-49540Y273411D03*
X-37425Y270157D03*
X-46659Y311576D03*
X-49676Y309773D03*
X-47492Y339906D03*
X-47156Y327609D03*
X-47403Y351878D03*
X-40240Y354332D03*
X-47472Y349484D03*
X-47264Y373922D03*
X-39804Y360407D03*
X-36574Y367183D03*
X-39606Y367847D03*
X-38740Y385185D03*
X-42016Y381960D03*
X-29282Y6241D03*
Y20543D03*
X-29818Y35754D03*
X-21348Y52462D03*
X-16857Y45889D03*
X-24811Y44905D03*
X-29289Y54042D03*
X-17580Y52261D03*
X-30220Y186123D03*
X-16843Y187441D03*
X-22628Y255312D03*
X-17065Y316857D03*
X-27276Y340961D03*
X-26566Y409936D03*
X-3440Y3675D03*
X-3305Y25989D03*
X-12264Y54424D03*
X-3237Y70889D03*
X-3152Y97633D03*
X-11267Y107607D03*
X-6973Y135599D03*
X-3152Y126676D03*
X-3322Y146894D03*
X-7176Y157981D03*
X-3254Y175565D03*
X-12586Y194329D03*
X-3305Y207820D03*
X-12873Y235290D03*
X-3372Y237167D03*
X-12298Y266040D03*
X-3440Y258940D03*
Y284974D03*
X-3237Y316316D03*
X-10513Y333815D03*
X-3339Y349889D03*
X-3578Y385455D03*
X-3477Y410173D03*
G54D20*
X-281426Y337396D03*
Y398616D03*
G54D11*
X-316179Y21682D03*
Y11683D03*
Y41682D03*
Y31682D03*
Y61683D03*
Y51683D03*
Y81682D03*
Y71682D03*
Y101683D03*
Y91683D03*
X-306179Y21682D03*
Y41682D03*
Y31682D03*
Y61683D03*
Y51683D03*
Y81682D03*
Y71682D03*
Y101683D03*
Y91683D03*
X-267440Y34291D03*
Y44291D03*
Y54291D03*
Y64291D03*
Y74291D03*
Y94291D03*
Y84291D03*
Y124291D03*
Y134291D03*
Y144291D03*
Y154291D03*
Y174291D03*
Y164291D03*
Y184291D03*
Y214291D03*
Y224291D03*
Y234291D03*
Y244291D03*
Y264291D03*
Y254291D03*
Y274291D03*
X-247441Y14291D03*
Y24291D03*
X-237441Y14291D03*
Y24291D03*
X-227441Y14291D03*
Y24291D03*
X-217440Y14291D03*
Y24291D03*
X-207440Y14291D03*
Y24291D03*
X-197440Y14291D03*
Y24291D03*
X-187440Y14291D03*
Y24291D03*
X-177440Y14291D03*
Y24291D03*
X-167440Y14291D03*
Y24291D03*
X-177441Y133779D03*
X-167441D03*
X-177441Y143779D03*
X-167441D03*
X-157440Y14291D03*
Y24291D03*
X-147440Y14291D03*
Y24291D03*
X-157441Y133779D03*
X-137440Y14291D03*
Y24291D03*
X-127440Y14291D03*
Y24291D03*
X-139543Y299272D03*
X-117440Y14291D03*
Y24291D03*
X-107440Y14291D03*
Y24291D03*
X-110295Y241679D03*
X-105891Y299280D03*
X-97440Y14291D03*
Y24291D03*
X-87440Y14291D03*
Y24291D03*
X-77440Y14291D03*
X-77441Y64291D03*
Y74291D03*
Y94291D03*
Y84291D03*
Y114291D03*
Y104291D03*
Y124291D03*
Y154291D03*
Y164291D03*
Y174291D03*
Y194291D03*
Y184291D03*
Y204291D03*
Y214291D03*
Y240314D03*
Y250314D03*
Y260314D03*
Y280314D03*
Y270314D03*
Y300314D03*
Y290314D03*
Y320314D03*
Y310314D03*
X-17441Y70275D03*
X-27441D03*
X-17441Y80275D03*
X-27441D03*
X-17441Y90275D03*
X-27441D03*
X-17441Y100275D03*
X-27441D03*
X-17441Y110275D03*
X-27441D03*
X-17441Y120275D03*
X-27441D03*
X-17441Y130275D03*
X-27441D03*
X-17441Y140275D03*
X-27441D03*
X-17441Y150275D03*
X-27441D03*
X-17441Y160275D03*
Y210275D03*
X-27441D03*
X-17441Y220275D03*
X-27441D03*
X-17441Y230275D03*
X-27441D03*
X-17441Y240275D03*
X-27441D03*
X-17441Y250275D03*
X-27441D03*
X-17441Y260275D03*
X-27441D03*
X-17441Y270275D03*
X-27441D03*
X-17441Y280275D03*
X-27441D03*
X-17441Y290275D03*
X-27441D03*
X-17441Y300275D03*
Y350275D03*
X-27441D03*
X-17441Y360275D03*
G54D21*
X-268472Y385506D03*
G54D12*
X-312671Y186379D03*
Y206379D03*
Y196379D03*
Y226379D03*
Y216379D03*
X-304241Y247915D03*
X-303969Y264737D03*
X-308110Y303446D03*
X-308071Y293205D03*
X-305328Y305708D03*
X-291466Y116719D03*
X-283043Y261780D03*
Y251780D03*
X-245926Y369402D03*
X-238849Y379056D03*
X-234169Y98163D03*
X-221793Y98229D03*
X-226793D03*
X-235894Y357969D03*
X-235843Y372778D03*
X-224061Y367495D03*
X-211793Y98229D03*
X-196793D03*
X-192508Y98493D03*
X-185797Y98814D03*
X-181417Y219731D03*
X-181620Y246633D03*
X-190282Y245820D03*
X-190276Y254759D03*
X-162464Y355948D03*
X-159595Y77487D03*
X-155302Y77462D03*
X-155251Y81704D03*
X-159544Y81729D03*
X-161276Y289942D03*
X-161550Y307937D03*
X-161626Y311722D03*
X-161677Y315406D03*
X-149724Y321363D03*
X-150779Y336467D03*
X-148179Y355948D03*
X-152724Y361433D03*
X-156116Y361446D03*
X-146037Y365372D03*
X-146015Y368662D03*
X-132226Y365410D03*
X-132217Y368535D03*
X-114195Y291373D03*
X-88372Y64925D03*
X-88321Y69167D03*
X-99206Y316549D03*
X-94989Y316651D03*
X-91051Y316574D03*
X-91026Y320969D03*
X-94964Y321046D03*
X-102334Y338640D03*
X-92233Y341320D03*
X-91065Y337877D03*
X-94025Y330686D03*
X-98853Y329771D03*
X-102919Y333303D03*
X-102588Y326239D03*
X-93872Y326214D03*
X-91128Y333926D03*
X-99323Y342388D03*
X-95499Y342261D03*
X-84079Y64900D03*
X-84028Y69142D03*
X-71520Y390468D03*
X-74992Y390477D03*
X-60446Y392783D03*
X-47912Y389974D03*
X-50174Y392756D03*
G54D30*
X-207082Y348598D03*
Y405685D03*
X-108263Y348598D03*
X-99602Y405685D03*
G54D40*
G01X-76716Y350049D02*
X-75637Y351128D01*
G01X-74357Y349549D02*
X-73078Y350828D01*
Y351128D01*
G01Y361364D02*
X-71798Y362644D01*
G01X-73078Y363924D02*
X-74357Y362644D01*
G01X-68052Y349009D02*
X-67992D01*
X-67960Y349041D01*
Y351128D01*
G01X-62352Y349127D02*
X-62841Y349616D01*
Y351128D01*
G01Y371601D02*
X-61562Y372880D01*
G01X-65401Y363924D02*
X-66680Y365203D01*
G01X-62841Y361364D02*
X-64121Y362644D01*
G01X-55164Y361364D02*
X-53885Y360085D01*
G01X-65401Y361364D02*
X-66680Y362644D01*
G01X-62841Y363924D02*
X-61562Y365203D01*
G54D13*
X-323030Y281855D03*
Y314728D03*
G54D31*
X-185311Y340921D03*
X-191807D03*
X-165625D03*
X-175468D03*
X-145980D03*
X-155822D03*
X-126295D03*
X-136137D03*
X-116413D03*
G54D22*
X-231822Y76105D03*
X-226822D03*
X-221822D03*
X-231822Y90475D03*
X-226822D03*
X-221822D03*
X-216822Y76105D03*
X-211822D03*
X-206822D03*
X-201822D03*
X-216822Y90475D03*
X-211822D03*
X-206822D03*
X-201822D03*
X-196822Y76105D03*
X-191822D03*
X-186822D03*
X-196822Y90475D03*
X-191822D03*
X-186822D03*
G54D41*
G01X-319364Y18498D02*
X-316179Y21682D01*
G01D02*
X-312995Y24867D01*
G01X-319364D02*
X-316179Y21682D01*
G01D02*
X-312995Y18498D01*
G01X-319364Y28498D02*
X-316179Y31682D01*
G01D02*
X-312995Y34867D01*
G01X-319364D02*
X-316179Y31682D01*
G01D02*
X-312995Y28498D01*
G01X-319364Y38498D02*
X-316179Y41682D01*
G01D02*
X-312995Y44867D01*
G01X-319364D02*
X-316179Y41682D01*
G01D02*
X-312995Y38498D01*
G01X-319364Y48498D02*
X-316179Y51683D01*
G01D02*
X-312995Y54867D01*
G01X-319364D02*
X-316179Y51683D01*
G01D02*
X-312995Y48498D01*
G01X-319364Y58498D02*
X-316179Y61683D01*
G01D02*
X-312995Y64867D01*
G01X-319364D02*
X-316179Y61683D01*
G01D02*
X-312995Y58498D01*
G01X-319364Y68498D02*
X-316179Y71682D01*
G01D02*
X-312995Y74867D01*
G01X-319364D02*
X-316179Y71682D01*
G01D02*
X-312995Y68498D01*
G01X-319364Y78498D02*
X-316179Y81682D01*
G01D02*
X-312995Y84867D01*
G01X-319364D02*
X-316179Y81682D01*
G01D02*
X-312995Y78498D01*
G01X-319364Y88498D02*
X-316179Y91683D01*
G01D02*
X-312995Y94867D01*
G01X-319364D02*
X-316179Y91683D01*
G01D02*
X-312995Y88498D01*
G01X-319364Y98498D02*
X-316179Y101683D01*
G01D02*
X-312995Y98498D01*
G01X-316179Y101683D02*
X-312995Y104867D01*
G01X-319364D02*
X-316179Y101683D01*
G01X-323030Y281855D02*
X-318230Y285055D01*
G01X-323030Y281855D02*
X-318230Y278654D01*
G01X-315020Y303901D02*
X-311219Y307051D01*
G01X-315020Y286382D02*
X-311219Y289532D01*
G01D02*
X-307419Y292682D01*
G01X-315020D02*
X-311219Y289532D01*
G01D02*
X-307419Y286382D01*
G01X-323030Y314728D02*
X-318230Y317929D01*
G01X-323030Y314728D02*
X-318230Y311528D01*
G01X-311219Y307051D02*
X-307419Y310202D01*
G01X-315020D02*
X-311219Y307051D01*
G01X-315662Y350167D02*
X-312724Y353104D01*
G01D02*
X-309787Y356041D01*
G01X-315662D02*
X-312724Y353104D01*
G01D02*
X-309787Y350167D01*
G01X-281426Y344436D02*
Y337396D01*
G01X-285353Y333469D02*
X-281426Y337396D01*
G01D02*
X-277498Y341323D01*
G01X-281426Y337396D02*
X-277498Y333469D01*
G01X-281451Y344462D02*
X-281426Y344436D01*
G01X-281429Y391697D02*
X-281426Y391700D01*
G01D02*
Y398616D01*
G01D02*
X-277498Y394689D01*
G01X-281426Y398616D02*
X-277498Y402543D01*
G01X-285353D02*
X-281426Y398616D01*
G01X-250625Y11107D02*
X-247441Y14291D01*
G01D02*
X-244256Y11107D01*
G01X-234169Y98163D02*
X-233096D01*
X-231822Y96888D01*
Y90475D01*
G01X-226822D02*
Y98200D01*
X-226793Y98229D01*
G01X-221822Y90475D02*
Y98200D01*
X-221793Y98229D01*
G01X-211822Y90475D02*
Y98200D01*
X-211793Y98229D01*
G01X-181417Y219731D02*
X-194956D01*
X-204776Y209911D01*
X-207010D01*
G01X-203199Y260896D02*
X-206852D01*
X-206876Y260872D01*
G01X-207082Y348598D02*
Y353410D01*
X-209689Y356017D01*
G01X-207082Y348598D02*
X-204802D01*
X-202656Y350744D01*
G01X-207082Y348598D02*
X-214958D01*
G01D02*
X-215541Y348015D01*
G01X-212539Y405754D02*
X-212471Y405685D01*
G01X-207082D02*
Y397807D01*
G01X-201616Y405703D02*
X-201634Y405685D01*
G01X-212471D02*
X-207082D01*
G01Y397807D02*
X-207052Y397777D01*
G01X-201634Y405685D02*
X-207082D01*
G01X-196822Y90475D02*
Y98200D01*
X-196793Y98229D01*
G01X-192508Y98493D02*
X-191822Y97807D01*
Y90475D01*
G01X-186822D02*
Y97790D01*
X-185797Y98814D01*
G01X-131902Y211652D02*
X-132236D01*
X-140289Y219705D01*
X-181391D01*
X-181417Y219731D01*
G01X-181620Y246633D02*
X-180375Y245388D01*
X-154412D01*
X-152200Y247600D01*
X-143300D01*
X-129347Y261553D01*
Y262831D01*
G01X-198943Y254594D02*
X-190441D01*
X-190276Y254759D01*
G01X-197599Y260896D02*
X-197448Y261047D01*
Y276099D01*
X-193662Y279885D01*
X-188947D01*
G01D02*
Y276573D01*
G01X-161276Y289942D02*
X-162238Y288980D01*
X-183454D01*
X-188947Y283487D01*
Y279885D01*
G01X-175468Y340921D02*
Y338367D01*
X-177965Y335870D01*
Y335108D01*
G01X-155840Y328902D02*
X-158650D01*
X-158670Y328882D01*
G01X-150057Y345091D02*
X-149206D01*
X-145980Y341865D01*
Y340921D01*
G01X-129543Y299272D02*
X-129347Y299076D01*
Y262831D01*
G01X-132962Y378831D02*
Y378186D01*
X-111051Y356275D01*
X-102716D01*
X-90384Y343943D01*
X-82822D01*
X-76716Y350049D01*
G01X-115522Y346542D02*
X-110319D01*
X-108263Y348598D01*
G01D02*
X-107295Y349566D01*
X-103147D01*
G01X-108263Y342048D02*
Y348598D01*
G01X-112313D02*
X-108263D01*
G01D02*
X-104213D01*
G01X-94136Y405703D02*
X-94154Y405685D01*
G01X-99602D02*
Y397807D01*
G01X-105059Y405754D02*
X-104990Y405685D01*
G01X-94154D02*
X-99602D01*
G01Y397807D02*
X-99572Y397777D01*
G01X-104990Y405685D02*
X-99602D01*
G01X-80625Y287130D02*
X-77441Y290314D01*
G01D02*
X-74256Y293499D01*
G01X-80625D02*
X-77441Y290314D01*
G01D02*
X-74256Y287130D01*
G01X-74966Y402876D02*
X-71766Y407676D01*
G01D02*
X-68566Y402876D01*
G01X-64089Y395865D02*
X-60939Y399665D01*
G01X-67239D02*
X-64089Y395865D01*
G01X-46569D02*
X-43419Y399665D01*
G01X-49719D02*
X-46569Y395865D01*
G01D02*
X-43419Y392065D01*
G01X-42092Y402876D02*
X-38892Y407676D01*
G01D02*
X-35692Y402876D01*
G01X-20626Y297090D02*
X-17441Y300275D01*
G01D02*
X-14256Y303460D01*
G01X-20626D02*
X-17441Y300275D01*
G01D02*
X-14256Y297090D01*
G01X-20626Y357090D02*
X-17441Y360275D01*
G01D02*
X-14256Y363460D01*
G01X-20626D02*
X-17441Y360275D01*
G01D02*
X-14256Y357090D01*
G01X-10507Y327940D02*
Y330491D01*
G01X-13057D02*
X-10507D01*
G01D02*
X-7957D01*
G54D14*
X-311219Y289532D03*
Y307051D03*
G54D32*
X-149719Y332250D03*
Y325250D03*
G54D23*
X-231952Y136295D03*
X-228152D03*
X-224305Y136298D03*
X-220505D03*
X-227469Y154664D03*
X-231269D03*
X-220139Y142742D03*
X-223939D03*
X-228035Y142838D03*
X-231835D03*
X-208335Y150668D03*
X-212135D03*
X-208411Y154688D03*
X-212211D03*
X-213490Y202258D03*
X-209690D03*
X-213491Y210222D03*
X-209691D03*
X-213454Y206222D03*
X-209654D03*
X-213591Y256778D03*
X-209791D03*
X-205727Y270976D03*
X-201927D03*
X-167388Y257870D03*
X-171188D03*
X-161130Y248232D03*
X-157330D03*
X-161918Y281634D03*
X-158118D03*
X-161936Y285943D03*
X-158136D03*
X-125519Y211360D03*
X-129319D03*
X-125492Y207362D03*
X-129292D03*
X-127414Y230945D03*
X-131214D03*
X-127106Y243159D03*
X-130906D03*
X-125547Y262831D03*
X-129347D03*
X-119760Y207570D03*
X-115960D03*
X-115982Y215870D03*
X-119782D03*
X-119770Y211678D03*
X-115970D03*
X-89300Y358751D03*
X-89448Y363215D03*
X-89411Y367206D03*
X-89407Y371213D03*
X-89302Y375304D03*
X-89339Y379675D03*
X-85500Y358751D03*
X-85648Y363215D03*
X-85611Y367206D03*
X-85607Y371213D03*
X-85502Y375304D03*
X-85539Y379675D03*
G54D42*
G01X-220505Y136298D02*
Y138659D01*
X-220908Y139062D01*
G01X-228152Y136295D02*
Y138629D01*
X-228585Y139062D01*
G01X-231952Y136295D02*
Y138254D01*
X-231144Y139062D01*
G01X-224305Y136298D02*
Y138224D01*
X-223467Y139062D01*
G01X-223939Y142742D02*
Y145357D01*
X-223446Y145850D01*
G01X-231835Y142838D02*
Y145138D01*
X-231123Y145850D01*
G01X-215947Y138977D02*
X-217770D01*
X-218482Y139689D01*
G01X-227469Y154664D02*
Y152829D01*
X-228170Y152128D01*
G01X-228035Y142838D02*
Y145321D01*
X-228564Y145850D01*
G01X-220139Y142742D02*
Y145102D01*
X-220887Y145850D01*
G01X-162290Y304558D02*
X-178368D01*
X-183345Y309535D01*
X-219832D01*
X-223303Y306064D01*
Y258080D01*
X-213589Y248366D01*
X-206935D01*
G01X-212211Y154688D02*
X-214966D01*
X-214998Y154656D01*
G01X-212211Y154688D02*
Y150744D01*
X-212135Y150668D01*
G01X-215947Y142777D02*
Y145672D01*
X-215769Y145850D01*
G01X-208411Y154688D02*
X-206707Y156392D01*
X-206134D01*
G01X-213454Y206222D02*
X-215073D01*
X-216374Y207523D01*
G01X-213491Y210222D02*
X-215990D01*
X-216354Y209858D01*
G01X-213490Y202258D02*
X-215901D01*
X-216671Y201488D01*
G01X-206935Y248366D02*
X-204548D01*
X-203851Y249063D01*
G01X-207115Y256930D02*
X-201279D01*
X-198943Y254594D01*
G01X-201908Y268032D02*
Y264539D01*
G01X-203851Y252863D02*
X-205054D01*
X-206915Y251002D01*
G01X-213591Y256778D02*
X-215473D01*
X-216845Y255406D01*
G01X-203851Y249063D02*
X-199012D01*
X-198943Y248994D01*
G01X-201908Y268032D02*
X-201926Y268050D01*
Y268143D01*
X-201927Y268144D01*
Y270976D01*
G01X-205727D02*
Y273623D01*
X-206392Y274288D01*
G01X-201605Y328291D02*
Y325898D01*
X-201616Y325887D01*
G01X-194295Y152833D02*
X-196622D01*
X-197032Y152423D01*
G01X-195828Y159115D02*
X-194295Y157582D01*
Y156633D01*
G01X-192204Y186413D02*
Y184548D01*
X-193101Y183651D01*
G01X-194059Y268001D02*
X-194070Y268012D01*
Y270431D01*
X-194065Y270436D01*
G01X-188947Y270973D02*
X-189484Y270436D01*
X-194065D01*
G01X-185157Y328291D02*
Y325898D01*
X-185168Y325887D01*
G01X-196661Y328291D02*
Y325898D01*
X-196672Y325887D01*
G01X-191648Y328291D02*
Y325898D01*
X-191659Y325887D01*
G01X-178359Y186396D02*
Y184874D01*
X-177314Y183829D01*
G01X-158203Y270872D02*
X-162715D01*
X-163094Y270493D01*
G01D02*
Y268428D01*
X-163452Y268070D01*
G01X-164243Y283791D02*
X-162091Y285943D01*
X-161936D01*
G01X-161918Y281634D02*
X-162086D01*
X-164243Y283791D01*
G01X-163186Y276989D02*
X-163117D01*
X-163094Y276966D01*
Y274293D01*
G01X-158118Y281634D02*
Y276557D01*
X-158203Y276472D01*
G01X-158136Y285943D02*
Y281652D01*
X-158118Y281634D01*
G01X-158136Y285943D02*
Y286802D01*
X-161276Y289942D01*
G01X-135082Y186364D02*
Y183804D01*
X-135073Y183795D01*
G01X-139933Y215775D02*
X-132859Y208701D01*
X-131874D01*
G01X-125492Y207362D02*
X-125152D01*
X-122857Y209657D01*
G01X-125519Y211360D02*
X-124560D01*
X-122857Y209657D01*
G01X-129452Y219268D02*
X-132294D01*
X-132342Y219220D01*
G01X-127414Y230945D02*
X-122378D01*
X-122341Y230982D01*
G01X-130906Y246623D02*
Y243159D01*
G01X-125547Y262831D02*
Y267272D01*
X-125555Y267280D01*
G01X-90116Y347901D02*
X-90064Y347849D01*
X-86207D01*
G01X-89255Y356132D02*
X-89300Y356177D01*
Y358751D01*
G01X-89302Y375304D02*
Y379638D01*
X-89339Y379675D01*
G01D02*
Y382581D01*
X-89331Y382589D01*
G01X-63352Y335236D02*
X-63364Y335248D01*
G01X-59380Y335236D02*
X-59392Y335248D01*
G01X-63364D02*
Y337786D01*
G01X-59392Y335248D02*
Y337786D01*
G01X-43838Y318796D02*
X-46659Y315975D01*
Y311576D01*
G01X-10513Y333815D02*
X-10507Y333809D01*
G01D02*
Y330491D01*
G54D15*
X-312724Y353104D03*
Y392908D03*
X-306741Y343104D03*
Y382908D03*
X-268472Y355506D03*
X-258473Y350506D03*
Y360506D03*
X-268472Y375506D03*
Y365506D03*
X-258473Y370506D03*
Y380506D03*
G54D33*
X-126445Y321044D03*
X-119445D03*
G54D24*
X-215947Y138977D03*
Y142777D03*
X-203851Y249063D03*
Y252863D03*
X-201605Y328291D03*
Y332091D03*
X-194295Y152833D03*
Y156633D03*
X-192204Y186413D03*
Y190213D03*
X-183096Y260497D03*
Y256697D03*
X-187099Y260497D03*
Y256697D03*
X-194065Y274236D03*
Y270436D03*
X-184084Y274193D03*
Y270393D03*
X-185157Y332091D03*
Y328291D03*
X-191648Y332091D03*
Y328291D03*
X-196661D03*
Y332091D03*
X-178359Y186396D03*
Y190196D03*
X-170477Y265687D03*
Y261887D03*
X-174450Y265685D03*
Y261885D03*
X-163094Y274293D03*
Y270493D03*
X-155840Y328902D03*
Y332702D03*
X-135082Y186364D03*
Y190164D03*
X-125408Y215462D03*
Y219262D03*
X-129452Y219268D03*
Y215468D03*
X-136290Y328291D03*
Y332091D03*
X-126445D03*
Y328291D03*
X-117344Y332091D03*
Y328291D03*
X-71363Y337786D03*
X-79659D03*
X-75483D03*
X-71363Y341586D03*
X-79659D03*
X-75483D03*
X-67340Y337786D03*
X-55413D03*
X-59392D03*
X-63364D03*
X-67340Y341586D03*
X-55413D03*
X-59392D03*
X-63364D03*
X-43879Y357890D03*
Y354090D03*
Y371607D03*
Y367807D03*
G54D43*
G01X-157079Y80333D02*
X-154691Y77945D01*
G01D02*
X-95243D01*
X-86402Y69104D01*
G54D16*
G01X-305671Y303522D02*
X-277008D01*
G01D02*
X-263997D01*
X-242703Y324816D01*
Y342934D01*
X-218385Y367252D01*
X-204537D01*
X-198731Y361446D01*
X-156116D01*
G01X-152724Y361433D02*
X-156103D01*
X-156116Y361446D01*
G01X-74992Y390477D02*
X-71529D01*
X-71520Y390468D01*
G01X-54075Y389039D02*
X-70091D01*
X-71520Y390468D01*
G01X-52529Y390351D02*
X-52646Y390468D01*
X-54075Y389039D01*
X-318908Y407032D03*
X-291775Y12181D03*
X-10451Y403570D03*
G54D34*
G01X-231269Y154664D02*
Y152534D01*
X-231654Y152149D01*
G01X-209691Y210222D02*
X-207321D01*
X-207010Y209911D01*
G01X-206925Y203978D02*
X-207970D01*
X-209690Y202258D01*
G01X-209654Y206222D02*
X-208086D01*
X-207095Y207213D01*
G01X-192953Y216654D02*
X-202394Y207213D01*
X-207095D01*
G01X-207115Y256930D02*
X-207126Y256919D01*
X-209650D01*
X-209791Y256778D01*
G01X-191429Y193474D02*
X-192204Y192699D01*
Y190213D01*
G01X-185645Y266636D02*
X-185576D01*
X-184084Y268128D01*
Y270393D01*
G01X-194065Y274236D02*
Y275528D01*
X-192459Y277134D01*
G01X-184084Y274193D02*
Y276968D01*
X-184161Y277045D01*
G01X-178359Y190196D02*
Y191467D01*
X-179617Y192725D01*
G01X-136051Y192745D02*
X-135015Y191709D01*
Y190231D01*
X-135082Y190164D01*
G01X-131874Y208701D02*
X-130535Y207362D01*
X-129292D01*
G01X-131902Y211652D02*
X-131893Y211643D01*
X-129602D01*
X-129319Y211360D01*
G01X-130906Y243159D02*
X-133298D01*
X-133917Y242540D01*
G01X-127106Y243159D02*
X-123041D01*
X-122600Y242718D01*
G01X-129347Y262831D02*
X-132009D01*
X-132037Y262859D01*
G01X-136290Y328291D02*
X-135485Y327486D01*
Y325695D01*
G01X-126445Y328291D02*
Y325718D01*
X-126446Y325717D01*
G01X-122618Y218704D02*
X-123176Y219262D01*
X-125408D01*
G01X-123069Y328323D02*
X-123037Y328291D01*
X-117344D01*
G01X-70519Y356246D02*
X-71798Y354967D01*
G01X-70519Y369042D02*
X-71798Y370321D01*
G01X-67960Y353687D02*
X-66680Y354967D01*
G01X-52605Y351128D02*
X-52170Y350693D01*
Y349264D01*
G01X-57723Y356246D02*
X-56444Y354967D01*
G01X-55164Y363924D02*
X-53885Y365203D01*
G01X-57723Y369042D02*
X-59003Y370321D01*
G01X-65401Y371601D02*
X-66680Y370321D01*
X-70519Y351128D03*
Y353687D03*
Y356246D03*
Y358805D03*
X-73078Y351128D03*
Y353687D03*
Y356246D03*
Y358805D03*
X-75637Y351128D03*
Y353687D03*
Y356246D03*
Y358805D03*
X-70519Y361364D03*
Y363924D03*
Y366483D03*
Y369042D03*
Y371601D03*
Y374160D03*
X-73078Y361364D03*
Y363924D03*
Y366483D03*
Y369042D03*
Y371601D03*
Y374160D03*
X-75637Y361364D03*
Y363924D03*
Y366483D03*
Y369042D03*
Y371601D03*
Y374160D03*
X-52605Y351128D03*
Y353687D03*
Y356246D03*
Y358805D03*
X-55164Y351128D03*
Y353687D03*
Y356246D03*
Y358805D03*
X-57723Y351128D03*
Y353687D03*
Y356246D03*
Y358805D03*
X-60282Y351128D03*
Y353687D03*
Y356246D03*
Y358805D03*
X-62841Y351128D03*
Y353687D03*
Y356246D03*
Y358805D03*
X-65401Y351128D03*
Y353687D03*
Y356246D03*
Y358805D03*
X-67960Y351128D03*
Y353687D03*
Y356246D03*
Y358805D03*
X-52605Y361364D03*
Y363924D03*
Y366483D03*
Y369042D03*
Y371601D03*
Y374160D03*
X-55164Y361364D03*
Y363924D03*
Y366483D03*
Y369042D03*
Y371601D03*
Y374160D03*
X-57723Y361364D03*
Y363924D03*
Y366483D03*
Y369042D03*
Y371601D03*
Y374160D03*
X-60282Y361364D03*
Y363924D03*
Y366483D03*
Y369042D03*
Y371601D03*
Y374160D03*
X-62841Y361364D03*
Y363924D03*
Y366483D03*
Y369042D03*
Y371601D03*
Y374160D03*
X-65401Y361364D03*
Y363924D03*
Y366483D03*
Y369042D03*
Y371601D03*
Y374160D03*
X-67960Y361364D03*
Y363924D03*
Y366483D03*
Y369042D03*
Y371601D03*
Y374160D03*
G54D25*
X-198943Y248994D03*
Y254594D03*
X-188947Y270973D03*
Y276573D03*
X-158203Y270872D03*
Y276472D03*
X-86207Y347849D03*
Y353449D03*
G54D44*
G01X-139543Y299272D02*
X-129543D01*
G54D17*
X-306179Y11683D03*
X-267440Y104291D03*
Y194291D03*
Y284291D03*
X-157441Y143779D03*
X-129543Y299272D03*
X-110295Y231679D03*
X-95891Y299280D03*
X-77440Y24291D03*
X-77441Y54291D03*
Y144291D03*
Y230314D03*
X-27441Y160275D03*
Y300275D03*
Y360275D03*
G54D35*
X-78272Y353708D03*
Y355836D03*
X-74357Y352408D03*
Y354967D03*
Y349549D03*
X-71798Y354967D03*
X-71798Y362644D03*
X-74357D03*
X-78094Y368797D03*
X-78755Y364412D03*
X-78946Y362265D03*
X-71798Y370321D03*
X-77966Y372280D03*
X-66680Y354967D03*
X-68052Y349009D03*
X-52170Y349264D03*
X-64108Y354967D03*
X-62352Y349127D03*
X-56444Y354967D03*
X-61562Y372880D03*
X-66680Y365203D03*
X-64121Y362644D03*
X-53885Y365203D03*
Y360085D03*
X-56451Y360079D03*
X-59003Y370321D03*
X-66680Y362644D03*
X-61562Y365203D03*
Y370321D03*
X-66680Y370321D03*
X-46631Y369529D03*
X-49797Y367798D03*
X-49985Y362861D03*
X-47284Y362752D03*
G54D26*
X-203199Y260896D03*
X-197599D03*
G54D18*
X-302032Y126790D03*
Y256790D03*
X-115940Y352535D03*
G54D27*
X-201649Y340921D03*
X-196925D03*
G54D36*
X-71766Y407676D03*
X-38892D03*
G54D28*
G01X-130906Y246623D02*
X-134908D01*
X-140131Y241400D01*
X-154000D01*
X-154600Y242000D01*
X-182500D01*
X-186320Y245820D01*
X-190282D01*
G01X-162464Y355948D02*
X-148179D01*
G01X-149719Y325250D02*
Y321368D01*
X-149724Y321363D01*
G01X-149719Y332250D02*
X-150171Y332702D01*
X-155840D01*
G01X-155822Y340921D02*
X-155840Y340903D01*
Y332702D01*
G01X-149719Y332250D02*
Y335407D01*
X-150779Y336467D01*
G01X-146498Y364911D02*
Y357850D01*
X-148179Y356169D01*
Y355948D01*
G01X-146037Y365372D02*
X-146498Y364911D01*
G01X-114195Y291373D02*
X-116687Y288881D01*
Y259513D01*
X-129577Y246623D01*
X-130906D01*
X-211038Y331574D03*
X-109544Y207788D03*
X-62759Y383931D03*
X-32820Y318796D03*
X-43838D03*
X-32820Y330491D03*
X-44060D03*
X-43334Y362881D03*
X-21358Y318796D03*
X-21469Y330491D03*
X-10507Y318796D03*
Y330491D03*
G54D37*
X-64089Y395865D03*
X-46569D03*
G54D19*
X-293434Y345506D03*
Y390506D03*
G54D38*
G01X-302784Y118698D02*
X-293335Y109249D01*
X-261770D01*
X-255368Y102846D01*
X-138175D01*
X-124295Y88966D01*
X-46601D01*
X-44261Y86627D01*
G01X-254462Y263614D02*
X-254538D01*
X-259815Y268891D01*
X-279773D01*
X-308391Y240273D01*
Y124305D01*
X-302784Y118698D01*
G01X-137470Y111336D02*
X-143960Y104846D01*
X-254539D01*
X-260942Y111249D01*
X-275270D01*
X-298827Y134806D01*
X-302785D01*
G01X-139807Y116577D02*
X-147538Y108846D01*
X-252882D01*
X-259285Y115249D01*
X-272503D01*
X-299044Y141790D01*
X-303990D01*
X-304209Y142009D01*
G01X-299541Y137451D02*
X-298220D01*
X-274018Y113249D01*
X-260114D01*
X-253710Y106846D01*
X-146042D01*
X-139552Y113336D01*
X-87244D01*
X-83212Y109304D01*
X-72580D01*
X-72529Y109355D01*
G01X-167441Y133779D02*
Y129591D01*
X-182186Y114846D01*
X-244312D01*
X-258660Y129194D01*
X-277663D01*
X-301597Y153128D01*
Y169079D01*
X-304209Y171691D01*
G01X-70273Y119173D02*
Y119350D01*
X-70373Y119450D01*
X-142558D01*
X-151162Y110846D01*
X-252053D01*
X-258456Y117249D01*
X-271647D01*
X-301134Y146736D01*
X-303812D01*
G01X-304565Y161757D02*
Y153116D01*
X-270698Y119249D01*
X-264256D01*
X-257628Y119249D01*
X-251225Y112846D01*
X-151990D01*
X-139806Y125030D01*
X-118795D01*
G01X-299895Y186314D02*
X-297193Y189016D01*
X-257122D01*
X-255955Y187849D01*
X-205802D01*
X-186222Y207429D01*
X-166188D01*
X-162662Y210955D01*
X-147134D01*
X-136917Y200738D01*
Y197384D01*
X-125399Y185866D01*
X-124010D01*
G01X-132162Y204937D02*
X-132631D01*
X-144649Y216955D01*
X-189299D01*
X-206607Y199647D01*
X-217886D01*
X-219651Y201412D01*
X-226308D01*
X-227502Y200218D01*
X-254000D01*
X-261650Y207868D01*
X-278933D01*
X-280813Y205988D01*
X-296635D01*
X-304318Y213671D01*
G01X-277571Y194401D02*
X-277584Y194388D01*
X-291188D01*
X-293246Y196446D01*
Y196822D01*
G01X-301990Y220927D02*
X-293949Y228968D01*
X-260718D01*
X-253350Y236336D01*
X-229882D01*
X-228952Y235406D01*
X-193796D01*
X-190257Y231867D01*
X-136582D01*
X-135167Y233282D01*
G01X-253601Y242422D02*
X-255162D01*
X-258737Y238847D01*
X-273461D01*
X-277089Y242475D01*
X-301396D01*
X-301988Y241883D01*
G01X-285722Y41710D02*
X-283617D01*
X-276147Y49180D01*
X-256279D01*
X-241223Y64236D01*
X-237964D01*
X-234170Y68030D01*
Y69584D01*
X-231822Y71933D01*
G01X-238545Y66758D02*
X-238584Y66797D01*
X-241378D01*
X-248906Y59269D01*
X-277932D01*
X-285559Y51642D01*
X-285722D01*
G01X-290834Y78749D02*
X-290250Y79333D01*
X-238660D01*
G01X-238506Y69319D02*
X-290039D01*
X-290815Y68543D01*
G01X-77441Y154291D02*
X-142527D01*
X-144532Y152286D01*
X-179898D01*
X-183421Y148763D01*
Y121877D01*
X-185452Y119846D01*
X-234680D01*
X-242520Y127686D01*
X-249744D01*
X-261177Y139119D01*
X-281210D01*
X-282635Y140544D01*
G01Y169197D02*
X-277541Y174291D01*
X-267440D01*
G01X-258063Y179804D02*
X-258700Y179167D01*
X-289365D01*
X-291402Y177129D01*
G01X-279524Y184335D02*
X-279480Y184291D01*
X-267440D01*
G01X-281928Y208468D02*
X-280528Y209868D01*
X-260821D01*
X-256912Y205959D01*
X-219877D01*
X-219441Y206395D01*
G01X-178114Y214218D02*
X-188023D01*
X-206670Y195571D01*
X-255010D01*
X-263021Y203582D01*
X-278205D01*
X-279039Y204416D01*
G01X-169100Y209632D02*
X-169242Y209490D01*
X-187013D01*
X-206617Y189886D01*
X-254982D01*
X-264390Y199294D01*
X-272678D01*
X-277571Y194401D01*
G01X-167602Y212022D02*
X-167641Y211983D01*
X-187349D01*
X-207374Y191958D01*
X-254225D01*
X-263754Y201487D01*
X-285712D01*
X-290516Y196683D01*
G01X-281544Y223890D02*
X-276671Y219017D01*
X-265785D01*
X-258461Y226341D01*
Y228397D01*
X-252522Y234336D01*
X-233034D01*
X-232071Y233373D01*
X-195091D01*
X-191585Y229867D01*
X-135195D01*
X-134040Y231022D01*
G01X-267440Y34291D02*
X-252431Y19282D01*
X-175428D01*
X-173252Y17106D01*
X-170255D01*
X-167440Y14291D01*
G01X-257865Y31393D02*
X-256476Y30004D01*
X-183153D01*
X-177440Y24291D01*
G01X-243464Y37606D02*
X-264126D01*
X-267440Y34291D01*
G01X-257984Y35429D02*
X-255171Y32616D01*
X-178947D01*
X-170622Y24291D01*
X-167440D01*
G01X-247557Y64795D02*
X-248061Y64291D01*
X-267440D01*
G01X-258290Y187175D02*
X-256910Y185795D01*
X-204968D01*
X-186582Y204181D01*
X-176060D01*
G01X-271529Y205832D02*
X-271452Y205755D01*
X-262365D01*
X-254491Y197881D01*
X-226943D01*
X-225851Y198973D01*
X-220973D01*
X-219600Y197600D01*
X-207499D01*
X-207103Y197996D01*
G01X-216914Y230405D02*
X-245811D01*
X-247674Y232268D01*
X-251761D01*
X-256461Y227568D01*
Y225393D01*
X-262327Y219527D01*
G01X-262458Y236147D02*
X-258606D01*
X-254549Y240204D01*
X-204404D01*
X-203916Y240692D01*
G01X-262458Y231347D02*
X-261189D01*
X-254178Y238358D01*
X-204712D01*
X-204029Y237675D01*
G01X-248169Y40653D02*
X-229339D01*
X-227441Y38754D01*
G01X-252918Y87472D02*
X-239463D01*
X-239225Y87710D01*
G01X-146387Y100003D02*
X-147230Y100846D01*
X-249757D01*
X-252939Y97664D01*
G01X-247818Y123209D02*
X-241455Y116846D01*
X-183343D01*
X-172078Y128111D01*
Y139142D01*
X-167441Y143779D01*
G01X-242930Y161704D02*
Y157953D01*
X-247938Y152945D01*
Y134163D01*
X-245723Y131948D01*
G01X-17441Y150275D02*
X-22185Y145531D01*
X-43124D01*
X-47280Y149687D01*
X-122796D01*
X-123159Y150050D01*
X-179225D01*
X-181364Y147911D01*
Y121105D01*
X-184623Y117846D01*
X-235887D01*
X-243561Y125520D01*
X-250703D01*
X-254494Y129311D01*
G01X-244965Y158334D02*
X-249286Y154013D01*
Y139725D01*
X-251730Y137281D01*
G01X-243051Y164244D02*
X-251157Y156138D01*
Y140309D01*
X-251477Y139989D01*
G01X-203935Y183811D02*
X-213578D01*
X-243075Y154314D01*
Y143816D01*
X-244784Y142107D01*
G01X-240932Y159658D02*
Y158337D01*
X-246855Y152414D01*
Y141386D01*
X-245169Y139700D01*
G01X-239367Y155324D02*
X-241678Y153013D01*
Y140503D01*
X-237900Y136725D01*
G01X-239415Y152797D02*
Y140705D01*
X-237836Y139126D01*
G01X-255497Y208254D02*
X-253824Y209927D01*
X-219292D01*
X-213084Y216135D01*
X-206376D01*
G01X-240922Y204226D02*
X-240563Y203867D01*
X-219538D01*
X-219417Y203988D01*
G01X-196687Y221862D02*
X-197042D01*
X-200473Y218431D01*
X-210525D01*
X-218377Y226283D01*
X-252055D01*
X-253733Y227961D01*
G01X-132517Y215580D02*
X-138966Y222029D01*
X-154036D01*
X-155621Y223614D01*
X-197526D01*
X-201526Y219614D01*
X-209974D01*
X-217819Y227459D01*
X-249363D01*
X-251748Y229844D01*
G01X-249413Y230559D02*
X-247414Y228560D01*
X-217078D01*
X-210032Y221514D01*
X-206979D01*
G01X-250158Y242509D02*
X-249879Y242788D01*
X-191881D01*
X-187793Y238700D01*
X-158500D01*
X-157800Y238000D01*
X-150900D01*
G01X-252054Y245369D02*
X-251750Y245065D01*
X-197007D01*
X-191695Y250377D01*
X-145793D01*
X-141792Y254378D01*
Y263565D01*
X-144858Y266631D01*
G01X-246189Y249455D02*
X-229814Y265830D01*
Y270441D01*
G01X-224357Y-123985D02*
X-228557D01*
X-228561Y-119085D01*
G01X27143Y-123985D02*
X-224457D01*
G01X-228561Y-109085D02*
X-57757Y-108885D01*
G01X-228561Y-119085D02*
X-228557Y-74285D01*
X28039Y-74385D01*
G01X-217294Y-87885D02*
X-218627D01*
Y-84885D01*
X-217294D01*
G01X-217827Y-86335D02*
X-218627D01*
G01X-216461Y-87885D02*
Y-85885D01*
G01Y-86435D02*
X-216361Y-86185D01*
X-216194Y-85985D01*
X-215961Y-85885D01*
X-215727Y-85985D01*
X-215561Y-86185D01*
X-215461Y-86435D01*
Y-87885D01*
G01Y-86435D02*
X-215361Y-86185D01*
X-215194Y-85985D01*
X-214961Y-85885D01*
X-214727Y-85985D01*
X-214561Y-86185D01*
X-214461Y-86485D01*
Y-87885D01*
G01X-213561D02*
Y-84885D01*
G01Y-86385D02*
X-213394Y-86085D01*
X-213194Y-85935D01*
X-212994Y-85885D01*
X-212694Y-85985D01*
X-212494Y-86185D01*
X-212361Y-86535D01*
Y-86935D01*
X-212427Y-87335D01*
X-212561Y-87635D01*
X-212794Y-87835D01*
X-212994Y-87885D01*
X-213194Y-87835D01*
X-213394Y-87685D01*
X-213561Y-87435D01*
G01X-210961Y-86535D02*
X-209894D01*
X-209994Y-86185D01*
X-210161Y-85985D01*
X-210394Y-85885D01*
X-210627Y-85935D01*
X-210827Y-86085D01*
X-210961Y-86435D01*
X-211027Y-86735D01*
Y-87035D01*
X-210961Y-87335D01*
X-210794Y-87635D01*
X-210594Y-87835D01*
X-210361Y-87885D01*
X-210127Y-87785D01*
X-209894Y-87485D01*
G01X-208461Y-87535D02*
X-208294Y-87735D01*
X-208061Y-87885D01*
X-207861D01*
X-207661Y-87785D01*
X-207527Y-87635D01*
X-207461Y-87435D01*
X-207494Y-87135D01*
X-207627Y-86985D01*
X-208227Y-86685D01*
X-208361Y-86335D01*
X-208294Y-86085D01*
X-208161Y-85935D01*
X-207961Y-85885D01*
X-207761Y-85935D01*
X-207561Y-86085D01*
G01X-205461Y-84885D02*
Y-87885D01*
G01X-205927Y-85885D02*
X-204994D01*
G01X-228561Y-94085D02*
X40043D01*
G01X-227312Y42078D02*
X-226995Y42395D01*
X-193317D01*
X-191575Y40653D01*
X-132290D01*
G01X-88255Y39738D02*
X-88563D01*
X-89389Y38912D01*
X-227282D01*
X-227441Y38754D01*
G01X-118754Y54996D02*
X-135009D01*
X-135638Y55625D01*
X-138419D01*
X-139048Y54996D01*
X-201291D01*
X-204873Y58578D01*
X-218704D01*
X-231822Y71696D01*
Y71933D01*
G01X-135099Y57315D02*
X-135614Y57830D01*
X-196966D01*
X-198229Y59093D01*
X-203172D01*
X-204675Y60596D01*
X-217691D01*
X-224603Y67508D01*
G01X-231822Y76105D02*
Y71933D01*
G01X-224603Y67508D02*
X-226822Y69726D01*
Y76105D01*
G01X-221822D02*
Y69048D01*
X-221297Y68524D01*
G01D02*
X-214755Y61982D01*
X-204286D01*
X-203333Y62935D01*
X-199415D01*
X-195655Y59175D01*
X-115431D01*
X-115078Y59528D01*
G01X-236310Y147933D02*
X-236126Y147749D01*
Y135325D01*
X-232163Y131362D01*
X-207037D01*
X-205408Y132991D01*
G01X-231172Y133032D02*
X-218283D01*
X-217844Y133471D01*
Y136008D01*
X-217404Y136447D01*
X-216783D01*
X-216343Y136008D01*
Y133471D01*
X-215904Y133032D01*
X-215283D01*
X-214844Y133471D01*
Y136008D01*
X-214404Y136447D01*
X-213783D01*
X-213344Y136008D01*
Y133471D01*
X-212904Y133032D01*
X-212283D01*
X-211843Y133471D01*
Y136632D01*
X-211404Y137071D01*
X-210783D01*
X-210344Y136632D01*
Y133471D01*
X-209866Y132994D01*
X-209046D01*
X-208536Y133504D01*
Y137176D01*
X-208164Y137548D01*
X-207210D01*
X-206827Y137165D01*
Y135647D01*
X-206216Y135036D01*
X-204018D01*
X-203579Y135475D01*
Y139546D01*
X-203140Y139985D01*
X-202518D01*
X-202079Y139546D01*
Y132625D01*
X-201640Y132186D01*
X-201018D01*
X-200579Y132625D01*
Y138151D01*
X-200140Y138590D01*
X-199518D01*
X-199079Y138151D01*
Y135436D01*
X-198640Y134997D01*
X-197158D01*
X-196610Y135545D01*
Y140663D01*
G01X-222089Y153099D02*
X-226022Y149166D01*
X-231885D01*
X-234114Y146937D01*
Y139034D01*
G01X-214435Y374218D02*
X-219773D01*
X-234127Y388572D01*
G01X-210627Y-118385D02*
Y-115385D01*
X-209827D01*
X-209561Y-115535D01*
X-209361Y-115885D01*
X-209294Y-116285D01*
X-209361Y-116685D01*
X-209527Y-116985D01*
X-209827Y-117135D01*
X-210627D01*
G01X-206727Y-115635D02*
X-206927Y-115485D01*
X-207161Y-115385D01*
X-207427D01*
X-207727Y-115535D01*
X-207961Y-115785D01*
X-208127Y-116085D01*
X-208261Y-116585D01*
X-208294Y-117035D01*
X-208227Y-117485D01*
X-208127Y-117785D01*
X-207927Y-118085D01*
X-207694Y-118285D01*
X-207461Y-118385D01*
X-207227D01*
X-206994Y-118285D01*
X-206794Y-118135D01*
X-206627Y-117935D01*
G01X-204694Y-116785D02*
X-204561Y-116635D01*
X-204461Y-116385D01*
X-204394Y-116035D01*
X-204461Y-115735D01*
X-204594Y-115535D01*
X-204827Y-115385D01*
X-205727D01*
Y-118385D01*
X-204627D01*
X-204394Y-118185D01*
X-204261Y-117885D01*
X-204194Y-117535D01*
X-204261Y-117185D01*
X-204461Y-116885D01*
X-204694Y-116785D01*
X-205727D01*
G01X-203461Y-115385D02*
X-201461Y-119385D01*
G01X-200627Y-118385D02*
Y-115385D01*
X-199794D01*
X-199527Y-115535D01*
X-199361Y-115735D01*
X-199294Y-116135D01*
X-199361Y-116535D01*
X-199561Y-116785D01*
X-199794Y-116935D01*
X-200627D01*
G01X-199794D02*
X-199294Y-118385D01*
G01X-196794D02*
X-198127D01*
Y-115385D01*
X-196794D01*
G01X-197327Y-116835D02*
X-198127D01*
G01X-195794Y-115385D02*
X-194961Y-118385D01*
X-194127Y-115385D01*
G01X-210627Y-103719D02*
Y-100719D01*
X-209827D01*
X-209561Y-100869D01*
X-209361Y-101219D01*
X-209294Y-101619D01*
X-209361Y-102019D01*
X-209527Y-102319D01*
X-209827Y-102469D01*
X-210627D01*
G01X-208127Y-103719D02*
Y-100719D01*
X-207294D01*
X-207027Y-100869D01*
X-206861Y-101069D01*
X-206794Y-101469D01*
X-206861Y-101869D01*
X-207061Y-102119D01*
X-207294Y-102269D01*
X-208127D01*
G01X-207294D02*
X-206794Y-103719D01*
G01X-204961D02*
X-205227Y-103669D01*
X-205461Y-103469D01*
X-205661Y-103169D01*
X-205794Y-102819D01*
X-205861Y-102419D01*
Y-102019D01*
X-205794Y-101619D01*
X-205661Y-101269D01*
X-205461Y-100969D01*
X-205227Y-100769D01*
X-204961Y-100719D01*
X-204694Y-100769D01*
X-204461Y-100969D01*
X-204261Y-101269D01*
X-204127Y-101619D01*
X-204061Y-102019D01*
Y-102419D01*
X-204127Y-102819D01*
X-204261Y-103169D01*
X-204461Y-103469D01*
X-204694Y-103669D01*
X-204961Y-103719D01*
G01X-203127Y-103119D02*
X-202961Y-103419D01*
X-202761Y-103619D01*
X-202527Y-103719D01*
X-202261Y-103619D01*
X-202061Y-103419D01*
X-201861Y-103119D01*
X-201794Y-102719D01*
Y-100719D01*
G01X-199294Y-103719D02*
X-200627D01*
Y-100719D01*
X-199294D01*
G01X-199827Y-102169D02*
X-200627D01*
G01X-196727Y-100969D02*
X-196927Y-100819D01*
X-197161Y-100719D01*
X-197427D01*
X-197727Y-100869D01*
X-197961Y-101119D01*
X-198127Y-101419D01*
X-198261Y-101919D01*
X-198294Y-102369D01*
X-198227Y-102819D01*
X-198127Y-103119D01*
X-197927Y-103419D01*
X-197694Y-103619D01*
X-197461Y-103719D01*
X-197227D01*
X-196994Y-103619D01*
X-196794Y-103469D01*
X-196627Y-103269D01*
G01X-194961Y-100719D02*
Y-103719D01*
G01X-195727Y-100719D02*
X-194194D01*
G01X-66830Y39387D02*
X-68809Y37408D01*
X-206684D01*
X-207440Y36652D01*
G01X-38121Y37228D02*
X-39801Y35548D01*
X-201786D01*
X-202617Y34717D01*
G01X-215530Y45041D02*
X-213506Y47065D01*
X-166088D01*
X-164261Y45238D01*
X-110505D01*
X-110441Y45174D01*
G01X-205016Y54185D02*
X-204680Y53849D01*
X-137114D01*
G01X-210187Y56329D02*
X-209514D01*
X-207865Y54680D01*
Y54007D01*
X-205471Y51613D01*
X-90704D01*
X-82955Y59362D01*
X-70229D01*
X-62480Y51613D01*
X-22197D01*
X-21348Y52462D01*
G01X-63965Y49492D02*
X-206753D01*
X-210334Y53073D01*
Y53674D01*
G01X-211693Y68970D02*
X-208946Y66223D01*
X-200918D01*
X-195928Y61233D01*
X-183296D01*
G01X-211822Y76105D02*
Y69098D01*
X-211693Y68970D01*
G01X-206822Y76105D02*
Y69308D01*
X-204963Y67450D01*
X-200660D01*
X-196344Y63134D01*
X-111711D01*
X-110681Y62104D01*
G01X-102948Y64317D02*
X-103118Y64486D01*
X-196142D01*
X-201822Y70166D01*
Y76105D01*
G01X-205501Y151958D02*
X-203981Y153478D01*
Y180479D01*
X-195773Y188687D01*
Y192655D01*
G01X-208335Y150668D02*
X-206791D01*
X-205501Y151958D01*
G01X-210706Y139059D02*
X-202710Y152969D01*
Y179945D01*
X-194109Y188546D01*
Y193128D01*
X-184929Y202308D01*
X-166159D01*
X-160501Y207966D01*
X-149288D01*
X-148132Y209122D01*
G01X-205520Y139073D02*
Y143296D01*
X-205598Y143374D01*
G01X-201787Y142625D02*
X-201261Y143151D01*
Y179505D01*
X-199066Y181700D01*
X-192628D01*
X-189007Y185321D01*
Y195844D01*
X-187232Y197619D01*
G01X-186657Y195337D02*
Y186225D01*
X-192448Y180434D01*
X-198756D01*
X-200199Y178991D01*
Y145496D01*
X-199812Y145109D01*
Y141097D01*
G01X-204541Y221460D02*
X-202437D01*
X-199283Y224614D01*
X-155207D01*
X-153622Y223029D01*
X-124153D01*
X-120039Y218915D01*
X-112350D01*
X-108717Y215282D01*
X-87591D01*
X-82840Y220033D01*
X-77738D01*
G01X-206979Y221514D02*
X-204161Y224332D01*
X-202217D01*
X-200852Y225697D01*
X-154875D01*
X-153300Y224122D01*
X-123302D01*
X-119260Y220080D01*
X-94488D01*
X-91354Y216946D01*
X-90630D01*
G01X-202886Y226307D02*
X-202496Y226697D01*
X-154461D01*
X-152902Y225138D01*
X-122904D01*
X-118846Y221080D01*
X-92884D01*
X-91087Y219283D01*
X-90668D01*
G01X-90783Y221595D02*
X-91024D01*
X-91509Y222080D01*
X-118213D01*
X-122271Y226138D01*
X-152368D01*
X-154011Y227781D01*
X-200854D01*
X-201743Y228670D01*
G01X-206500Y231328D02*
X-197568D01*
X-197475Y231235D01*
G01X-33433Y241935D02*
X-33496Y241998D01*
X-70531D01*
X-73318Y244785D01*
X-78973D01*
X-80545Y243213D01*
X-96657D01*
X-99218Y245774D01*
X-112949D01*
X-114643Y244080D01*
Y242010D01*
X-119120Y237533D01*
X-135159D01*
X-137825Y234867D01*
X-187364D01*
X-193188Y240692D01*
X-203916D01*
G01X-49540Y239248D02*
X-59383D01*
X-63565Y235066D01*
X-100000D01*
X-101170Y236236D01*
X-114762D01*
X-115932Y235066D01*
X-118091D01*
X-119558Y236533D01*
X-134745D01*
X-137411Y233867D01*
X-189183D01*
X-192991Y237675D01*
X-204029D01*
G01X-175498Y297604D02*
X-185459D01*
X-197672Y285391D01*
X-202455D01*
X-211939Y275907D01*
Y267004D01*
G01X-201605Y332091D02*
X-210521D01*
X-211038Y331574D01*
G01X-201605Y332091D02*
X-201649Y332135D01*
Y340921D01*
G01X-94100Y7624D02*
X-94117Y7607D01*
X-190756D01*
X-197440Y14291D01*
G01X-157341Y43028D02*
X-157420Y42949D01*
X-188968D01*
X-189403Y42514D01*
G01X-173686Y44829D02*
X-188195D01*
X-188255Y44769D01*
G01X-103048Y71500D02*
X-103184D01*
X-106800Y67884D01*
X-184849D01*
X-186822Y69857D01*
Y76105D01*
G01X-102849Y66751D02*
X-103660D01*
X-104763Y65648D01*
X-193140D01*
X-196822Y69330D01*
Y76105D01*
G01X-102949Y69066D02*
X-103521D01*
X-105778Y66810D01*
X-189434D01*
X-191822Y69198D01*
Y76105D01*
G01X-197912Y178376D02*
X-199119Y177169D01*
Y149582D01*
X-188521Y138984D01*
Y122005D01*
G01X-186573Y174723D02*
X-186196Y174346D01*
Y122039D01*
X-186090Y121933D01*
G01X-184354Y171761D02*
X-176394D01*
X-175425Y172730D01*
G01X-123603Y167880D02*
X-135921D01*
X-136360Y168319D01*
Y171337D01*
X-136800Y171776D01*
X-137421D01*
X-137860Y171337D01*
Y168319D01*
X-138300Y167880D01*
X-138921D01*
X-139360Y168319D01*
Y171337D01*
X-139800Y171776D01*
X-140421D01*
X-140860Y171337D01*
Y168319D01*
X-141300Y167880D01*
X-141921D01*
X-142360Y168319D01*
Y171337D01*
X-142800Y171776D01*
X-143421D01*
X-143860Y171337D01*
Y168319D01*
X-144300Y167880D01*
X-163412D01*
X-166169Y165123D01*
X-182014D01*
X-182433Y164704D01*
G01X-187954Y163178D02*
X-188223Y163446D01*
Y175407D01*
X-183919Y179711D01*
X-169899D01*
X-152328Y197282D01*
G01X-184458Y160593D02*
X-182090D01*
X-179745Y162938D01*
X-116467D01*
X-116378Y163027D01*
G01X-182686Y162355D02*
X-181795D01*
X-180062Y164088D01*
X-143163D01*
X-142724Y164527D01*
Y165973D01*
X-142285Y166412D01*
X-141663D01*
X-141224Y165973D01*
Y164527D01*
X-140785Y164088D01*
X-140163D01*
X-139724Y164527D01*
Y165973D01*
X-139285Y166412D01*
X-138663D01*
X-138224Y165973D01*
Y164527D01*
X-137785Y164088D01*
X-137163D01*
X-136724Y164527D01*
Y165973D01*
X-136285Y166412D01*
X-135663D01*
X-135224Y165973D01*
Y164527D01*
X-134785Y164088D01*
X-132081D01*
X-131500Y164669D01*
G01X-190057Y157900D02*
X-191203Y159046D01*
Y177195D01*
X-182915Y185483D01*
Y191941D01*
X-179156Y195700D01*
X-170578D01*
X-170565Y195687D01*
G01Y198039D02*
X-178519D01*
X-183935Y192623D01*
Y185906D01*
X-192223Y177618D01*
Y157951D01*
X-191778Y157506D01*
Y156361D01*
G01X-196996Y155348D02*
X-198014Y156366D01*
Y173443D01*
X-184976Y186481D01*
Y193614D01*
X-178096Y200494D01*
X-170421D01*
G01X-187941Y158832D02*
X-189605Y162605D01*
Y175439D01*
X-184250Y180794D01*
X-175280D01*
X-155979Y200095D01*
G01X-184354Y174061D02*
X-183967Y174448D01*
X-166579D01*
X-165510Y175517D01*
X-164611D01*
G01X-184295Y176421D02*
X-183965Y176751D01*
X-169382D01*
X-166899Y179234D01*
X-155204D01*
X-153224Y177254D01*
X-121087D01*
X-111964Y186377D01*
X-87630D01*
X-85544Y184291D01*
X-77441D01*
G01X-183796Y236827D02*
X-182836Y235867D01*
X-138239D01*
X-135573Y238533D01*
X-120019D01*
X-116048Y242504D01*
Y244595D01*
X-113840Y246803D01*
X-98060D01*
X-95867Y244610D01*
X-80622D01*
X-79379Y245853D01*
X-72312D01*
X-70476Y244017D01*
X-60963D01*
X-60908Y244072D01*
G01X-183096Y260497D02*
Y262477D01*
X-182586Y262987D01*
G01X-187099Y260497D02*
Y260894D01*
X-184955Y263038D01*
G01X-187099Y256697D02*
Y254192D01*
X-187101Y254190D01*
G01X-183096Y256697D02*
Y254145D01*
X-183122Y254119D01*
G01X-143926Y256130D02*
Y255673D01*
X-147222Y252377D01*
X-174772D01*
X-180902Y258507D01*
Y276468D01*
X-184205Y279771D01*
G01X-148041Y258569D02*
X-146415Y256943D01*
Y255240D01*
X-148278Y253377D01*
X-174146D01*
X-179896Y259127D01*
Y278053D01*
X-183520Y281677D01*
Y282036D01*
G01X-185311Y340921D02*
Y332245D01*
X-185157Y332091D01*
G01X-191807Y340921D02*
Y336807D01*
X-191200Y336200D01*
Y332539D01*
X-191648Y332091D01*
G01X-196661D02*
X-195100Y333652D01*
Y336900D01*
X-196925Y338725D01*
Y340921D01*
G01X-146364Y282524D02*
X-146536Y282696D01*
Y291465D01*
X-150216Y295146D01*
Y308620D01*
X-142668Y316168D01*
Y345759D01*
X-145067Y348158D01*
X-183590D01*
X-185311Y346437D01*
Y340921D01*
G01X-191807D02*
Y344669D01*
X-186318Y350158D01*
X-144238D01*
X-140668Y346588D01*
Y315339D01*
X-148216Y307791D01*
Y295974D01*
X-144528Y292286D01*
Y285822D01*
X-144535Y285815D01*
G01X-137700Y257800D02*
Y291115D01*
X-143947Y297363D01*
Y306306D01*
X-133132Y317121D01*
Y335691D01*
X-132393Y336430D01*
Y347607D01*
X-136944Y352158D01*
X-189661D01*
X-196925Y344894D01*
Y340921D01*
G01X-167061Y-94085D02*
X-167057Y-123985D01*
G01X-92550Y9758D02*
X-92592Y9716D01*
X-130123D01*
X-132487Y12080D01*
Y16987D01*
X-134743Y19243D01*
X-172392D01*
X-177440Y24291D01*
G01X-167440D02*
X-162674Y29058D01*
X-108208D01*
X-105313Y31953D01*
X-56067D01*
X-56030Y31990D01*
G01X-172341Y31390D02*
X-110325D01*
G01X-50529Y133694D02*
X-53018Y131205D01*
X-107796D01*
X-111240Y127761D01*
X-161422D01*
X-167441Y133779D01*
G01X-130966Y148145D02*
X-131398Y148577D01*
X-172643D01*
X-177441Y143779D01*
G01X-52192Y136306D02*
X-55151Y133347D01*
X-142264D01*
X-147639Y138722D01*
X-162383D01*
X-167441Y143779D01*
G01X-131500Y159574D02*
X-131503Y159571D01*
X-176359D01*
X-177368Y158562D01*
X-178771D01*
G01X-175545Y166928D02*
X-168364D01*
X-161007Y174285D01*
X-93472D01*
X-89001Y178756D01*
X-37027D01*
X-35604Y177333D01*
G01X-119208Y160720D02*
X-120049Y161561D01*
X-177092D01*
X-177716Y160937D01*
G01X-180565Y182644D02*
X-180100Y182179D01*
X-176630D01*
X-156766Y202043D01*
X-150274D01*
G01X-125026Y179540D02*
X-125136Y179650D01*
X-138004D01*
X-144227Y185873D01*
Y199363D01*
X-148597Y203733D01*
X-160072D01*
X-170522Y193283D01*
G01X-83822Y200955D02*
X-113187D01*
X-115909Y198233D01*
X-121608D01*
X-124025Y200650D01*
X-131172D01*
X-145477Y214955D01*
X-177377D01*
X-178114Y214218D01*
G01X-167602Y212022D02*
X-166669Y212955D01*
X-146306D01*
X-134917Y201566D01*
Y198212D01*
X-127804Y191099D01*
X-120148D01*
X-116998Y194249D01*
X-83797D01*
X-78770Y189222D01*
X-33319D01*
X-30220Y186123D01*
G01X-176721Y282553D02*
X-172506D01*
X-168987Y279034D01*
Y269522D01*
X-164875Y265410D01*
X-157029D01*
X-154767Y267672D01*
G01X-177989Y265185D02*
X-178212Y265408D01*
Y278712D01*
X-176735Y280189D01*
G01X-148164Y255866D02*
X-149653Y254377D01*
X-162455D01*
X-165301Y257223D01*
Y257427D01*
X-165334Y257460D01*
Y264455D01*
X-170740Y269861D01*
Y277379D01*
X-170712Y277407D01*
G01X-161130Y248232D02*
X-166042D01*
X-166176Y248366D01*
G01X-167388Y257870D02*
Y262030D01*
X-167606Y262248D01*
G01X-170477Y265687D02*
X-168900D01*
X-167799Y264586D01*
G01X-172431Y267969D02*
Y267624D01*
X-174370Y265685D01*
X-174450D01*
G01X-181008Y281939D02*
X-179669D01*
X-177385Y284223D01*
X-172340D01*
X-167957Y279840D01*
Y269906D01*
X-164465Y266414D01*
X-160884D01*
X-159870Y267427D01*
G01X-175802Y259323D02*
X-174450Y260675D01*
Y261885D01*
G01X-173940Y257379D02*
Y258424D01*
X-170477Y261887D01*
G01X-171188Y257870D02*
Y255281D01*
X-171226Y255243D01*
G01X-180639Y284228D02*
X-179628Y285239D01*
X-171282D01*
X-166219Y280175D01*
Y279897D01*
G01X-166177Y277295D02*
X-165927D01*
X-164410Y278812D01*
Y280425D01*
X-170322Y286337D01*
X-181196D01*
X-181396Y286537D01*
G01X-159800Y259500D02*
X-159390Y259910D01*
X-154751D01*
X-150300Y264361D01*
Y274700D01*
X-152118Y276518D01*
Y284121D01*
X-152136Y284139D01*
Y289287D01*
X-152700Y289851D01*
X-155716Y292867D01*
Y316958D01*
X-166212Y327454D01*
Y340334D01*
X-165625Y340921D01*
G01X-156336Y-103768D02*
X-156070Y-104018D01*
X-155770Y-104168D01*
X-155503D01*
X-155236Y-104018D01*
X-155036Y-103768D01*
X-154936Y-103418D01*
X-155003Y-103068D01*
X-155170Y-102768D01*
X-155470Y-102568D01*
X-155870Y-102468D01*
X-156103Y-102268D01*
X-156203Y-101918D01*
X-156136Y-101568D01*
X-155970Y-101318D01*
X-155736Y-101168D01*
X-155503D01*
X-155270Y-101268D01*
X-155070Y-101518D01*
G01X-153970Y-104168D02*
X-153136Y-101168D01*
X-152303Y-104168D01*
G01X-152603Y-103118D02*
X-153670D01*
G01X-151503Y-104168D02*
Y-101168D01*
X-150636Y-103668D01*
X-149770Y-101168D01*
Y-104168D01*
G01X-147470D02*
X-148803D01*
Y-101168D01*
X-147470D01*
G01X-148003Y-102618D02*
X-148803D01*
G01X-145703Y-104168D02*
X-145636Y-103518D01*
X-145536Y-102968D01*
X-145403Y-102468D01*
X-145236Y-101918D01*
X-144970Y-101168D01*
X-146303D01*
G01X-143136D02*
X-143403Y-101268D01*
X-143603Y-101518D01*
X-143736Y-101818D01*
X-143836Y-102218D01*
X-143870Y-102668D01*
X-143836Y-103118D01*
X-143736Y-103518D01*
X-143603Y-103818D01*
X-143403Y-104068D01*
X-143136Y-104168D01*
X-142870Y-104068D01*
X-142670Y-103818D01*
X-142536Y-103518D01*
X-142436Y-103118D01*
X-142403Y-102668D01*
X-142436Y-102218D01*
X-142536Y-101818D01*
X-142670Y-101518D01*
X-142870Y-101268D01*
X-143136Y-101168D01*
G01X-141070Y-103168D02*
X-140203D01*
G01X-138836Y-104168D02*
X-137436Y-101168D01*
G01X-138836D02*
X-137436Y-104168D01*
G01X-136303D02*
Y-101168D01*
X-135503D01*
X-135236Y-101318D01*
X-135036Y-101668D01*
X-134970Y-102068D01*
X-135036Y-102468D01*
X-135203Y-102768D01*
X-135503Y-102918D01*
X-136303D01*
G01X-133803Y-101168D02*
Y-104168D01*
X-132470D01*
G01X-131370D02*
Y-101168D01*
X-130703D01*
X-130436Y-101318D01*
X-130236Y-101518D01*
X-130070Y-101818D01*
X-129937Y-102168D01*
X-129903Y-102668D01*
X-129937Y-103168D01*
X-130070Y-103518D01*
X-130236Y-103818D01*
X-130436Y-104018D01*
X-130703Y-104168D01*
X-131370D01*
G01X-155800Y-118600D02*
Y-115600D01*
X-156200Y-116200D01*
G01Y-118600D02*
X-155400D01*
G01X-154033Y-118150D02*
X-153833Y-118400D01*
X-153600Y-118550D01*
X-153300Y-118600D01*
X-153000Y-118500D01*
X-152767Y-118300D01*
X-152600Y-117950D01*
X-152567Y-117550D01*
X-152633Y-117150D01*
X-152800Y-116900D01*
X-153033Y-116700D01*
X-153267Y-116650D01*
X-153500Y-116700D01*
X-153800Y-116900D01*
X-153700Y-115600D01*
X-152800D01*
G01X-150800D02*
X-151067Y-115700D01*
X-151267Y-115950D01*
X-151400Y-116250D01*
X-151500Y-116650D01*
X-151533Y-117100D01*
X-151500Y-117550D01*
X-151400Y-117950D01*
X-151267Y-118250D01*
X-151067Y-118500D01*
X-150800Y-118600D01*
X-150533Y-118500D01*
X-150333Y-118250D01*
X-150200Y-117950D01*
X-150100Y-117550D01*
X-150067Y-117100D01*
X-150100Y-116650D01*
X-150200Y-116250D01*
X-150333Y-115950D01*
X-150533Y-115700D01*
X-150800Y-115600D01*
G01X-148933Y-117350D02*
X-148700Y-117000D01*
X-148500Y-116800D01*
X-148233Y-116700D01*
X-148000Y-116800D01*
X-147833Y-117000D01*
X-147700Y-117300D01*
X-147667Y-117650D01*
X-147700Y-117950D01*
X-147833Y-118250D01*
X-148033Y-118500D01*
X-148267Y-118600D01*
X-148533Y-118500D01*
X-148767Y-118200D01*
X-148900Y-117750D01*
X-148933Y-117250D01*
X-148867Y-116600D01*
X-148767Y-116250D01*
X-148600Y-115900D01*
X-148367Y-115650D01*
X-148133Y-115600D01*
X-147900Y-115700D01*
X-147733Y-115950D01*
G01X-145800Y-115600D02*
X-146067Y-115700D01*
X-146267Y-115950D01*
X-146400Y-116250D01*
X-146500Y-116650D01*
X-146533Y-117100D01*
X-146500Y-117550D01*
X-146400Y-117950D01*
X-146267Y-118250D01*
X-146067Y-118500D01*
X-145800Y-118600D01*
X-145533Y-118500D01*
X-145333Y-118250D01*
X-145200Y-117950D01*
X-145100Y-117550D01*
X-145067Y-117100D01*
X-145100Y-116650D01*
X-145200Y-116250D01*
X-145333Y-115950D01*
X-145533Y-115700D01*
X-145800Y-115600D01*
G01X-143300D02*
X-143567Y-115700D01*
X-143767Y-115950D01*
X-143900Y-116250D01*
X-144000Y-116650D01*
X-144033Y-117100D01*
X-144000Y-117550D01*
X-143900Y-117950D01*
X-143767Y-118250D01*
X-143567Y-118500D01*
X-143300Y-118600D01*
X-143033Y-118500D01*
X-142833Y-118250D01*
X-142700Y-117950D01*
X-142600Y-117550D01*
X-142567Y-117100D01*
X-142600Y-116650D01*
X-142700Y-116250D01*
X-142833Y-115950D01*
X-143033Y-115700D01*
X-143300Y-115600D01*
G01X-155127Y-85385D02*
Y-88385D01*
X-153794D01*
G01X-151361D02*
Y-86385D01*
G01Y-86735D02*
X-151494Y-86535D01*
X-151694Y-86435D01*
X-151927Y-86385D01*
X-152161Y-86485D01*
X-152361Y-86685D01*
X-152494Y-86985D01*
X-152561Y-87385D01*
X-152494Y-87785D01*
X-152361Y-88085D01*
X-152161Y-88285D01*
X-151927Y-88385D01*
X-151694Y-88335D01*
X-151494Y-88185D01*
X-151361Y-87985D01*
G01X-150161Y-89285D02*
X-149961Y-89385D01*
X-149694Y-89285D01*
X-149527Y-89085D01*
X-149394Y-88835D01*
X-149194Y-88035D01*
X-148761Y-86385D01*
G01X-149827D02*
X-149194Y-88035D01*
G01X-146961Y-88385D02*
X-147161Y-88335D01*
X-147361Y-88135D01*
X-147494Y-87785D01*
X-147561Y-87385D01*
X-147494Y-86985D01*
X-147361Y-86635D01*
X-147161Y-86435D01*
X-146961Y-86385D01*
X-146761Y-86435D01*
X-146561Y-86635D01*
X-146427Y-86985D01*
X-146394Y-87385D01*
X-146427Y-87785D01*
X-146561Y-88135D01*
X-146761Y-88335D01*
X-146961Y-88385D01*
G01X-145027Y-86385D02*
Y-87785D01*
X-144894Y-88135D01*
X-144694Y-88335D01*
X-144461Y-88385D01*
X-144227Y-88335D01*
X-144027Y-88135D01*
X-143894Y-87785D01*
G01Y-88385D02*
Y-86385D01*
G01X-141961Y-85385D02*
Y-88385D01*
G01X-142427Y-86385D02*
X-141494D01*
G01X-136227Y-85635D02*
X-136427Y-85485D01*
X-136661Y-85385D01*
X-136927D01*
X-137227Y-85535D01*
X-137461Y-85785D01*
X-137627Y-86085D01*
X-137761Y-86585D01*
X-137794Y-87035D01*
X-137727Y-87485D01*
X-137627Y-87785D01*
X-137427Y-88085D01*
X-137194Y-88285D01*
X-136961Y-88385D01*
X-136727D01*
X-136494Y-88285D01*
X-136294Y-88135D01*
X-136127Y-87935D01*
G01X-134961Y-87035D02*
X-133894D01*
X-133994Y-86685D01*
X-134161Y-86485D01*
X-134394Y-86385D01*
X-134627Y-86435D01*
X-134827Y-86585D01*
X-134961Y-86935D01*
X-135027Y-87235D01*
Y-87535D01*
X-134961Y-87835D01*
X-134794Y-88135D01*
X-134594Y-88335D01*
X-134361Y-88385D01*
X-134127Y-88285D01*
X-133894Y-87985D01*
G01X-132527Y-88385D02*
Y-86385D01*
G01Y-86885D02*
X-132394Y-86635D01*
X-132194Y-86435D01*
X-131927Y-86385D01*
X-131694Y-86435D01*
X-131494Y-86635D01*
X-131394Y-86985D01*
Y-88385D01*
G01X-129461Y-85385D02*
Y-88385D01*
G01X-129927Y-86385D02*
X-128994D01*
G01X-127461Y-87035D02*
X-126394D01*
X-126494Y-86685D01*
X-126661Y-86485D01*
X-126894Y-86385D01*
X-127127Y-86435D01*
X-127327Y-86585D01*
X-127461Y-86935D01*
X-127527Y-87235D01*
Y-87535D01*
X-127461Y-87835D01*
X-127294Y-88135D01*
X-127094Y-88335D01*
X-126861Y-88385D01*
X-126627Y-88285D01*
X-126394Y-87985D01*
G01X-124927Y-88385D02*
Y-86385D01*
G01Y-86785D02*
X-124761Y-86585D01*
X-124594Y-86435D01*
X-124361Y-86385D01*
X-124194Y-86435D01*
X-123994Y-86585D01*
G01X-29818Y35754D02*
X-31607Y33965D01*
X-162210D01*
X-162526Y33649D01*
G01X-152809Y47156D02*
X-152504Y47461D01*
X-18429D01*
X-16857Y45889D01*
G01X-77441Y84291D02*
X-133192D01*
X-134672Y85771D01*
X-144914D01*
G01X-155760Y155283D02*
X-155074Y154597D01*
X-148190D01*
G01X-147120Y143795D02*
X-139912Y136587D01*
X-59432D01*
X-57889Y138130D01*
X-37662D01*
G01X-157441Y143779D02*
X-147136D01*
X-147120Y143795D01*
G01X-148132Y209122D02*
X-139582Y200572D01*
Y185637D01*
X-136000Y182055D01*
X-129776D01*
X-128201Y183630D01*
X-125280D01*
X-124162Y182512D01*
G01X-133684Y228444D02*
X-134271Y227857D01*
X-149489D01*
X-149565Y227933D01*
G01X-151400Y244500D02*
X-151200Y244700D01*
X-142300D01*
X-129800Y257200D01*
X-127000D01*
X-122900Y261300D01*
Y302400D01*
X-131132Y310632D01*
Y334796D01*
X-130204Y335724D01*
Y345146D01*
X-128655Y346695D01*
X-123984D01*
X-119639Y342350D01*
X-117842D01*
X-116413Y340921D01*
G01X-150900Y238000D02*
X-138935D01*
X-136402Y240533D01*
X-121596D01*
X-118370Y243759D01*
Y246242D01*
X-115712Y248900D01*
X-83628D01*
X-81434Y246706D01*
G01X-157330Y248232D02*
X-154968D01*
X-154700Y248500D01*
G01X-140749Y276990D02*
X-141806Y278047D01*
Y292393D01*
X-146216Y296803D01*
Y306962D01*
X-138640Y314538D01*
Y329741D01*
X-136290Y332091D01*
G01X-137720Y83916D02*
X-136830Y83026D01*
X-86176D01*
X-77441Y74291D01*
G01X-136984Y144310D02*
X-77460D01*
X-77441Y144291D01*
G01X-133303Y171132D02*
X-133300Y171135D01*
X-83616D01*
X-82066Y169585D01*
X-72311D01*
X-70930Y170966D01*
G01X-126601Y181674D02*
X-126967D01*
X-127805Y180836D01*
X-137271D01*
X-141549Y185114D01*
Y194342D01*
G01X-126575Y193461D02*
X-127337D01*
X-127410Y193534D01*
Y193571D01*
X-132105Y198266D01*
Y198421D01*
G01X-132162Y204937D02*
X-130263Y203038D01*
X-102976D01*
X-101604Y204410D01*
X-82857D01*
X-81714Y203267D01*
Y201216D01*
X-79726Y199228D01*
X-53589D01*
X-52014Y200803D01*
G01X-129452Y215468D02*
X-125414D01*
X-125408Y215462D01*
G01X-129452Y215468D02*
X-132405D01*
X-132517Y215580D01*
G01X-131214Y230945D02*
X-128535Y228266D01*
X-118093D01*
X-115069Y225242D01*
X-97996D01*
X-96524Y226714D01*
X-89920D01*
X-85462Y222256D01*
X-64620D01*
X-60253Y226623D01*
X-52147D01*
G01X-42689Y234222D02*
X-56296D01*
X-66262Y224256D01*
X-83600D01*
X-88141Y228797D01*
X-97438D01*
X-98964Y227271D01*
X-114177D01*
X-121418Y234512D01*
X-133937D01*
X-135167Y233282D01*
G01X-131214Y230945D02*
X-131242Y230973D01*
X-133991D01*
X-134040Y231022D01*
G01X-133376Y250234D02*
X-130666D01*
X-120300Y260600D01*
Y311400D01*
X-119445Y312255D01*
Y321044D01*
G01X-126445D02*
X-119445D01*
G01X-126445Y332091D02*
X-128201D01*
X-129132Y331160D01*
Y323731D01*
X-126445Y321044D01*
G01X-136137Y340921D02*
Y332244D01*
X-136290Y332091D01*
G01X-126295Y340921D02*
Y332241D01*
X-126445Y332091D01*
G01X-115514Y42470D02*
X-101858D01*
X-100068Y44260D01*
G01X-88280Y42253D02*
X-90556Y39977D01*
X-118690D01*
X-120792Y42079D01*
G01X-77441Y94291D02*
X-123502D01*
X-124480Y95269D01*
G01X-91045Y107891D02*
X-116369D01*
X-116501Y108023D01*
G01X-118795Y157392D02*
X-116738Y159449D01*
X-73763D01*
X-71833Y157519D01*
X-54554D01*
G01X-83971Y186986D02*
X-85597Y188612D01*
X-114150D01*
X-116896Y185866D01*
X-124010D01*
G01X-90245Y180788D02*
X-90377Y180656D01*
X-110987D01*
X-111081Y180750D01*
G01X-109544Y207788D02*
X-107587Y209745D01*
X-81677D01*
X-80717Y208785D01*
X-58609D01*
X-58400Y208576D01*
G01X-115960Y207570D02*
X-109763D01*
X-109544Y207788D01*
G01X-119770Y211678D02*
Y207580D01*
X-119760Y207570D01*
G01X-83619Y198186D02*
X-111817D01*
X-112858Y197145D01*
G01X-115982Y215870D02*
X-112353D01*
X-110241Y213758D01*
X-86667D01*
X-82081Y218344D01*
X-72465D01*
X-71209Y219600D01*
G01X-115970Y211678D02*
X-82196D01*
X-80303Y209785D01*
X-68591D01*
X-66698Y211678D01*
X-40022D01*
X-39606Y212094D01*
G01X-125408Y215462D02*
X-120190D01*
X-119782Y215870D01*
G01D02*
Y211690D01*
X-119770Y211678D01*
G01X-90757Y223970D02*
X-91570Y223157D01*
X-116439D01*
X-118421Y225139D01*
G01X-110295Y231679D02*
X-87161D01*
X-81738Y226256D01*
X-67989D01*
X-57372Y236873D01*
X-42832D01*
G01X-120500Y247120D02*
X-116464Y251156D01*
X-101305D01*
X-97185Y255276D01*
X-73676D01*
X-66909Y248509D01*
G01X-65030Y237427D02*
X-66257Y236200D01*
X-98812D01*
X-100114Y237502D01*
X-116542D01*
X-117236Y236808D01*
G01X-17441Y260275D02*
X-21901Y264735D01*
X-96971D01*
X-108696Y253010D01*
G01X-27441Y270275D02*
X-32320D01*
X-36712Y265883D01*
X-98494D01*
X-111200Y253177D01*
G01X-57542Y278467D02*
X-60628Y275381D01*
X-94170D01*
X-112336Y257215D01*
X-112699D01*
G01X-87571Y309690D02*
X-87723Y309842D01*
X-102696D01*
X-111299Y301239D01*
Y263720D01*
X-112916Y262102D01*
G01X-116413Y340921D02*
Y333022D01*
X-117344Y332091D01*
G01X-102429Y26940D02*
X-102449Y26920D01*
Y21451D01*
X-100008Y19010D01*
X-92441D01*
X-87722Y14291D01*
X-87440D01*
G01X-91748Y99546D02*
X-91647Y99445D01*
X-72874D01*
X-71373Y100946D01*
X-52293D01*
G01X-101600Y128763D02*
X-87382D01*
X-87291Y128672D01*
G01X-27441Y140275D02*
X-61945D01*
X-62991Y139229D01*
X-87223D01*
X-89661Y141667D01*
G01X-104856Y168287D02*
X-104320Y168823D01*
X-91743D01*
G01X-45108Y168896D02*
X-45486Y168518D01*
X-82778D01*
X-85801Y165495D01*
X-93725D01*
G01X-16843Y187441D02*
X-24461Y179823D01*
X-85270D01*
X-89614Y184167D01*
X-92380D01*
G01X-77441Y240314D02*
X-90642D01*
X-91115Y240787D01*
G01X-90106Y351008D02*
X-92181Y353083D01*
Y364644D01*
X-89619Y367206D01*
X-89411D01*
G01X-90126Y353481D02*
X-91152Y354507D01*
Y361359D01*
X-89448Y363063D01*
Y363215D01*
G01X-93173Y351086D02*
X-93249Y351162D01*
Y367534D01*
X-89570Y371213D01*
X-89407D01*
G01X-44194Y82602D02*
X-59130D01*
X-77441Y64291D01*
G01X-70273Y119173D02*
X-69996D01*
X-66195Y115372D01*
X-24176D01*
X-22347Y117201D01*
Y135369D01*
X-17441Y140275D01*
G01X-47996Y130489D02*
X-49280Y129205D01*
X-86164D01*
X-86697Y128672D01*
X-87291D01*
G01X-65168Y144185D02*
X-65327Y144344D01*
X-77388D01*
X-77441Y144291D01*
G01Y154291D02*
X-31456D01*
X-27441Y150275D01*
G01X-77441Y174291D02*
X-87798D01*
X-87984Y174477D01*
G01X-77441Y194291D02*
X-67866D01*
X-67151Y193576D01*
G01X-32795Y204381D02*
X-32885Y204291D01*
X-77441D01*
G01Y214291D02*
X-65370D01*
X-65034Y214627D01*
G01X-77441Y260314D02*
X-69858D01*
X-67092Y257548D01*
G01X-22628Y255312D02*
X-31493D01*
X-35882Y250923D01*
X-59350D01*
X-63724Y246549D01*
X-68932D01*
X-72697Y250314D01*
X-77441D01*
G01Y280314D02*
X-46977D01*
G01X-77441Y270314D02*
X-37582D01*
X-37425Y270157D01*
G01X-77441Y320314D02*
X-53428D01*
X-51831Y318717D01*
G01X-77441Y310314D02*
X-50218D01*
X-49676Y309773D01*
G01X-75483Y337786D02*
Y335379D01*
X-75465Y335361D01*
G01X-69813Y335425D02*
Y336236D01*
X-71363Y337786D01*
G01X-77841Y335501D02*
X-77862Y335522D01*
Y335989D01*
X-79659Y337786D01*
G01X-70519Y353687D02*
X-71769Y352437D01*
Y349476D01*
X-79659Y341586D01*
G01X-85500Y358751D02*
Y354156D01*
X-86207Y353449D01*
G01X-85500Y358751D02*
X-84255Y357506D01*
X-71818D01*
X-70519Y358805D01*
G01X-71363Y341586D02*
X-69635Y343314D01*
Y349849D01*
X-69210Y350274D01*
Y355301D01*
X-68265Y356246D01*
X-67960D01*
G01X-75483Y341586D02*
X-70635Y346434D01*
Y350263D01*
X-70519Y350380D01*
Y351128D01*
G01X-73078Y366483D02*
X-74343Y367748D01*
X-77045D01*
X-78094Y368797D01*
G01X-75637Y369042D02*
X-77133Y370538D01*
X-84932D01*
X-85607Y371213D01*
G01X-85648Y363215D02*
X-82503Y360070D01*
X-69254D01*
X-67960Y361364D01*
G01X-85611Y367206D02*
X-78166D01*
X-76175Y365215D01*
X-71782D01*
X-70519Y363952D01*
Y363924D01*
G01X-75637D02*
X-78266D01*
X-78755Y364412D01*
G01X-75637Y361364D02*
X-76563Y362291D01*
X-78920D01*
X-78946Y362265D01*
G01X-75637Y374160D02*
Y375335D01*
X-64773Y386199D01*
X-58364D01*
X-54125Y381960D01*
X-42016D01*
G01X-75637Y374160D02*
X-80023D01*
X-85539Y379675D01*
G01X-85502Y375304D02*
X-83071Y372873D01*
X-78559D01*
X-77966Y372280D01*
G01D02*
X-77373Y372873D01*
X-74364D01*
X-74357Y372880D01*
X-73078Y371601D01*
G01X-57557Y-74385D02*
Y-124085D01*
G01X-54961Y-110485D02*
X-54694Y-110735D01*
X-54394Y-110885D01*
X-54127D01*
X-53861Y-110735D01*
X-53661Y-110485D01*
X-53561Y-110135D01*
X-53627Y-109785D01*
X-53794Y-109485D01*
X-54094Y-109285D01*
X-54494Y-109185D01*
X-54727Y-108985D01*
X-54827Y-108635D01*
X-54761Y-108285D01*
X-54594Y-108035D01*
X-54361Y-107885D01*
X-54127D01*
X-53894Y-107985D01*
X-53694Y-108235D01*
G01X-52461Y-110885D02*
Y-107885D01*
G01X-51061D02*
Y-110885D01*
G01Y-109385D02*
X-52461D01*
G01X-48594Y-110885D02*
X-49927D01*
Y-107885D01*
X-48594D01*
G01X-49127Y-109335D02*
X-49927D01*
G01X-46094Y-110885D02*
X-47427D01*
Y-107885D01*
X-46094D01*
G01X-46627Y-109335D02*
X-47427D01*
G01X-44261Y-107885D02*
Y-110885D01*
G01X-45027Y-107885D02*
X-43494D01*
G01X-54261Y-118385D02*
Y-121385D01*
G01X-55027Y-118385D02*
X-53494D01*
G01X-51761Y-121385D02*
X-52027Y-121335D01*
X-52261Y-121135D01*
X-52461Y-120835D01*
X-52594Y-120485D01*
X-52661Y-120085D01*
Y-119685D01*
X-52594Y-119285D01*
X-52461Y-118935D01*
X-52261Y-118635D01*
X-52027Y-118435D01*
X-51761Y-118385D01*
X-51494Y-118435D01*
X-51261Y-118635D01*
X-51061Y-118935D01*
X-50927Y-119285D01*
X-50861Y-119685D01*
Y-120085D01*
X-50927Y-120485D01*
X-51061Y-120835D01*
X-51261Y-121135D01*
X-51494Y-121335D01*
X-51761Y-121385D01*
G01X-49261Y-118385D02*
Y-121385D01*
G01X-50027Y-118385D02*
X-48494D01*
G01X-47594Y-121385D02*
X-46761Y-118385D01*
X-45927Y-121385D01*
G01X-46227Y-120335D02*
X-47294D01*
G01X-44927Y-118385D02*
Y-121385D01*
X-43594D01*
G01X-38861D02*
Y-118385D01*
X-40094Y-120535D01*
X-38427D01*
G01X-35094Y-121385D02*
X-34261Y-118385D01*
X-33427Y-121385D01*
G01X-33727Y-120335D02*
X-34794D01*
G01X-31761Y-121385D02*
Y-120035D01*
X-32427Y-118385D01*
G01X-31094D02*
X-31761Y-120035D01*
G01X-28594Y-121385D02*
X-29927D01*
Y-118385D01*
X-28594D01*
G01X-29127Y-119835D02*
X-29927D01*
G01X-27427Y-121385D02*
Y-118385D01*
X-26594D01*
X-26327Y-118535D01*
X-26161Y-118735D01*
X-26094Y-119135D01*
X-26161Y-119535D01*
X-26361Y-119785D01*
X-26594Y-119935D01*
X-27427D01*
G01X-26594D02*
X-26094Y-121385D01*
G01X-24961Y-120985D02*
X-24694Y-121235D01*
X-24394Y-121385D01*
X-24127D01*
X-23861Y-121235D01*
X-23661Y-120985D01*
X-23561Y-120635D01*
X-23627Y-120285D01*
X-23794Y-119985D01*
X-24094Y-119785D01*
X-24494Y-119685D01*
X-24727Y-119485D01*
X-24827Y-119135D01*
X-24761Y-118785D01*
X-24594Y-118535D01*
X-24361Y-118385D01*
X-24127D01*
X-23894Y-118485D01*
X-23694Y-118735D01*
G01X-57461Y-113885D02*
X40039D01*
G01X-53994Y-100885D02*
Y-97885D01*
X-53327D01*
X-53061Y-98035D01*
X-52861Y-98235D01*
X-52694Y-98535D01*
X-52561Y-98885D01*
X-52527Y-99385D01*
X-52561Y-99885D01*
X-52694Y-100235D01*
X-52861Y-100535D01*
X-53061Y-100735D01*
X-53327Y-100885D01*
X-53994D01*
G01X-51594D02*
X-50761Y-97885D01*
X-49927Y-100885D01*
G01X-50227Y-99835D02*
X-51294D01*
G01X-48261Y-97885D02*
Y-100885D01*
G01X-49027Y-97885D02*
X-47494D01*
G01X-45094Y-100885D02*
X-46427D01*
Y-97885D01*
X-45094D01*
G01X-45627Y-99335D02*
X-46427D01*
G01X-54023Y-85185D02*
Y-88185D01*
X-52690D01*
G01X-51690D02*
X-50857Y-85185D01*
X-50023Y-88185D01*
G01X-50323Y-87135D02*
X-51390D01*
G01X-48357Y-88185D02*
Y-86835D01*
X-49023Y-85185D01*
G01X-47690D02*
X-48357Y-86835D01*
G01X-45190Y-88185D02*
X-46523D01*
Y-85185D01*
X-45190D01*
G01X-45723Y-86635D02*
X-46523D01*
G01X-44023Y-88185D02*
Y-85185D01*
X-43190D01*
X-42923Y-85335D01*
X-42757Y-85535D01*
X-42690Y-85935D01*
X-42757Y-86335D01*
X-42957Y-86585D01*
X-43190Y-86735D01*
X-44023D01*
G01X-43190D02*
X-42690Y-88185D01*
G01X-57461Y-103885D02*
X40039D01*
G01X-40751Y56980D02*
X-61362D01*
X-62372Y57990D01*
G01X-44731Y66474D02*
X-54484D01*
X-55855Y67845D01*
G01X-44395Y94711D02*
X-53854D01*
X-53874Y94731D01*
G01X-58662Y111317D02*
X-57918D01*
X-56876Y110275D01*
X-27441D01*
G01Y100275D02*
X-30310Y103144D01*
X-64020D01*
G01X-60740Y106109D02*
X-59842Y105211D01*
X-22376D01*
X-17441Y100275D01*
G01X-68156Y121963D02*
X-66468Y120275D01*
X-27441D01*
G01X-69496Y162048D02*
X-67723Y160275D01*
X-27441D01*
G01X-54265Y246253D02*
X-54261Y246249D01*
X-30425D01*
X-29202Y245026D01*
X-22690D01*
X-17441Y250275D01*
G01X-38023Y252621D02*
X-40595Y255193D01*
X-62877D01*
G01X-52206Y248528D02*
X-52008Y248330D01*
X-34358D01*
X-32413Y250275D01*
X-27441D01*
G01X-45083Y268138D02*
X-67057D01*
X-67081Y268162D01*
G01X-55413Y337786D02*
Y335366D01*
X-55408Y335361D01*
G01X-57723Y358805D02*
X-58999Y357530D01*
Y349187D01*
X-51637Y341825D01*
Y338068D01*
X-44060Y330491D01*
G01X-67340Y337786D02*
Y335391D01*
X-67310Y335361D01*
G01X-65401Y353687D02*
X-66678Y352410D01*
Y349891D01*
X-66430Y349643D01*
Y342496D01*
X-67340Y341586D01*
G01X-63364D02*
X-59392D01*
G01X-65401Y351128D02*
Y343162D01*
X-63825Y341586D01*
X-63364D01*
G01X-62841Y358805D02*
X-64108Y357539D01*
Y354967D01*
G01X-57723Y353687D02*
X-56450Y352414D01*
Y348586D01*
X-50023Y342159D01*
Y340103D01*
X-39998Y330078D01*
Y318828D01*
X-34663Y313493D01*
X-15810D01*
X-10507Y318796D01*
G01X-52605Y353687D02*
X-51075D01*
X-49366Y351978D01*
Y347519D01*
X-36119Y334272D01*
Y329354D01*
X-33670Y326905D01*
X-25055D01*
X-21469Y330491D01*
G01X-32820D02*
Y339866D01*
X-49200Y356246D01*
X-52605D01*
G01X-55164D02*
X-53872Y354954D01*
Y353186D01*
X-53123Y352437D01*
X-51564D01*
X-50366Y351239D01*
Y346995D01*
X-37469Y334098D01*
Y323445D01*
X-32820Y318796D01*
G01X-21358D02*
X-24963Y315191D01*
X-34572D01*
X-38775Y319394D01*
Y333899D01*
X-48505Y343629D01*
X-49721D01*
X-53914Y347822D01*
Y351646D01*
X-55164Y352896D01*
Y353687D01*
G01X-60282Y358805D02*
X-59001Y360087D01*
X-56456D01*
Y360079D01*
X-56451D01*
G01X-61116Y344734D02*
X-64113Y347731D01*
Y352383D01*
X-62841Y353654D01*
Y353687D01*
G01X-55413Y341586D02*
X-60780Y346953D01*
Y349761D01*
X-61551Y350532D01*
Y355024D01*
X-62773Y356246D01*
X-62841D01*
G01X-52605Y366483D02*
X-51907Y365784D01*
X-46237D01*
X-43334Y362881D01*
G01X-62841Y374160D02*
Y383848D01*
X-62759Y383931D01*
G01X-47264Y373922D02*
X-48333Y372853D01*
X-56505D01*
X-57723Y371635D01*
Y371601D01*
G01X-46631Y369529D02*
X-52118D01*
X-52605Y369042D01*
G01X-49797Y367798D02*
X-49847Y367748D01*
X-53775D01*
X-55040Y366483D01*
X-55164D01*
G01X-39804Y360407D02*
X-49856D01*
X-52092Y362643D01*
X-59002D01*
X-60282Y363924D01*
G01X-52605Y371601D02*
X-52599Y371607D01*
X-43879D01*
G01X-52605Y361364D02*
X-49131Y357890D01*
X-43879D01*
G01X-17580Y52261D02*
X-43913Y78594D01*
X-44447D01*
G01X-44350Y74597D02*
X-50750D01*
X-51228Y75075D01*
G01X-44370Y90636D02*
X-45458Y91724D01*
X-48657D01*
G01X-50470Y98669D02*
X-50460Y98659D01*
X-44316D01*
G01X-17441Y230275D02*
X-22412Y225304D01*
X-30891D01*
X-34343Y228756D01*
X-43960D01*
X-44316Y229112D01*
G01X-17441Y220275D02*
X-23005Y214711D01*
X-45188D01*
X-49302Y218825D01*
Y219218D01*
G01X-27441Y220275D02*
X-37239D01*
G01X-27441Y240275D02*
X-31004Y243838D01*
X-38098D01*
G01X-36698Y233486D02*
X-34877Y235307D01*
X-22409D01*
X-17441Y240275D01*
G01X-27441Y260275D02*
X-36393D01*
X-38181Y262063D01*
G01X-17441Y270275D02*
X-22407Y275241D01*
X-37421D01*
X-39251Y273411D01*
X-49540D01*
G01X-43879Y354090D02*
X-40482D01*
X-40240Y354332D01*
G01X-43879Y367807D02*
X-39646D01*
X-39606Y367847D01*
G01X-24657Y-74285D02*
X-24561Y-94085D01*
X-24557Y-113785D01*
G01X-20594Y-98385D02*
X-20394Y-98085D01*
X-20161Y-97935D01*
X-19894Y-97885D01*
X-19561Y-97985D01*
X-19327Y-98235D01*
X-19261Y-98535D01*
X-19294Y-98835D01*
X-19427Y-99085D01*
X-20094Y-99585D01*
X-20394Y-99935D01*
X-20594Y-100435D01*
X-20661Y-100885D01*
X-19261D01*
G01X-17461Y-97885D02*
X-17727Y-97985D01*
X-17927Y-98235D01*
X-18061Y-98535D01*
X-18161Y-98935D01*
X-18194Y-99385D01*
X-18161Y-99835D01*
X-18061Y-100235D01*
X-17927Y-100535D01*
X-17727Y-100785D01*
X-17461Y-100885D01*
X-17194Y-100785D01*
X-16994Y-100535D01*
X-16861Y-100235D01*
X-16761Y-99835D01*
X-16727Y-99385D01*
X-16761Y-98935D01*
X-16861Y-98535D01*
X-16994Y-98235D01*
X-17194Y-97985D01*
X-17461Y-97885D01*
G01X-14961Y-100885D02*
Y-97885D01*
X-15361Y-98485D01*
G01Y-100885D02*
X-14561D01*
G01X-13194Y-100435D02*
X-12994Y-100685D01*
X-12761Y-100835D01*
X-12461Y-100885D01*
X-12161Y-100785D01*
X-11927Y-100585D01*
X-11761Y-100235D01*
X-11727Y-99835D01*
X-11794Y-99435D01*
X-11961Y-99185D01*
X-12194Y-98985D01*
X-12427Y-98935D01*
X-12661Y-98985D01*
X-12961Y-99185D01*
X-12861Y-97885D01*
X-11961D01*
G01X-10394Y-99885D02*
X-9527D01*
G01X-7461Y-100885D02*
Y-97885D01*
X-7861Y-98485D01*
G01Y-100885D02*
X-7061D01*
G01X-4961Y-97885D02*
X-5227Y-97985D01*
X-5427Y-98235D01*
X-5561Y-98535D01*
X-5661Y-98935D01*
X-5694Y-99385D01*
X-5661Y-99835D01*
X-5561Y-100235D01*
X-5427Y-100535D01*
X-5227Y-100785D01*
X-4961Y-100885D01*
X-4694Y-100785D01*
X-4494Y-100535D01*
X-4361Y-100235D01*
X-4261Y-99835D01*
X-4227Y-99385D01*
X-4261Y-98935D01*
X-4361Y-98535D01*
X-4494Y-98235D01*
X-4694Y-97985D01*
X-4961Y-97885D01*
G01X-2894Y-99885D02*
X-2027D01*
G01X39Y-100885D02*
Y-97885D01*
X-361Y-98485D01*
G01Y-100885D02*
X439D01*
G01X1806Y-100285D02*
X2006Y-100635D01*
X2273Y-100835D01*
X2573Y-100885D01*
X2839Y-100835D01*
X3106Y-100585D01*
X3273Y-100285D01*
X3306Y-99985D01*
X3239Y-99635D01*
X3006Y-99385D01*
X2773Y-99285D01*
X2473D01*
G01X2773D02*
X2973Y-99135D01*
X3139Y-98885D01*
X3206Y-98585D01*
X3139Y-98285D01*
X2973Y-98035D01*
X2673Y-97885D01*
X2373Y-97935D01*
X2073Y-98135D01*
G01X28039Y-74385D02*
X40039D01*
X40043Y-123985D01*
X26943D01*
G01X-328740Y0D02*
Y413385D01*
X0D01*
Y0D01*
X-328740D01*
G54D29*
X-198618Y352535D03*
G54D39*
G01X-78272Y353708D02*
X-77841D01*
X-77732Y353817D01*
X-75766D01*
X-75637Y353687D01*
G01Y356246D02*
X-76047Y355836D01*
X-78272D01*
G01X-73078Y353687D02*
X-74357Y352408D01*
G01X-73078Y356246D02*
X-74357Y354967D01*
M02*
