G04 ================== begin FILE IDENTIFICATION RECORD ==================*
G04 Layout Name:  E:/øÔ√¿¿º/new/SAME70-XPLD/gerber/SAME70-XPLD_150600-151013.brd*
G04 Film Name:    DRILL*
G04 File Format:  Gerber RS274X*
G04 File Origin:  Cadence Allegro 16.6-S006*
G04 Origin Date:  Tue Oct 13 10:22:20 2015*
G04 *
G04 Layer:  MANUFACTURING/PHOTOPLOT_OUTLINE*
G04 Layer:  MANUFACTURING/NCDRILL_LEGEND*
G04 Layer:  MANUFACTURING/NCDRILL_FIGURE*
G04 Layer:  MANUFACTURING/NCLEGEND-1-4*
G04 Layer:  DRAWING FORMAT/REVISION_BLOCK*
G04 Layer:  DRAWING FORMAT/DRILL_TXT*
G04 Layer:  BOARD GEOMETRY/OUTLINE*
G04 *
G04 Offset:    (0.000 0.000)*
G04 Mirror:    No*
G04 Mode:      Positive*
G04 Rotation:  0*
G04 FullContactRelief:  No*
G04 UndefLineWidth:     5.000*
G04 ================== end FILE IDENTIFICATION RECORD ====================*
%FSLAX55Y55*MOIN*%
%IR0*IPPOS*OFA0.00000B0.00000*MIA0B0*SFA1.00000B1.00000*%
%AMMACRO21*
1,1,.005,-.0165,-.013*
20,1,.005,-.0165,-.013,-.0165,.013,0.0*
1,1,.005,-.0165,.013*
20,1,.005,-.0165,.013,-.016249,.015865,0.0*
1,1,.005,-.016249,.015865*
20,1,.005,-.016249,.015865,-.015505,.018643,0.0*
1,1,.005,-.015505,.018643*
20,1,.005,-.015505,.018643,-.014289,.02125,0.0*
1,1,.005,-.014289,.02125*
20,1,.005,-.014289,.02125,-.01264,.023606,0.0*
1,1,.005,-.01264,.023606*
20,1,.005,-.01264,.023606,-.010606,.02564,0.0*
1,1,.005,-.010606,.02564*
20,1,.005,-.010606,.02564,-.00825,.027289,0.0*
1,1,.005,-.00825,.027289*
20,1,.005,-.00825,.027289,-.005643,.028505,0.0*
1,1,.005,-.005643,.028505*
20,1,.005,-.005643,.028505,-.002865,.029249,0.0*
1,1,.005,-.002865,.029249*
20,1,.005,-.002865,.029249,0.0,.0295,0.0*
1,1,.005,0.0,.0295*
20,1,.005,0.0,.0295,.002865,.029249,0.0*
1,1,.005,.002865,.029249*
20,1,.005,.002865,.029249,.005643,.028505,0.0*
1,1,.005,.005643,.028505*
20,1,.005,.005643,.028505,.00825,.027289,0.0*
1,1,.005,.00825,.027289*
20,1,.005,.00825,.027289,.010606,.02564,0.0*
1,1,.005,.010606,.02564*
20,1,.005,.010606,.02564,.01264,.023606,0.0*
1,1,.005,.01264,.023606*
20,1,.005,.01264,.023606,.014289,.02125,0.0*
1,1,.005,.014289,.02125*
20,1,.005,.014289,.02125,.015505,.018643,0.0*
1,1,.005,.015505,.018643*
20,1,.005,.015505,.018643,.016249,.015865,0.0*
1,1,.005,.016249,.015865*
20,1,.005,.016249,.015865,.0165,.013,0.0*
1,1,.005,.0165,.013*
20,1,.005,.0165,.013,.0165,-.013,0.0*
1,1,.005,.0165,-.013*
20,1,.005,.0165,-.013,.016249,-.015865,0.0*
1,1,.005,.016249,-.015865*
20,1,.005,.016249,-.015865,.015505,-.018643,0.0*
1,1,.005,.015505,-.018643*
20,1,.005,.015505,-.018643,.014289,-.02125,0.0*
1,1,.005,.014289,-.02125*
20,1,.005,.014289,-.02125,.01264,-.023606,0.0*
1,1,.005,.01264,-.023606*
20,1,.005,.01264,-.023606,.010606,-.02564,0.0*
1,1,.005,.010606,-.02564*
20,1,.005,.010606,-.02564,.00825,-.027289,0.0*
1,1,.005,.00825,-.027289*
20,1,.005,.00825,-.027289,.005643,-.028505,0.0*
1,1,.005,.005643,-.028505*
20,1,.005,.005643,-.028505,.002865,-.029249,0.0*
1,1,.005,.002865,-.029249*
20,1,.005,.002865,-.029249,0.0,-.0295,0.0*
1,1,.005,0.0,-.0295*
20,1,.005,0.0,-.0295,-.002865,-.029249,0.0*
1,1,.005,-.002865,-.029249*
20,1,.005,-.002865,-.029249,-.005643,-.028505,0.0*
1,1,.005,-.005643,-.028505*
20,1,.005,-.005643,-.028505,-.00825,-.027289,0.0*
1,1,.005,-.00825,-.027289*
20,1,.005,-.00825,-.027289,-.010606,-.02564,0.0*
1,1,.005,-.010606,-.02564*
20,1,.005,-.010606,-.02564,-.01264,-.023606,0.0*
1,1,.005,-.01264,-.023606*
20,1,.005,-.01264,-.023606,-.014289,-.02125,0.0*
1,1,.005,-.014289,-.02125*
20,1,.005,-.014289,-.02125,-.015505,-.018643,0.0*
1,1,.005,-.015505,-.018643*
20,1,.005,-.015505,-.018643,-.016249,-.015865,0.0*
1,1,.005,-.016249,-.015865*
20,1,.005,-.016249,-.015865,-.0165,-.013,0.0*
1,1,.005,-.0165,-.013*
1,1,.005,-.00605,-.00825*
20,1,.005,-.00605,-.00825,-.00605,.00825,0.0*
1,1,.005,-.00605,.00825*
1,1,.005,.0044,.00825*
20,1,.005,.0044,.00825,-.00605,-.001925,0.0*
1,1,.005,-.00605,-.001925*
1,1,.005,.00605,-.00825*
20,1,.005,.00605,-.00825,-.001375,.00275,0.0*
1,1,.005,-.001375,.00275*
%
%ADD21MACRO21*%
%AMMACRO13*
1,1,.005,-.013,.0165*
20,1,.005,-.013,.0165,.013,.0165,0.0*
1,1,.005,.013,.0165*
20,1,.005,.013,.0165,.015865,.016249,0.0*
1,1,.005,.015865,.016249*
20,1,.005,.015865,.016249,.018643,.015505,0.0*
1,1,.005,.018643,.015505*
20,1,.005,.018643,.015505,.02125,.014289,0.0*
1,1,.005,.02125,.014289*
20,1,.005,.02125,.014289,.023606,.01264,0.0*
1,1,.005,.023606,.01264*
20,1,.005,.023606,.01264,.02564,.010606,0.0*
1,1,.005,.02564,.010606*
20,1,.005,.02564,.010606,.027289,.00825,0.0*
1,1,.005,.027289,.00825*
20,1,.005,.027289,.00825,.028505,.005643,0.0*
1,1,.005,.028505,.005643*
20,1,.005,.028505,.005643,.029249,.002865,0.0*
1,1,.005,.029249,.002865*
20,1,.005,.029249,.002865,.0295,0.0,0.0*
1,1,.005,.0295,0.0*
20,1,.005,.0295,0.0,.029249,-.002865,0.0*
1,1,.005,.029249,-.002865*
20,1,.005,.029249,-.002865,.028505,-.005643,0.0*
1,1,.005,.028505,-.005643*
20,1,.005,.028505,-.005643,.027289,-.00825,0.0*
1,1,.005,.027289,-.00825*
20,1,.005,.027289,-.00825,.02564,-.010606,0.0*
1,1,.005,.02564,-.010606*
20,1,.005,.02564,-.010606,.023606,-.01264,0.0*
1,1,.005,.023606,-.01264*
20,1,.005,.023606,-.01264,.02125,-.014289,0.0*
1,1,.005,.02125,-.014289*
20,1,.005,.02125,-.014289,.018643,-.015505,0.0*
1,1,.005,.018643,-.015505*
20,1,.005,.018643,-.015505,.015865,-.016249,0.0*
1,1,.005,.015865,-.016249*
20,1,.005,.015865,-.016249,.013,-.0165,0.0*
1,1,.005,.013,-.0165*
20,1,.005,.013,-.0165,-.013,-.0165,0.0*
1,1,.005,-.013,-.0165*
20,1,.005,-.013,-.0165,-.015865,-.016249,0.0*
1,1,.005,-.015865,-.016249*
20,1,.005,-.015865,-.016249,-.018643,-.015505,0.0*
1,1,.005,-.018643,-.015505*
20,1,.005,-.018643,-.015505,-.02125,-.014289,0.0*
1,1,.005,-.02125,-.014289*
20,1,.005,-.02125,-.014289,-.023606,-.01264,0.0*
1,1,.005,-.023606,-.01264*
20,1,.005,-.023606,-.01264,-.02564,-.010606,0.0*
1,1,.005,-.02564,-.010606*
20,1,.005,-.02564,-.010606,-.027289,-.00825,0.0*
1,1,.005,-.027289,-.00825*
20,1,.005,-.027289,-.00825,-.028505,-.005643,0.0*
1,1,.005,-.028505,-.005643*
20,1,.005,-.028505,-.005643,-.029249,-.002865,0.0*
1,1,.005,-.029249,-.002865*
20,1,.005,-.029249,-.002865,-.0295,0.0,0.0*
1,1,.005,-.0295,0.0*
20,1,.005,-.0295,0.0,-.029249,.002865,0.0*
1,1,.005,-.029249,.002865*
20,1,.005,-.029249,.002865,-.028505,.005643,0.0*
1,1,.005,-.028505,.005643*
20,1,.005,-.028505,.005643,-.027289,.00825,0.0*
1,1,.005,-.027289,.00825*
20,1,.005,-.027289,.00825,-.02564,.010606,0.0*
1,1,.005,-.02564,.010606*
20,1,.005,-.02564,.010606,-.023606,.01264,0.0*
1,1,.005,-.023606,.01264*
20,1,.005,-.023606,.01264,-.02125,.014289,0.0*
1,1,.005,-.02125,.014289*
20,1,.005,-.02125,.014289,-.018643,.015505,0.0*
1,1,.005,-.018643,.015505*
20,1,.005,-.018643,.015505,-.015865,.016249,0.0*
1,1,.005,-.015865,.016249*
20,1,.005,-.015865,.016249,-.013,.0165,0.0*
1,1,.005,-.013,.0165*
1,1,.005,-.00605,-.00825*
20,1,.005,-.00605,-.00825,-.00605,.00825,0.0*
1,1,.005,-.00605,.00825*
1,1,.005,.0044,.00825*
20,1,.005,.0044,.00825,-.00605,-.001925,0.0*
1,1,.005,-.00605,-.001925*
1,1,.005,.00605,-.00825*
20,1,.005,.00605,-.00825,-.001375,.00275,0.0*
1,1,.005,-.001375,.00275*
%
%ADD13MACRO13*%
%AMMACRO11*
1,1,.005,0.0,.019*
20,1,.005,0.0,.019,.019,-.019,0.0*
1,1,.005,.019,-.019*
20,1,.005,.019,-.019,-.019,-.019,0.0*
1,1,.005,-.019,-.019*
20,1,.005,-.019,-.019,0.0,.019,0.0*
1,1,.005,0.0,.019*
1,1,.005,-.007283,-.0095*
20,1,.005,-.007283,-.0095,-.007283,.0095,0.0*
1,1,.005,-.007283,.0095*
20,1,.005,-.007283,.0095,.007283,-.0095,0.0*
1,1,.005,.007283,-.0095*
20,1,.005,.007283,-.0095,.007283,.0095,0.0*
1,1,.005,.007283,.0095*
%
%ADD11MACRO11*%
%AMMACRO20*
1,1,.005,.004,0.0*
20,1,.005,.004,0.0,-.004,0.0,0.0*
1,1,.005,-.004,0.0*
1,1,.005,0.0,.004*
20,1,.005,0.0,.004,0.0,-.004,0.0*
1,1,.005,0.0,-.004*
%
%ADD20MACRO20*%
%AMMACRO15*
1,1,.005,.02,0.0*
20,1,.005,.02,0.0,-.02,0.0,0.0*
1,1,.005,-.02,0.0*
1,1,.005,0.0,.02*
20,1,.005,0.0,.02,0.0,-.02,0.0*
1,1,.005,0.0,-.02*
1,1,.005,.001666,0.0*
20,1,.005,.001666,0.0,.01,.02,0.0*
1,1,.005,.01,.02*
20,1,.005,.01,.02,.018334,0.0,0.0*
1,1,.005,.018334,0.0*
1,1,.005,.015333,.007*
20,1,.005,.015333,.007,.004666,.007,0.0*
1,1,.005,.004666,.007*
%
%ADD15MACRO15*%
%AMMACRO16*
1,1,.005,.01,0.0*
20,1,.005,.01,0.0,0.0,-.01,0.0*
1,1,.005,0.0,-.01*
20,1,.005,0.0,-.01,-.01,0.0,0.0*
1,1,.005,-.01,0.0*
20,1,.005,-.01,0.0,0.0,.01,0.0*
1,1,.005,0.0,.01*
20,1,.005,0.0,.01,.01,0.0,0.0*
1,1,.005,.01,0.0*
1,1,.005,.003333,-.005*
20,1,.005,.003333,-.005,-.003333,-.005,0.0*
1,1,.005,-.003333,-.005*
20,1,.005,-.003333,-.005,-.003333,.005,0.0*
1,1,.005,-.003333,.005*
20,1,.005,-.003333,.005,.003333,.005,0.0*
1,1,.005,.003333,.005*
1,1,.005,.000667,.000167*
20,1,.005,.000667,.000167,-.003333,.000167,0.0*
1,1,.005,-.003333,.000167*
%
%ADD16MACRO16*%
%AMMACRO18*
1,1,.005,.02,0.0*
20,1,.005,.02,0.0,0.0,-.02,0.0*
1,1,.005,0.0,-.02*
20,1,.005,0.0,-.02,-.02,0.0,0.0*
1,1,.005,-.02,0.0*
20,1,.005,-.02,0.0,0.0,.02,0.0*
1,1,.005,0.0,.02*
20,1,.005,0.0,.02,.02,0.0,0.0*
1,1,.005,.02,0.0*
1,1,.005,.007333,.008333*
20,1,.005,.007333,.008333,.005333,.009333,0.0*
1,1,.005,.005333,.009333*
20,1,.005,.005333,.009333,.003,.01,0.0*
1,1,.005,.003,.01*
20,1,.005,.003,.01,.000334,.01,0.0*
1,1,.005,.000334,.01*
20,1,.005,.000334,.01,-.002667,.009,0.0*
1,1,.005,-.002667,.009*
20,1,.005,-.002667,.009,-.005,.007333,0.0*
1,1,.005,-.005,.007333*
20,1,.005,-.005,.007333,-.006667,.005333,0.0*
1,1,.005,-.006667,.005333*
20,1,.005,-.006667,.005333,-.008,.002,0.0*
1,1,.005,-.008,.002*
20,1,.005,-.008,.002,-.008334,-.001,0.0*
1,1,.005,-.008334,-.001*
20,1,.005,-.008334,-.001,-.007667,-.004,0.0*
1,1,.005,-.007667,-.004*
20,1,.005,-.007667,-.004,-.006667,-.006,0.0*
1,1,.005,-.006667,-.006*
20,1,.005,-.006667,-.006,-.004667,-.008,0.0*
1,1,.005,-.004667,-.008*
20,1,.005,-.004667,-.008,-.002333,-.009333,0.0*
1,1,.005,-.002333,-.009333*
20,1,.005,-.002333,-.009333,0.0,-.01,0.0*
1,1,.005,0.0,-.01*
20,1,.005,0.0,-.01,.002333,-.01,0.0*
1,1,.005,.002333,-.01*
20,1,.005,.002333,-.01,.004667,-.009333,0.0*
1,1,.005,.004667,-.009333*
20,1,.005,.004667,-.009333,.006667,-.008334,0.0*
1,1,.005,.006667,-.008334*
20,1,.005,.006667,-.008334,.008334,-.007001,0.0*
1,1,.005,.008334,-.007001*
%
%ADD18MACRO18*%
%AMMACRO17*
1,1,.005,.064,0.0*
20,1,.005,.064,0.0,.063028,-.011113,0.0*
1,1,.005,.063028,-.011113*
20,1,.005,.063028,-.011113,.06014,-.021889,0.0*
1,1,.005,.06014,-.021889*
20,1,.005,.06014,-.021889,.055426,-.032,0.0*
1,1,.005,.055426,-.032*
20,1,.005,.055426,-.032,.049027,-.041138,0.0*
1,1,.005,.049027,-.041138*
20,1,.005,.049027,-.041138,.041138,-.049027,0.0*
1,1,.005,.041138,-.049027*
20,1,.005,.041138,-.049027,.032,-.055426,0.0*
1,1,.005,.032,-.055426*
20,1,.005,.032,-.055426,.021889,-.06014,0.0*
1,1,.005,.021889,-.06014*
20,1,.005,.021889,-.06014,.011113,-.063028,0.0*
1,1,.005,.011113,-.063028*
20,1,.005,.011113,-.063028,0.0,-.064,0.0*
1,1,.005,0.0,-.064*
20,1,.005,0.0,-.064,-.011113,-.063028,0.0*
1,1,.005,-.011113,-.063028*
20,1,.005,-.011113,-.063028,-.021889,-.06014,0.0*
1,1,.005,-.021889,-.06014*
20,1,.005,-.021889,-.06014,-.032,-.055426,0.0*
1,1,.005,-.032,-.055426*
20,1,.005,-.032,-.055426,-.041138,-.049027,0.0*
1,1,.005,-.041138,-.049027*
20,1,.005,-.041138,-.049027,-.049027,-.041138,0.0*
1,1,.005,-.049027,-.041138*
20,1,.005,-.049027,-.041138,-.055426,-.032,0.0*
1,1,.005,-.055426,-.032*
20,1,.005,-.055426,-.032,-.06014,-.021889,0.0*
1,1,.005,-.06014,-.021889*
20,1,.005,-.06014,-.021889,-.063028,-.011113,0.0*
1,1,.005,-.063028,-.011113*
20,1,.005,-.063028,-.011113,-.064,0.0,0.0*
1,1,.005,-.064,0.0*
20,1,.005,-.064,0.0,-.063028,.011113,0.0*
1,1,.005,-.063028,.011113*
20,1,.005,-.063028,.011113,-.06014,.021889,0.0*
1,1,.005,-.06014,.021889*
20,1,.005,-.06014,.021889,-.055426,.032,0.0*
1,1,.005,-.055426,.032*
20,1,.005,-.055426,.032,-.049027,.041138,0.0*
1,1,.005,-.049027,.041138*
20,1,.005,-.049027,.041138,-.041138,.049027,0.0*
1,1,.005,-.041138,.049027*
20,1,.005,-.041138,.049027,-.032,.055426,0.0*
1,1,.005,-.032,.055426*
20,1,.005,-.032,.055426,-.021889,.06014,0.0*
1,1,.005,-.021889,.06014*
20,1,.005,-.021889,.06014,-.011113,.063028,0.0*
1,1,.005,-.011113,.063028*
20,1,.005,-.011113,.063028,0.0,.064,0.0*
1,1,.005,0.0,.064*
20,1,.005,0.0,.064,.011113,.063028,0.0*
1,1,.005,.011113,.063028*
20,1,.005,.011113,.063028,.021889,.06014,0.0*
1,1,.005,.021889,.06014*
20,1,.005,.021889,.06014,.032,.055426,0.0*
1,1,.005,.032,.055426*
20,1,.005,.032,.055426,.041138,.049027,0.0*
1,1,.005,.041138,.049027*
20,1,.005,.041138,.049027,.049027,.041138,0.0*
1,1,.005,.049027,.041138*
20,1,.005,.049027,.041138,.055426,.032,0.0*
1,1,.005,.055426,.032*
20,1,.005,.055426,.032,.06014,.021889,0.0*
1,1,.005,.06014,.021889*
20,1,.005,.06014,.021889,.063028,.011113,0.0*
1,1,.005,.063028,.011113*
20,1,.005,.063028,.011113,.064,0.0,0.0*
1,1,.005,.064,0.0*
1,1,.005,-.026668,-.032*
20,1,.005,-.026668,-.032,-.000001,.032,0.0*
1,1,.005,-.000001,.032*
20,1,.005,-.000001,.032,.026668,-.032,0.0*
1,1,.005,.026668,-.032*
1,1,.005,.017066,-.009601*
20,1,.005,.017066,-.009601,-.017068,-.009601,0.0*
1,1,.005,-.017068,-.009601*
%
%ADD17MACRO17*%
%AMMACRO12*
1,1,.005,.006,0.0*
20,1,.005,.006,0.0,-.006,0.0,0.0*
1,1,.005,-.006,0.0*
1,1,.005,0.0,.006*
20,1,.005,0.0,.006,0.0,-.006,0.0*
1,1,.005,0.0,-.006*
1,1,.005,.001,.006*
20,1,.005,.001,.006,.001,0.0,0.0*
1,1,.005,.001,0.0*
20,1,.005,.001,0.0,.005,0.0,0.0*
1,1,.005,.005,0.0*
%
%ADD12MACRO12*%
%AMMACRO19*
1,1,.005,.026,.026*
20,1,.005,.026,.026,.026,-.026,0.0*
1,1,.005,.026,-.026*
20,1,.005,.026,-.026,-.026,-.026,0.0*
1,1,.005,-.026,-.026*
20,1,.005,-.026,-.026,-.026,.026,0.0*
1,1,.005,-.026,.026*
20,1,.005,-.026,.026,.026,.026,0.0*
1,1,.005,.026,.026*
1,1,.005,-.0052,.013*
20,1,.005,-.0052,.013,.005199,.013,0.0*
1,1,.005,.005199,.013*
1,1,.005,0.0,.013*
20,1,.005,0.0,.013,0.0,-.013,0.0*
1,1,.005,0.0,-.013*
1,1,.005,-.0052,-.013*
20,1,.005,-.0052,-.013,.005199,-.013,0.0*
1,1,.005,.005199,-.013*
%
%ADD19MACRO19*%
%AMMACRO22*
1,1,.005,-.015,-.002*
20,1,.005,-.015,-.002,-.015,.002,0.0*
1,1,.005,-.015,.002*
20,1,.005,-.015,.002,-.014772,.004605,0.0*
1,1,.005,-.014772,.004605*
20,1,.005,-.014772,.004605,-.014095,.00713,0.0*
1,1,.005,-.014095,.00713*
20,1,.005,-.014095,.00713,-.01299,.0095,0.0*
1,1,.005,-.01299,.0095*
20,1,.005,-.01299,.0095,-.011491,.011642,0.0*
1,1,.005,-.011491,.011642*
20,1,.005,-.011491,.011642,-.009642,.013491,0.0*
1,1,.005,-.009642,.013491*
20,1,.005,-.009642,.013491,-.0075,.01499,0.0*
1,1,.005,-.0075,.01499*
20,1,.005,-.0075,.01499,-.00513,.016095,0.0*
1,1,.005,-.00513,.016095*
20,1,.005,-.00513,.016095,-.002605,.016772,0.0*
1,1,.005,-.002605,.016772*
20,1,.005,-.002605,.016772,0.0,.017,0.0*
1,1,.005,0.0,.017*
20,1,.005,0.0,.017,.002605,.016772,0.0*
1,1,.005,.002605,.016772*
20,1,.005,.002605,.016772,.00513,.016095,0.0*
1,1,.005,.00513,.016095*
20,1,.005,.00513,.016095,.0075,.01499,0.0*
1,1,.005,.0075,.01499*
20,1,.005,.0075,.01499,.009642,.013491,0.0*
1,1,.005,.009642,.013491*
20,1,.005,.009642,.013491,.011491,.011642,0.0*
1,1,.005,.011491,.011642*
20,1,.005,.011491,.011642,.01299,.0095,0.0*
1,1,.005,.01299,.0095*
20,1,.005,.01299,.0095,.014095,.00713,0.0*
1,1,.005,.014095,.00713*
20,1,.005,.014095,.00713,.014772,.004605,0.0*
1,1,.005,.014772,.004605*
20,1,.005,.014772,.004605,.015,.002,0.0*
1,1,.005,.015,.002*
20,1,.005,.015,.002,.015,-.002,0.0*
1,1,.005,.015,-.002*
20,1,.005,.015,-.002,.014772,-.004605,0.0*
1,1,.005,.014772,-.004605*
20,1,.005,.014772,-.004605,.014095,-.00713,0.0*
1,1,.005,.014095,-.00713*
20,1,.005,.014095,-.00713,.01299,-.0095,0.0*
1,1,.005,.01299,-.0095*
20,1,.005,.01299,-.0095,.011491,-.011642,0.0*
1,1,.005,.011491,-.011642*
20,1,.005,.011491,-.011642,.009642,-.013491,0.0*
1,1,.005,.009642,-.013491*
20,1,.005,.009642,-.013491,.0075,-.01499,0.0*
1,1,.005,.0075,-.01499*
20,1,.005,.0075,-.01499,.00513,-.016095,0.0*
1,1,.005,.00513,-.016095*
20,1,.005,.00513,-.016095,.002605,-.016772,0.0*
1,1,.005,.002605,-.016772*
20,1,.005,.002605,-.016772,0.0,-.017,0.0*
1,1,.005,0.0,-.017*
20,1,.005,0.0,-.017,-.002605,-.016772,0.0*
1,1,.005,-.002605,-.016772*
20,1,.005,-.002605,-.016772,-.00513,-.016095,0.0*
1,1,.005,-.00513,-.016095*
20,1,.005,-.00513,-.016095,-.0075,-.01499,0.0*
1,1,.005,-.0075,-.01499*
20,1,.005,-.0075,-.01499,-.009642,-.013491,0.0*
1,1,.005,-.009642,-.013491*
20,1,.005,-.009642,-.013491,-.011491,-.011642,0.0*
1,1,.005,-.011491,-.011642*
20,1,.005,-.011491,-.011642,-.01299,-.0095,0.0*
1,1,.005,-.01299,-.0095*
20,1,.005,-.01299,-.0095,-.014095,-.00713,0.0*
1,1,.005,-.014095,-.00713*
20,1,.005,-.014095,-.00713,-.014772,-.004605,0.0*
1,1,.005,-.014772,-.004605*
20,1,.005,-.014772,-.004605,-.015,-.002,0.0*
1,1,.005,-.015,-.002*
1,1,.005,-.005,-.0045*
20,1,.005,-.005,-.0045,-.00375,-.006,0.0*
1,1,.005,-.00375,-.006*
20,1,.005,-.00375,-.006,-.00225,-.007,0.0*
1,1,.005,-.00225,-.007*
20,1,.005,-.00225,-.007,-.0005,-.0075,0.0*
1,1,.005,-.0005,-.0075*
20,1,.005,-.0005,-.0075,.0015,-.007,0.0*
1,1,.005,.0015,-.007*
20,1,.005,.0015,-.007,.003,-.006,0.0*
1,1,.005,.003,-.006*
20,1,.005,.003,-.006,.0045,-.0045,0.0*
1,1,.005,.0045,-.0045*
20,1,.005,.0045,-.0045,.005,-.0025,0.0*
1,1,.005,.005,-.0025*
20,1,.005,.005,-.0025,.005,.0075,0.0*
1,1,.005,.005,.0075*
%
%ADD22MACRO22*%
%AMMACRO14*
1,1,.005,-.002,.015*
20,1,.005,-.002,.015,.002,.015,0.0*
1,1,.005,.002,.015*
20,1,.005,.002,.015,.004605,.014772,0.0*
1,1,.005,.004605,.014772*
20,1,.005,.004605,.014772,.00713,.014095,0.0*
1,1,.005,.00713,.014095*
20,1,.005,.00713,.014095,.0095,.01299,0.0*
1,1,.005,.0095,.01299*
20,1,.005,.0095,.01299,.011642,.011491,0.0*
1,1,.005,.011642,.011491*
20,1,.005,.011642,.011491,.013491,.009642,0.0*
1,1,.005,.013491,.009642*
20,1,.005,.013491,.009642,.01499,.0075,0.0*
1,1,.005,.01499,.0075*
20,1,.005,.01499,.0075,.016095,.00513,0.0*
1,1,.005,.016095,.00513*
20,1,.005,.016095,.00513,.016772,.002605,0.0*
1,1,.005,.016772,.002605*
20,1,.005,.016772,.002605,.017,0.0,0.0*
1,1,.005,.017,0.0*
20,1,.005,.017,0.0,.016772,-.002605,0.0*
1,1,.005,.016772,-.002605*
20,1,.005,.016772,-.002605,.016095,-.00513,0.0*
1,1,.005,.016095,-.00513*
20,1,.005,.016095,-.00513,.01499,-.0075,0.0*
1,1,.005,.01499,-.0075*
20,1,.005,.01499,-.0075,.013491,-.009642,0.0*
1,1,.005,.013491,-.009642*
20,1,.005,.013491,-.009642,.011642,-.011491,0.0*
1,1,.005,.011642,-.011491*
20,1,.005,.011642,-.011491,.0095,-.01299,0.0*
1,1,.005,.0095,-.01299*
20,1,.005,.0095,-.01299,.00713,-.014095,0.0*
1,1,.005,.00713,-.014095*
20,1,.005,.00713,-.014095,.004605,-.014772,0.0*
1,1,.005,.004605,-.014772*
20,1,.005,.004605,-.014772,.002,-.015,0.0*
1,1,.005,.002,-.015*
20,1,.005,.002,-.015,-.002,-.015,0.0*
1,1,.005,-.002,-.015*
20,1,.005,-.002,-.015,-.004605,-.014772,0.0*
1,1,.005,-.004605,-.014772*
20,1,.005,-.004605,-.014772,-.00713,-.014095,0.0*
1,1,.005,-.00713,-.014095*
20,1,.005,-.00713,-.014095,-.0095,-.01299,0.0*
1,1,.005,-.0095,-.01299*
20,1,.005,-.0095,-.01299,-.011642,-.011491,0.0*
1,1,.005,-.011642,-.011491*
20,1,.005,-.011642,-.011491,-.013491,-.009642,0.0*
1,1,.005,-.013491,-.009642*
20,1,.005,-.013491,-.009642,-.01499,-.0075,0.0*
1,1,.005,-.01499,-.0075*
20,1,.005,-.01499,-.0075,-.016095,-.00513,0.0*
1,1,.005,-.016095,-.00513*
20,1,.005,-.016095,-.00513,-.016772,-.002605,0.0*
1,1,.005,-.016772,-.002605*
20,1,.005,-.016772,-.002605,-.017,0.0,0.0*
1,1,.005,-.017,0.0*
20,1,.005,-.017,0.0,-.016772,.002605,0.0*
1,1,.005,-.016772,.002605*
20,1,.005,-.016772,.002605,-.016095,.00513,0.0*
1,1,.005,-.016095,.00513*
20,1,.005,-.016095,.00513,-.01499,.0075,0.0*
1,1,.005,-.01499,.0075*
20,1,.005,-.01499,.0075,-.013491,.009642,0.0*
1,1,.005,-.013491,.009642*
20,1,.005,-.013491,.009642,-.011642,.011491,0.0*
1,1,.005,-.011642,.011491*
20,1,.005,-.011642,.011491,-.0095,.01299,0.0*
1,1,.005,-.0095,.01299*
20,1,.005,-.0095,.01299,-.00713,.014095,0.0*
1,1,.005,-.00713,.014095*
20,1,.005,-.00713,.014095,-.004605,.014772,0.0*
1,1,.005,-.004605,.014772*
20,1,.005,-.004605,.014772,-.002,.015,0.0*
1,1,.005,-.002,.015*
1,1,.005,-.005,-.0045*
20,1,.005,-.005,-.0045,-.00375,-.006,0.0*
1,1,.005,-.00375,-.006*
20,1,.005,-.00375,-.006,-.00225,-.007,0.0*
1,1,.005,-.00225,-.007*
20,1,.005,-.00225,-.007,-.0005,-.0075,0.0*
1,1,.005,-.0005,-.0075*
20,1,.005,-.0005,-.0075,.0015,-.007,0.0*
1,1,.005,.0015,-.007*
20,1,.005,.0015,-.007,.003,-.006,0.0*
1,1,.005,.003,-.006*
20,1,.005,.003,-.006,.0045,-.0045,0.0*
1,1,.005,.0045,-.0045*
20,1,.005,.0045,-.0045,.005,-.0025,0.0*
1,1,.005,.005,-.0025*
20,1,.005,.005,-.0025,.005,.0075,0.0*
1,1,.005,.005,.0075*
%
%ADD14MACRO14*%
%AMMACRO10*
1,1,.005,.01,0.0*
20,1,.005,.01,0.0,-.01,0.0,0.0*
1,1,.005,-.01,0.0*
1,1,.005,0.0,.01*
20,1,.005,0.0,.01,0.0,-.01,0.0*
1,1,.005,0.0,-.01*
%
%ADD10MACRO10*%
%ADD23C,.005*%
G75*
%LPD*%
G75*
G54D10*
X-325413Y3233D03*
X-325514Y49386D03*
X-325650Y90431D03*
X-325413Y126405D03*
X-311585Y146793D03*
X-325720Y160078D03*
X-325616Y186857D03*
X-325751Y215934D03*
X-325683Y241156D03*
X-325818Y263403D03*
X-325244Y324194D03*
X-324976Y354418D03*
X-324705Y385052D03*
X-325652Y410204D03*
X-293262Y3199D03*
X-292854Y27004D03*
X-302784Y118698D03*
X-292383Y106387D03*
X-302785Y134806D03*
X-299541Y137451D03*
X-304209Y142009D03*
X-303812Y146736D03*
X-304209Y171691D03*
X-304565Y161757D03*
X-299895Y186314D03*
X-293246Y196822D03*
X-304318Y213671D03*
X-301990Y220927D03*
X-301988Y241883D03*
X-293868Y287814D03*
X-299483Y319458D03*
X-294436Y308607D03*
X-304115Y410204D03*
X-285722Y41710D03*
X-290758Y46140D03*
X-291772Y61084D03*
X-285722Y51642D03*
X-290834Y78749D03*
X-288526Y75082D03*
X-290815Y68543D03*
X-276966Y85358D03*
X-282635Y140544D03*
Y169197D03*
X-291402Y177129D03*
X-279524Y184335D03*
X-281928Y208468D03*
X-279039Y204416D03*
X-277571Y194401D03*
X-290516Y196683D03*
X-281544Y223890D03*
X-273920Y272194D03*
X-285418Y268202D03*
X-277008Y303522D03*
X-275005Y323853D03*
X-289777Y335689D03*
X-286500Y355026D03*
X-287106Y382617D03*
X-279197Y410272D03*
X-266955Y3201D03*
X-257865Y31393D03*
X-269593Y27950D03*
X-257984Y35429D03*
X-272771Y56723D03*
X-272940Y46783D03*
X-272841Y76364D03*
X-272469Y67303D03*
X-258063Y179804D03*
X-258290Y187175D03*
X-255497Y208254D03*
X-271529Y205832D03*
X-262327Y219527D03*
X-262458Y236147D03*
Y231347D03*
X-261072Y271991D03*
X-257827Y300594D03*
X-266011Y307371D03*
X-238149Y3436D03*
X-248169Y40653D03*
X-243464Y37606D03*
X-237950Y53385D03*
X-237990Y57430D03*
X-238033Y61457D03*
X-238660Y79333D03*
X-247557Y64795D03*
X-238545Y66758D03*
X-238506Y69319D03*
X-239225Y87710D03*
X-252918Y87472D03*
X-252939Y97664D03*
X-251730Y137281D03*
X-247818Y123209D03*
X-245723Y131948D03*
X-254494Y129311D03*
X-237900Y136725D03*
X-251477Y139989D03*
X-244784Y142107D03*
X-245169Y139700D03*
X-236310Y147933D03*
X-239367Y155324D03*
X-237836Y139126D03*
X-239415Y152797D03*
X-244965Y158334D03*
X-243051Y164244D03*
X-242930Y161704D03*
X-240932Y159658D03*
X-236292Y208169D03*
X-240922Y204226D03*
X-253733Y227961D03*
X-251748Y229844D03*
X-237112Y218638D03*
X-253601Y242422D03*
X-250158Y242509D03*
X-252054Y245369D03*
X-249413Y230559D03*
X-254462Y263614D03*
X-246189Y249455D03*
X-236241Y336839D03*
X-248210Y324504D03*
X-236179Y325477D03*
X-239165Y328190D03*
X-239177Y325477D03*
X-236198Y328126D03*
X-249945Y331906D03*
X-249869Y328323D03*
X-246642Y328399D03*
X-246718Y331982D03*
X-242209Y394719D03*
X-252521Y410136D03*
X-221041Y9184D03*
X-227312Y42078D03*
X-227441Y38754D03*
X-228860Y53512D03*
X-224603Y67508D03*
X-221297Y68524D03*
X-234458Y136099D03*
X-231172Y133032D03*
X-231654Y152149D03*
X-220908Y139062D03*
X-223446Y145850D03*
X-228585Y139062D03*
X-231123Y145850D03*
X-220887D03*
X-223467Y139062D03*
X-218482Y139689D03*
X-228564Y145850D03*
X-231144Y139062D03*
X-228170Y152128D03*
X-222089Y153099D03*
X-234114Y139034D03*
X-219441Y206395D03*
X-228906Y202217D03*
X-224250Y197297D03*
X-223455Y207730D03*
X-219417Y203988D03*
X-227730Y214573D03*
X-227756Y219794D03*
X-232709Y222901D03*
X-222081D03*
X-218224Y215927D03*
X-225827Y266710D03*
X-230440Y276116D03*
X-225798Y270985D03*
X-229814Y270441D03*
X-227398Y304246D03*
X-219703Y299112D03*
X-220465Y290272D03*
X-219677Y305819D03*
X-228010Y339972D03*
X-220198Y340010D03*
X-224285Y324556D03*
X-233101Y336250D03*
Y328339D03*
X-220871Y351201D03*
X-227530Y345261D03*
X-221463Y371326D03*
X-224531Y376392D03*
X-231358Y377737D03*
X-236098Y386471D03*
X-236078Y390781D03*
X-234127Y388572D03*
X-225436Y384872D03*
X-199809Y3842D03*
X-207440Y36652D03*
X-202617Y34717D03*
X-215530Y45041D03*
X-205016Y54185D03*
X-210187Y56329D03*
X-210334Y53674D03*
X-200103Y60909D03*
X-200074Y56724D03*
X-207271Y63782D03*
X-211693Y68970D03*
X-205408Y132991D03*
X-214998Y154656D03*
X-215769Y145850D03*
X-205501Y151958D03*
X-210706Y139059D03*
X-205598Y143374D03*
X-205520Y139073D03*
X-201787Y142625D03*
X-199812Y141097D03*
X-206134Y156392D03*
X-203935Y183811D03*
X-207010Y209911D03*
X-206925Y203978D03*
X-207095Y207213D03*
X-207103Y197996D03*
X-216374Y207523D03*
X-216354Y209858D03*
X-212501Y193804D03*
X-216671Y201488D03*
X-204541Y221460D03*
X-206376Y216135D03*
X-206979Y221514D03*
X-202886Y226307D03*
X-201743Y228670D03*
X-206500Y231328D03*
X-203916Y240692D03*
X-204029Y237675D03*
X-206935Y248366D03*
X-216914Y230405D03*
X-207115Y256930D03*
X-201908Y264539D03*
X-206876Y260872D03*
X-216845Y255406D03*
X-206915Y251002D03*
X-211939Y267004D03*
X-201908Y268032D03*
X-206392Y274288D03*
X-211980Y282880D03*
X-206722Y277558D03*
X-214851Y287338D03*
X-206595Y297131D03*
X-206747Y306149D03*
X-203318Y334676D03*
X-201616Y325887D03*
X-206438Y328249D03*
X-215311Y329208D03*
Y339410D03*
X-206290Y334067D03*
X-202656Y350744D03*
X-213367Y359772D03*
X-217061Y356017D03*
X-209689D03*
X-215541Y348015D03*
X-214435Y374218D03*
X-214351Y371391D03*
X-217032Y363532D03*
X-209718Y363475D03*
X-203595Y381130D03*
X-212318Y410204D03*
X-201616Y405703D03*
X-207052Y397777D03*
X-212539Y405754D03*
X-189403Y42514D03*
X-183296Y61233D03*
X-188255Y44769D03*
X-188521Y122005D03*
X-197802Y133007D03*
X-186090Y121933D03*
X-197032Y152423D03*
X-196996Y155348D03*
X-196610Y140663D03*
X-184354Y174061D03*
Y171761D03*
X-182433Y164704D03*
X-195828Y159115D03*
X-187954Y163178D03*
X-184458Y160593D03*
X-182686Y162355D03*
X-190057Y157900D03*
X-191778Y156361D03*
X-187941Y158832D03*
X-197912Y178376D03*
X-195773Y192655D03*
X-180565Y182644D03*
X-184295Y176421D03*
X-193101Y183651D03*
X-186573Y174723D03*
X-191429Y193474D03*
X-187232Y197619D03*
X-186657Y195337D03*
X-196687Y221862D03*
X-192953Y216654D03*
X-197475Y231235D03*
X-183796Y236827D03*
X-182586Y262987D03*
X-184955Y263038D03*
X-185645Y266636D03*
X-187101Y254190D03*
X-183122Y254119D03*
X-194059Y268001D03*
X-184205Y279771D03*
X-192459Y277134D03*
X-184161Y277045D03*
X-194446Y285183D03*
X-197824Y279442D03*
X-183520Y282036D03*
X-180639Y284228D03*
X-181008Y281939D03*
X-193512Y296521D03*
X-181396Y286537D03*
X-193817Y305844D03*
X-196977Y335182D03*
X-185168Y325887D03*
X-196672D03*
X-191659D03*
X-193220Y335349D03*
X-188642Y335090D03*
X-196272Y347981D03*
X-186913Y356138D03*
X-184034Y354834D03*
X-186979Y369149D03*
X-183549Y366659D03*
X-182768Y410004D03*
X-173775Y3504D03*
X-172341Y31390D03*
X-162526Y33649D03*
X-173686Y44829D03*
X-175425Y172730D03*
X-178771Y158562D03*
X-175545Y166928D03*
X-177716Y160937D03*
X-179617Y192725D03*
X-164611Y175517D03*
X-177314Y183829D03*
X-170522Y193283D03*
X-169100Y209632D03*
X-176060Y204181D03*
X-170565Y195687D03*
Y198039D03*
X-170421Y200494D03*
X-178114Y214218D03*
X-167602Y212022D03*
X-166176Y248366D03*
X-177989Y265185D03*
X-167606Y262248D03*
X-167799Y264586D03*
X-175802Y259323D03*
X-173940Y257379D03*
X-171226Y255243D03*
X-176721Y282553D03*
X-176735Y280189D03*
X-170712Y277407D03*
X-172431Y267969D03*
X-163452Y268070D03*
X-164243Y283791D03*
X-163186Y276989D03*
X-166219Y279897D03*
X-166177Y277295D03*
X-175498Y297604D03*
X-162290Y304558D03*
X-177965Y335108D03*
X-179274Y357447D03*
X-164071Y366896D03*
X-146763Y3436D03*
X-157341Y43028D03*
X-152809Y47156D03*
X-146387Y100003D03*
X-144914Y85771D03*
X-148190Y154597D03*
X-155760Y155283D03*
X-147120Y143795D03*
X-156652Y183616D03*
X-150274Y202043D03*
X-152328Y197282D03*
X-148132Y209122D03*
X-155979Y200095D03*
X-149565Y227933D03*
X-151400Y244500D03*
X-150900Y238000D03*
X-154700Y248500D03*
X-159800Y259500D03*
X-148164Y255866D03*
X-143926Y256130D03*
X-144858Y266631D03*
X-148041Y258569D03*
X-159870Y267427D03*
X-154767Y267672D03*
X-146364Y282524D03*
X-144535Y285815D03*
X-146809Y277215D03*
X-158670Y328882D03*
X-161316Y340905D03*
X-150057Y345091D03*
X-158631Y383632D03*
X-150919Y410071D03*
X-132290Y40653D03*
X-137114Y53849D03*
X-135099Y57315D03*
X-137720Y83916D03*
X-137470Y111336D03*
X-139807Y116577D03*
X-130966Y148145D03*
X-136984Y144310D03*
X-131500Y159574D03*
X-133303Y171132D03*
X-131500Y164669D03*
X-126601Y181674D03*
X-125026Y179540D03*
X-136051Y192745D03*
X-135073Y183795D03*
X-141549Y194342D03*
X-131902Y211652D03*
X-131874Y208701D03*
X-126575Y193461D03*
X-132105Y198421D03*
X-132162Y204937D03*
X-133684Y228444D03*
X-139933Y215775D03*
X-132517Y215580D03*
X-132342Y219220D03*
X-133917Y242540D03*
X-135167Y233282D03*
X-134040Y231022D03*
X-132037Y262859D03*
X-133376Y250234D03*
X-125555Y267280D03*
X-137700Y257800D03*
X-140749Y276990D03*
X-126446Y325717D03*
X-135485Y325695D03*
X-134301Y346275D03*
X-137401Y348283D03*
X-132962Y378831D03*
X-128406Y362729D03*
X-116940Y3504D03*
X-115514Y42470D03*
X-110325Y31390D03*
X-120792Y42079D03*
X-110441Y45174D03*
X-118754Y54996D03*
X-115078Y59528D03*
X-110681Y62104D03*
X-124480Y95269D03*
X-116501Y108023D03*
X-118795Y125030D03*
Y157392D03*
X-123603Y167880D03*
X-116378Y163027D03*
X-119208Y160720D03*
X-124010Y185866D03*
X-111081Y180750D03*
X-124162Y182512D03*
X-117300Y200831D03*
X-109854Y195948D03*
X-122857Y209657D03*
X-112858Y197145D03*
X-122618Y218704D03*
X-118421Y225139D03*
X-122341Y230982D03*
X-120500Y247120D03*
X-122600Y242718D03*
X-117236Y236808D03*
X-108696Y253010D03*
X-111200Y253177D03*
X-112699Y257215D03*
X-112916Y262102D03*
X-123069Y328323D03*
X-120223Y330470D03*
X-114303Y325985D03*
X-114473Y330692D03*
X-108941Y330711D03*
X-120045Y335641D03*
X-120071Y325960D03*
X-109043Y326239D03*
X-108865Y335794D03*
X-114531Y335590D03*
X-118665Y358917D03*
X-118178Y346441D03*
X-115522Y346542D03*
X-112854Y372385D03*
X-112549Y366947D03*
X-112422Y361153D03*
X-106447Y384431D03*
X-112773Y381891D03*
X-119949Y410206D03*
X-92769Y3504D03*
X-92550Y9758D03*
X-94100Y7624D03*
X-88255Y39738D03*
X-102429Y26940D03*
X-100068Y44260D03*
X-88280Y42253D03*
X-103048Y71500D03*
X-102948Y64317D03*
X-102849Y66751D03*
X-102949Y69066D03*
X-91748Y99546D03*
X-91045Y107891D03*
X-101600Y128763D03*
X-89661Y141667D03*
X-87984Y174477D03*
X-104856Y168287D03*
X-91743Y168823D03*
X-93725Y165495D03*
X-92380Y184167D03*
X-90245Y180788D03*
X-90630Y216946D03*
X-90668Y219283D03*
X-90783Y221595D03*
X-90757Y223970D03*
X-91115Y240787D03*
X-95017Y286967D03*
X-98804Y291345D03*
X-103808Y358701D03*
X-95359Y357088D03*
X-89255Y356132D03*
X-90116Y347901D03*
X-103147Y349566D03*
X-90106Y351008D03*
X-90126Y353481D03*
X-93173Y351086D03*
X-105075Y369722D03*
X-97555Y369391D03*
X-94923Y364487D03*
X-93615Y375867D03*
X-89331Y382589D03*
X-91852Y379007D03*
X-99232Y383796D03*
X-105059Y405754D03*
X-99572Y397777D03*
X-94136Y405703D03*
X-70589Y3267D03*
X-71195Y29708D03*
X-70353Y39545D03*
X-72529Y109355D03*
X-70273Y119173D03*
X-87291Y128672D03*
X-69496Y162048D03*
X-70930Y170966D03*
X-83971Y186986D03*
X-83822Y200955D03*
X-83619Y198186D03*
X-77738Y220033D03*
X-71209Y219600D03*
X-81434Y246706D03*
X-87571Y309690D03*
X-75465Y335361D03*
X-69813Y335425D03*
X-77841Y335501D03*
X-81213Y368864D03*
X-81677Y361757D03*
X-85869Y409868D03*
X-58459Y20717D03*
X-62662Y13532D03*
X-63268Y44526D03*
X-66830Y39387D03*
X-56030Y31990D03*
X-62372Y57990D03*
X-63965Y49492D03*
X-58466Y53774D03*
X-55855Y67845D03*
X-51228Y75075D03*
X-53874Y94731D03*
X-58662Y111317D03*
X-52293Y100946D03*
X-64020Y103144D03*
X-60740Y106109D03*
X-50529Y133694D03*
X-52192Y136306D03*
X-68156Y121963D03*
X-65168Y144185D03*
X-54554Y157519D03*
X-58400Y208576D03*
X-52014Y200803D03*
X-67151Y193576D03*
X-52147Y226623D03*
X-65034Y214627D03*
X-54265Y246253D03*
X-66909Y248509D03*
X-52206Y248528D03*
X-60908Y244072D03*
X-65030Y237427D03*
X-67092Y257548D03*
X-62877Y255193D03*
X-67081Y268162D03*
X-57542Y278467D03*
X-51831Y318717D03*
X-67290Y315420D03*
X-55408Y335361D03*
X-63352Y335236D03*
X-59380D03*
X-67310Y335361D03*
X-63708Y344052D03*
X-61116Y344734D03*
X-66805Y377840D03*
X-60217Y381965D03*
X-45300Y40000D03*
X-38121Y37228D03*
X-40751Y56980D03*
X-44731Y66474D03*
X-44447Y78594D03*
X-44350Y74597D03*
X-44395Y94711D03*
X-44261Y86627D03*
X-48657Y91724D03*
X-44370Y90636D03*
X-44194Y82602D03*
X-50470Y98669D03*
X-44316Y98659D03*
X-47996Y130489D03*
X-37662Y138130D03*
X-45108Y168896D03*
X-35604Y177333D03*
X-32795Y204381D03*
X-39606Y212094D03*
X-44316Y229112D03*
X-49302Y219218D03*
X-37239Y220275D03*
X-42832Y236873D03*
X-38098Y243838D03*
X-36698Y233486D03*
X-42689Y234222D03*
X-33433Y241935D03*
X-49540Y239248D03*
X-38181Y262063D03*
X-38023Y252621D03*
X-45083Y268138D03*
X-46977Y280314D03*
X-47461Y284535D03*
X-49540Y273411D03*
X-37425Y270157D03*
X-46659Y311576D03*
X-49676Y309773D03*
X-47492Y339906D03*
X-47156Y327609D03*
X-47403Y351878D03*
X-40240Y354332D03*
X-47472Y349484D03*
X-47264Y373922D03*
X-39804Y360407D03*
X-36574Y367183D03*
X-39606Y367847D03*
X-38740Y385185D03*
X-42016Y381960D03*
X-29282Y6241D03*
Y20543D03*
X-29818Y35754D03*
X-21348Y52462D03*
X-16857Y45889D03*
X-24811Y44905D03*
X-29289Y54042D03*
X-17580Y52261D03*
X-30220Y186123D03*
X-16843Y187441D03*
X-22628Y255312D03*
X-17065Y316857D03*
X-27276Y340961D03*
X-26566Y409936D03*
X-3440Y3675D03*
X-3305Y25989D03*
X-12264Y54424D03*
X-3237Y70889D03*
X-3152Y97633D03*
X-11267Y107607D03*
X-6973Y135599D03*
X-3152Y126676D03*
X-3322Y146894D03*
X-7176Y157981D03*
X-3254Y175565D03*
X-12586Y194329D03*
X-3305Y207820D03*
X-12873Y235290D03*
X-3372Y237167D03*
X-12298Y266040D03*
X-3440Y258940D03*
Y284974D03*
X-3237Y316316D03*
X-10513Y333815D03*
X-3339Y349889D03*
X-3578Y385455D03*
X-3477Y410173D03*
X238761Y207400D03*
G54D20*
X-78272Y353708D03*
Y355836D03*
X-74357Y352408D03*
Y354967D03*
Y349549D03*
X-71798Y354967D03*
X-71798Y362644D03*
X-74357D03*
X-78094Y368797D03*
X-78755Y364412D03*
X-78946Y362265D03*
X-71798Y370321D03*
X-77966Y372280D03*
X-66680Y354967D03*
X-68052Y349009D03*
X-52170Y349264D03*
X-64108Y354967D03*
X-62352Y349127D03*
X-56444Y354967D03*
X-61562Y372880D03*
X-66680Y365203D03*
X-64121Y362644D03*
X-53885Y365203D03*
Y360085D03*
X-56451Y360079D03*
X-59003Y370321D03*
X-66680Y362644D03*
X-61562Y365203D03*
Y370321D03*
X-66680Y370321D03*
X-46631Y369529D03*
X-49797Y367798D03*
X-49985Y362861D03*
X-47284Y362752D03*
X238761Y233000D03*
G54D11*
X-316179Y21682D03*
Y11683D03*
Y41682D03*
Y31682D03*
Y61683D03*
Y51683D03*
Y81682D03*
Y71682D03*
Y101683D03*
Y91683D03*
X-306179Y21682D03*
Y11683D03*
Y41682D03*
Y31682D03*
Y61683D03*
Y51683D03*
Y81682D03*
Y71682D03*
Y101683D03*
Y91683D03*
X-267440Y34291D03*
Y44291D03*
Y54291D03*
Y64291D03*
Y74291D03*
Y94291D03*
Y84291D03*
Y104291D03*
Y124291D03*
Y134291D03*
Y144291D03*
Y154291D03*
Y174291D03*
Y164291D03*
Y184291D03*
Y194291D03*
Y214291D03*
Y224291D03*
Y234291D03*
Y244291D03*
Y264291D03*
Y254291D03*
Y274291D03*
Y284291D03*
X-247441Y14291D03*
Y24291D03*
X-237441Y14291D03*
Y24291D03*
X-227441Y14291D03*
Y24291D03*
X-217440Y14291D03*
Y24291D03*
X-207440Y14291D03*
Y24291D03*
X-197440Y14291D03*
Y24291D03*
X-187440Y14291D03*
Y24291D03*
X-177440Y14291D03*
Y24291D03*
X-167440Y14291D03*
Y24291D03*
X-177441Y133779D03*
X-167441D03*
X-177441Y143779D03*
X-167441D03*
X-157440Y14291D03*
Y24291D03*
X-147440Y14291D03*
Y24291D03*
X-157441Y133779D03*
Y143779D03*
X-137440Y14291D03*
Y24291D03*
X-127440Y14291D03*
Y24291D03*
X-139543Y299272D03*
X-129543D03*
X-117440Y14291D03*
Y24291D03*
X-107440Y14291D03*
Y24291D03*
X-110295Y231679D03*
Y241679D03*
X-105891Y299280D03*
X-97440Y14291D03*
Y24291D03*
X-87440Y14291D03*
Y24291D03*
X-95891Y299280D03*
X-77440Y14291D03*
Y24291D03*
X-77441Y64291D03*
Y54291D03*
Y74291D03*
Y94291D03*
Y84291D03*
Y114291D03*
Y104291D03*
Y124291D03*
Y154291D03*
Y144291D03*
Y164291D03*
Y174291D03*
Y194291D03*
Y184291D03*
Y204291D03*
Y214291D03*
Y230314D03*
Y240314D03*
Y250314D03*
Y260314D03*
Y280314D03*
Y270314D03*
Y300314D03*
Y290314D03*
Y320314D03*
Y310314D03*
X-17441Y70275D03*
X-27441D03*
X-17441Y80275D03*
X-27441D03*
X-17441Y90275D03*
X-27441D03*
X-17441Y100275D03*
X-27441D03*
X-17441Y110275D03*
X-27441D03*
X-17441Y120275D03*
X-27441D03*
X-17441Y130275D03*
X-27441D03*
X-17441Y140275D03*
X-27441D03*
X-17441Y150275D03*
X-27441D03*
X-17441Y160275D03*
X-27441D03*
X-17441Y210275D03*
X-27441D03*
X-17441Y220275D03*
X-27441D03*
X-17441Y230275D03*
X-27441D03*
X-17441Y240275D03*
X-27441D03*
X-17441Y250275D03*
X-27441D03*
X-17441Y260275D03*
X-27441D03*
X-17441Y270275D03*
X-27441D03*
X-17441Y280275D03*
X-27441D03*
X-17441Y290275D03*
X-27441D03*
X-17441Y300275D03*
X-27441D03*
X-17441Y350275D03*
X-27441D03*
X-17441Y360275D03*
X-27441D03*
X238761Y130600D03*
G54D12*
X-312671Y186379D03*
Y206379D03*
Y196379D03*
Y226379D03*
Y216379D03*
X-304241Y247915D03*
X-303969Y264737D03*
X-308110Y303446D03*
X-308071Y293205D03*
X-305328Y305708D03*
X-291466Y116719D03*
X-283043Y261780D03*
Y251780D03*
X-245926Y369402D03*
X-238849Y379056D03*
X-234169Y98163D03*
X-221793Y98229D03*
X-226793D03*
X-235894Y357969D03*
X-235843Y372778D03*
X-224061Y367495D03*
X-211793Y98229D03*
X-196793D03*
X-192508Y98493D03*
X-185797Y98814D03*
X-181417Y219731D03*
X-181620Y246633D03*
X-190282Y245820D03*
X-190276Y254759D03*
X-162464Y355948D03*
X-159595Y77487D03*
X-155302Y77462D03*
X-155251Y81704D03*
X-159544Y81729D03*
X-161276Y289942D03*
X-161550Y307937D03*
X-161626Y311722D03*
X-161677Y315406D03*
X-149724Y321363D03*
X-150779Y336467D03*
X-148179Y355948D03*
X-152724Y361433D03*
X-156116Y361446D03*
X-146037Y365372D03*
X-146015Y368662D03*
X-132226Y365410D03*
X-132217Y368535D03*
X-114195Y291373D03*
X-88372Y64925D03*
X-88321Y69167D03*
X-99206Y316549D03*
X-94989Y316651D03*
X-91051Y316574D03*
X-91026Y320969D03*
X-94964Y321046D03*
X-102334Y338640D03*
X-92233Y341320D03*
X-91065Y337877D03*
X-94025Y330686D03*
X-98853Y329771D03*
X-102919Y333303D03*
X-102588Y326239D03*
X-93872Y326214D03*
X-91128Y333926D03*
X-99323Y342388D03*
X-95499Y342261D03*
X-84079Y64900D03*
X-84028Y69142D03*
X-71520Y390468D03*
X-74992Y390477D03*
X-60446Y392783D03*
X-47912Y389974D03*
X-50174Y392756D03*
X238761Y181800D03*
G54D21*
X-71766Y407676D03*
X-38892D03*
X238761Y-48600D03*
G54D22*
X-64089Y395865D03*
X-46569D03*
X238761Y-23000D03*
G54D13*
X-323030Y281855D03*
Y314728D03*
X238761Y-74200D03*
G54D23*
G01X-224357Y-123985D02*
X-228557D01*
X-228561Y-119085D01*
G01X27143Y-123985D02*
X-224457D01*
G01X-228561Y-109085D02*
X-57757Y-108885D01*
G01X-228561Y-119085D02*
X-228557Y-74285D01*
X28039Y-74385D01*
G01X-217294Y-87885D02*
X-218627D01*
Y-84885D01*
X-217294D01*
G01X-217827Y-86335D02*
X-218627D01*
G01X-216461Y-87885D02*
Y-85885D01*
G01Y-86435D02*
X-216361Y-86185D01*
X-216194Y-85985D01*
X-215961Y-85885D01*
X-215727Y-85985D01*
X-215561Y-86185D01*
X-215461Y-86435D01*
Y-87885D01*
G01Y-86435D02*
X-215361Y-86185D01*
X-215194Y-85985D01*
X-214961Y-85885D01*
X-214727Y-85985D01*
X-214561Y-86185D01*
X-214461Y-86485D01*
Y-87885D01*
G01X-213561D02*
Y-84885D01*
G01Y-86385D02*
X-213394Y-86085D01*
X-213194Y-85935D01*
X-212994Y-85885D01*
X-212694Y-85985D01*
X-212494Y-86185D01*
X-212361Y-86535D01*
Y-86935D01*
X-212427Y-87335D01*
X-212561Y-87635D01*
X-212794Y-87835D01*
X-212994Y-87885D01*
X-213194Y-87835D01*
X-213394Y-87685D01*
X-213561Y-87435D01*
G01X-210961Y-86535D02*
X-209894D01*
X-209994Y-86185D01*
X-210161Y-85985D01*
X-210394Y-85885D01*
X-210627Y-85935D01*
X-210827Y-86085D01*
X-210961Y-86435D01*
X-211027Y-86735D01*
Y-87035D01*
X-210961Y-87335D01*
X-210794Y-87635D01*
X-210594Y-87835D01*
X-210361Y-87885D01*
X-210127Y-87785D01*
X-209894Y-87485D01*
G01X-208461Y-87535D02*
X-208294Y-87735D01*
X-208061Y-87885D01*
X-207861D01*
X-207661Y-87785D01*
X-207527Y-87635D01*
X-207461Y-87435D01*
X-207494Y-87135D01*
X-207627Y-86985D01*
X-208227Y-86685D01*
X-208361Y-86335D01*
X-208294Y-86085D01*
X-208161Y-85935D01*
X-207961Y-85885D01*
X-207761Y-85935D01*
X-207561Y-86085D01*
G01X-205461Y-84885D02*
Y-87885D01*
G01X-205927Y-85885D02*
X-204994D01*
G01X-228561Y-94085D02*
X40043D01*
G01X-210627Y-118385D02*
Y-115385D01*
X-209827D01*
X-209561Y-115535D01*
X-209361Y-115885D01*
X-209294Y-116285D01*
X-209361Y-116685D01*
X-209527Y-116985D01*
X-209827Y-117135D01*
X-210627D01*
G01X-206727Y-115635D02*
X-206927Y-115485D01*
X-207161Y-115385D01*
X-207427D01*
X-207727Y-115535D01*
X-207961Y-115785D01*
X-208127Y-116085D01*
X-208261Y-116585D01*
X-208294Y-117035D01*
X-208227Y-117485D01*
X-208127Y-117785D01*
X-207927Y-118085D01*
X-207694Y-118285D01*
X-207461Y-118385D01*
X-207227D01*
X-206994Y-118285D01*
X-206794Y-118135D01*
X-206627Y-117935D01*
G01X-204694Y-116785D02*
X-204561Y-116635D01*
X-204461Y-116385D01*
X-204394Y-116035D01*
X-204461Y-115735D01*
X-204594Y-115535D01*
X-204827Y-115385D01*
X-205727D01*
Y-118385D01*
X-204627D01*
X-204394Y-118185D01*
X-204261Y-117885D01*
X-204194Y-117535D01*
X-204261Y-117185D01*
X-204461Y-116885D01*
X-204694Y-116785D01*
X-205727D01*
G01X-203461Y-115385D02*
X-201461Y-119385D01*
G01X-200627Y-118385D02*
Y-115385D01*
X-199794D01*
X-199527Y-115535D01*
X-199361Y-115735D01*
X-199294Y-116135D01*
X-199361Y-116535D01*
X-199561Y-116785D01*
X-199794Y-116935D01*
X-200627D01*
G01X-199794D02*
X-199294Y-118385D01*
G01X-196794D02*
X-198127D01*
Y-115385D01*
X-196794D01*
G01X-197327Y-116835D02*
X-198127D01*
G01X-195794Y-115385D02*
X-194961Y-118385D01*
X-194127Y-115385D01*
G01X-210627Y-103719D02*
Y-100719D01*
X-209827D01*
X-209561Y-100869D01*
X-209361Y-101219D01*
X-209294Y-101619D01*
X-209361Y-102019D01*
X-209527Y-102319D01*
X-209827Y-102469D01*
X-210627D01*
G01X-208127Y-103719D02*
Y-100719D01*
X-207294D01*
X-207027Y-100869D01*
X-206861Y-101069D01*
X-206794Y-101469D01*
X-206861Y-101869D01*
X-207061Y-102119D01*
X-207294Y-102269D01*
X-208127D01*
G01X-207294D02*
X-206794Y-103719D01*
G01X-204961D02*
X-205227Y-103669D01*
X-205461Y-103469D01*
X-205661Y-103169D01*
X-205794Y-102819D01*
X-205861Y-102419D01*
Y-102019D01*
X-205794Y-101619D01*
X-205661Y-101269D01*
X-205461Y-100969D01*
X-205227Y-100769D01*
X-204961Y-100719D01*
X-204694Y-100769D01*
X-204461Y-100969D01*
X-204261Y-101269D01*
X-204127Y-101619D01*
X-204061Y-102019D01*
Y-102419D01*
X-204127Y-102819D01*
X-204261Y-103169D01*
X-204461Y-103469D01*
X-204694Y-103669D01*
X-204961Y-103719D01*
G01X-203127Y-103119D02*
X-202961Y-103419D01*
X-202761Y-103619D01*
X-202527Y-103719D01*
X-202261Y-103619D01*
X-202061Y-103419D01*
X-201861Y-103119D01*
X-201794Y-102719D01*
Y-100719D01*
G01X-199294Y-103719D02*
X-200627D01*
Y-100719D01*
X-199294D01*
G01X-199827Y-102169D02*
X-200627D01*
G01X-196727Y-100969D02*
X-196927Y-100819D01*
X-197161Y-100719D01*
X-197427D01*
X-197727Y-100869D01*
X-197961Y-101119D01*
X-198127Y-101419D01*
X-198261Y-101919D01*
X-198294Y-102369D01*
X-198227Y-102819D01*
X-198127Y-103119D01*
X-197927Y-103419D01*
X-197694Y-103619D01*
X-197461Y-103719D01*
X-197227D01*
X-196994Y-103619D01*
X-196794Y-103469D01*
X-196627Y-103269D01*
G01X-194961Y-100719D02*
Y-103719D01*
G01X-195727Y-100719D02*
X-194194D01*
G01X-167061Y-94085D02*
X-167057Y-123985D01*
G01X-156336Y-103768D02*
X-156070Y-104018D01*
X-155770Y-104168D01*
X-155503D01*
X-155236Y-104018D01*
X-155036Y-103768D01*
X-154936Y-103418D01*
X-155003Y-103068D01*
X-155170Y-102768D01*
X-155470Y-102568D01*
X-155870Y-102468D01*
X-156103Y-102268D01*
X-156203Y-101918D01*
X-156136Y-101568D01*
X-155970Y-101318D01*
X-155736Y-101168D01*
X-155503D01*
X-155270Y-101268D01*
X-155070Y-101518D01*
G01X-153970Y-104168D02*
X-153136Y-101168D01*
X-152303Y-104168D01*
G01X-152603Y-103118D02*
X-153670D01*
G01X-151503Y-104168D02*
Y-101168D01*
X-150636Y-103668D01*
X-149770Y-101168D01*
Y-104168D01*
G01X-147470D02*
X-148803D01*
Y-101168D01*
X-147470D01*
G01X-148003Y-102618D02*
X-148803D01*
G01X-145703Y-104168D02*
X-145636Y-103518D01*
X-145536Y-102968D01*
X-145403Y-102468D01*
X-145236Y-101918D01*
X-144970Y-101168D01*
X-146303D01*
G01X-143136D02*
X-143403Y-101268D01*
X-143603Y-101518D01*
X-143736Y-101818D01*
X-143836Y-102218D01*
X-143870Y-102668D01*
X-143836Y-103118D01*
X-143736Y-103518D01*
X-143603Y-103818D01*
X-143403Y-104068D01*
X-143136Y-104168D01*
X-142870Y-104068D01*
X-142670Y-103818D01*
X-142536Y-103518D01*
X-142436Y-103118D01*
X-142403Y-102668D01*
X-142436Y-102218D01*
X-142536Y-101818D01*
X-142670Y-101518D01*
X-142870Y-101268D01*
X-143136Y-101168D01*
G01X-141070Y-103168D02*
X-140203D01*
G01X-138836Y-104168D02*
X-137436Y-101168D01*
G01X-138836D02*
X-137436Y-104168D01*
G01X-136303D02*
Y-101168D01*
X-135503D01*
X-135236Y-101318D01*
X-135036Y-101668D01*
X-134970Y-102068D01*
X-135036Y-102468D01*
X-135203Y-102768D01*
X-135503Y-102918D01*
X-136303D01*
G01X-133803Y-101168D02*
Y-104168D01*
X-132470D01*
G01X-131370D02*
Y-101168D01*
X-130703D01*
X-130436Y-101318D01*
X-130236Y-101518D01*
X-130070Y-101818D01*
X-129937Y-102168D01*
X-129903Y-102668D01*
X-129937Y-103168D01*
X-130070Y-103518D01*
X-130236Y-103818D01*
X-130436Y-104018D01*
X-130703Y-104168D01*
X-131370D01*
G01X-155800Y-118600D02*
Y-115600D01*
X-156200Y-116200D01*
G01Y-118600D02*
X-155400D01*
G01X-154033Y-118150D02*
X-153833Y-118400D01*
X-153600Y-118550D01*
X-153300Y-118600D01*
X-153000Y-118500D01*
X-152767Y-118300D01*
X-152600Y-117950D01*
X-152567Y-117550D01*
X-152633Y-117150D01*
X-152800Y-116900D01*
X-153033Y-116700D01*
X-153267Y-116650D01*
X-153500Y-116700D01*
X-153800Y-116900D01*
X-153700Y-115600D01*
X-152800D01*
G01X-150800D02*
X-151067Y-115700D01*
X-151267Y-115950D01*
X-151400Y-116250D01*
X-151500Y-116650D01*
X-151533Y-117100D01*
X-151500Y-117550D01*
X-151400Y-117950D01*
X-151267Y-118250D01*
X-151067Y-118500D01*
X-150800Y-118600D01*
X-150533Y-118500D01*
X-150333Y-118250D01*
X-150200Y-117950D01*
X-150100Y-117550D01*
X-150067Y-117100D01*
X-150100Y-116650D01*
X-150200Y-116250D01*
X-150333Y-115950D01*
X-150533Y-115700D01*
X-150800Y-115600D01*
G01X-148933Y-117350D02*
X-148700Y-117000D01*
X-148500Y-116800D01*
X-148233Y-116700D01*
X-148000Y-116800D01*
X-147833Y-117000D01*
X-147700Y-117300D01*
X-147667Y-117650D01*
X-147700Y-117950D01*
X-147833Y-118250D01*
X-148033Y-118500D01*
X-148267Y-118600D01*
X-148533Y-118500D01*
X-148767Y-118200D01*
X-148900Y-117750D01*
X-148933Y-117250D01*
X-148867Y-116600D01*
X-148767Y-116250D01*
X-148600Y-115900D01*
X-148367Y-115650D01*
X-148133Y-115600D01*
X-147900Y-115700D01*
X-147733Y-115950D01*
G01X-145800Y-115600D02*
X-146067Y-115700D01*
X-146267Y-115950D01*
X-146400Y-116250D01*
X-146500Y-116650D01*
X-146533Y-117100D01*
X-146500Y-117550D01*
X-146400Y-117950D01*
X-146267Y-118250D01*
X-146067Y-118500D01*
X-145800Y-118600D01*
X-145533Y-118500D01*
X-145333Y-118250D01*
X-145200Y-117950D01*
X-145100Y-117550D01*
X-145067Y-117100D01*
X-145100Y-116650D01*
X-145200Y-116250D01*
X-145333Y-115950D01*
X-145533Y-115700D01*
X-145800Y-115600D01*
G01X-143300D02*
X-143567Y-115700D01*
X-143767Y-115950D01*
X-143900Y-116250D01*
X-144000Y-116650D01*
X-144033Y-117100D01*
X-144000Y-117550D01*
X-143900Y-117950D01*
X-143767Y-118250D01*
X-143567Y-118500D01*
X-143300Y-118600D01*
X-143033Y-118500D01*
X-142833Y-118250D01*
X-142700Y-117950D01*
X-142600Y-117550D01*
X-142567Y-117100D01*
X-142600Y-116650D01*
X-142700Y-116250D01*
X-142833Y-115950D01*
X-143033Y-115700D01*
X-143300Y-115600D01*
G01X-155127Y-85385D02*
Y-88385D01*
X-153794D01*
G01X-151361D02*
Y-86385D01*
G01Y-86735D02*
X-151494Y-86535D01*
X-151694Y-86435D01*
X-151927Y-86385D01*
X-152161Y-86485D01*
X-152361Y-86685D01*
X-152494Y-86985D01*
X-152561Y-87385D01*
X-152494Y-87785D01*
X-152361Y-88085D01*
X-152161Y-88285D01*
X-151927Y-88385D01*
X-151694Y-88335D01*
X-151494Y-88185D01*
X-151361Y-87985D01*
G01X-150161Y-89285D02*
X-149961Y-89385D01*
X-149694Y-89285D01*
X-149527Y-89085D01*
X-149394Y-88835D01*
X-149194Y-88035D01*
X-148761Y-86385D01*
G01X-149827D02*
X-149194Y-88035D01*
G01X-146961Y-88385D02*
X-147161Y-88335D01*
X-147361Y-88135D01*
X-147494Y-87785D01*
X-147561Y-87385D01*
X-147494Y-86985D01*
X-147361Y-86635D01*
X-147161Y-86435D01*
X-146961Y-86385D01*
X-146761Y-86435D01*
X-146561Y-86635D01*
X-146427Y-86985D01*
X-146394Y-87385D01*
X-146427Y-87785D01*
X-146561Y-88135D01*
X-146761Y-88335D01*
X-146961Y-88385D01*
G01X-145027Y-86385D02*
Y-87785D01*
X-144894Y-88135D01*
X-144694Y-88335D01*
X-144461Y-88385D01*
X-144227Y-88335D01*
X-144027Y-88135D01*
X-143894Y-87785D01*
G01Y-88385D02*
Y-86385D01*
G01X-141961Y-85385D02*
Y-88385D01*
G01X-142427Y-86385D02*
X-141494D01*
G01X-136227Y-85635D02*
X-136427Y-85485D01*
X-136661Y-85385D01*
X-136927D01*
X-137227Y-85535D01*
X-137461Y-85785D01*
X-137627Y-86085D01*
X-137761Y-86585D01*
X-137794Y-87035D01*
X-137727Y-87485D01*
X-137627Y-87785D01*
X-137427Y-88085D01*
X-137194Y-88285D01*
X-136961Y-88385D01*
X-136727D01*
X-136494Y-88285D01*
X-136294Y-88135D01*
X-136127Y-87935D01*
G01X-134961Y-87035D02*
X-133894D01*
X-133994Y-86685D01*
X-134161Y-86485D01*
X-134394Y-86385D01*
X-134627Y-86435D01*
X-134827Y-86585D01*
X-134961Y-86935D01*
X-135027Y-87235D01*
Y-87535D01*
X-134961Y-87835D01*
X-134794Y-88135D01*
X-134594Y-88335D01*
X-134361Y-88385D01*
X-134127Y-88285D01*
X-133894Y-87985D01*
G01X-132527Y-88385D02*
Y-86385D01*
G01Y-86885D02*
X-132394Y-86635D01*
X-132194Y-86435D01*
X-131927Y-86385D01*
X-131694Y-86435D01*
X-131494Y-86635D01*
X-131394Y-86985D01*
Y-88385D01*
G01X-129461Y-85385D02*
Y-88385D01*
G01X-129927Y-86385D02*
X-128994D01*
G01X-127461Y-87035D02*
X-126394D01*
X-126494Y-86685D01*
X-126661Y-86485D01*
X-126894Y-86385D01*
X-127127Y-86435D01*
X-127327Y-86585D01*
X-127461Y-86935D01*
X-127527Y-87235D01*
Y-87535D01*
X-127461Y-87835D01*
X-127294Y-88135D01*
X-127094Y-88335D01*
X-126861Y-88385D01*
X-126627Y-88285D01*
X-126394Y-87985D01*
G01X-124927Y-88385D02*
Y-86385D01*
G01Y-86785D02*
X-124761Y-86585D01*
X-124594Y-86435D01*
X-124361Y-86385D01*
X-124194Y-86435D01*
X-123994Y-86585D01*
G01X-57557Y-74385D02*
Y-124085D01*
G01X-54961Y-110485D02*
X-54694Y-110735D01*
X-54394Y-110885D01*
X-54127D01*
X-53861Y-110735D01*
X-53661Y-110485D01*
X-53561Y-110135D01*
X-53627Y-109785D01*
X-53794Y-109485D01*
X-54094Y-109285D01*
X-54494Y-109185D01*
X-54727Y-108985D01*
X-54827Y-108635D01*
X-54761Y-108285D01*
X-54594Y-108035D01*
X-54361Y-107885D01*
X-54127D01*
X-53894Y-107985D01*
X-53694Y-108235D01*
G01X-52461Y-110885D02*
Y-107885D01*
G01X-51061D02*
Y-110885D01*
G01Y-109385D02*
X-52461D01*
G01X-48594Y-110885D02*
X-49927D01*
Y-107885D01*
X-48594D01*
G01X-49127Y-109335D02*
X-49927D01*
G01X-46094Y-110885D02*
X-47427D01*
Y-107885D01*
X-46094D01*
G01X-46627Y-109335D02*
X-47427D01*
G01X-44261Y-107885D02*
Y-110885D01*
G01X-45027Y-107885D02*
X-43494D01*
G01X-54261Y-118385D02*
Y-121385D01*
G01X-55027Y-118385D02*
X-53494D01*
G01X-51761Y-121385D02*
X-52027Y-121335D01*
X-52261Y-121135D01*
X-52461Y-120835D01*
X-52594Y-120485D01*
X-52661Y-120085D01*
Y-119685D01*
X-52594Y-119285D01*
X-52461Y-118935D01*
X-52261Y-118635D01*
X-52027Y-118435D01*
X-51761Y-118385D01*
X-51494Y-118435D01*
X-51261Y-118635D01*
X-51061Y-118935D01*
X-50927Y-119285D01*
X-50861Y-119685D01*
Y-120085D01*
X-50927Y-120485D01*
X-51061Y-120835D01*
X-51261Y-121135D01*
X-51494Y-121335D01*
X-51761Y-121385D01*
G01X-49261Y-118385D02*
Y-121385D01*
G01X-50027Y-118385D02*
X-48494D01*
G01X-47594Y-121385D02*
X-46761Y-118385D01*
X-45927Y-121385D01*
G01X-46227Y-120335D02*
X-47294D01*
G01X-44927Y-118385D02*
Y-121385D01*
X-43594D01*
G01X-38861D02*
Y-118385D01*
X-40094Y-120535D01*
X-38427D01*
G01X-35094Y-121385D02*
X-34261Y-118385D01*
X-33427Y-121385D01*
G01X-33727Y-120335D02*
X-34794D01*
G01X-31761Y-121385D02*
Y-120035D01*
X-32427Y-118385D01*
G01X-31094D02*
X-31761Y-120035D01*
G01X-28594Y-121385D02*
X-29927D01*
Y-118385D01*
X-28594D01*
G01X-29127Y-119835D02*
X-29927D01*
G01X-27427Y-121385D02*
Y-118385D01*
X-26594D01*
X-26327Y-118535D01*
X-26161Y-118735D01*
X-26094Y-119135D01*
X-26161Y-119535D01*
X-26361Y-119785D01*
X-26594Y-119935D01*
X-27427D01*
G01X-26594D02*
X-26094Y-121385D01*
G01X-24961Y-120985D02*
X-24694Y-121235D01*
X-24394Y-121385D01*
X-24127D01*
X-23861Y-121235D01*
X-23661Y-120985D01*
X-23561Y-120635D01*
X-23627Y-120285D01*
X-23794Y-119985D01*
X-24094Y-119785D01*
X-24494Y-119685D01*
X-24727Y-119485D01*
X-24827Y-119135D01*
X-24761Y-118785D01*
X-24594Y-118535D01*
X-24361Y-118385D01*
X-24127D01*
X-23894Y-118485D01*
X-23694Y-118735D01*
G01X-57461Y-113885D02*
X40039D01*
G01X-53994Y-100885D02*
Y-97885D01*
X-53327D01*
X-53061Y-98035D01*
X-52861Y-98235D01*
X-52694Y-98535D01*
X-52561Y-98885D01*
X-52527Y-99385D01*
X-52561Y-99885D01*
X-52694Y-100235D01*
X-52861Y-100535D01*
X-53061Y-100735D01*
X-53327Y-100885D01*
X-53994D01*
G01X-51594D02*
X-50761Y-97885D01*
X-49927Y-100885D01*
G01X-50227Y-99835D02*
X-51294D01*
G01X-48261Y-97885D02*
Y-100885D01*
G01X-49027Y-97885D02*
X-47494D01*
G01X-45094Y-100885D02*
X-46427D01*
Y-97885D01*
X-45094D01*
G01X-45627Y-99335D02*
X-46427D01*
G01X-54023Y-85185D02*
Y-88185D01*
X-52690D01*
G01X-51690D02*
X-50857Y-85185D01*
X-50023Y-88185D01*
G01X-50323Y-87135D02*
X-51390D01*
G01X-48357Y-88185D02*
Y-86835D01*
X-49023Y-85185D01*
G01X-47690D02*
X-48357Y-86835D01*
G01X-45190Y-88185D02*
X-46523D01*
Y-85185D01*
X-45190D01*
G01X-45723Y-86635D02*
X-46523D01*
G01X-44023Y-88185D02*
Y-85185D01*
X-43190D01*
X-42923Y-85335D01*
X-42757Y-85535D01*
X-42690Y-85935D01*
X-42757Y-86335D01*
X-42957Y-86585D01*
X-43190Y-86735D01*
X-44023D01*
G01X-43190D02*
X-42690Y-88185D01*
G01X-57461Y-103885D02*
X40039D01*
G01X-24657Y-74285D02*
X-24561Y-94085D01*
X-24557Y-113785D01*
G01X-20594Y-98385D02*
X-20394Y-98085D01*
X-20161Y-97935D01*
X-19894Y-97885D01*
X-19561Y-97985D01*
X-19327Y-98235D01*
X-19261Y-98535D01*
X-19294Y-98835D01*
X-19427Y-99085D01*
X-20094Y-99585D01*
X-20394Y-99935D01*
X-20594Y-100435D01*
X-20661Y-100885D01*
X-19261D01*
G01X-17461Y-97885D02*
X-17727Y-97985D01*
X-17927Y-98235D01*
X-18061Y-98535D01*
X-18161Y-98935D01*
X-18194Y-99385D01*
X-18161Y-99835D01*
X-18061Y-100235D01*
X-17927Y-100535D01*
X-17727Y-100785D01*
X-17461Y-100885D01*
X-17194Y-100785D01*
X-16994Y-100535D01*
X-16861Y-100235D01*
X-16761Y-99835D01*
X-16727Y-99385D01*
X-16761Y-98935D01*
X-16861Y-98535D01*
X-16994Y-98235D01*
X-17194Y-97985D01*
X-17461Y-97885D01*
G01X-14961Y-100885D02*
Y-97885D01*
X-15361Y-98485D01*
G01Y-100885D02*
X-14561D01*
G01X-13194Y-100435D02*
X-12994Y-100685D01*
X-12761Y-100835D01*
X-12461Y-100885D01*
X-12161Y-100785D01*
X-11927Y-100585D01*
X-11761Y-100235D01*
X-11727Y-99835D01*
X-11794Y-99435D01*
X-11961Y-99185D01*
X-12194Y-98985D01*
X-12427Y-98935D01*
X-12661Y-98985D01*
X-12961Y-99185D01*
X-12861Y-97885D01*
X-11961D01*
G01X-10394Y-99885D02*
X-9527D01*
G01X-7461Y-100885D02*
Y-97885D01*
X-7861Y-98485D01*
G01Y-100885D02*
X-7061D01*
G01X-4961Y-97885D02*
X-5227Y-97985D01*
X-5427Y-98235D01*
X-5561Y-98535D01*
X-5661Y-98935D01*
X-5694Y-99385D01*
X-5661Y-99835D01*
X-5561Y-100235D01*
X-5427Y-100535D01*
X-5227Y-100785D01*
X-4961Y-100885D01*
X-4694Y-100785D01*
X-4494Y-100535D01*
X-4361Y-100235D01*
X-4261Y-99835D01*
X-4227Y-99385D01*
X-4261Y-98935D01*
X-4361Y-98535D01*
X-4494Y-98235D01*
X-4694Y-97985D01*
X-4961Y-97885D01*
G01X-2894Y-99885D02*
X-2027D01*
G01X39Y-100885D02*
Y-97885D01*
X-361Y-98485D01*
G01Y-100885D02*
X439D01*
G01X1806Y-100285D02*
X2006Y-100635D01*
X2273Y-100835D01*
X2573Y-100885D01*
X2839Y-100835D01*
X3106Y-100585D01*
X3273Y-100285D01*
X3306Y-99985D01*
X3239Y-99635D01*
X3006Y-99385D01*
X2773Y-99285D01*
X2473D01*
G01X2773D02*
X2973Y-99135D01*
X3139Y-98885D01*
X3206Y-98585D01*
X3139Y-98285D01*
X2973Y-98035D01*
X2673Y-97885D01*
X2373Y-97935D01*
X2073Y-98135D01*
G01X28039Y-74385D02*
X40039D01*
X40043Y-123985D01*
X26943D01*
G01X-353340Y-187800D02*
X681260D01*
X803100D01*
Y492000D01*
X681260D01*
X-353340D01*
X-381900D01*
Y-187800D01*
X-353340D01*
G01X-328740Y0D02*
Y413385D01*
X0D01*
Y0D01*
X-328740D01*
G01X202760Y-87000D02*
Y322000D01*
X742760D01*
Y-87000D01*
X202760D01*
G01Y-61400D02*
X742760D01*
G01X202760Y-35800D02*
X742760D01*
G01X202760Y-10200D02*
X742760D01*
G01X202760Y15400D02*
X742760D01*
G01X202760Y41000D02*
X742760D01*
G01X202760Y66600D02*
X742760D01*
G01X202760Y92200D02*
X742760D01*
G01X202760Y117800D02*
X742760D01*
G01X202760Y143400D02*
X742760D01*
G01X202760Y169000D02*
X742760D01*
G01X202760Y194600D02*
X742760D01*
G01X202760Y220200D02*
X742760D01*
G01X202760Y245800D02*
X742760D01*
G01X202760Y271400D02*
X742760D01*
G01X202760Y297000D02*
X742760D01*
G01X211227Y256400D02*
Y266400D01*
X216294D01*
G01X214427Y261567D02*
X211227D01*
G01X222161Y266400D02*
X225360D01*
G01X223760D02*
Y256400D01*
G01X222161D02*
X225360D01*
G01X234560Y261400D02*
X237227D01*
Y258400D01*
X236427Y257400D01*
X235494Y256733D01*
X234160Y256400D01*
X232827Y256733D01*
X231894Y257400D01*
X231094Y258400D01*
X230560Y259567D01*
X230294Y260900D01*
Y262067D01*
X230560Y263066D01*
X231094Y264234D01*
X231894Y265233D01*
X232694Y265900D01*
X233760Y266400D01*
X234694D01*
X235760Y266067D01*
X236560Y265400D01*
G01X240827Y266400D02*
Y259233D01*
X241360Y257733D01*
X242427Y256733D01*
X243760Y256400D01*
X245094Y256733D01*
X246161Y257733D01*
X246694Y259233D01*
Y266400D01*
G01X251094Y256400D02*
Y266400D01*
X254427D01*
X255494Y265900D01*
X256161Y265233D01*
X256427Y263900D01*
X256161Y262567D01*
X255360Y261733D01*
X254427Y261233D01*
X251094D01*
G01X254427D02*
X256427Y256400D01*
G01X266427D02*
X261094D01*
Y266400D01*
X266427D01*
G01X264294Y261567D02*
X261094D01*
G01X274760Y271400D02*
Y-87000D01*
G01X307827Y-77700D02*
X308627Y-78534D01*
X309560Y-79033D01*
X310760Y-79200D01*
X311961Y-78867D01*
X312894Y-78200D01*
X313560Y-77034D01*
X313694Y-75700D01*
X313427Y-74367D01*
X312760Y-73533D01*
X311827Y-72867D01*
X310894Y-72700D01*
X309960Y-72867D01*
X308761Y-73533D01*
X309160Y-69200D01*
X312760D01*
G01X318494Y-78034D02*
X319427Y-78867D01*
X320494Y-79200D01*
X321560Y-78867D01*
X322494Y-77867D01*
X323161Y-76367D01*
X323427Y-74867D01*
Y-73033D01*
X323161Y-71533D01*
X322494Y-70200D01*
X321694Y-69533D01*
X320760Y-69200D01*
X319694Y-69533D01*
X318894Y-70200D01*
X318360Y-71200D01*
X318094Y-72534D01*
X318360Y-73700D01*
X319027Y-74867D01*
X319827Y-75534D01*
X320760Y-75700D01*
X321827Y-75367D01*
X322627Y-74533D01*
X323427Y-73033D01*
G01X330760Y-79533D02*
X330494Y-79367D01*
Y-79033D01*
X330760Y-78867D01*
X331027Y-79033D01*
Y-79367D01*
X330760Y-79533D01*
G01X340760Y-69200D02*
X339694Y-69533D01*
X338894Y-70367D01*
X338360Y-71366D01*
X337960Y-72700D01*
X337827Y-74200D01*
X337960Y-75700D01*
X338360Y-77034D01*
X338894Y-78034D01*
X339694Y-78867D01*
X340760Y-79200D01*
X341827Y-78867D01*
X342627Y-78034D01*
X343161Y-77034D01*
X343560Y-75700D01*
X343694Y-74200D01*
X343560Y-72700D01*
X343161Y-71366D01*
X342627Y-70367D01*
X341827Y-69533D01*
X340760Y-69200D01*
G01X348761Y-72534D02*
X352760Y-79200D01*
G01Y-72534D02*
X348761Y-79200D01*
G01X357827Y-77200D02*
X358627Y-78367D01*
X359694Y-79033D01*
X360894Y-79200D01*
X361961Y-79033D01*
X363027Y-78200D01*
X363694Y-77200D01*
X363827Y-76200D01*
X363560Y-75034D01*
X362627Y-74200D01*
X361694Y-73867D01*
X360494D01*
G01X361694D02*
X362494Y-73367D01*
X363161Y-72534D01*
X363427Y-71533D01*
X363161Y-70533D01*
X362494Y-69700D01*
X361294Y-69200D01*
X360094Y-69367D01*
X358894Y-70034D01*
G01X367827Y-77200D02*
X368627Y-78367D01*
X369694Y-79033D01*
X370894Y-79200D01*
X371961Y-79033D01*
X373027Y-78200D01*
X373694Y-77200D01*
X373827Y-76200D01*
X373560Y-75034D01*
X372627Y-74200D01*
X371694Y-73867D01*
X370494D01*
G01X371694D02*
X372494Y-73367D01*
X373161Y-72534D01*
X373427Y-71533D01*
X373161Y-70533D01*
X372494Y-69700D01*
X371294Y-69200D01*
X370094Y-69367D01*
X368894Y-70034D01*
G01X380760Y-79533D02*
X380494Y-79367D01*
Y-79033D01*
X380760Y-78867D01*
X381027Y-79033D01*
Y-79367D01*
X380760Y-79533D01*
G01X390760Y-69200D02*
X389694Y-69533D01*
X388894Y-70367D01*
X388360Y-71366D01*
X387960Y-72700D01*
X387827Y-74200D01*
X387960Y-75700D01*
X388360Y-77034D01*
X388894Y-78034D01*
X389694Y-78867D01*
X390760Y-79200D01*
X391827Y-78867D01*
X392627Y-78034D01*
X393161Y-77034D01*
X393560Y-75700D01*
X393694Y-74200D01*
X393560Y-72700D01*
X393161Y-71366D01*
X392627Y-70367D01*
X391827Y-69533D01*
X390760Y-69200D01*
G01X307827Y-52100D02*
X308627Y-52934D01*
X309560Y-53433D01*
X310760Y-53600D01*
X311961Y-53267D01*
X312894Y-52600D01*
X313560Y-51434D01*
X313694Y-50100D01*
X313427Y-48767D01*
X312760Y-47933D01*
X311827Y-47267D01*
X310894Y-47100D01*
X309960Y-47267D01*
X308761Y-47933D01*
X309160Y-43600D01*
X312760D01*
G01X318494Y-52434D02*
X319427Y-53267D01*
X320494Y-53600D01*
X321560Y-53267D01*
X322494Y-52267D01*
X323161Y-50767D01*
X323427Y-49267D01*
Y-47433D01*
X323161Y-45933D01*
X322494Y-44600D01*
X321694Y-43933D01*
X320760Y-43600D01*
X319694Y-43933D01*
X318894Y-44600D01*
X318360Y-45600D01*
X318094Y-46934D01*
X318360Y-48100D01*
X319027Y-49267D01*
X319827Y-49934D01*
X320760Y-50100D01*
X321827Y-49767D01*
X322627Y-48933D01*
X323427Y-47433D01*
G01X330760Y-53933D02*
X330494Y-53767D01*
Y-53433D01*
X330760Y-53267D01*
X331027Y-53433D01*
Y-53767D01*
X330760Y-53933D01*
G01X340760Y-43600D02*
X339694Y-43933D01*
X338894Y-44767D01*
X338360Y-45767D01*
X337960Y-47100D01*
X337827Y-48600D01*
X337960Y-50100D01*
X338360Y-51434D01*
X338894Y-52434D01*
X339694Y-53267D01*
X340760Y-53600D01*
X341827Y-53267D01*
X342627Y-52434D01*
X343161Y-51434D01*
X343560Y-50100D01*
X343694Y-48600D01*
X343560Y-47100D01*
X343161Y-45767D01*
X342627Y-44767D01*
X341827Y-43933D01*
X340760Y-43600D01*
G01X348761Y-46934D02*
X352760Y-53600D01*
G01Y-46934D02*
X348761Y-53600D01*
G01X357827Y-51600D02*
X358627Y-52767D01*
X359694Y-53433D01*
X360894Y-53600D01*
X361961Y-53433D01*
X363027Y-52600D01*
X363694Y-51600D01*
X363827Y-50600D01*
X363560Y-49434D01*
X362627Y-48600D01*
X361694Y-48267D01*
X360494D01*
G01X361694D02*
X362494Y-47767D01*
X363161Y-46934D01*
X363427Y-45933D01*
X363161Y-44933D01*
X362494Y-44100D01*
X361294Y-43600D01*
X360094Y-43767D01*
X358894Y-44434D01*
G01X367827Y-51600D02*
X368627Y-52767D01*
X369694Y-53433D01*
X370894Y-53600D01*
X371961Y-53433D01*
X373027Y-52600D01*
X373694Y-51600D01*
X373827Y-50600D01*
X373560Y-49434D01*
X372627Y-48600D01*
X371694Y-48267D01*
X370494D01*
G01X371694D02*
X372494Y-47767D01*
X373161Y-46934D01*
X373427Y-45933D01*
X373161Y-44933D01*
X372494Y-44100D01*
X371294Y-43600D01*
X370094Y-43767D01*
X368894Y-44434D01*
G01X380760Y-53933D02*
X380494Y-53767D01*
Y-53433D01*
X380760Y-53267D01*
X381027Y-53433D01*
Y-53767D01*
X380760Y-53933D01*
G01X390760Y-43600D02*
X389694Y-43933D01*
X388894Y-44767D01*
X388360Y-45767D01*
X387960Y-47100D01*
X387827Y-48600D01*
X387960Y-50100D01*
X388360Y-51434D01*
X388894Y-52434D01*
X389694Y-53267D01*
X390760Y-53600D01*
X391827Y-53267D01*
X392627Y-52434D01*
X393161Y-51434D01*
X393560Y-50100D01*
X393694Y-48600D01*
X393560Y-47100D01*
X393161Y-45767D01*
X392627Y-44767D01*
X391827Y-43933D01*
X390760Y-43600D01*
G01X307827Y-26000D02*
X308627Y-27167D01*
X309694Y-27833D01*
X310894Y-28000D01*
X311961Y-27833D01*
X313027Y-27000D01*
X313694Y-26000D01*
X313827Y-25000D01*
X313560Y-23834D01*
X312627Y-23000D01*
X311694Y-22667D01*
X310494D01*
G01X311694D02*
X312494Y-22167D01*
X313161Y-21334D01*
X313427Y-20333D01*
X313161Y-19333D01*
X312494Y-18500D01*
X311294Y-18000D01*
X310094Y-18167D01*
X308894Y-18834D01*
G01X322360Y-28000D02*
Y-18000D01*
X317427Y-25167D01*
X324094D01*
G01X330760Y-28333D02*
X330494Y-28167D01*
Y-27833D01*
X330760Y-27667D01*
X331027Y-27833D01*
Y-28167D01*
X330760Y-28333D01*
G01X340760Y-18000D02*
X339694Y-18333D01*
X338894Y-19167D01*
X338360Y-20166D01*
X337960Y-21500D01*
X337827Y-23000D01*
X337960Y-24500D01*
X338360Y-25833D01*
X338894Y-26834D01*
X339694Y-27667D01*
X340760Y-28000D01*
X341827Y-27667D01*
X342627Y-26834D01*
X343161Y-25833D01*
X343560Y-24500D01*
X343694Y-23000D01*
X343560Y-21500D01*
X343161Y-20166D01*
X342627Y-19167D01*
X341827Y-18333D01*
X340760Y-18000D01*
G01X348761Y-21334D02*
X352760Y-28000D01*
G01Y-21334D02*
X348761Y-28000D01*
G01X357827Y-26000D02*
X358627Y-27167D01*
X359694Y-27833D01*
X360894Y-28000D01*
X361961Y-27833D01*
X363027Y-27000D01*
X363694Y-26000D01*
X363827Y-25000D01*
X363560Y-23834D01*
X362627Y-23000D01*
X361694Y-22667D01*
X360494D01*
G01X361694D02*
X362494Y-22167D01*
X363161Y-21334D01*
X363427Y-20333D01*
X363161Y-19333D01*
X362494Y-18500D01*
X361294Y-18000D01*
X360094Y-18167D01*
X358894Y-18834D01*
G01X370760Y-18000D02*
X369694Y-18333D01*
X368894Y-19167D01*
X368360Y-20166D01*
X367960Y-21500D01*
X367827Y-23000D01*
X367960Y-24500D01*
X368360Y-25833D01*
X368894Y-26834D01*
X369694Y-27667D01*
X370760Y-28000D01*
X371827Y-27667D01*
X372627Y-26834D01*
X373161Y-25833D01*
X373560Y-24500D01*
X373694Y-23000D01*
X373560Y-21500D01*
X373161Y-20166D01*
X372627Y-19167D01*
X371827Y-18333D01*
X370760Y-18000D01*
G01X380760Y-28333D02*
X380494Y-28167D01*
Y-27833D01*
X380760Y-27667D01*
X381027Y-27833D01*
Y-28167D01*
X380760Y-28333D01*
G01X390760Y-18000D02*
X389694Y-18333D01*
X388894Y-19167D01*
X388360Y-20166D01*
X387960Y-21500D01*
X387827Y-23000D01*
X387960Y-24500D01*
X388360Y-25833D01*
X388894Y-26834D01*
X389694Y-27667D01*
X390760Y-28000D01*
X391827Y-27667D01*
X392627Y-26834D01*
X393161Y-25833D01*
X393560Y-24500D01*
X393694Y-23000D01*
X393560Y-21500D01*
X393161Y-20166D01*
X392627Y-19167D01*
X391827Y-18333D01*
X390760Y-18000D01*
G01X307827Y-400D02*
X308627Y-1567D01*
X309694Y-2233D01*
X310894Y-2400D01*
X311961Y-2233D01*
X313027Y-1400D01*
X313694Y-400D01*
X313827Y600D01*
X313560Y1766D01*
X312627Y2600D01*
X311694Y2933D01*
X310494D01*
G01X311694D02*
X312494Y3433D01*
X313161Y4266D01*
X313427Y5267D01*
X313161Y6267D01*
X312494Y7100D01*
X311294Y7600D01*
X310094Y7433D01*
X308894Y6766D01*
G01X322360Y-2400D02*
Y7600D01*
X317427Y433D01*
X324094D01*
G01X330760Y-2733D02*
X330494Y-2567D01*
Y-2233D01*
X330760Y-2067D01*
X331027Y-2233D01*
Y-2567D01*
X330760Y-2733D01*
G01X340760Y7600D02*
X339694Y7267D01*
X338894Y6433D01*
X338360Y5434D01*
X337960Y4100D01*
X337827Y2600D01*
X337960Y1100D01*
X338360Y-233D01*
X338894Y-1234D01*
X339694Y-2067D01*
X340760Y-2400D01*
X341827Y-2067D01*
X342627Y-1234D01*
X343161Y-233D01*
X343560Y1100D01*
X343694Y2600D01*
X343560Y4100D01*
X343161Y5434D01*
X342627Y6433D01*
X341827Y7267D01*
X340760Y7600D01*
G01X348761Y4266D02*
X352760Y-2400D01*
G01Y4266D02*
X348761Y-2400D01*
G01X357827Y-400D02*
X358627Y-1567D01*
X359694Y-2233D01*
X360894Y-2400D01*
X361961Y-2233D01*
X363027Y-1400D01*
X363694Y-400D01*
X363827Y600D01*
X363560Y1766D01*
X362627Y2600D01*
X361694Y2933D01*
X360494D01*
G01X361694D02*
X362494Y3433D01*
X363161Y4266D01*
X363427Y5267D01*
X363161Y6267D01*
X362494Y7100D01*
X361294Y7600D01*
X360094Y7433D01*
X358894Y6766D01*
G01X370760Y7600D02*
X369694Y7267D01*
X368894Y6433D01*
X368360Y5434D01*
X367960Y4100D01*
X367827Y2600D01*
X367960Y1100D01*
X368360Y-233D01*
X368894Y-1234D01*
X369694Y-2067D01*
X370760Y-2400D01*
X371827Y-2067D01*
X372627Y-1234D01*
X373161Y-233D01*
X373560Y1100D01*
X373694Y2600D01*
X373560Y4100D01*
X373161Y5434D01*
X372627Y6433D01*
X371827Y7267D01*
X370760Y7600D01*
G01X380760Y-2733D02*
X380494Y-2567D01*
Y-2233D01*
X380760Y-2067D01*
X381027Y-2233D01*
Y-2567D01*
X380760Y-2733D01*
G01X390760Y7600D02*
X389694Y7267D01*
X388894Y6433D01*
X388360Y5434D01*
X387960Y4100D01*
X387827Y2600D01*
X387960Y1100D01*
X388360Y-233D01*
X388894Y-1234D01*
X389694Y-2067D01*
X390760Y-2400D01*
X391827Y-2067D01*
X392627Y-1234D01*
X393161Y-233D01*
X393560Y1100D01*
X393694Y2600D01*
X393560Y4100D01*
X393161Y5434D01*
X392627Y6433D01*
X391827Y7267D01*
X390760Y7600D01*
G01X330760Y23200D02*
Y33200D01*
X329160Y31200D01*
G01Y23200D02*
X332360D01*
G01X338227Y31533D02*
X339027Y32533D01*
X339960Y33033D01*
X341027Y33200D01*
X342360Y32867D01*
X343294Y32033D01*
X343560Y31033D01*
X343427Y30033D01*
X342894Y29200D01*
X340227Y27533D01*
X339027Y26367D01*
X338227Y24700D01*
X337960Y23200D01*
X343560D01*
G01X350760D02*
X351694Y23367D01*
X352760Y23866D01*
X353427Y24700D01*
X353694Y25867D01*
X353427Y27033D01*
X352627Y28033D01*
X351427Y28533D01*
X350094D01*
X349294Y28867D01*
X348627Y29700D01*
X348360Y30867D01*
X348761Y32033D01*
X349694Y32867D01*
X350760Y33200D01*
X351827Y32867D01*
X352760Y32033D01*
X353161Y30867D01*
X352894Y29700D01*
X352227Y28867D01*
X351427Y28533D01*
X350094D01*
X348894Y28033D01*
X348094Y27033D01*
X347827Y25867D01*
X348094Y24700D01*
X348761Y23866D01*
X349827Y23367D01*
X350760Y23200D01*
G01X360760Y22867D02*
X360494Y23033D01*
Y23367D01*
X360760Y23533D01*
X361027Y23367D01*
Y23033D01*
X360760Y22867D01*
G01X370760Y33200D02*
X369694Y32867D01*
X368894Y32033D01*
X368360Y31033D01*
X367960Y29700D01*
X367827Y28200D01*
X367960Y26700D01*
X368360Y25366D01*
X368894Y24366D01*
X369694Y23533D01*
X370760Y23200D01*
X371827Y23533D01*
X372627Y24366D01*
X373161Y25366D01*
X373560Y26700D01*
X373694Y28200D01*
X373560Y29700D01*
X373161Y31033D01*
X372627Y32033D01*
X371827Y32867D01*
X370760Y33200D01*
G01X335494Y48800D02*
X335760Y50966D01*
X336160Y52800D01*
X336694Y54467D01*
X337360Y56300D01*
X338427Y58800D01*
X333094D01*
G01X343227Y57133D02*
X344027Y58133D01*
X344960Y58633D01*
X346027Y58800D01*
X347360Y58467D01*
X348294Y57633D01*
X348560Y56634D01*
X348427Y55633D01*
X347894Y54800D01*
X345227Y53133D01*
X344027Y51967D01*
X343227Y50300D01*
X342960Y48800D01*
X348560D01*
G01X355760Y48467D02*
X355494Y48633D01*
Y48967D01*
X355760Y49133D01*
X356027Y48967D01*
Y48633D01*
X355760Y48467D01*
G01X365760Y58800D02*
X364694Y58467D01*
X363894Y57633D01*
X363360Y56634D01*
X362960Y55300D01*
X362827Y53800D01*
X362960Y52300D01*
X363360Y50966D01*
X363894Y49966D01*
X364694Y49133D01*
X365760Y48800D01*
X366827Y49133D01*
X367627Y49966D01*
X368161Y50966D01*
X368560Y52300D01*
X368694Y53800D01*
X368560Y55300D01*
X368161Y56634D01*
X367627Y57633D01*
X366827Y58467D01*
X365760Y58800D01*
G01X332827Y75900D02*
X333627Y75066D01*
X334560Y74567D01*
X335760Y74400D01*
X336961Y74733D01*
X337894Y75400D01*
X338560Y76566D01*
X338694Y77900D01*
X338427Y79233D01*
X337760Y80067D01*
X336827Y80733D01*
X335894Y80900D01*
X334960Y80733D01*
X333761Y80067D01*
X334160Y84400D01*
X337760D01*
G01X343227Y82733D02*
X344027Y83733D01*
X344960Y84233D01*
X346027Y84400D01*
X347360Y84067D01*
X348294Y83233D01*
X348560Y82234D01*
X348427Y81233D01*
X347894Y80400D01*
X345227Y78733D01*
X344027Y77567D01*
X343227Y75900D01*
X342960Y74400D01*
X348560D01*
G01X355760Y74067D02*
X355494Y74233D01*
Y74567D01*
X355760Y74733D01*
X356027Y74567D01*
Y74233D01*
X355760Y74067D01*
G01X365760Y84400D02*
X364694Y84067D01*
X363894Y83233D01*
X363360Y82234D01*
X362960Y80900D01*
X362827Y79400D01*
X362960Y77900D01*
X363360Y76566D01*
X363894Y75566D01*
X364694Y74733D01*
X365760Y74400D01*
X366827Y74733D01*
X367627Y75566D01*
X368161Y76566D01*
X368560Y77900D01*
X368694Y79400D01*
X368560Y80900D01*
X368161Y82234D01*
X367627Y83233D01*
X366827Y84067D01*
X365760Y84400D01*
G01X333227Y104166D02*
X334160Y105333D01*
X334960Y106000D01*
X336027Y106333D01*
X336961Y106000D01*
X337627Y105333D01*
X338161Y104333D01*
X338294Y103167D01*
X338161Y102166D01*
X337627Y101166D01*
X336827Y100333D01*
X335894Y100000D01*
X334827Y100333D01*
X333894Y101333D01*
X333360Y102833D01*
X333227Y104500D01*
X333494Y106666D01*
X333894Y107834D01*
X334560Y109000D01*
X335494Y109833D01*
X336427Y110000D01*
X337360Y109667D01*
X338027Y108833D01*
G01X342827Y102000D02*
X343627Y100833D01*
X344694Y100167D01*
X345894Y100000D01*
X346961Y100167D01*
X348027Y101000D01*
X348694Y102000D01*
X348827Y103000D01*
X348560Y104166D01*
X347627Y105000D01*
X346694Y105333D01*
X345494D01*
G01X346694D02*
X347494Y105833D01*
X348161Y106666D01*
X348427Y107667D01*
X348161Y108667D01*
X347494Y109500D01*
X346294Y110000D01*
X345094Y109833D01*
X343894Y109166D01*
G01X355760Y99667D02*
X355494Y99833D01*
Y100167D01*
X355760Y100333D01*
X356027Y100167D01*
Y99833D01*
X355760Y99667D01*
G01X365760Y110000D02*
X364694Y109667D01*
X363894Y108833D01*
X363360Y107834D01*
X362960Y106500D01*
X362827Y105000D01*
X362960Y103500D01*
X363360Y102166D01*
X363894Y101166D01*
X364694Y100333D01*
X365760Y100000D01*
X366827Y100333D01*
X367627Y101166D01*
X368161Y102166D01*
X368560Y103500D01*
X368694Y105000D01*
X368560Y106500D01*
X368161Y107834D01*
X367627Y108833D01*
X366827Y109667D01*
X365760Y110000D01*
G01X332827Y127600D02*
X333627Y126433D01*
X334694Y125767D01*
X335894Y125600D01*
X336961Y125767D01*
X338027Y126600D01*
X338694Y127600D01*
X338827Y128600D01*
X338560Y129766D01*
X337627Y130600D01*
X336694Y130933D01*
X335494D01*
G01X336694D02*
X337494Y131433D01*
X338161Y132266D01*
X338427Y133267D01*
X338161Y134267D01*
X337494Y135100D01*
X336294Y135600D01*
X335094Y135433D01*
X333894Y134766D01*
G01X345760Y125600D02*
X346694Y125767D01*
X347760Y126266D01*
X348427Y127100D01*
X348694Y128267D01*
X348427Y129433D01*
X347627Y130433D01*
X346427Y130933D01*
X345094D01*
X344294Y131267D01*
X343627Y132100D01*
X343360Y133267D01*
X343761Y134433D01*
X344694Y135267D01*
X345760Y135600D01*
X346827Y135267D01*
X347760Y134433D01*
X348161Y133267D01*
X347894Y132100D01*
X347227Y131267D01*
X346427Y130933D01*
X345094D01*
X343894Y130433D01*
X343094Y129433D01*
X342827Y128267D01*
X343094Y127100D01*
X343761Y126266D01*
X344827Y125767D01*
X345760Y125600D01*
G01X355760Y125267D02*
X355494Y125433D01*
Y125767D01*
X355760Y125933D01*
X356027Y125767D01*
Y125433D01*
X355760Y125267D01*
G01X365760Y135600D02*
X364694Y135267D01*
X363894Y134433D01*
X363360Y133434D01*
X362960Y132100D01*
X362827Y130600D01*
X362960Y129100D01*
X363360Y127766D01*
X363894Y126766D01*
X364694Y125933D01*
X365760Y125600D01*
X366827Y125933D01*
X367627Y126766D01*
X368161Y127766D01*
X368560Y129100D01*
X368694Y130600D01*
X368560Y132100D01*
X368161Y133434D01*
X367627Y134433D01*
X366827Y135267D01*
X365760Y135600D01*
G01X332827Y153200D02*
X333627Y152033D01*
X334694Y151367D01*
X335894Y151200D01*
X336961Y151367D01*
X338027Y152200D01*
X338694Y153200D01*
X338827Y154200D01*
X338560Y155366D01*
X337627Y156200D01*
X336694Y156533D01*
X335494D01*
G01X336694D02*
X337494Y157033D01*
X338161Y157866D01*
X338427Y158867D01*
X338161Y159867D01*
X337494Y160700D01*
X336294Y161200D01*
X335094Y161033D01*
X333894Y160366D01*
G01X342827Y152700D02*
X343627Y151866D01*
X344560Y151367D01*
X345760Y151200D01*
X346961Y151533D01*
X347894Y152200D01*
X348560Y153366D01*
X348694Y154700D01*
X348427Y156033D01*
X347760Y156867D01*
X346827Y157533D01*
X345894Y157700D01*
X344960Y157533D01*
X343761Y156867D01*
X344160Y161200D01*
X347760D01*
G01X355760Y150867D02*
X355494Y151033D01*
Y151367D01*
X355760Y151533D01*
X356027Y151367D01*
Y151033D01*
X355760Y150867D01*
G01X365760Y161200D02*
X364694Y160867D01*
X363894Y160033D01*
X363360Y159034D01*
X362960Y157700D01*
X362827Y156200D01*
X362960Y154700D01*
X363360Y153366D01*
X363894Y152366D01*
X364694Y151533D01*
X365760Y151200D01*
X366827Y151533D01*
X367627Y152366D01*
X368161Y153366D01*
X368560Y154700D01*
X368694Y156200D01*
X368560Y157700D01*
X368161Y159034D01*
X367627Y160033D01*
X366827Y160867D01*
X365760Y161200D01*
G01X335760Y176800D02*
Y186800D01*
X334160Y184800D01*
G01Y176800D02*
X337360D01*
G01X343227Y185133D02*
X344027Y186133D01*
X344960Y186633D01*
X346027Y186800D01*
X347360Y186467D01*
X348294Y185633D01*
X348560Y184634D01*
X348427Y183633D01*
X347894Y182800D01*
X345227Y181133D01*
X344027Y179967D01*
X343227Y178300D01*
X342960Y176800D01*
X348560D01*
G01X355760Y176467D02*
X355494Y176633D01*
Y176967D01*
X355760Y177133D01*
X356027Y176967D01*
Y176633D01*
X355760Y176467D01*
G01X365760Y186800D02*
X364694Y186467D01*
X363894Y185633D01*
X363360Y184634D01*
X362960Y183300D01*
X362827Y181800D01*
X362960Y180300D01*
X363360Y178966D01*
X363894Y177966D01*
X364694Y177133D01*
X365760Y176800D01*
X366827Y177133D01*
X367627Y177966D01*
X368161Y178966D01*
X368560Y180300D01*
X368694Y181800D01*
X368560Y183300D01*
X368161Y184634D01*
X367627Y185633D01*
X366827Y186467D01*
X365760Y186800D01*
G01X335760Y202400D02*
Y212400D01*
X334160Y210400D01*
G01Y202400D02*
X337360D01*
G01X345760Y212400D02*
X344694Y212067D01*
X343894Y211233D01*
X343360Y210234D01*
X342960Y208900D01*
X342827Y207400D01*
X342960Y205900D01*
X343360Y204566D01*
X343894Y203566D01*
X344694Y202733D01*
X345760Y202400D01*
X346827Y202733D01*
X347627Y203566D01*
X348161Y204566D01*
X348560Y205900D01*
X348694Y207400D01*
X348560Y208900D01*
X348161Y210234D01*
X347627Y211233D01*
X346827Y212067D01*
X345760Y212400D01*
G01X355760Y202067D02*
X355494Y202233D01*
Y202567D01*
X355760Y202733D01*
X356027Y202567D01*
Y202233D01*
X355760Y202067D01*
G01X365760Y212400D02*
X364694Y212067D01*
X363894Y211233D01*
X363360Y210234D01*
X362960Y208900D01*
X362827Y207400D01*
X362960Y205900D01*
X363360Y204566D01*
X363894Y203566D01*
X364694Y202733D01*
X365760Y202400D01*
X366827Y202733D01*
X367627Y203566D01*
X368161Y204566D01*
X368560Y205900D01*
X368694Y207400D01*
X368560Y208900D01*
X368161Y210234D01*
X367627Y211233D01*
X366827Y212067D01*
X365760Y212400D01*
G01X340760Y228000D02*
X341694Y228167D01*
X342760Y228667D01*
X343427Y229500D01*
X343694Y230667D01*
X343427Y231833D01*
X342627Y232833D01*
X341427Y233333D01*
X340094D01*
X339294Y233667D01*
X338627Y234500D01*
X338360Y235667D01*
X338761Y236833D01*
X339694Y237667D01*
X340760Y238000D01*
X341827Y237667D01*
X342760Y236833D01*
X343161Y235667D01*
X342894Y234500D01*
X342227Y233667D01*
X341427Y233333D01*
X340094D01*
X338894Y232833D01*
X338094Y231833D01*
X337827Y230667D01*
X338094Y229500D01*
X338761Y228667D01*
X339827Y228167D01*
X340760Y228000D01*
G01X350760Y227667D02*
X350494Y227833D01*
Y228167D01*
X350760Y228333D01*
X351027Y228167D01*
Y227833D01*
X350760Y227667D01*
G01X360760Y238000D02*
X359694Y237667D01*
X358894Y236833D01*
X358360Y235834D01*
X357960Y234500D01*
X357827Y233000D01*
X357960Y231500D01*
X358360Y230166D01*
X358894Y229166D01*
X359694Y228333D01*
X360760Y228000D01*
X361827Y228333D01*
X362627Y229166D01*
X363161Y230166D01*
X363560Y231500D01*
X363694Y233000D01*
X363560Y234500D01*
X363161Y235834D01*
X362627Y236833D01*
X361827Y237667D01*
X360760Y238000D01*
G01X332960Y257733D02*
X334027Y256900D01*
X335227Y256400D01*
X336294D01*
X337360Y256900D01*
X338161Y257733D01*
X338560Y258900D01*
X338294Y260067D01*
X337627Y261067D01*
X336427Y261733D01*
X334827Y262067D01*
X333894Y262733D01*
X333494Y263900D01*
X333761Y265067D01*
X334427Y265900D01*
X335360Y266400D01*
X336294D01*
X337227Y266067D01*
X338027Y265233D01*
G01X344160Y266400D02*
X347360D01*
G01X345760D02*
Y256400D01*
G01X344160D02*
X347360D01*
G01X353227Y266400D02*
X358294D01*
X353227Y256400D01*
X358294D01*
G01X368427D02*
X363094D01*
Y266400D01*
X368427D01*
G01X366294Y261567D02*
X363094D01*
G01X344827Y307000D02*
Y317000D01*
X347494D01*
X348560Y316500D01*
X349360Y315833D01*
X350027Y314834D01*
X350560Y313666D01*
X350694Y312000D01*
X350560Y310333D01*
X350027Y309166D01*
X349360Y308166D01*
X348560Y307500D01*
X347494Y307000D01*
X344827D01*
G01X355094D02*
Y317000D01*
X358427D01*
X359494Y316500D01*
X360161Y315833D01*
X360427Y314500D01*
X360161Y313167D01*
X359360Y312333D01*
X358427Y311833D01*
X355094D01*
G01X358427D02*
X360427Y307000D01*
G01X366160Y317000D02*
X369360D01*
G01X367760D02*
Y307000D01*
G01X366160D02*
X369360D01*
G01X375094Y317000D02*
Y307000D01*
X380427D01*
G01X385094Y317000D02*
Y307000D01*
X390427D01*
G01X410694Y316166D02*
X409894Y316667D01*
X408961Y317000D01*
X407894D01*
X406694Y316500D01*
X405761Y315667D01*
X405094Y314667D01*
X404560Y313000D01*
X404427Y311500D01*
X404694Y310000D01*
X405094Y309000D01*
X405894Y308000D01*
X406827Y307333D01*
X407760Y307000D01*
X408694D01*
X409627Y307333D01*
X410427Y307833D01*
X411094Y308500D01*
G01X414960Y307000D02*
Y317000D01*
G01X420560D02*
Y307000D01*
G01Y312000D02*
X414960D01*
G01X424427Y307000D02*
X427760Y317000D01*
X431094Y307000D01*
G01X429894Y310500D02*
X425627D01*
G01X435094Y307000D02*
Y317000D01*
X438427D01*
X439494Y316500D01*
X440161Y315833D01*
X440427Y314500D01*
X440161Y313167D01*
X439360Y312333D01*
X438427Y311833D01*
X435094D01*
G01X438427D02*
X440427Y307000D01*
G01X447760Y317000D02*
Y307000D01*
G01X444694Y317000D02*
X450827D01*
G01X457760Y306667D02*
X457494Y306833D01*
Y307167D01*
X457760Y307333D01*
X458027Y307167D01*
Y306833D01*
X457760Y306667D01*
G01Y311166D02*
X457494Y311333D01*
Y311667D01*
X457760Y311833D01*
X458027Y311667D01*
Y311333D01*
X457760Y311166D01*
G01X477760Y317000D02*
Y307000D01*
G01X474694Y317000D02*
X480827D01*
G01X487760Y307000D02*
X486694Y307167D01*
X485761Y307833D01*
X484960Y308833D01*
X484427Y310000D01*
X484160Y311333D01*
Y312667D01*
X484427Y314000D01*
X484960Y315167D01*
X485761Y316166D01*
X486694Y316833D01*
X487760Y317000D01*
X488827Y316833D01*
X489760Y316166D01*
X490560Y315167D01*
X491094Y314000D01*
X491361Y312667D01*
Y311333D01*
X491094Y310000D01*
X490560Y308833D01*
X489760Y307833D01*
X488827Y307167D01*
X487760Y307000D01*
G01X495094D02*
Y317000D01*
X498294D01*
X499360Y316500D01*
X500161Y315333D01*
X500427Y314000D01*
X500161Y312667D01*
X499494Y311667D01*
X498294Y311166D01*
X495094D01*
G01X517760Y317000D02*
Y307000D01*
G01X515894Y313666D02*
X519627D01*
G01X527760Y307000D02*
X526960Y307167D01*
X526160Y307833D01*
X525627Y309000D01*
X525360Y310333D01*
X525627Y311667D01*
X526160Y312833D01*
X526960Y313500D01*
X527760Y313666D01*
X528560Y313500D01*
X529360Y312833D01*
X529894Y311667D01*
X530027Y310333D01*
X529894Y309000D01*
X529360Y307833D01*
X528560Y307167D01*
X527760Y307000D01*
G01X548827Y312333D02*
X549360Y312833D01*
X549760Y313666D01*
X550027Y314834D01*
X549760Y315833D01*
X549227Y316500D01*
X548294Y317000D01*
X544694D01*
Y307000D01*
X549094D01*
X550027Y307666D01*
X550560Y308667D01*
X550827Y309833D01*
X550560Y311000D01*
X549760Y312000D01*
X548827Y312333D01*
X544694D01*
G01X557760Y307000D02*
X556694Y307167D01*
X555761Y307833D01*
X554960Y308833D01*
X554427Y310000D01*
X554160Y311333D01*
Y312667D01*
X554427Y314000D01*
X554960Y315167D01*
X555761Y316166D01*
X556694Y316833D01*
X557760Y317000D01*
X558827Y316833D01*
X559760Y316166D01*
X560560Y315167D01*
X561094Y314000D01*
X561361Y312667D01*
Y311333D01*
X561094Y310000D01*
X560560Y308833D01*
X559760Y307833D01*
X558827Y307167D01*
X557760Y307000D01*
G01X567760Y317000D02*
Y307000D01*
G01X564694Y317000D02*
X570827D01*
G01X577760D02*
Y307000D01*
G01X574694Y317000D02*
X580827D01*
G01X587760Y307000D02*
X586694Y307167D01*
X585761Y307833D01*
X584960Y308833D01*
X584427Y310000D01*
X584160Y311333D01*
Y312667D01*
X584427Y314000D01*
X584960Y315167D01*
X585761Y316166D01*
X586694Y316833D01*
X587760Y317000D01*
X588827Y316833D01*
X589760Y316166D01*
X590560Y315167D01*
X591094Y314000D01*
X591361Y312667D01*
Y311333D01*
X591094Y310000D01*
X590560Y308833D01*
X589760Y307833D01*
X588827Y307167D01*
X587760Y307000D01*
G01X594294D02*
Y317000D01*
X597760Y308667D01*
X601227Y317000D01*
Y307000D01*
G01X369427Y282000D02*
X372760Y292000D01*
X376094Y282000D01*
G01X374894Y285500D02*
X370627D01*
G01X380094Y292000D02*
Y282000D01*
X385427D01*
G01X390094Y292000D02*
Y282000D01*
X395427D01*
G01X409827Y292000D02*
Y284833D01*
X410360Y283333D01*
X411427Y282333D01*
X412760Y282000D01*
X414094Y282333D01*
X415161Y283333D01*
X415694Y284833D01*
Y292000D01*
G01X419694Y282000D02*
Y292000D01*
X425827Y282000D01*
Y292000D01*
G01X431160D02*
X434360D01*
G01X432760D02*
Y282000D01*
G01X431160D02*
X434360D01*
G01X442760Y292000D02*
Y282000D01*
G01X439694Y292000D02*
X445827D01*
G01X449960Y283333D02*
X451027Y282500D01*
X452227Y282000D01*
X453294D01*
X454360Y282500D01*
X455161Y283333D01*
X455560Y284500D01*
X455294Y285666D01*
X454627Y286667D01*
X453427Y287333D01*
X451827Y287667D01*
X450894Y288333D01*
X450494Y289500D01*
X450761Y290667D01*
X451427Y291500D01*
X452360Y292000D01*
X453294D01*
X454227Y291667D01*
X455027Y290833D01*
G01X469427Y282000D02*
X472760Y292000D01*
X476094Y282000D01*
G01X474894Y285500D02*
X470627D01*
G01X480094Y282000D02*
Y292000D01*
X483427D01*
X484494Y291500D01*
X485161Y290833D01*
X485427Y289500D01*
X485161Y288167D01*
X484360Y287333D01*
X483427Y286833D01*
X480094D01*
G01X483427D02*
X485427Y282000D01*
G01X495427D02*
X490094D01*
Y292000D01*
X495427D01*
G01X493294Y287167D02*
X490094D01*
G01X511160Y292000D02*
X514360D01*
G01X512760D02*
Y282000D01*
G01X511160D02*
X514360D01*
G01X519694D02*
Y292000D01*
X525827Y282000D01*
Y292000D01*
G01X539294Y282000D02*
Y292000D01*
X542760Y283667D01*
X546227Y292000D01*
Y282000D01*
G01X551160Y292000D02*
X554360D01*
G01X552760D02*
Y282000D01*
G01X551160D02*
X554360D01*
G01X560094Y292000D02*
Y282000D01*
X565427D01*
G01X569960Y283333D02*
X571027Y282500D01*
X572227Y282000D01*
X573294D01*
X574360Y282500D01*
X575161Y283333D01*
X575560Y284500D01*
X575294Y285666D01*
X574627Y286667D01*
X573427Y287333D01*
X571827Y287667D01*
X570894Y288333D01*
X570494Y289500D01*
X570761Y290667D01*
X571427Y291500D01*
X572360Y292000D01*
X573294D01*
X574227Y291667D01*
X575027Y290833D01*
G01X426760Y271400D02*
Y-87000D01*
G01X461294Y-75867D02*
X464494D01*
G01X462760Y-73700D02*
Y-78034D01*
G01X470227Y-70867D02*
X471027Y-69867D01*
X471960Y-69367D01*
X473027Y-69200D01*
X474360Y-69533D01*
X475294Y-70367D01*
X475560Y-71366D01*
X475427Y-72367D01*
X474894Y-73200D01*
X472227Y-74867D01*
X471027Y-76033D01*
X470227Y-77700D01*
X469960Y-79200D01*
X475560D01*
G01X482760Y-79533D02*
X482494Y-79367D01*
Y-79033D01*
X482760Y-78867D01*
X483027Y-79033D01*
Y-79367D01*
X482760Y-79533D01*
G01X492760Y-69200D02*
X491694Y-69533D01*
X490894Y-70367D01*
X490360Y-71366D01*
X489960Y-72700D01*
X489827Y-74200D01*
X489960Y-75700D01*
X490360Y-77034D01*
X490894Y-78034D01*
X491694Y-78867D01*
X492760Y-79200D01*
X493827Y-78867D01*
X494627Y-78034D01*
X495161Y-77034D01*
X495560Y-75700D01*
X495694Y-74200D01*
X495560Y-72700D01*
X495161Y-71366D01*
X494627Y-70367D01*
X493827Y-69533D01*
X492760Y-69200D01*
G01X500360Y-79533D02*
X505161Y-69200D01*
G01X511027Y-75867D02*
X514494D01*
G01X520227Y-70867D02*
X521027Y-69867D01*
X521960Y-69367D01*
X523027Y-69200D01*
X524360Y-69533D01*
X525294Y-70367D01*
X525560Y-71366D01*
X525427Y-72367D01*
X524894Y-73200D01*
X522227Y-74867D01*
X521027Y-76033D01*
X520227Y-77700D01*
X519960Y-79200D01*
X525560D01*
G01X532760Y-79533D02*
X532494Y-79367D01*
Y-79033D01*
X532760Y-78867D01*
X533027Y-79033D01*
Y-79367D01*
X532760Y-79533D01*
G01X542760Y-69200D02*
X541694Y-69533D01*
X540894Y-70367D01*
X540360Y-71366D01*
X539960Y-72700D01*
X539827Y-74200D01*
X539960Y-75700D01*
X540360Y-77034D01*
X540894Y-78034D01*
X541694Y-78867D01*
X542760Y-79200D01*
X543827Y-78867D01*
X544627Y-78034D01*
X545161Y-77034D01*
X545560Y-75700D01*
X545694Y-74200D01*
X545560Y-72700D01*
X545161Y-71366D01*
X544627Y-70367D01*
X543827Y-69533D01*
X542760Y-69200D01*
G01X461294Y-50267D02*
X464494D01*
G01X462760Y-48100D02*
Y-52434D01*
G01X470227Y-45267D02*
X471027Y-44267D01*
X471960Y-43767D01*
X473027Y-43600D01*
X474360Y-43933D01*
X475294Y-44767D01*
X475560Y-45767D01*
X475427Y-46767D01*
X474894Y-47600D01*
X472227Y-49267D01*
X471027Y-50433D01*
X470227Y-52100D01*
X469960Y-53600D01*
X475560D01*
G01X482760Y-53933D02*
X482494Y-53767D01*
Y-53433D01*
X482760Y-53267D01*
X483027Y-53433D01*
Y-53767D01*
X482760Y-53933D01*
G01X492760Y-43600D02*
X491694Y-43933D01*
X490894Y-44767D01*
X490360Y-45767D01*
X489960Y-47100D01*
X489827Y-48600D01*
X489960Y-50100D01*
X490360Y-51434D01*
X490894Y-52434D01*
X491694Y-53267D01*
X492760Y-53600D01*
X493827Y-53267D01*
X494627Y-52434D01*
X495161Y-51434D01*
X495560Y-50100D01*
X495694Y-48600D01*
X495560Y-47100D01*
X495161Y-45767D01*
X494627Y-44767D01*
X493827Y-43933D01*
X492760Y-43600D01*
G01X500360Y-53933D02*
X505161Y-43600D01*
G01X511027Y-50267D02*
X514494D01*
G01X520227Y-45267D02*
X521027Y-44267D01*
X521960Y-43767D01*
X523027Y-43600D01*
X524360Y-43933D01*
X525294Y-44767D01*
X525560Y-45767D01*
X525427Y-46767D01*
X524894Y-47600D01*
X522227Y-49267D01*
X521027Y-50433D01*
X520227Y-52100D01*
X519960Y-53600D01*
X525560D01*
G01X532760Y-53933D02*
X532494Y-53767D01*
Y-53433D01*
X532760Y-53267D01*
X533027Y-53433D01*
Y-53767D01*
X532760Y-53933D01*
G01X542760Y-43600D02*
X541694Y-43933D01*
X540894Y-44767D01*
X540360Y-45767D01*
X539960Y-47100D01*
X539827Y-48600D01*
X539960Y-50100D01*
X540360Y-51434D01*
X540894Y-52434D01*
X541694Y-53267D01*
X542760Y-53600D01*
X543827Y-53267D01*
X544627Y-52434D01*
X545161Y-51434D01*
X545560Y-50100D01*
X545694Y-48600D01*
X545560Y-47100D01*
X545161Y-45767D01*
X544627Y-44767D01*
X543827Y-43933D01*
X542760Y-43600D01*
G01X461294Y-24667D02*
X464494D01*
G01X462760Y-22500D02*
Y-26834D01*
G01X470227Y-19667D02*
X471027Y-18667D01*
X471960Y-18167D01*
X473027Y-18000D01*
X474360Y-18333D01*
X475294Y-19167D01*
X475560Y-20166D01*
X475427Y-21167D01*
X474894Y-22000D01*
X472227Y-23667D01*
X471027Y-24833D01*
X470227Y-26500D01*
X469960Y-28000D01*
X475560D01*
G01X482760Y-28333D02*
X482494Y-28167D01*
Y-27833D01*
X482760Y-27667D01*
X483027Y-27833D01*
Y-28167D01*
X482760Y-28333D01*
G01X492760Y-18000D02*
X491694Y-18333D01*
X490894Y-19167D01*
X490360Y-20166D01*
X489960Y-21500D01*
X489827Y-23000D01*
X489960Y-24500D01*
X490360Y-25833D01*
X490894Y-26834D01*
X491694Y-27667D01*
X492760Y-28000D01*
X493827Y-27667D01*
X494627Y-26834D01*
X495161Y-25833D01*
X495560Y-24500D01*
X495694Y-23000D01*
X495560Y-21500D01*
X495161Y-20166D01*
X494627Y-19167D01*
X493827Y-18333D01*
X492760Y-18000D01*
G01X500360Y-28333D02*
X505161Y-18000D01*
G01X511027Y-24667D02*
X514494D01*
G01X520227Y-19667D02*
X521027Y-18667D01*
X521960Y-18167D01*
X523027Y-18000D01*
X524360Y-18333D01*
X525294Y-19167D01*
X525560Y-20166D01*
X525427Y-21167D01*
X524894Y-22000D01*
X522227Y-23667D01*
X521027Y-24833D01*
X520227Y-26500D01*
X519960Y-28000D01*
X525560D01*
G01X532760Y-28333D02*
X532494Y-28167D01*
Y-27833D01*
X532760Y-27667D01*
X533027Y-27833D01*
Y-28167D01*
X532760Y-28333D01*
G01X542760Y-18000D02*
X541694Y-18333D01*
X540894Y-19167D01*
X540360Y-20166D01*
X539960Y-21500D01*
X539827Y-23000D01*
X539960Y-24500D01*
X540360Y-25833D01*
X540894Y-26834D01*
X541694Y-27667D01*
X542760Y-28000D01*
X543827Y-27667D01*
X544627Y-26834D01*
X545161Y-25833D01*
X545560Y-24500D01*
X545694Y-23000D01*
X545560Y-21500D01*
X545161Y-20166D01*
X544627Y-19167D01*
X543827Y-18333D01*
X542760Y-18000D01*
G01X461294Y933D02*
X464494D01*
G01X462760Y3100D02*
Y-1234D01*
G01X470227Y5933D02*
X471027Y6933D01*
X471960Y7433D01*
X473027Y7600D01*
X474360Y7267D01*
X475294Y6433D01*
X475560Y5434D01*
X475427Y4433D01*
X474894Y3600D01*
X472227Y1933D01*
X471027Y767D01*
X470227Y-900D01*
X469960Y-2400D01*
X475560D01*
G01X482760Y-2733D02*
X482494Y-2567D01*
Y-2233D01*
X482760Y-2067D01*
X483027Y-2233D01*
Y-2567D01*
X482760Y-2733D01*
G01X492760Y7600D02*
X491694Y7267D01*
X490894Y6433D01*
X490360Y5434D01*
X489960Y4100D01*
X489827Y2600D01*
X489960Y1100D01*
X490360Y-233D01*
X490894Y-1234D01*
X491694Y-2067D01*
X492760Y-2400D01*
X493827Y-2067D01*
X494627Y-1234D01*
X495161Y-233D01*
X495560Y1100D01*
X495694Y2600D01*
X495560Y4100D01*
X495161Y5434D01*
X494627Y6433D01*
X493827Y7267D01*
X492760Y7600D01*
G01X500360Y-2733D02*
X505161Y7600D01*
G01X511027Y933D02*
X514494D01*
G01X520227Y5933D02*
X521027Y6933D01*
X521960Y7433D01*
X523027Y7600D01*
X524360Y7267D01*
X525294Y6433D01*
X525560Y5434D01*
X525427Y4433D01*
X524894Y3600D01*
X522227Y1933D01*
X521027Y767D01*
X520227Y-900D01*
X519960Y-2400D01*
X525560D01*
G01X532760Y-2733D02*
X532494Y-2567D01*
Y-2233D01*
X532760Y-2067D01*
X533027Y-2233D01*
Y-2567D01*
X532760Y-2733D01*
G01X542760Y7600D02*
X541694Y7267D01*
X540894Y6433D01*
X540360Y5434D01*
X539960Y4100D01*
X539827Y2600D01*
X539960Y1100D01*
X540360Y-233D01*
X540894Y-1234D01*
X541694Y-2067D01*
X542760Y-2400D01*
X543827Y-2067D01*
X544627Y-1234D01*
X545161Y-233D01*
X545560Y1100D01*
X545694Y2600D01*
X545560Y4100D01*
X545161Y5434D01*
X544627Y6433D01*
X543827Y7267D01*
X542760Y7600D01*
G01X461294Y26533D02*
X464494D01*
G01X462760Y28700D02*
Y24366D01*
G01X472760Y33200D02*
X471694Y32867D01*
X470894Y32033D01*
X470360Y31033D01*
X469960Y29700D01*
X469827Y28200D01*
X469960Y26700D01*
X470360Y25366D01*
X470894Y24366D01*
X471694Y23533D01*
X472760Y23200D01*
X473827Y23533D01*
X474627Y24366D01*
X475161Y25366D01*
X475560Y26700D01*
X475694Y28200D01*
X475560Y29700D01*
X475161Y31033D01*
X474627Y32033D01*
X473827Y32867D01*
X472760Y33200D01*
G01X482760Y22867D02*
X482494Y23033D01*
Y23367D01*
X482760Y23533D01*
X483027Y23367D01*
Y23033D01*
X482760Y22867D01*
G01X492760Y33200D02*
X491694Y32867D01*
X490894Y32033D01*
X490360Y31033D01*
X489960Y29700D01*
X489827Y28200D01*
X489960Y26700D01*
X490360Y25366D01*
X490894Y24366D01*
X491694Y23533D01*
X492760Y23200D01*
X493827Y23533D01*
X494627Y24366D01*
X495161Y25366D01*
X495560Y26700D01*
X495694Y28200D01*
X495560Y29700D01*
X495161Y31033D01*
X494627Y32033D01*
X493827Y32867D01*
X492760Y33200D01*
G01X500360Y22867D02*
X505161Y33200D01*
G01X511027Y26533D02*
X514494D01*
G01X522760Y33200D02*
X521694Y32867D01*
X520894Y32033D01*
X520360Y31033D01*
X519960Y29700D01*
X519827Y28200D01*
X519960Y26700D01*
X520360Y25366D01*
X520894Y24366D01*
X521694Y23533D01*
X522760Y23200D01*
X523827Y23533D01*
X524627Y24366D01*
X525161Y25366D01*
X525560Y26700D01*
X525694Y28200D01*
X525560Y29700D01*
X525161Y31033D01*
X524627Y32033D01*
X523827Y32867D01*
X522760Y33200D01*
G01X532760Y22867D02*
X532494Y23033D01*
Y23367D01*
X532760Y23533D01*
X533027Y23367D01*
Y23033D01*
X532760Y22867D01*
G01X542760Y33200D02*
X541694Y32867D01*
X540894Y32033D01*
X540360Y31033D01*
X539960Y29700D01*
X539827Y28200D01*
X539960Y26700D01*
X540360Y25366D01*
X540894Y24366D01*
X541694Y23533D01*
X542760Y23200D01*
X543827Y23533D01*
X544627Y24366D01*
X545161Y25366D01*
X545560Y26700D01*
X545694Y28200D01*
X545560Y29700D01*
X545161Y31033D01*
X544627Y32033D01*
X543827Y32867D01*
X542760Y33200D01*
G01X461294Y52133D02*
X464494D01*
G01X462760Y54300D02*
Y49966D01*
G01X472760Y58800D02*
X471694Y58467D01*
X470894Y57633D01*
X470360Y56634D01*
X469960Y55300D01*
X469827Y53800D01*
X469960Y52300D01*
X470360Y50966D01*
X470894Y49966D01*
X471694Y49133D01*
X472760Y48800D01*
X473827Y49133D01*
X474627Y49966D01*
X475161Y50966D01*
X475560Y52300D01*
X475694Y53800D01*
X475560Y55300D01*
X475161Y56634D01*
X474627Y57633D01*
X473827Y58467D01*
X472760Y58800D01*
G01X482760Y48467D02*
X482494Y48633D01*
Y48967D01*
X482760Y49133D01*
X483027Y48967D01*
Y48633D01*
X482760Y48467D01*
G01X492760Y58800D02*
X491694Y58467D01*
X490894Y57633D01*
X490360Y56634D01*
X489960Y55300D01*
X489827Y53800D01*
X489960Y52300D01*
X490360Y50966D01*
X490894Y49966D01*
X491694Y49133D01*
X492760Y48800D01*
X493827Y49133D01*
X494627Y49966D01*
X495161Y50966D01*
X495560Y52300D01*
X495694Y53800D01*
X495560Y55300D01*
X495161Y56634D01*
X494627Y57633D01*
X493827Y58467D01*
X492760Y58800D01*
G01X500360Y48467D02*
X505161Y58800D01*
G01X511027Y52133D02*
X514494D01*
G01X522760Y58800D02*
X521694Y58467D01*
X520894Y57633D01*
X520360Y56634D01*
X519960Y55300D01*
X519827Y53800D01*
X519960Y52300D01*
X520360Y50966D01*
X520894Y49966D01*
X521694Y49133D01*
X522760Y48800D01*
X523827Y49133D01*
X524627Y49966D01*
X525161Y50966D01*
X525560Y52300D01*
X525694Y53800D01*
X525560Y55300D01*
X525161Y56634D01*
X524627Y57633D01*
X523827Y58467D01*
X522760Y58800D01*
G01X532760Y48467D02*
X532494Y48633D01*
Y48967D01*
X532760Y49133D01*
X533027Y48967D01*
Y48633D01*
X532760Y48467D01*
G01X542760Y58800D02*
X541694Y58467D01*
X540894Y57633D01*
X540360Y56634D01*
X539960Y55300D01*
X539827Y53800D01*
X539960Y52300D01*
X540360Y50966D01*
X540894Y49966D01*
X541694Y49133D01*
X542760Y48800D01*
X543827Y49133D01*
X544627Y49966D01*
X545161Y50966D01*
X545560Y52300D01*
X545694Y53800D01*
X545560Y55300D01*
X545161Y56634D01*
X544627Y57633D01*
X543827Y58467D01*
X542760Y58800D01*
G01X461294Y77733D02*
X464494D01*
G01X462760Y79900D02*
Y75566D01*
G01X472760Y84400D02*
X471694Y84067D01*
X470894Y83233D01*
X470360Y82234D01*
X469960Y80900D01*
X469827Y79400D01*
X469960Y77900D01*
X470360Y76566D01*
X470894Y75566D01*
X471694Y74733D01*
X472760Y74400D01*
X473827Y74733D01*
X474627Y75566D01*
X475161Y76566D01*
X475560Y77900D01*
X475694Y79400D01*
X475560Y80900D01*
X475161Y82234D01*
X474627Y83233D01*
X473827Y84067D01*
X472760Y84400D01*
G01X482760Y74067D02*
X482494Y74233D01*
Y74567D01*
X482760Y74733D01*
X483027Y74567D01*
Y74233D01*
X482760Y74067D01*
G01X492760Y84400D02*
X491694Y84067D01*
X490894Y83233D01*
X490360Y82234D01*
X489960Y80900D01*
X489827Y79400D01*
X489960Y77900D01*
X490360Y76566D01*
X490894Y75566D01*
X491694Y74733D01*
X492760Y74400D01*
X493827Y74733D01*
X494627Y75566D01*
X495161Y76566D01*
X495560Y77900D01*
X495694Y79400D01*
X495560Y80900D01*
X495161Y82234D01*
X494627Y83233D01*
X493827Y84067D01*
X492760Y84400D01*
G01X500360Y74067D02*
X505161Y84400D01*
G01X511027Y77733D02*
X514494D01*
G01X522760Y84400D02*
X521694Y84067D01*
X520894Y83233D01*
X520360Y82234D01*
X519960Y80900D01*
X519827Y79400D01*
X519960Y77900D01*
X520360Y76566D01*
X520894Y75566D01*
X521694Y74733D01*
X522760Y74400D01*
X523827Y74733D01*
X524627Y75566D01*
X525161Y76566D01*
X525560Y77900D01*
X525694Y79400D01*
X525560Y80900D01*
X525161Y82234D01*
X524627Y83233D01*
X523827Y84067D01*
X522760Y84400D01*
G01X532760Y74067D02*
X532494Y74233D01*
Y74567D01*
X532760Y74733D01*
X533027Y74567D01*
Y74233D01*
X532760Y74067D01*
G01X542760Y84400D02*
X541694Y84067D01*
X540894Y83233D01*
X540360Y82234D01*
X539960Y80900D01*
X539827Y79400D01*
X539960Y77900D01*
X540360Y76566D01*
X540894Y75566D01*
X541694Y74733D01*
X542760Y74400D01*
X543827Y74733D01*
X544627Y75566D01*
X545161Y76566D01*
X545560Y77900D01*
X545694Y79400D01*
X545560Y80900D01*
X545161Y82234D01*
X544627Y83233D01*
X543827Y84067D01*
X542760Y84400D01*
G01X461294Y103333D02*
X464494D01*
G01X462760Y105500D02*
Y101166D01*
G01X469827Y102000D02*
X470627Y100833D01*
X471694Y100167D01*
X472894Y100000D01*
X473961Y100167D01*
X475027Y101000D01*
X475694Y102000D01*
X475827Y103000D01*
X475560Y104166D01*
X474627Y105000D01*
X473694Y105333D01*
X472494D01*
G01X473694D02*
X474494Y105833D01*
X475161Y106666D01*
X475427Y107667D01*
X475161Y108667D01*
X474494Y109500D01*
X473294Y110000D01*
X472094Y109833D01*
X470894Y109166D01*
G01X482760Y99667D02*
X482494Y99833D01*
Y100167D01*
X482760Y100333D01*
X483027Y100167D01*
Y99833D01*
X482760Y99667D01*
G01X492760Y110000D02*
X491694Y109667D01*
X490894Y108833D01*
X490360Y107834D01*
X489960Y106500D01*
X489827Y105000D01*
X489960Y103500D01*
X490360Y102166D01*
X490894Y101166D01*
X491694Y100333D01*
X492760Y100000D01*
X493827Y100333D01*
X494627Y101166D01*
X495161Y102166D01*
X495560Y103500D01*
X495694Y105000D01*
X495560Y106500D01*
X495161Y107834D01*
X494627Y108833D01*
X493827Y109667D01*
X492760Y110000D01*
G01X500360Y99667D02*
X505161Y110000D01*
G01X511027Y103333D02*
X514494D01*
G01X519827Y102000D02*
X520627Y100833D01*
X521694Y100167D01*
X522894Y100000D01*
X523961Y100167D01*
X525027Y101000D01*
X525694Y102000D01*
X525827Y103000D01*
X525560Y104166D01*
X524627Y105000D01*
X523694Y105333D01*
X522494D01*
G01X523694D02*
X524494Y105833D01*
X525161Y106666D01*
X525427Y107667D01*
X525161Y108667D01*
X524494Y109500D01*
X523294Y110000D01*
X522094Y109833D01*
X520894Y109166D01*
G01X532760Y99667D02*
X532494Y99833D01*
Y100167D01*
X532760Y100333D01*
X533027Y100167D01*
Y99833D01*
X532760Y99667D01*
G01X542760Y110000D02*
X541694Y109667D01*
X540894Y108833D01*
X540360Y107834D01*
X539960Y106500D01*
X539827Y105000D01*
X539960Y103500D01*
X540360Y102166D01*
X540894Y101166D01*
X541694Y100333D01*
X542760Y100000D01*
X543827Y100333D01*
X544627Y101166D01*
X545161Y102166D01*
X545560Y103500D01*
X545694Y105000D01*
X545560Y106500D01*
X545161Y107834D01*
X544627Y108833D01*
X543827Y109667D01*
X542760Y110000D01*
G01X461294Y128933D02*
X464494D01*
G01X462760Y131100D02*
Y126766D01*
G01X472760Y135600D02*
X471694Y135267D01*
X470894Y134433D01*
X470360Y133434D01*
X469960Y132100D01*
X469827Y130600D01*
X469960Y129100D01*
X470360Y127766D01*
X470894Y126766D01*
X471694Y125933D01*
X472760Y125600D01*
X473827Y125933D01*
X474627Y126766D01*
X475161Y127766D01*
X475560Y129100D01*
X475694Y130600D01*
X475560Y132100D01*
X475161Y133434D01*
X474627Y134433D01*
X473827Y135267D01*
X472760Y135600D01*
G01X482760Y125267D02*
X482494Y125433D01*
Y125767D01*
X482760Y125933D01*
X483027Y125767D01*
Y125433D01*
X482760Y125267D01*
G01X492760Y135600D02*
X491694Y135267D01*
X490894Y134433D01*
X490360Y133434D01*
X489960Y132100D01*
X489827Y130600D01*
X489960Y129100D01*
X490360Y127766D01*
X490894Y126766D01*
X491694Y125933D01*
X492760Y125600D01*
X493827Y125933D01*
X494627Y126766D01*
X495161Y127766D01*
X495560Y129100D01*
X495694Y130600D01*
X495560Y132100D01*
X495161Y133434D01*
X494627Y134433D01*
X493827Y135267D01*
X492760Y135600D01*
G01X500360Y125267D02*
X505161Y135600D01*
G01X511027Y128933D02*
X514494D01*
G01X522760Y135600D02*
X521694Y135267D01*
X520894Y134433D01*
X520360Y133434D01*
X519960Y132100D01*
X519827Y130600D01*
X519960Y129100D01*
X520360Y127766D01*
X520894Y126766D01*
X521694Y125933D01*
X522760Y125600D01*
X523827Y125933D01*
X524627Y126766D01*
X525161Y127766D01*
X525560Y129100D01*
X525694Y130600D01*
X525560Y132100D01*
X525161Y133434D01*
X524627Y134433D01*
X523827Y135267D01*
X522760Y135600D01*
G01X532760Y125267D02*
X532494Y125433D01*
Y125767D01*
X532760Y125933D01*
X533027Y125767D01*
Y125433D01*
X532760Y125267D01*
G01X542760Y135600D02*
X541694Y135267D01*
X540894Y134433D01*
X540360Y133434D01*
X539960Y132100D01*
X539827Y130600D01*
X539960Y129100D01*
X540360Y127766D01*
X540894Y126766D01*
X541694Y125933D01*
X542760Y125600D01*
X543827Y125933D01*
X544627Y126766D01*
X545161Y127766D01*
X545560Y129100D01*
X545694Y130600D01*
X545560Y132100D01*
X545161Y133434D01*
X544627Y134433D01*
X543827Y135267D01*
X542760Y135600D01*
G01X461294Y154533D02*
X464494D01*
G01X462760Y156700D02*
Y152366D01*
G01X470227Y159533D02*
X471027Y160533D01*
X471960Y161033D01*
X473027Y161200D01*
X474360Y160867D01*
X475294Y160033D01*
X475560Y159034D01*
X475427Y158033D01*
X474894Y157200D01*
X472227Y155533D01*
X471027Y154367D01*
X470227Y152700D01*
X469960Y151200D01*
X475560D01*
G01X482760Y150867D02*
X482494Y151033D01*
Y151367D01*
X482760Y151533D01*
X483027Y151367D01*
Y151033D01*
X482760Y150867D01*
G01X492760Y161200D02*
X491694Y160867D01*
X490894Y160033D01*
X490360Y159034D01*
X489960Y157700D01*
X489827Y156200D01*
X489960Y154700D01*
X490360Y153366D01*
X490894Y152366D01*
X491694Y151533D01*
X492760Y151200D01*
X493827Y151533D01*
X494627Y152366D01*
X495161Y153366D01*
X495560Y154700D01*
X495694Y156200D01*
X495560Y157700D01*
X495161Y159034D01*
X494627Y160033D01*
X493827Y160867D01*
X492760Y161200D01*
G01X500360Y150867D02*
X505161Y161200D01*
G01X511027Y154533D02*
X514494D01*
G01X520227Y159533D02*
X521027Y160533D01*
X521960Y161033D01*
X523027Y161200D01*
X524360Y160867D01*
X525294Y160033D01*
X525560Y159034D01*
X525427Y158033D01*
X524894Y157200D01*
X522227Y155533D01*
X521027Y154367D01*
X520227Y152700D01*
X519960Y151200D01*
X525560D01*
G01X532760Y150867D02*
X532494Y151033D01*
Y151367D01*
X532760Y151533D01*
X533027Y151367D01*
Y151033D01*
X532760Y150867D01*
G01X542760Y161200D02*
X541694Y160867D01*
X540894Y160033D01*
X540360Y159034D01*
X539960Y157700D01*
X539827Y156200D01*
X539960Y154700D01*
X540360Y153366D01*
X540894Y152366D01*
X541694Y151533D01*
X542760Y151200D01*
X543827Y151533D01*
X544627Y152366D01*
X545161Y153366D01*
X545560Y154700D01*
X545694Y156200D01*
X545560Y157700D01*
X545161Y159034D01*
X544627Y160033D01*
X543827Y160867D01*
X542760Y161200D01*
G01X461294Y180133D02*
X464494D01*
G01X462760Y182300D02*
Y177966D01*
G01X472760Y186800D02*
X471694Y186467D01*
X470894Y185633D01*
X470360Y184634D01*
X469960Y183300D01*
X469827Y181800D01*
X469960Y180300D01*
X470360Y178966D01*
X470894Y177966D01*
X471694Y177133D01*
X472760Y176800D01*
X473827Y177133D01*
X474627Y177966D01*
X475161Y178966D01*
X475560Y180300D01*
X475694Y181800D01*
X475560Y183300D01*
X475161Y184634D01*
X474627Y185633D01*
X473827Y186467D01*
X472760Y186800D01*
G01X482760Y176467D02*
X482494Y176633D01*
Y176967D01*
X482760Y177133D01*
X483027Y176967D01*
Y176633D01*
X482760Y176467D01*
G01X492760Y186800D02*
X491694Y186467D01*
X490894Y185633D01*
X490360Y184634D01*
X489960Y183300D01*
X489827Y181800D01*
X489960Y180300D01*
X490360Y178966D01*
X490894Y177966D01*
X491694Y177133D01*
X492760Y176800D01*
X493827Y177133D01*
X494627Y177966D01*
X495161Y178966D01*
X495560Y180300D01*
X495694Y181800D01*
X495560Y183300D01*
X495161Y184634D01*
X494627Y185633D01*
X493827Y186467D01*
X492760Y186800D01*
G01X500360Y176467D02*
X505161Y186800D01*
G01X511027Y180133D02*
X514494D01*
G01X522760Y186800D02*
X521694Y186467D01*
X520894Y185633D01*
X520360Y184634D01*
X519960Y183300D01*
X519827Y181800D01*
X519960Y180300D01*
X520360Y178966D01*
X520894Y177966D01*
X521694Y177133D01*
X522760Y176800D01*
X523827Y177133D01*
X524627Y177966D01*
X525161Y178966D01*
X525560Y180300D01*
X525694Y181800D01*
X525560Y183300D01*
X525161Y184634D01*
X524627Y185633D01*
X523827Y186467D01*
X522760Y186800D01*
G01X532760Y176467D02*
X532494Y176633D01*
Y176967D01*
X532760Y177133D01*
X533027Y176967D01*
Y176633D01*
X532760Y176467D01*
G01X542760Y186800D02*
X541694Y186467D01*
X540894Y185633D01*
X540360Y184634D01*
X539960Y183300D01*
X539827Y181800D01*
X539960Y180300D01*
X540360Y178966D01*
X540894Y177966D01*
X541694Y177133D01*
X542760Y176800D01*
X543827Y177133D01*
X544627Y177966D01*
X545161Y178966D01*
X545560Y180300D01*
X545694Y181800D01*
X545560Y183300D01*
X545161Y184634D01*
X544627Y185633D01*
X543827Y186467D01*
X542760Y186800D01*
G01X461294Y205733D02*
X464494D01*
G01X462760Y207900D02*
Y203566D01*
G01X472760Y212400D02*
X471694Y212067D01*
X470894Y211233D01*
X470360Y210234D01*
X469960Y208900D01*
X469827Y207400D01*
X469960Y205900D01*
X470360Y204566D01*
X470894Y203566D01*
X471694Y202733D01*
X472760Y202400D01*
X473827Y202733D01*
X474627Y203566D01*
X475161Y204566D01*
X475560Y205900D01*
X475694Y207400D01*
X475560Y208900D01*
X475161Y210234D01*
X474627Y211233D01*
X473827Y212067D01*
X472760Y212400D01*
G01X482760Y202067D02*
X482494Y202233D01*
Y202567D01*
X482760Y202733D01*
X483027Y202567D01*
Y202233D01*
X482760Y202067D01*
G01X492760Y212400D02*
X491694Y212067D01*
X490894Y211233D01*
X490360Y210234D01*
X489960Y208900D01*
X489827Y207400D01*
X489960Y205900D01*
X490360Y204566D01*
X490894Y203566D01*
X491694Y202733D01*
X492760Y202400D01*
X493827Y202733D01*
X494627Y203566D01*
X495161Y204566D01*
X495560Y205900D01*
X495694Y207400D01*
X495560Y208900D01*
X495161Y210234D01*
X494627Y211233D01*
X493827Y212067D01*
X492760Y212400D01*
G01X500360Y202067D02*
X505161Y212400D01*
G01X511027Y205733D02*
X514494D01*
G01X522760Y212400D02*
X521694Y212067D01*
X520894Y211233D01*
X520360Y210234D01*
X519960Y208900D01*
X519827Y207400D01*
X519960Y205900D01*
X520360Y204566D01*
X520894Y203566D01*
X521694Y202733D01*
X522760Y202400D01*
X523827Y202733D01*
X524627Y203566D01*
X525161Y204566D01*
X525560Y205900D01*
X525694Y207400D01*
X525560Y208900D01*
X525161Y210234D01*
X524627Y211233D01*
X523827Y212067D01*
X522760Y212400D01*
G01X532760Y202067D02*
X532494Y202233D01*
Y202567D01*
X532760Y202733D01*
X533027Y202567D01*
Y202233D01*
X532760Y202067D01*
G01X542760Y212400D02*
X541694Y212067D01*
X540894Y211233D01*
X540360Y210234D01*
X539960Y208900D01*
X539827Y207400D01*
X539960Y205900D01*
X540360Y204566D01*
X540894Y203566D01*
X541694Y202733D01*
X542760Y202400D01*
X543827Y202733D01*
X544627Y203566D01*
X545161Y204566D01*
X545560Y205900D01*
X545694Y207400D01*
X545560Y208900D01*
X545161Y210234D01*
X544627Y211233D01*
X543827Y212067D01*
X542760Y212400D01*
G01X461294Y231333D02*
X464494D01*
G01X462760Y233500D02*
Y229166D01*
G01X472760Y238000D02*
X471694Y237667D01*
X470894Y236833D01*
X470360Y235834D01*
X469960Y234500D01*
X469827Y233000D01*
X469960Y231500D01*
X470360Y230166D01*
X470894Y229166D01*
X471694Y228333D01*
X472760Y228000D01*
X473827Y228333D01*
X474627Y229166D01*
X475161Y230166D01*
X475560Y231500D01*
X475694Y233000D01*
X475560Y234500D01*
X475161Y235834D01*
X474627Y236833D01*
X473827Y237667D01*
X472760Y238000D01*
G01X482760Y227667D02*
X482494Y227833D01*
Y228167D01*
X482760Y228333D01*
X483027Y228167D01*
Y227833D01*
X482760Y227667D01*
G01X492760Y238000D02*
X491694Y237667D01*
X490894Y236833D01*
X490360Y235834D01*
X489960Y234500D01*
X489827Y233000D01*
X489960Y231500D01*
X490360Y230166D01*
X490894Y229166D01*
X491694Y228333D01*
X492760Y228000D01*
X493827Y228333D01*
X494627Y229166D01*
X495161Y230166D01*
X495560Y231500D01*
X495694Y233000D01*
X495560Y234500D01*
X495161Y235834D01*
X494627Y236833D01*
X493827Y237667D01*
X492760Y238000D01*
G01X500360Y227667D02*
X505161Y238000D01*
G01X511027Y231333D02*
X514494D01*
G01X522760Y238000D02*
X521694Y237667D01*
X520894Y236833D01*
X520360Y235834D01*
X519960Y234500D01*
X519827Y233000D01*
X519960Y231500D01*
X520360Y230166D01*
X520894Y229166D01*
X521694Y228333D01*
X522760Y228000D01*
X523827Y228333D01*
X524627Y229166D01*
X525161Y230166D01*
X525560Y231500D01*
X525694Y233000D01*
X525560Y234500D01*
X525161Y235834D01*
X524627Y236833D01*
X523827Y237667D01*
X522760Y238000D01*
G01X532760Y227667D02*
X532494Y227833D01*
Y228167D01*
X532760Y228333D01*
X533027Y228167D01*
Y227833D01*
X532760Y227667D01*
G01X542760Y238000D02*
X541694Y237667D01*
X540894Y236833D01*
X540360Y235834D01*
X539960Y234500D01*
X539827Y233000D01*
X539960Y231500D01*
X540360Y230166D01*
X540894Y229166D01*
X541694Y228333D01*
X542760Y228000D01*
X543827Y228333D01*
X544627Y229166D01*
X545161Y230166D01*
X545560Y231500D01*
X545694Y233000D01*
X545560Y234500D01*
X545161Y235834D01*
X544627Y236833D01*
X543827Y237667D01*
X542760Y238000D01*
G01X462760Y266400D02*
Y256400D01*
G01X459694Y266400D02*
X465827D01*
G01X472760Y256400D02*
X471694Y256567D01*
X470761Y257233D01*
X469960Y258233D01*
X469427Y259400D01*
X469160Y260733D01*
Y262067D01*
X469427Y263400D01*
X469960Y264567D01*
X470761Y265566D01*
X471694Y266233D01*
X472760Y266400D01*
X473827Y266233D01*
X474760Y265566D01*
X475560Y264567D01*
X476094Y263400D01*
X476361Y262067D01*
Y260733D01*
X476094Y259400D01*
X475560Y258233D01*
X474760Y257233D01*
X473827Y256567D01*
X472760Y256400D01*
G01X480094Y266400D02*
Y256400D01*
X485427D01*
G01X495427D02*
X490094D01*
Y266400D01*
X495427D01*
G01X493294Y261567D02*
X490094D01*
G01X500094Y256400D02*
Y266400D01*
X503427D01*
X504494Y265900D01*
X505161Y265233D01*
X505427Y263900D01*
X505161Y262567D01*
X504360Y261733D01*
X503427Y261233D01*
X500094D01*
G01X503427D02*
X505427Y256400D01*
G01X509427D02*
X512760Y266400D01*
X516094Y256400D01*
G01X514894Y259900D02*
X510627D01*
G01X519694Y256400D02*
Y266400D01*
X525827Y256400D01*
Y266400D01*
G01X535694Y265566D02*
X534894Y266067D01*
X533961Y266400D01*
X532894D01*
X531694Y265900D01*
X530761Y265067D01*
X530094Y264067D01*
X529560Y262400D01*
X529427Y260900D01*
X529694Y259400D01*
X530094Y258400D01*
X530894Y257400D01*
X531827Y256733D01*
X532760Y256400D01*
X533694D01*
X534627Y256733D01*
X535427Y257233D01*
X536094Y257900D01*
G01X545427Y256400D02*
X540094D01*
Y266400D01*
X545427D01*
G01X543294Y261567D02*
X540094D01*
G01X578760Y271400D02*
Y-87000D01*
G01X581694Y23200D02*
Y33200D01*
X587827Y23200D01*
Y33200D01*
G01X594760Y23200D02*
X593694Y23367D01*
X592761Y24033D01*
X591960Y25033D01*
X591427Y26200D01*
X591160Y27533D01*
Y28867D01*
X591427Y30200D01*
X591960Y31367D01*
X592761Y32367D01*
X593694Y33033D01*
X594760Y33200D01*
X595827Y33033D01*
X596760Y32367D01*
X597560Y31367D01*
X598094Y30200D01*
X598361Y28867D01*
Y27533D01*
X598094Y26200D01*
X597560Y25033D01*
X596760Y24033D01*
X595827Y23367D01*
X594760Y23200D01*
G01X601694D02*
Y33200D01*
X607827Y23200D01*
Y33200D01*
G01X613027Y26533D02*
X616494D01*
G01X622094Y23200D02*
Y33200D01*
X625294D01*
X626360Y32700D01*
X627161Y31533D01*
X627427Y30200D01*
X627161Y28867D01*
X626494Y27867D01*
X625294Y27366D01*
X622094D01*
G01X632094Y33200D02*
Y23200D01*
X637427D01*
G01X641427D02*
X644760Y33200D01*
X648094Y23200D01*
G01X646894Y26700D02*
X642627D01*
G01X654760Y33200D02*
Y23200D01*
G01X651694Y33200D02*
X657827D01*
G01X667427Y23200D02*
X662094D01*
Y33200D01*
X667427D01*
G01X665294Y28367D02*
X662094D01*
G01X671827Y23200D02*
Y33200D01*
X674494D01*
X675560Y32700D01*
X676360Y32033D01*
X677027Y31033D01*
X677560Y29866D01*
X677694Y28200D01*
X677560Y26533D01*
X677027Y25366D01*
X676360Y24366D01*
X675560Y23700D01*
X674494Y23200D01*
X671827D01*
G01X581694Y48800D02*
Y58800D01*
X587827Y48800D01*
Y58800D01*
G01X594760Y48800D02*
X593694Y48967D01*
X592761Y49633D01*
X591960Y50633D01*
X591427Y51800D01*
X591160Y53133D01*
Y54467D01*
X591427Y55800D01*
X591960Y56967D01*
X592761Y57966D01*
X593694Y58633D01*
X594760Y58800D01*
X595827Y58633D01*
X596760Y57966D01*
X597560Y56967D01*
X598094Y55800D01*
X598361Y54467D01*
Y53133D01*
X598094Y51800D01*
X597560Y50633D01*
X596760Y49633D01*
X595827Y48967D01*
X594760Y48800D01*
G01X601694D02*
Y58800D01*
X607827Y48800D01*
Y58800D01*
G01X613027Y52133D02*
X616494D01*
G01X622094Y48800D02*
Y58800D01*
X625294D01*
X626360Y58300D01*
X627161Y57133D01*
X627427Y55800D01*
X627161Y54467D01*
X626494Y53467D01*
X625294Y52966D01*
X622094D01*
G01X632094Y58800D02*
Y48800D01*
X637427D01*
G01X641427D02*
X644760Y58800D01*
X648094Y48800D01*
G01X646894Y52300D02*
X642627D01*
G01X654760Y58800D02*
Y48800D01*
G01X651694Y58800D02*
X657827D01*
G01X667427Y48800D02*
X662094D01*
Y58800D01*
X667427D01*
G01X665294Y53967D02*
X662094D01*
G01X671827Y48800D02*
Y58800D01*
X674494D01*
X675560Y58300D01*
X676360Y57633D01*
X677027Y56634D01*
X677560Y55466D01*
X677694Y53800D01*
X677560Y52133D01*
X677027Y50966D01*
X676360Y49966D01*
X675560Y49300D01*
X674494Y48800D01*
X671827D01*
G01X581694Y74400D02*
Y84400D01*
X587827Y74400D01*
Y84400D01*
G01X594760Y74400D02*
X593694Y74567D01*
X592761Y75233D01*
X591960Y76233D01*
X591427Y77400D01*
X591160Y78733D01*
Y80067D01*
X591427Y81400D01*
X591960Y82567D01*
X592761Y83566D01*
X593694Y84233D01*
X594760Y84400D01*
X595827Y84233D01*
X596760Y83566D01*
X597560Y82567D01*
X598094Y81400D01*
X598361Y80067D01*
Y78733D01*
X598094Y77400D01*
X597560Y76233D01*
X596760Y75233D01*
X595827Y74567D01*
X594760Y74400D01*
G01X601694D02*
Y84400D01*
X607827Y74400D01*
Y84400D01*
G01X613027Y77733D02*
X616494D01*
G01X622094Y74400D02*
Y84400D01*
X625294D01*
X626360Y83900D01*
X627161Y82733D01*
X627427Y81400D01*
X627161Y80067D01*
X626494Y79067D01*
X625294Y78566D01*
X622094D01*
G01X632094Y84400D02*
Y74400D01*
X637427D01*
G01X641427D02*
X644760Y84400D01*
X648094Y74400D01*
G01X646894Y77900D02*
X642627D01*
G01X654760Y84400D02*
Y74400D01*
G01X651694Y84400D02*
X657827D01*
G01X667427Y74400D02*
X662094D01*
Y84400D01*
X667427D01*
G01X665294Y79567D02*
X662094D01*
G01X671827Y74400D02*
Y84400D01*
X674494D01*
X675560Y83900D01*
X676360Y83233D01*
X677027Y82234D01*
X677560Y81066D01*
X677694Y79400D01*
X677560Y77733D01*
X677027Y76566D01*
X676360Y75566D01*
X675560Y74900D01*
X674494Y74400D01*
X671827D01*
G01X602094Y-79200D02*
Y-69200D01*
X605294D01*
X606360Y-69700D01*
X607161Y-70867D01*
X607427Y-72200D01*
X607161Y-73533D01*
X606494Y-74533D01*
X605294Y-75034D01*
X602094D01*
G01X612094Y-69200D02*
Y-79200D01*
X617427D01*
G01X621427D02*
X624760Y-69200D01*
X628094Y-79200D01*
G01X626894Y-75700D02*
X622627D01*
G01X634760Y-69200D02*
Y-79200D01*
G01X631694Y-69200D02*
X637827D01*
G01X647427Y-79200D02*
X642094D01*
Y-69200D01*
X647427D01*
G01X645294Y-74033D02*
X642094D01*
G01X651827Y-79200D02*
Y-69200D01*
X654494D01*
X655560Y-69700D01*
X656360Y-70367D01*
X657027Y-71366D01*
X657560Y-72534D01*
X657694Y-74200D01*
X657560Y-75867D01*
X657027Y-77034D01*
X656360Y-78034D01*
X655560Y-78700D01*
X654494Y-79200D01*
X651827D01*
G01X602094Y-53600D02*
Y-43600D01*
X605294D01*
X606360Y-44100D01*
X607161Y-45267D01*
X607427Y-46600D01*
X607161Y-47933D01*
X606494Y-48933D01*
X605294Y-49434D01*
X602094D01*
G01X612094Y-43600D02*
Y-53600D01*
X617427D01*
G01X621427D02*
X624760Y-43600D01*
X628094Y-53600D01*
G01X626894Y-50100D02*
X622627D01*
G01X634760Y-43600D02*
Y-53600D01*
G01X631694Y-43600D02*
X637827D01*
G01X647427Y-53600D02*
X642094D01*
Y-43600D01*
X647427D01*
G01X645294Y-48433D02*
X642094D01*
G01X651827Y-53600D02*
Y-43600D01*
X654494D01*
X655560Y-44100D01*
X656360Y-44767D01*
X657027Y-45767D01*
X657560Y-46934D01*
X657694Y-48600D01*
X657560Y-50267D01*
X657027Y-51434D01*
X656360Y-52434D01*
X655560Y-53100D01*
X654494Y-53600D01*
X651827D01*
G01X602094Y-28000D02*
Y-18000D01*
X605294D01*
X606360Y-18500D01*
X607161Y-19667D01*
X607427Y-21000D01*
X607161Y-22333D01*
X606494Y-23333D01*
X605294Y-23834D01*
X602094D01*
G01X612094Y-18000D02*
Y-28000D01*
X617427D01*
G01X621427D02*
X624760Y-18000D01*
X628094Y-28000D01*
G01X626894Y-24500D02*
X622627D01*
G01X634760Y-18000D02*
Y-28000D01*
G01X631694Y-18000D02*
X637827D01*
G01X647427Y-28000D02*
X642094D01*
Y-18000D01*
X647427D01*
G01X645294Y-22833D02*
X642094D01*
G01X651827Y-28000D02*
Y-18000D01*
X654494D01*
X655560Y-18500D01*
X656360Y-19167D01*
X657027Y-20166D01*
X657560Y-21334D01*
X657694Y-23000D01*
X657560Y-24667D01*
X657027Y-25833D01*
X656360Y-26834D01*
X655560Y-27500D01*
X654494Y-28000D01*
X651827D01*
G01X602094Y-2400D02*
Y7600D01*
X605294D01*
X606360Y7100D01*
X607161Y5933D01*
X607427Y4600D01*
X607161Y3267D01*
X606494Y2267D01*
X605294Y1766D01*
X602094D01*
G01X612094Y7600D02*
Y-2400D01*
X617427D01*
G01X621427D02*
X624760Y7600D01*
X628094Y-2400D01*
G01X626894Y1100D02*
X622627D01*
G01X634760Y7600D02*
Y-2400D01*
G01X631694Y7600D02*
X637827D01*
G01X647427Y-2400D02*
X642094D01*
Y7600D01*
X647427D01*
G01X645294Y2767D02*
X642094D01*
G01X651827Y-2400D02*
Y7600D01*
X654494D01*
X655560Y7100D01*
X656360Y6433D01*
X657027Y5434D01*
X657560Y4266D01*
X657694Y2600D01*
X657560Y933D01*
X657027Y-233D01*
X656360Y-1234D01*
X655560Y-1900D01*
X654494Y-2400D01*
X651827D01*
G01X602094Y100000D02*
Y110000D01*
X605294D01*
X606360Y109500D01*
X607161Y108333D01*
X607427Y107000D01*
X607161Y105667D01*
X606494Y104667D01*
X605294Y104166D01*
X602094D01*
G01X612094Y110000D02*
Y100000D01*
X617427D01*
G01X621427D02*
X624760Y110000D01*
X628094Y100000D01*
G01X626894Y103500D02*
X622627D01*
G01X634760Y110000D02*
Y100000D01*
G01X631694Y110000D02*
X637827D01*
G01X647427Y100000D02*
X642094D01*
Y110000D01*
X647427D01*
G01X645294Y105167D02*
X642094D01*
G01X651827Y100000D02*
Y110000D01*
X654494D01*
X655560Y109500D01*
X656360Y108833D01*
X657027Y107834D01*
X657560Y106666D01*
X657694Y105000D01*
X657560Y103333D01*
X657027Y102166D01*
X656360Y101166D01*
X655560Y100500D01*
X654494Y100000D01*
X651827D01*
G01X602094Y125600D02*
Y135600D01*
X605294D01*
X606360Y135100D01*
X607161Y133933D01*
X607427Y132600D01*
X607161Y131267D01*
X606494Y130267D01*
X605294Y129766D01*
X602094D01*
G01X612094Y135600D02*
Y125600D01*
X617427D01*
G01X621427D02*
X624760Y135600D01*
X628094Y125600D01*
G01X626894Y129100D02*
X622627D01*
G01X634760Y135600D02*
Y125600D01*
G01X631694Y135600D02*
X637827D01*
G01X647427Y125600D02*
X642094D01*
Y135600D01*
X647427D01*
G01X645294Y130767D02*
X642094D01*
G01X651827Y125600D02*
Y135600D01*
X654494D01*
X655560Y135100D01*
X656360Y134433D01*
X657027Y133434D01*
X657560Y132266D01*
X657694Y130600D01*
X657560Y128933D01*
X657027Y127766D01*
X656360Y126766D01*
X655560Y126100D01*
X654494Y125600D01*
X651827D01*
G01X602094Y151200D02*
Y161200D01*
X605294D01*
X606360Y160700D01*
X607161Y159533D01*
X607427Y158200D01*
X607161Y156867D01*
X606494Y155867D01*
X605294Y155366D01*
X602094D01*
G01X612094Y161200D02*
Y151200D01*
X617427D01*
G01X621427D02*
X624760Y161200D01*
X628094Y151200D01*
G01X626894Y154700D02*
X622627D01*
G01X634760Y161200D02*
Y151200D01*
G01X631694Y161200D02*
X637827D01*
G01X647427Y151200D02*
X642094D01*
Y161200D01*
X647427D01*
G01X645294Y156367D02*
X642094D01*
G01X651827Y151200D02*
Y161200D01*
X654494D01*
X655560Y160700D01*
X656360Y160033D01*
X657027Y159034D01*
X657560Y157866D01*
X657694Y156200D01*
X657560Y154533D01*
X657027Y153366D01*
X656360Y152366D01*
X655560Y151700D01*
X654494Y151200D01*
X651827D01*
G01X602094Y176800D02*
Y186800D01*
X605294D01*
X606360Y186300D01*
X607161Y185133D01*
X607427Y183800D01*
X607161Y182467D01*
X606494Y181467D01*
X605294Y180966D01*
X602094D01*
G01X612094Y186800D02*
Y176800D01*
X617427D01*
G01X621427D02*
X624760Y186800D01*
X628094Y176800D01*
G01X626894Y180300D02*
X622627D01*
G01X634760Y186800D02*
Y176800D01*
G01X631694Y186800D02*
X637827D01*
G01X647427Y176800D02*
X642094D01*
Y186800D01*
X647427D01*
G01X645294Y181967D02*
X642094D01*
G01X651827Y176800D02*
Y186800D01*
X654494D01*
X655560Y186300D01*
X656360Y185633D01*
X657027Y184634D01*
X657560Y183466D01*
X657694Y181800D01*
X657560Y180133D01*
X657027Y178966D01*
X656360Y177966D01*
X655560Y177300D01*
X654494Y176800D01*
X651827D01*
G01X602094Y202400D02*
Y212400D01*
X605294D01*
X606360Y211900D01*
X607161Y210733D01*
X607427Y209400D01*
X607161Y208067D01*
X606494Y207067D01*
X605294Y206566D01*
X602094D01*
G01X612094Y212400D02*
Y202400D01*
X617427D01*
G01X621427D02*
X624760Y212400D01*
X628094Y202400D01*
G01X626894Y205900D02*
X622627D01*
G01X634760Y212400D02*
Y202400D01*
G01X631694Y212400D02*
X637827D01*
G01X647427Y202400D02*
X642094D01*
Y212400D01*
X647427D01*
G01X645294Y207567D02*
X642094D01*
G01X651827Y202400D02*
Y212400D01*
X654494D01*
X655560Y211900D01*
X656360Y211233D01*
X657027Y210234D01*
X657560Y209066D01*
X657694Y207400D01*
X657560Y205733D01*
X657027Y204566D01*
X656360Y203566D01*
X655560Y202900D01*
X654494Y202400D01*
X651827D01*
G01X602094Y228000D02*
Y238000D01*
X605294D01*
X606360Y237500D01*
X607161Y236333D01*
X607427Y235000D01*
X607161Y233667D01*
X606494Y232667D01*
X605294Y232166D01*
X602094D01*
G01X612094Y238000D02*
Y228000D01*
X617427D01*
G01X621427D02*
X624760Y238000D01*
X628094Y228000D01*
G01X626894Y231500D02*
X622627D01*
G01X634760Y238000D02*
Y228000D01*
G01X631694Y238000D02*
X637827D01*
G01X647427Y228000D02*
X642094D01*
Y238000D01*
X647427D01*
G01X645294Y233167D02*
X642094D01*
G01X651827Y228000D02*
Y238000D01*
X654494D01*
X655560Y237500D01*
X656360Y236833D01*
X657027Y235834D01*
X657560Y234667D01*
X657694Y233000D01*
X657560Y231333D01*
X657027Y230166D01*
X656360Y229166D01*
X655560Y228500D01*
X654494Y228000D01*
X651827D01*
G01X602094Y256400D02*
Y266400D01*
X605294D01*
X606360Y265900D01*
X607161Y264733D01*
X607427Y263400D01*
X607161Y262067D01*
X606494Y261067D01*
X605294Y260566D01*
X602094D01*
G01X612094Y266400D02*
Y256400D01*
X617427D01*
G01X621427D02*
X624760Y266400D01*
X628094Y256400D01*
G01X626894Y259900D02*
X622627D01*
G01X634760Y266400D02*
Y256400D01*
G01X631694Y266400D02*
X637827D01*
G01X647427Y256400D02*
X642094D01*
Y266400D01*
X647427D01*
G01X645294Y261567D02*
X642094D01*
G01X651827Y256400D02*
Y266400D01*
X654494D01*
X655560Y265900D01*
X656360Y265233D01*
X657027Y264234D01*
X657560Y263066D01*
X657694Y261400D01*
X657560Y259733D01*
X657027Y258566D01*
X656360Y257566D01*
X655560Y256900D01*
X654494Y256400D01*
X651827D01*
G01X680760Y271400D02*
Y-87000D01*
G01X709227Y-70867D02*
X710027Y-69867D01*
X710960Y-69367D01*
X712027Y-69200D01*
X713360Y-69533D01*
X714294Y-70367D01*
X714560Y-71366D01*
X714427Y-72367D01*
X713894Y-73200D01*
X711227Y-74867D01*
X710027Y-76033D01*
X709227Y-77700D01*
X708960Y-79200D01*
X714560D01*
G01X709227Y-45267D02*
X710027Y-44267D01*
X710960Y-43767D01*
X712027Y-43600D01*
X713360Y-43933D01*
X714294Y-44767D01*
X714560Y-45767D01*
X714427Y-46767D01*
X713894Y-47600D01*
X711227Y-49267D01*
X710027Y-50433D01*
X709227Y-52100D01*
X708960Y-53600D01*
X714560D01*
G01X709227Y-19667D02*
X710027Y-18667D01*
X710960Y-18167D01*
X712027Y-18000D01*
X713360Y-18333D01*
X714294Y-19167D01*
X714560Y-20166D01*
X714427Y-21167D01*
X713894Y-22000D01*
X711227Y-23667D01*
X710027Y-24833D01*
X709227Y-26500D01*
X708960Y-28000D01*
X714560D01*
G01X709227Y5933D02*
X710027Y6933D01*
X710960Y7433D01*
X712027Y7600D01*
X713360Y7267D01*
X714294Y6433D01*
X714560Y5434D01*
X714427Y4433D01*
X713894Y3600D01*
X711227Y1933D01*
X710027Y767D01*
X709227Y-900D01*
X708960Y-2400D01*
X714560D01*
G01X709227Y31533D02*
X710027Y32533D01*
X710960Y33033D01*
X712027Y33200D01*
X713360Y32867D01*
X714294Y32033D01*
X714560Y31033D01*
X714427Y30033D01*
X713894Y29200D01*
X711227Y27533D01*
X710027Y26367D01*
X709227Y24700D01*
X708960Y23200D01*
X714560D01*
G01X708827Y50800D02*
X709627Y49633D01*
X710694Y48967D01*
X711894Y48800D01*
X712961Y48967D01*
X714027Y49800D01*
X714694Y50800D01*
X714827Y51800D01*
X714560Y52966D01*
X713627Y53800D01*
X712694Y54133D01*
X711494D01*
G01X712694D02*
X713494Y54633D01*
X714161Y55466D01*
X714427Y56467D01*
X714161Y57467D01*
X713494Y58300D01*
X712294Y58800D01*
X711094Y58633D01*
X709894Y57966D01*
G01X711760Y74400D02*
Y84400D01*
X710160Y82400D01*
G01Y74400D02*
X713360D01*
G01X709227Y108333D02*
X710027Y109333D01*
X710960Y109833D01*
X712027Y110000D01*
X713360Y109667D01*
X714294Y108833D01*
X714560Y107834D01*
X714427Y106833D01*
X713894Y106000D01*
X711227Y104333D01*
X710027Y103167D01*
X709227Y101500D01*
X708960Y100000D01*
X714560D01*
G01X701760Y125600D02*
Y135600D01*
X700160Y133600D01*
G01Y125600D02*
X703360D01*
G01X709227Y129766D02*
X710160Y130933D01*
X710960Y131600D01*
X712027Y131933D01*
X712961Y131600D01*
X713627Y130933D01*
X714161Y129933D01*
X714294Y128767D01*
X714161Y127766D01*
X713627Y126766D01*
X712827Y125933D01*
X711894Y125600D01*
X710827Y125933D01*
X709894Y126933D01*
X709360Y128433D01*
X709227Y130100D01*
X709494Y132266D01*
X709894Y133434D01*
X710560Y134600D01*
X711494Y135433D01*
X712427Y135600D01*
X713360Y135267D01*
X714027Y134433D01*
G01X719227Y133933D02*
X720027Y134933D01*
X720960Y135433D01*
X722027Y135600D01*
X723360Y135267D01*
X724294Y134433D01*
X724560Y133434D01*
X724427Y132433D01*
X723894Y131600D01*
X721227Y129933D01*
X720027Y128767D01*
X719227Y127100D01*
X718960Y125600D01*
X724560D01*
G01X706760Y151200D02*
Y161200D01*
X705160Y159200D01*
G01Y151200D02*
X708360D01*
G01X714227Y159533D02*
X715027Y160533D01*
X715960Y161033D01*
X717027Y161200D01*
X718360Y160867D01*
X719294Y160033D01*
X719560Y159034D01*
X719427Y158033D01*
X718894Y157200D01*
X716227Y155533D01*
X715027Y154367D01*
X714227Y152700D01*
X713960Y151200D01*
X719560D01*
G01X706494Y176800D02*
X706760Y178966D01*
X707160Y180800D01*
X707694Y182467D01*
X708360Y184300D01*
X709427Y186800D01*
X704094D01*
G01X713827Y178800D02*
X714627Y177633D01*
X715694Y176967D01*
X716894Y176800D01*
X717961Y176967D01*
X719027Y177800D01*
X719694Y178800D01*
X719827Y179800D01*
X719560Y180966D01*
X718627Y181800D01*
X717694Y182133D01*
X716494D01*
G01X717694D02*
X718494Y182633D01*
X719161Y183466D01*
X719427Y184467D01*
X719161Y185467D01*
X718494Y186300D01*
X717294Y186800D01*
X716094Y186633D01*
X714894Y185966D01*
G01X699227Y206566D02*
X700160Y207733D01*
X700960Y208400D01*
X702027Y208733D01*
X702961Y208400D01*
X703627Y207733D01*
X704161Y206733D01*
X704294Y205567D01*
X704161Y204566D01*
X703627Y203566D01*
X702827Y202733D01*
X701894Y202400D01*
X700827Y202733D01*
X699894Y203733D01*
X699360Y205233D01*
X699227Y206900D01*
X699494Y209066D01*
X699894Y210234D01*
X700560Y211400D01*
X701494Y212233D01*
X702427Y212400D01*
X703360Y212067D01*
X704027Y211233D01*
G01X711494Y202400D02*
X711760Y204566D01*
X712160Y206400D01*
X712694Y208067D01*
X713360Y209900D01*
X714427Y212400D01*
X709094D01*
G01X718827Y204400D02*
X719627Y203233D01*
X720694Y202567D01*
X721894Y202400D01*
X722961Y202567D01*
X724027Y203400D01*
X724694Y204400D01*
X724827Y205400D01*
X724560Y206566D01*
X723627Y207400D01*
X722694Y207733D01*
X721494D01*
G01X722694D02*
X723494Y208233D01*
X724161Y209066D01*
X724427Y210067D01*
X724161Y211067D01*
X723494Y211900D01*
X722294Y212400D01*
X721094Y212233D01*
X719894Y211566D01*
G01X703827Y230000D02*
X704627Y228833D01*
X705694Y228167D01*
X706894Y228000D01*
X707961Y228167D01*
X709027Y229000D01*
X709694Y230000D01*
X709827Y231000D01*
X709560Y232166D01*
X708627Y233000D01*
X707694Y233333D01*
X706494D01*
G01X707694D02*
X708494Y233833D01*
X709161Y234667D01*
X709427Y235667D01*
X709161Y236667D01*
X708494Y237500D01*
X707294Y238000D01*
X706094Y237833D01*
X704894Y237166D01*
G01X718360Y228000D02*
Y238000D01*
X713427Y230833D01*
X720094D01*
G01X701760Y256400D02*
X700694Y256567D01*
X699761Y257233D01*
X698960Y258233D01*
X698427Y259400D01*
X698160Y260733D01*
Y262067D01*
X698427Y263400D01*
X698960Y264567D01*
X699761Y265566D01*
X700694Y266233D01*
X701760Y266400D01*
X702827Y266233D01*
X703760Y265566D01*
X704560Y264567D01*
X705094Y263400D01*
X705361Y262067D01*
Y260733D01*
X705094Y259400D01*
X704560Y258233D01*
X703760Y257233D01*
X702827Y256567D01*
X701760Y256400D01*
G01X702827Y259067D02*
X704427Y256400D01*
G01X711760Y266400D02*
Y256400D01*
G01X708694Y266400D02*
X714827D01*
G01X721760Y256400D02*
Y260900D01*
X719094Y266400D01*
G01X724427D02*
X721760Y260900D01*
G01X-353340Y-187800D02*
X681260D01*
X803100D01*
Y492000D01*
X681260D01*
X-353340D01*
X-381900D01*
Y-187800D01*
X-353340D01*
G54D14*
X-311219Y289532D03*
Y307051D03*
X238761Y2600D03*
G54D15*
X-312724Y353104D03*
Y392908D03*
X-306741Y343104D03*
Y382908D03*
X-268472Y355506D03*
X-258473Y350506D03*
Y360506D03*
X-268472Y375506D03*
Y365506D03*
X-258473Y370506D03*
Y380506D03*
X-268472Y385506D03*
X238761Y156200D03*
G54D16*
X-302032Y126790D03*
Y256790D03*
X-115940Y352535D03*
X238761Y53800D03*
G54D17*
X-293434Y345506D03*
Y390506D03*
X238761Y28200D03*
G54D18*
X-281426Y337396D03*
Y398616D03*
X238761Y105000D03*
G54D19*
X-198618Y352535D03*
X238761Y79400D03*
M02*
