G04 ================== begin FILE IDENTIFICATION RECORD ==================*
G04 Layout Name:  E:/øÔ√¿¿º/new/SAME70-XPLD/gerber/SAME70-XPLD_150600-151013.brd*
G04 Film Name:    LYR3_VCC*
G04 File Format:  Gerber RS274X*
G04 File Origin:  Cadence Allegro 16.6-S006*
G04 Origin Date:  Tue Oct 13 10:22:20 2015*
G04 *
G04 Layer:  VIA CLASS/LYR3_VCC*
G04 Layer:  PIN/LYR3_VCC*
G04 Layer:  ETCH/LYR3_VCC*
G04 Layer:  BOARD GEOMETRY/OUTLINE*
G04 *
G04 Offset:    (0.000 0.000)*
G04 Mirror:    No*
G04 Mode:      Positive*
G04 Rotation:  0*
G04 FullContactRelief:  No*
G04 UndefLineWidth:     5.000*
G04 ================== end FILE IDENTIFICATION RECORD ====================*
%FSLAX55Y55*MOIN*%
%IR0*IPPOS*OFA0.00000B0.00000*MIA0B0*SFA1.00000B1.00000*%
%ADD11C,.024*%
%ADD13C,.016*%
%ADD10C,.062*%
%ADD12C,.018*%
%ADD14C,.005*%
%ADD15C,.02*%
%ADD16C,.08*%
%ADD17C,.162013*%
%ADD18C,.162005*%
%ADD21C,.034004*%
%ADD25C,.026004*%
%ADD22C,.071004*%
%ADD20C,.028004*%
%ADD23C,.084004*%
%ADD19C,.078004*%
%ADD24C,.099004*%
G75*
%LPD*%
G75*
G36*
G01X-318654Y5914D02*
X-320666Y7927D01*
G02X-320740Y8104I177J177D01*
G01Y278878D01*
X-320642Y279010D01*
X-320563Y279035D01*
G03Y284674I-867J2820D01*
G01X-320642Y284698D01*
X-320740Y284831D01*
Y311752D01*
X-320642Y311884D01*
X-320563Y311909D01*
G03Y317548I-867J2820D01*
G01X-320642Y317572D01*
X-320740Y317705D01*
Y400636D01*
G02X-320666Y400813I250J0D01*
G01X-319041Y402438D01*
G02X-318865Y402511I177J-177D01*
G01X-285689D01*
G02X-285464Y402370I0J-250D01*
G01X-285237Y401899D01*
X-285253Y401756D01*
X-285298Y401700D01*
G03X-277553I3872J-3084D01*
G01X-277598Y401756D01*
X-277614Y401899D01*
X-277387Y402370D01*
G02X-277162Y402511I225J-109D01*
G01X-7365D01*
G02X-7188Y402438I0J-250D01*
G01X-3553Y398803D01*
G02X-3480Y398627I-177J-177D01*
G01Y387195D01*
G02X-3545Y387027I-250J0D01*
G01X-3645Y386918D01*
G02X-3791Y386839I-185J168D01*
G03Y384071I213J-1384D01*
G02X-3645Y383993I-38J-247D01*
G01X-3545Y383883D01*
G02X-3480Y383715I-185J-168D01*
G01Y351406D01*
X-3587Y351270D01*
X-3671Y351249D01*
G03Y348529I332J-1360D01*
G01X-3587Y348508D01*
X-3480Y348372D01*
Y342734D01*
G02X-3553Y342557I-250J0D01*
G01X-5048Y341062D01*
G02X-5225Y340989I-177J177D01*
G01X-19077D01*
G02X-19254Y341062I0J250D01*
G01X-21839Y343647D01*
G02X-21912Y343824I177J177D01*
G01Y353550D01*
G03X-21985Y353727I-250J0D01*
G01X-24881Y356623D01*
G02X-24955Y356808I177J177D01*
G01X-24942Y357224D01*
X-24898Y357317D01*
X-24859Y357352D01*
G03X-30286Y357607I-2582J2923D01*
G01X-30235Y357552D01*
X-30209Y357405D01*
X-30421Y356916D01*
G02X-30651Y356765I-229J99D01*
G01X-38003D01*
G03X-38180Y356692I0J-250D01*
G01X-39329Y355543D01*
X-39494Y355520D01*
X-39567Y355560D01*
G03X-40976Y353141I-673J-1228D01*
G01X-40927Y353110D01*
X-40865Y353014D01*
X-40813Y352567D01*
G02X-40884Y352362I-248J-29D01*
G01X-43402Y349844D01*
G03X-43475Y349667I177J-177D01*
G01Y342750D01*
G02X-43548Y342573I-250J0D01*
G01X-51309Y334812D01*
G02X-51486Y334739I-177J177D01*
G01X-53512D01*
G02X-53694Y334818I0J250D01*
G01X-53979Y335122D01*
X-54014Y335219D01*
X-54011Y335271D01*
G03X-56805I-1397J90D01*
G01X-56802Y335219D01*
X-56837Y335122D01*
X-57122Y334818D01*
G02X-57304Y334739I-182J171D01*
G01X-57480D01*
G02X-57656Y334812I0J250D01*
G01X-57942Y335097D01*
X-57980Y335188D01*
X-57980Y335238D01*
G03X-60780I-1400J-2D01*
G01X-60780Y335188D01*
X-60818Y335097D01*
X-61104Y334812D01*
G02X-61280Y334739I-177J177D01*
G01X-61452D01*
G02X-61628Y334812I0J250D01*
G01X-61914Y335097D01*
X-61952Y335188D01*
X-61952Y335238D01*
G03X-64752I-1400J-2D01*
G01X-64752Y335188D01*
X-64790Y335097D01*
X-65076Y334812D01*
G02X-65252Y334739I-177J177D01*
G01X-65414D01*
G02X-65596Y334818I0J250D01*
G01X-65881Y335122D01*
X-65916Y335219D01*
X-65913Y335271D01*
G03X-68205Y336438I-1397J90D01*
G01X-68240Y336408D01*
X-68326Y336379D01*
X-68746Y336390D01*
X-68830Y336424D01*
X-68864Y336454D01*
G03X-71206Y335288I-949J-1029D01*
G01X-71201Y335235D01*
X-71234Y335135D01*
X-71519Y334821D01*
G02X-71704Y334739I-185J168D01*
G01X-73569D01*
G02X-73751Y334818I0J250D01*
G01X-74036Y335122D01*
X-74071Y335219D01*
X-74068Y335271D01*
G03X-76276Y336502I-1397J90D01*
G01X-76311Y336478D01*
X-76393Y336454D01*
X-76791Y336477D01*
X-76870Y336510D01*
X-76901Y336539D01*
G03X-79228Y335308I-940J-1038D01*
G01X-79220Y335254D01*
X-79251Y335150D01*
X-79535Y334825D01*
G02X-79723Y334739I-189J164D01*
G01X-89493D01*
G02X-89703Y334853I0J250D01*
G03X-92553I-1425J-927D01*
G02X-92763Y334739I-210J136D01*
G01X-101643D01*
G03X-101820Y334666I0J-250D01*
G01X-101848Y334638D01*
X-102016Y334744D01*
G03X-104360Y332400I-903J-1441D01*
G01X-104313Y332326D01*
X-104333Y332153D01*
X-104570Y331916D01*
G03X-104643Y331739I177J-177D01*
G01Y316755D01*
G03X-104570Y316578I250J0D01*
G01X-101007Y313015D01*
G03X-100830Y312942I177J177D01*
G01X-81292D01*
G02X-81077Y312819I0J-250D01*
G01X-80824Y312391D01*
X-80823Y312258D01*
X-80855Y312200D01*
G03X-74027I3414J-1886D01*
G01X-74059Y312258D01*
X-74057Y312391D01*
X-73804Y312819D01*
G02X-73589Y312942I215J-127D01*
G01X-42276D01*
G02X-42099Y312869I0J-250D01*
G01X-31147Y301917D01*
G02X-31090Y301652I-177J-177D01*
G03X-26064Y296626I3649J-1377D01*
G01X-25995Y296652D01*
X-25851Y296621D01*
X-21095Y291865D01*
X-21064Y291721D01*
X-21090Y291652D01*
G03X-16064Y286626I3649J-1377D01*
G01X-15995Y286652D01*
X-15851Y286621D01*
X-14833Y285603D01*
G02X-14760Y285426I-177J-177D01*
G01Y284097D01*
G02X-14884Y283881I-250J0D01*
G01X-15316Y283630D01*
X-15450Y283629D01*
X-15508Y283662D01*
G03Y276888I-1933J-3387D01*
G01X-15450Y276921D01*
X-15316Y276920D01*
X-14884Y276670D01*
G02X-14760Y276453I-125J-216D01*
G01Y274097D01*
G02X-14884Y273881I-250J0D01*
G01X-15316Y273630D01*
X-15450Y273629D01*
X-15508Y273662D01*
G03Y266888I-1933J-3387D01*
G01X-15450Y266921D01*
X-15316Y266920D01*
X-14884Y266670D01*
G02X-14760Y266453I-125J-216D01*
G01Y264097D01*
G02X-14884Y263881I-250J0D01*
G01X-15316Y263630D01*
X-15450Y263629D01*
X-15508Y263662D01*
G03Y256888I-1933J-3387D01*
G01X-15450Y256921D01*
X-15316Y256920D01*
X-14884Y256670D01*
G02X-14760Y256453I-125J-216D01*
G01Y254097D01*
G02X-14884Y253881I-250J0D01*
G01X-15316Y253630D01*
X-15450Y253629D01*
X-15508Y253662D01*
G03Y246888I-1933J-3387D01*
G01X-15450Y246921D01*
X-15316Y246920D01*
X-14884Y246670D01*
G02X-14760Y246453I-125J-216D01*
G01Y244097D01*
G02X-14884Y243881I-250J0D01*
G01X-15316Y243630D01*
X-15450Y243629D01*
X-15508Y243663D01*
G03Y236888I-1933J-3387D01*
G01X-15450Y236921D01*
X-15316Y236920D01*
X-14884Y236670D01*
G02X-14760Y236453I-125J-216D01*
G01Y234097D01*
G02X-14884Y233881I-250J0D01*
G01X-15316Y233630D01*
X-15450Y233629D01*
X-15508Y233663D01*
G03Y226888I-1933J-3387D01*
G01X-15450Y226921D01*
X-15316Y226920D01*
X-14884Y226670D01*
G02X-14760Y226453I-125J-216D01*
G01Y224097D01*
G02X-14884Y223881I-250J0D01*
G01X-15316Y223630D01*
X-15450Y223629D01*
X-15508Y223662D01*
G03Y216888I-1933J-3387D01*
G01X-15450Y216921D01*
X-15316Y216920D01*
X-14884Y216670D01*
G02X-14760Y216453I-125J-216D01*
G01Y214097D01*
G02X-14884Y213881I-250J0D01*
G01X-15316Y213630D01*
X-15450Y213629D01*
X-15508Y213662D01*
G03Y206888I-1933J-3387D01*
G01X-15450Y206921D01*
X-15316Y206920D01*
X-14884Y206670D01*
G02X-14760Y206453I-125J-216D01*
G01Y164097D01*
G02X-14884Y163881I-250J0D01*
G01X-15316Y163630D01*
X-15450Y163630D01*
X-15508Y163663D01*
G03Y156888I-1933J-3387D01*
G01X-15450Y156921D01*
X-15316Y156921D01*
X-14884Y156670D01*
G02X-14760Y156454I-125J-216D01*
G01Y154097D01*
G02X-14884Y153881I-250J0D01*
G01X-15316Y153630D01*
X-15450Y153630D01*
X-15508Y153663D01*
G03Y146888I-1933J-3387D01*
G01X-15450Y146921D01*
X-15316Y146921D01*
X-14884Y146670D01*
G02X-14760Y146454I-125J-216D01*
G01Y144097D01*
G02X-14884Y143881I-250J0D01*
G01X-15316Y143630D01*
X-15450Y143630D01*
X-15508Y143663D01*
G03Y136888I-1933J-3387D01*
G01X-15450Y136921D01*
X-15316Y136921D01*
X-14884Y136670D01*
G02X-14760Y136454I-125J-216D01*
G01Y134097D01*
G02X-14884Y133881I-250J0D01*
G01X-15316Y133630D01*
X-15450Y133630D01*
X-15508Y133663D01*
G03Y126888I-1933J-3387D01*
G01X-15450Y126921D01*
X-15316Y126921D01*
X-14884Y126670D01*
G02X-14760Y126454I-125J-216D01*
G01Y124097D01*
G02X-14884Y123881I-250J0D01*
G01X-15316Y123630D01*
X-15450Y123630D01*
X-15508Y123663D01*
G03Y116888I-1933J-3387D01*
G01X-15450Y116921D01*
X-15316Y116921D01*
X-14884Y116670D01*
G02X-14760Y116454I-125J-216D01*
G01Y114097D01*
G02X-14884Y113881I-250J0D01*
G01X-15316Y113630D01*
X-15450Y113630D01*
X-15508Y113663D01*
G03Y106888I-1933J-3387D01*
G01X-15450Y106921D01*
X-15316Y106921D01*
X-14884Y106670D01*
G02X-14760Y106454I-125J-216D01*
G01Y104097D01*
G02X-14884Y103881I-250J0D01*
G01X-15316Y103630D01*
X-15450Y103630D01*
X-15508Y103663D01*
G03Y96888I-1933J-3387D01*
G01X-15450Y96921D01*
X-15316Y96921D01*
X-14884Y96670D01*
G02X-14760Y96454I-125J-216D01*
G01Y94097D01*
G02X-14884Y93881I-250J0D01*
G01X-15316Y93630D01*
X-15450Y93630D01*
X-15508Y93663D01*
G03Y86888I-1933J-3387D01*
G01X-15450Y86921D01*
X-15316Y86921D01*
X-14884Y86670D01*
G02X-14760Y86454I-125J-216D01*
G01Y84097D01*
G02X-14884Y83881I-250J0D01*
G01X-15316Y83630D01*
X-15450Y83630D01*
X-15508Y83663D01*
G03Y76888I-1933J-3387D01*
G01X-15450Y76921D01*
X-15316Y76921D01*
X-14884Y76670D01*
G02X-14760Y76454I-125J-216D01*
G01Y74097D01*
G02X-14884Y73881I-250J0D01*
G01X-15316Y73630D01*
X-15450Y73630D01*
X-15508Y73663D01*
G03Y66888I-1933J-3387D01*
G01X-15450Y66921D01*
X-15316Y66921D01*
X-14884Y66670D01*
G02X-14760Y66454I-125J-216D01*
G01Y43245D01*
G02X-14833Y43068I-250J0D01*
G01X-26802Y31099D01*
G02X-26979Y31026I-177J177D01*
G01X-54187D01*
G02X-54384Y31122I0J250D01*
G01X-54662Y31479D01*
X-54686Y31592D01*
X-54672Y31648D01*
G03X-57388I-1358J342D01*
G01X-57374Y31592D01*
X-57398Y31479D01*
X-57711Y31077D01*
X-57815Y31026D01*
X-57843D01*
X-57847Y31022D01*
X-70710D01*
X-70748Y31035D01*
G03X-71642I-447J-1327D01*
G01X-71680Y31022D01*
X-81700D01*
G03X-81877Y30949I0J-250D01*
G01X-84399Y28427D01*
G03X-84472Y28250I177J-177D01*
G01Y27934D01*
G02X-84605Y27713I-250J0D01*
G01X-85057Y27474D01*
X-85195Y27481D01*
X-85252Y27520D01*
G03Y21063I-2188J-3229D01*
G01X-85195Y21102D01*
X-85057Y21109D01*
X-84605Y20870D01*
G02X-84472Y20649I-117J-221D01*
G01Y17934D01*
G02X-84605Y17713I-250J0D01*
G01X-85057Y17474D01*
X-85195Y17481D01*
X-85252Y17520D01*
G03Y11063I-2188J-3229D01*
G01X-85195Y11102D01*
X-85057Y11109D01*
X-84605Y10870D01*
G02X-84472Y10649I-117J-221D01*
G01Y8071D01*
G02X-84545Y7894I-250J0D01*
G01X-86525Y5914D01*
G02X-86701Y5841I-177J177D01*
G01X-92698D01*
G02X-92927Y5990I0J250D01*
G01X-93141Y6477D01*
X-93117Y6624D01*
X-93067Y6679D01*
G03X-92713Y7818I-1033J945D01*
G02X-92305Y8379I495J69D01*
G03X-93937Y9564I-245J1379D01*
G02X-94345Y9003I-495J-69D01*
G03X-95133Y6679I245J-1379D01*
G01X-95083Y6624D01*
X-95059Y6477D01*
X-95273Y5990D01*
G02X-95502Y5841I-229J101D01*
G01X-318477D01*
G02X-318654Y5914I0J250D01*
G37*
G36*
G01X-81699Y5309D02*
X-83535Y7145D01*
G02X-83608Y7322I177J177D01*
G01Y13567D01*
X-83604Y13590D01*
G03Y14993I-3837J702D01*
G01X-83608Y15015D01*
Y23567D01*
X-83604Y23590D01*
G03Y24993I-3837J702D01*
G01X-83608Y25015D01*
Y27983D01*
G02X-83535Y28160I250J0D01*
G01X-81546Y30149D01*
G02X-81369Y30222I177J-177D01*
G01X-73095D01*
G02X-72918Y30148I0J-250D01*
G01X-72633Y29861D01*
X-72595Y29768D01*
X-72595Y29718D01*
G03X-69795I1400J-10D01*
G01X-69795Y29768D01*
X-69758Y29861D01*
X-69472Y30148D01*
G02X-69295Y30222I177J-176D01*
G01X-57516D01*
X-57512Y30226D01*
X-26544D01*
X-26509Y30260D01*
X-25712D01*
G03X-25535Y30333I0J250D01*
G01X-13779Y42089D01*
G03X-13706Y42266I-177J177D01*
G01Y52774D01*
G02X-13582Y52990I250J0D01*
G01X-13150Y53241D01*
X-13016Y53241D01*
X-12958Y53208D01*
G03Y55640I694J1216D01*
G01X-13016Y55607D01*
X-13150Y55607D01*
X-13582Y55858D01*
G02X-13706Y56074I125J216D01*
G01Y69151D01*
X-13696Y69186D01*
G03Y71365I-3745J1090D01*
G01X-13706Y71399D01*
Y79151D01*
X-13696Y79186D01*
G03Y81365I-3745J1090D01*
G01X-13706Y81399D01*
Y89151D01*
X-13696Y89186D01*
G03Y91365I-3745J1090D01*
G01X-13706Y91399D01*
Y99151D01*
X-13696Y99186D01*
G03Y101365I-3745J1090D01*
G01X-13706Y101399D01*
Y109151D01*
X-13696Y109186D01*
G03Y111365I-3745J1090D01*
G01X-13706Y111399D01*
Y119151D01*
X-13696Y119186D01*
G03Y121365I-3745J1090D01*
G01X-13706Y121399D01*
Y129151D01*
X-13696Y129186D01*
G03Y131365I-3745J1090D01*
G01X-13706Y131399D01*
Y139151D01*
X-13696Y139186D01*
G03Y141365I-3745J1090D01*
G01X-13706Y141399D01*
Y149151D01*
X-13696Y149186D01*
G03Y151365I-3745J1090D01*
G01X-13706Y151399D01*
Y159151D01*
X-13696Y159186D01*
G03Y161365I-3745J1090D01*
G01X-13706Y161399D01*
Y192533D01*
G02X-13601Y192736I250J0D01*
G01X-13220Y193008D01*
X-13100Y193025D01*
X-13043Y193005D01*
G03Y195653I457J1324D01*
G01X-13100Y195633D01*
X-13220Y195650D01*
X-13601Y195922D01*
G02X-13706Y196125I145J204D01*
G01Y209151D01*
X-13696Y209185D01*
G03Y211365I-3745J1090D01*
G01X-13706Y211399D01*
Y219151D01*
X-13696Y219185D01*
G03Y221365I-3745J1090D01*
G01X-13706Y221399D01*
Y229151D01*
X-13696Y229185D01*
G03Y231365I-3745J1090D01*
G01X-13706Y231399D01*
Y233419D01*
G02X-13616Y233611I250J0D01*
G01X-13280Y233893D01*
X-13173Y233921D01*
X-13118Y233911D01*
G03Y236668I245J1379D01*
G01X-13173Y236659D01*
X-13280Y236687D01*
X-13616Y236969D01*
G02X-13706Y237161I161J192D01*
G01Y239151D01*
X-13696Y239185D01*
G03Y241365I-3745J1090D01*
G01X-13706Y241399D01*
Y249151D01*
X-13696Y249185D01*
G03Y251365I-3745J1090D01*
G01X-13706Y251399D01*
Y259151D01*
X-13696Y259185D01*
G03Y261365I-3745J1090D01*
G01X-13706Y261399D01*
Y264371D01*
G02X-13584Y264586I250J0D01*
G01X-13157Y264839D01*
X-13025Y264842D01*
X-12967Y264810D01*
G03Y267270I669J1230D01*
G01X-13025Y267238D01*
X-13157Y267241D01*
X-13584Y267494D01*
G02X-13706Y267709I128J215D01*
G01Y269151D01*
X-13696Y269185D01*
G03Y271365I-3745J1090D01*
G01X-13706Y271399D01*
Y279151D01*
X-13696Y279185D01*
G03Y281365I-3745J1090D01*
G01X-13706Y281399D01*
Y286124D01*
G03X-13779Y286301I-250J0D01*
G01X-14735Y287257D01*
X-14736Y287463D01*
X-14664Y287537D01*
G03X-20179Y293052I-2777J2738D01*
G01X-20253Y292980D01*
X-20459Y292981D01*
X-24735Y297257D01*
X-24736Y297463D01*
X-24664Y297537D01*
G03X-30179Y303052I-2777J2738D01*
G01X-30253Y302980D01*
X-30459Y302981D01*
X-41312Y313834D01*
G03X-41489Y313907I-177J-177D01*
G01X-65682D01*
G02X-65901Y314036I0J250D01*
G01X-66146Y314479D01*
X-66142Y314616D01*
X-66105Y314674D01*
G03X-68475I-1185J746D01*
G01X-68438Y314616D01*
X-68434Y314479D01*
X-68679Y314036D01*
G02X-68898Y313907I-219J121D01*
G01X-75873D01*
G02X-75968Y313926I0J250D01*
G03X-78914I-1473J-3611D01*
G02X-79008Y313907I-94J232D01*
G01X-100221D01*
G02X-100398Y313980I0J250D01*
G01X-103770Y317352D01*
G02X-103843Y317528I177J177D01*
G01Y324172D01*
G02X-103736Y324377I250J0D01*
G01X-103350Y324647D01*
X-103229Y324663D01*
X-103171Y324642D01*
G03Y327836I583J1597D01*
G01X-103229Y327815D01*
X-103350Y327831D01*
X-103736Y328101D01*
G02X-103843Y328306I143J205D01*
G01Y331169D01*
G02X-103770Y331345I250J0D01*
G01X-103489Y331626D01*
X-103365Y331661D01*
X-103302Y331646D01*
G03X-101222Y333408I383J1656D01*
G01X-101225Y333460D01*
X-101190Y333557D01*
X-100905Y333860D01*
G02X-100723Y333939I182J-171D01*
G01X-92969D01*
X-92827Y333813D01*
X-92816Y333719D01*
G03X-89440I1688J207D01*
G01X-89429Y333813D01*
X-89287Y333939D01*
X-63881D01*
X-63839Y333923D01*
G03X-62865I487J1313D01*
G01X-62823Y333939D01*
X-59909D01*
X-59867Y333923D01*
G03X-58893I487J1313D01*
G01X-58851Y333939D01*
X-51154D01*
G03X-50977Y334012I0J250D01*
G01X-42713Y342276D01*
X-42675Y342368D01*
Y342416D01*
X-42347Y342744D01*
G03X-42274Y342921I-177J177D01*
G01Y349167D01*
G02X-42201Y349344I250J0D01*
G01X-38257Y353288D01*
G03X-38184Y353465I-177J177D01*
G01Y354349D01*
G02X-38111Y354526I250J0D01*
G01X-37113Y355524D01*
G02X-36936Y355597I177J-177D01*
G01X-25090D01*
G02X-24913Y355524I0J-250D01*
G01X-22785Y353396D01*
G02X-22712Y353219I-177J-177D01*
G01Y343388D01*
X-22709Y343385D01*
Y342541D01*
X-22687Y342519D01*
Y342514D01*
X-19761Y339588D01*
G03X-19584Y339515I177J177D01*
G01X-4753D01*
G02X-4576Y339442I0J-250D01*
G01X-3274Y338140D01*
G02X-3201Y337963I-177J-177D01*
G01Y317858D01*
X-3325Y317717D01*
X-3419Y317704D01*
G03Y314928I182J-1388D01*
G01X-3325Y314915D01*
X-3201Y314774D01*
Y286727D01*
G02X-3274Y286551I-250J0D01*
G01X-3380Y286444D01*
G02X-3540Y286371I-177J176D01*
G03Y283577I100J-1397D01*
G02X-3380Y283504I-18J-249D01*
G01X-3274Y283397D01*
G02X-3201Y283221I-177J-176D01*
G01Y260693D01*
G02X-3274Y260517I-250J0D01*
G01X-3380Y260410D01*
G02X-3540Y260337I-177J176D01*
G03Y257543I100J-1397D01*
G02X-3380Y257470I-18J-249D01*
G01X-3274Y257363D01*
G02X-3201Y257187I-177J-176D01*
G01Y238915D01*
G02X-3270Y238743I-250J0D01*
G01X-3373Y238635D01*
G02X-3527Y238559I-181J172D01*
G03Y235775I155J-1392D01*
G02X-3373Y235699I-28J-248D01*
G01X-3270Y235591D01*
G02X-3201Y235419I-181J-172D01*
G01Y209561D01*
G02X-3267Y209392I-250J0D01*
G01X-3366Y209283D01*
G02X-3514Y209205I-184J169D01*
G03Y206435I209J-1385D01*
G02X-3366Y206357I-37J-247D01*
G01X-3267Y206248D01*
G02X-3201Y206079I-184J-169D01*
G01Y177108D01*
X-3327Y176966D01*
X-3421Y176955D01*
G03Y174175I167J-1390D01*
G01X-3327Y174164D01*
X-3201Y174021D01*
Y148637D01*
G02X-3267Y148467I-250J0D01*
G01X-3368Y148358D01*
G02X-3517Y148281I-184J170D01*
G03Y145507I195J-1387D01*
G02X-3368Y145430I-35J-248D01*
G01X-3267Y145321D01*
G02X-3201Y145151I-184J-170D01*
G01Y128208D01*
X-3317Y128069D01*
X-3406Y128053D01*
G03Y125299I254J-1377D01*
G01X-3317Y125283D01*
X-3201Y125144D01*
Y99165D01*
X-3317Y99026D01*
X-3406Y99010D01*
G03Y96256I254J-1377D01*
G01X-3317Y96240D01*
X-3201Y96101D01*
Y72431D01*
X-3325Y72290D01*
X-3419Y72277D01*
G03Y69501I182J-1388D01*
G01X-3325Y69488D01*
X-3201Y69347D01*
Y27730D01*
G02X-3267Y27561I-250J0D01*
G01X-3366Y27452D01*
G02X-3514Y27374I-184J169D01*
G03Y24604I209J-1385D01*
G02X-3366Y24526I-37J-247D01*
G01X-3267Y24417D01*
G02X-3201Y24248I-184J-169D01*
G01Y13140D01*
G02X-3274Y12963I-250J0D01*
G01X-10928Y5309D01*
G02X-11105Y5236I-177J177D01*
G01X-27450D01*
G02X-27649Y5334I0J250D01*
G01X-27925Y5698D01*
X-27948Y5812D01*
X-27932Y5869D01*
G03X-30632I-1350J372D01*
G01X-30616Y5812D01*
X-30639Y5698D01*
X-30915Y5334D01*
G02X-31114Y5236I-199J151D01*
G01X-81522D01*
G02X-81699Y5309I0J250D01*
G37*
%LPC*%
G75*
G36*
G01X-61160Y394845D02*
X-60802Y394501D01*
X-60696Y394466D01*
X-60640Y394472D01*
G02X-62080Y392315I194J-1689D01*
G01X-62096Y392369D01*
X-62169Y392453D01*
X-62624Y392652D01*
X-62736Y392649D01*
X-62786Y392624D01*
G02X-66989Y395215I-1303J2591D01*
G01Y396515D01*
G02X-61189I2900J0D01*
G01Y395215D01*
G02X-61196Y395005I-2900J0D01*
G01X-61200Y394949D01*
X-61160Y394845D01*
G37*
G36*
G01X-59927Y369406D02*
G03X-60638I-355J-352D01*
G02Y371236I-924J915D01*
G03X-59927I355J352D01*
G02Y369406I924J-915D01*
G37*
G36*
G01X-131023Y367324D02*
G03X-131026Y366614I351J-356D01*
G02X-133420Y366621I-1201J-1204D01*
G03X-133418Y367331I-351J356D01*
G02X-131023Y367324I1201J1204D01*
G37*
G36*
G01X-147158Y366651D02*
G03X-147153Y367398I-330J376D01*
G02X-144894Y367383I1138J1264D01*
G03X-144899Y366636I330J-376D01*
G02X-147158Y366651I-1138J-1264D01*
G37*
G36*
G01X-154801Y362524D02*
G03X-154030Y362521I387J317D01*
G02X-154039Y360355I1306J-1088D01*
G03X-154810Y360358I-387J-317D01*
G02X-154801Y362524I-1306J1088D01*
G37*
G36*
G01X-54809Y359171D02*
G03X-55522Y359169I-356J-352D01*
G02X-55527Y360993I-929J910D01*
G03X-54814Y360995I356J352D01*
G02X-54809Y359171I929J-910D01*
G37*
G36*
G01X-77326Y354944D02*
G03Y354600I182J-172D01*
G02X-79218I-946J-892D01*
G03Y354944I-182J172D01*
G02X-77326I946J892D01*
G37*
G36*
G01X-202407Y352122D02*
G03X-201817Y352603I89J492D01*
G02X-200715Y350118I3199J-68D01*
G03X-201467Y350004I-328J-378D01*
G02X-202407Y352122I-1189J740D01*
G37*
G36*
G01X-61818Y343523D02*
G03X-62500Y343343I-251J-433D01*
G02X-63006Y345263I-1208J709D01*
G03X-62324Y345443I251J433D01*
G02X-61818Y343523I1208J-709D01*
G37*
G36*
G01X-307983Y290844D02*
G02X-310569Y286632I-2586J-1313D01*
G01X-311869D01*
G02Y292432I0J2900D01*
G01X-310569D01*
G02X-310299Y292419I0J-2900D01*
G01X-310242Y292414D01*
X-310135Y292454D01*
X-309785Y292818D01*
X-309749Y292926D01*
X-309757Y292982D01*
G02X-307659Y291556I1686J223D01*
G01X-307714Y291542D01*
X-307802Y291469D01*
X-308011Y291009D01*
X-308009Y290895D01*
X-307983Y290844D01*
G37*
G36*
G01X-175630Y281676D02*
G03X-175634Y281054I390J-313D01*
G02X-177826Y281066I-1101J-864D01*
G03X-177822Y281688I-390J313D01*
G02X-175630Y281676I1101J864D01*
G37*
G36*
G01X-185079Y278164D02*
X-185086Y278624D01*
X-185127Y278716D01*
X-185164Y278751D01*
G02X-185001Y280923I959J1020D01*
G01X-184966Y280947D01*
X-184916Y281015D01*
X-184802Y281395D01*
X-184805Y281479D01*
X-184821Y281519D01*
G02X-182554Y283050I1301J517D01*
G01X-182521Y283018D01*
X-182437Y282982D01*
X-182015Y282966D01*
X-181928Y282995D01*
X-181893Y283024D01*
G02X-181835Y283069I884J-1086D01*
G01X-181795Y283319D01*
G03X-181829Y283491I-247J40D01*
G02X-181941Y284743I1190J737D01*
G01X-181925Y284784D01*
X-181922Y284872D01*
X-182049Y285259D01*
X-182103Y285328D01*
X-182140Y285351D01*
G02X-180094Y286022I744J1186D01*
G01X-180110Y285981D01*
X-180113Y285894D01*
X-179986Y285506D01*
X-179932Y285437D01*
X-179895Y285414D01*
G02X-179741Y283154I-744J-1186D01*
G03X-179827Y283002I160J-192D01*
G01X-179852Y282848D01*
G03X-179818Y282676I247J-40D01*
G02X-181974Y280925I-1190J-737D01*
G01X-182007Y280957D01*
X-182091Y280992D01*
X-182513Y281009D01*
X-182600Y280980D01*
X-182635Y280951D01*
G02X-182724Y280884I-885J1085D01*
G01X-182758Y280860D01*
X-182809Y280792D01*
X-182923Y280412D01*
X-182920Y280328D01*
X-182904Y280288D01*
G02X-183213Y278782I-1301J-517D01*
G01X-183249Y278746D01*
X-183287Y278652D01*
X-183280Y278192D01*
X-183239Y278100D01*
X-183202Y278065D01*
G02X-185153Y278034I-959J-1020D01*
G01X-185117Y278070D01*
X-185079Y278164D01*
G37*
G36*
G01X-184059Y264114D02*
G03X-183435Y264100I320J384D01*
G02X-183482Y261911I849J-1113D01*
G03X-184106Y261925I-320J-384D01*
G02X-184059Y264114I-849J1113D01*
G37*
G36*
G01X-166736Y263675D02*
G03X-166706Y263321I190J-163D01*
G02X-168669Y263159I-900J-1073D01*
G03X-168699Y263513I-190J163D01*
G02X-166736Y263675I900J1073D01*
G37*
G36*
G01X-174402Y259290D02*
G03X-173912Y258779I500J-12D01*
G02X-175340Y257412I-28J-1400D01*
G03X-175830Y257923I-500J12D01*
G02X-174402Y259290I28J1400D01*
G37*
G36*
G01X-147104Y257528D02*
G03X-147136Y256817I335J-372D01*
G02X-149101Y256907I-1028J-951D01*
G03X-149068Y257618I-335J372D01*
G02X-147104Y257528I1028J951D01*
G37*
G36*
G01X-110208Y254165D02*
G03X-109549Y254121I354J353D01*
G02X-109689Y252022I853J-1111D01*
G03X-110347Y252066I-354J-353D01*
G02X-110208Y254165I-853J1111D01*
G37*
G36*
G01X-205914Y250023D02*
G03X-205919Y249330I358J-350D01*
G02X-207936Y249345I-1016J-964D01*
G03X-207931Y250038I-358J350D01*
G02X-205914Y250023I1016J964D01*
G37*
G36*
G01X-43742Y235145D02*
G03X-43780Y235842I-376J329D01*
G02X-41779Y235950I948J1031D01*
G03X-41741Y235253I376J-329D01*
G02X-43742Y235145I-948J-1031D01*
G37*
G36*
G01X-133818Y232781D02*
X-133629Y232401D01*
X-133562Y232339D01*
X-133519Y232322D01*
G02X-132898Y230212I-521J-1300D01*
G01X-132926Y230173D01*
X-132948Y230080D01*
X-132888Y229646D01*
X-132842Y229563D01*
X-132804Y229533D01*
G02X-134826Y229254I-880J-1089D01*
G01X-134798Y229293D01*
X-134776Y229386D01*
X-134836Y229820D01*
X-134883Y229903D01*
X-134920Y229933D01*
G02X-135392Y231388I880J1089D01*
G01X-135380Y231432D01*
X-135389Y231523D01*
X-135578Y231903D01*
X-135646Y231965D01*
X-135688Y231982D01*
G02X-133815Y232916I521J1300D01*
G01X-133827Y232872D01*
X-133818Y232781D01*
G37*
G36*
G01X-251957Y228412D02*
X-252292Y228094D01*
X-252332Y228001D01*
X-252333Y227950D01*
G02X-253670Y229360I-1400J11D01*
G01X-253620Y229357D01*
X-253524Y229393D01*
X-253189Y229711D01*
X-253149Y229804D01*
X-253148Y229855D01*
G02X-251202Y231133I1400J-11D01*
G01X-251161Y231116D01*
X-251073Y231112D01*
X-250682Y231231D01*
X-250612Y231284D01*
X-250587Y231321D01*
G02X-249959Y229270I1174J-762D01*
G01X-250000Y229287D01*
X-250088Y229291D01*
X-250479Y229172D01*
X-250549Y229119D01*
X-250574Y229082D01*
G02X-251811Y228445I-1174J762D01*
G01X-251861Y228448D01*
X-251957Y228412D01*
G37*
G36*
G01X-201253Y227359D02*
G03X-201553Y226737I175J-468D01*
G02X-203376Y227618I-1333J-430D01*
G03X-203076Y228240I-175J468D01*
G02X-201253Y227359I1333J430D01*
G37*
G36*
G01X-206057Y222568D02*
G03X-205416Y222554I329J376D01*
G02X-205463Y220406I874J-1094D01*
G03X-206104Y220420I-329J-376D01*
G02X-206057Y222568I-874J1094D01*
G37*
G36*
G01X-91636Y218020D02*
X-91639Y218177D01*
G03X-91704Y218341I-250J-4D01*
G02X-91771Y220145I1036J942D01*
G03X-91718Y220312I-197J154D01*
G01X-91726Y220467D01*
G03X-91795Y220628I-250J-12D01*
G02X-91866Y222482I1012J968D01*
G01X-91839Y222515D01*
X-91810Y222595D01*
X-91806Y222993D01*
X-91833Y223073D01*
X-91860Y223107D01*
G02X-89674Y223083I1103J863D01*
G01X-89701Y223050D01*
X-89730Y222970D01*
X-89734Y222572D01*
X-89707Y222492D01*
X-89680Y222458D01*
G02X-89680Y220733I-1103J-863D01*
G03X-89733Y220566I197J-154D01*
G01X-89725Y220411D01*
G03X-89656Y220250I250J12D01*
G02X-89602Y218375I-1012J-967D01*
G03X-89662Y218209I190J-162D01*
G01X-89659Y218052D01*
G03X-89594Y217888I250J4D01*
G02X-91696Y217854I-1036J-942D01*
G03X-91636Y218020I-190J162D01*
G37*
G36*
G01X-82794Y200005D02*
G03X-82740Y199276I367J-339D01*
G02X-84647Y199136I-879J-1090D01*
G03X-84701Y199865I-367J339D01*
G02X-82794Y200005I879J1090D01*
G37*
G36*
G01X-292191Y197742D02*
G03X-291472Y197706I377J329D01*
G02X-291571Y195763I956J-1023D01*
G03X-292290Y195799I-377J-329D01*
G02X-292191Y197742I-956J1023D01*
G37*
G36*
G01X-186036Y196891D02*
G03X-185949Y196545I214J-130D01*
G02X-187853Y196065I-708J-1208D01*
G03X-187940Y196411I-214J130D01*
G02X-186036Y196891I708J1208D01*
G37*
G36*
G01X-169519Y194705D02*
X-169512Y194302D01*
X-169482Y194221D01*
X-169454Y194188D01*
G02X-171622Y194149I-1068J-905D01*
G01X-171595Y194183D01*
X-171568Y194265D01*
X-171575Y194668D01*
X-171605Y194749D01*
X-171633Y194782D01*
G02X-171611Y196618I1068J905D01*
G03X-171547Y196785I-187J166D01*
G01Y196941D01*
G03X-171611Y197108I-250J0D01*
G02X-171578Y199006I1046J931D01*
G01X-171547Y199038D01*
X-171512Y199120D01*
X-171487Y199531D01*
X-171513Y199616D01*
X-171540Y199652D01*
G02X-169408Y199527I1119J842D01*
G01X-169439Y199495D01*
X-169474Y199413D01*
X-169499Y199002D01*
X-169473Y198916D01*
X-169446Y198881D01*
G02X-169519Y197108I-1119J-842D01*
G03X-169583Y196941I187J-166D01*
G01Y196785D01*
G03X-169519Y196618I250J0D01*
G02X-169465Y194821I-1046J-931D01*
G01X-169492Y194787D01*
X-169519Y194705D01*
G37*
G36*
G01X-123841Y181082D02*
X-123988Y180575D01*
X-123965Y180456D01*
X-123927Y180408D01*
G02X-126413Y179731I-1099J-868D01*
G01X-126406Y179779D01*
X-126431Y179874D01*
X-126696Y180233D01*
X-126779Y180284D01*
X-126828Y180292D01*
G02X-126037Y182955I227J1382D01*
G01X-125993Y182936D01*
X-125899Y182932D01*
X-125489Y183073D01*
X-125417Y183134D01*
X-125395Y183176D01*
G02X-123700Y181190I1233J-664D01*
G01X-123757Y181170D01*
X-123841Y181082D01*
G37*
G36*
G01X-183350Y172989D02*
Y172833D01*
G03X-183290Y172671I250J0D01*
G02X-185418I-1064J-910D01*
G03X-185358Y172833I-190J162D01*
G01Y172989D01*
G03X-185418Y173151I-250J0D01*
G02X-185535Y173308I1064J910D01*
G03X-185674Y173414I-211J-134D01*
G01X-185823Y173458D01*
G03X-185998Y173446I-71J-240D01*
G02X-186290Y176094I-575J1276D01*
G01X-186237Y176083D01*
X-186132Y176106D01*
X-185747Y176394D01*
X-185695Y176488D01*
X-185690Y176541D01*
G02X-183220Y175524I1395J-120D01*
G01X-183247Y175492D01*
X-183277Y175412D01*
X-183287Y175017D01*
X-183261Y174937D01*
X-183235Y174903D01*
G02X-183290Y173151I-1119J-842D01*
G03X-183350Y172989I190J-162D01*
G37*
G36*
G01X-182723Y160918D02*
X-183020Y160622D01*
X-183058Y160539D01*
X-183061Y160494D01*
G02X-184549Y161990I-1397J99D01*
G01X-184504Y161993D01*
X-184421Y162030D01*
X-184124Y162326D01*
X-184086Y162409D01*
X-184083Y162454D01*
G02X-183683Y163338I1397J-99D01*
G01X-183654Y163368D01*
X-183617Y163444D01*
X-183575Y163838D01*
X-183594Y163920D01*
X-183617Y163956D01*
G02X-181436Y163721I1184J748D01*
G01X-181466Y163691D01*
X-181502Y163614D01*
X-181544Y163221D01*
X-181525Y163139D01*
X-181502Y163103D01*
G02X-182595Y160958I-1184J-748D01*
G01X-182640Y160955D01*
X-182723Y160918D01*
G37*
G36*
G01X-177171Y159647D02*
G03X-177449Y159022I195J-461D01*
G02X-179316Y159852I-1322J-460D01*
G03X-179038Y160477I-195J461D01*
G02X-177171Y159647I1322J460D01*
G37*
G36*
G01X-190193Y156436D02*
X-190308Y156333D01*
G03X-190390Y156179I167J-186D01*
G02X-191804Y157761I-1388J182D01*
G03X-191642Y157825I-5J250D01*
G01X-191527Y157928D01*
G03X-191445Y158082I-167J186D01*
G02X-189647Y159239I1388J-182D01*
G03X-189473Y159249I73J239D01*
G01X-189331Y159312D01*
G03X-189206Y159433I-101J229D01*
G02X-188351Y157493I1265J-601D01*
G03X-188525Y157483I-73J-239D01*
G01X-188667Y157420D01*
G03X-188792Y157299I101J-229D01*
G02X-190031Y156500I-1265J601D01*
G03X-190193Y156436I5J-250D01*
G37*
G36*
G01X-238339Y154373D02*
G03X-238352Y153708I367J-340D01*
G02X-240443Y153748I-1063J-911D01*
G03X-240430Y154413I-367J340D01*
G02X-238339Y154373I1063J911D01*
G37*
G36*
G01X-243865Y141050D02*
G03X-243966Y140417I328J-377D01*
G02X-246088Y140757I-1203J-717D01*
G03X-245987Y141390I-328J377D01*
G02X-243865Y141050I1203J717D01*
G37*
G36*
G01X-252611Y138370D02*
G03X-252544Y139082I-314J389D01*
G02X-250597Y138900I1067J907D01*
G03X-250663Y138188I314J-389D01*
G02X-252611Y138370I-1067J-907D01*
G37*
G36*
G01X-236775Y138212D02*
G03X-236792Y137581I379J-326D01*
G02X-238961Y137638I-1108J-856D01*
G03X-238944Y138270I-379J326D01*
G02X-236775Y138212I1108J856D01*
G37*
G36*
G01X-187594Y123054D02*
G03X-186954Y123035I331J375D01*
G02X-187018Y120884I864J-1102D01*
G03X-187657Y120903I-331J-375D01*
G02X-187594Y123054I-864J1102D01*
G37*
G36*
G01X-237486Y68360D02*
G03X-237496Y67686I364J-343D01*
G02X-239565Y67717I-1049J-928D01*
G03X-239555Y68391I-364J343D01*
G02X-237486Y68360I1049J928D01*
G37*
G36*
G01X-101874Y65697D02*
X-101891Y65289D01*
X-101864Y65205D01*
X-101838Y65170D01*
G02X-103985Y65257I-1110J-853D01*
G01X-103956Y65290D01*
X-103923Y65371D01*
X-103906Y65779D01*
X-103932Y65863D01*
X-103959Y65898D01*
G02X-103946Y67622I1110J853D01*
G03X-103892Y67788I-196J155D01*
G01X-103898Y67943D01*
G03X-103967Y68104I-250J-11D01*
G02X-104059Y69919I1018J962D01*
G01X-104033Y69954D01*
X-104006Y70038D01*
X-104023Y70446D01*
X-104056Y70527D01*
X-104085Y70560D01*
G02X-101938Y70647I1037J940D01*
G01X-101964Y70612D01*
X-101991Y70528D01*
X-101974Y70120D01*
X-101941Y70039D01*
X-101912Y70006D01*
G02X-101852Y68196I-1037J-940D01*
G03X-101906Y68029I196J-155D01*
G01X-101900Y67874D01*
G03X-101831Y67713I250J11D01*
G02X-101812Y65811I-1018J-962D01*
G01X-101841Y65778D01*
X-101874Y65697D01*
G37*
G36*
G01X-209242Y55295D02*
G03X-209281Y54597I337J-369D01*
G02X-211279Y54708I-1053J-923D01*
G03X-211240Y55406I-337J369D01*
G02X-209242Y55295I1053J923D01*
G37*
G36*
G01X-187747Y43464D02*
G03X-188049Y42871I181J-466D01*
G02X-189911Y43819I-1354J-357D01*
G03X-189609Y44412I-181J466D01*
G02X-187747Y43464I1354J357D01*
G37*
G36*
G01X-87221Y41337D02*
G03X-87215Y40675I378J-327D01*
G02X-89314Y40654I-1040J-937D01*
G03X-89320Y41316I-378J327D01*
G02X-87221Y41337I1040J937D01*
G37*
G36*
G01X-72859Y391516D02*
G02X-72864Y389427I1339J-1048D01*
G03X-73653Y389429I-395J-306D01*
G02X-73648Y391518I-1339J1048D01*
G03X-72859Y391516I395J306D01*
G37*
G36*
G01X-48379Y391608D02*
G02X-49551Y390427I467J-1635D01*
G01X-49535Y390485D01*
X-49560Y390604D01*
X-49894Y391014D01*
X-50005Y391063D01*
X-50065Y391059D01*
G02X-50008Y394448I-109J1697D01*
G01X-49952Y394442D01*
X-49848Y394479D01*
X-49495Y394825D01*
X-49456Y394929D01*
X-49460Y394985D01*
G02X-49469Y395215I2891J230D01*
G01Y396515D01*
G02X-43669I2900J0D01*
G01Y395215D01*
G02X-47838Y392607I-2900J0D01*
G01X-47888Y392632D01*
X-47999Y392633D01*
X-48451Y392431D01*
X-48523Y392347D01*
X-48538Y392293D01*
G02X-48669Y391965I-1636J462D01*
G03X-48379Y391608I221J-116D01*
G37*
G36*
G01X-213447Y372460D02*
G02X-215317Y372405I-904J-1069D01*
G03X-215339Y373149I-345J362D01*
G02X-213469Y373204I904J1069D01*
G03X-213447Y372460I345J-362D01*
G37*
G36*
G01X-80036Y368106D02*
G02X-80004Y369571I-1177J758D01*
G03X-79162Y369538I432J253D01*
G02X-79193Y368102I1068J-741D01*
G03X-80036Y368106I-423J-267D01*
G37*
G36*
G01X-37518Y368217D02*
G02X-37864Y366638I944J-1034D01*
G03X-38662Y366813I-461J-195D01*
G02X-38316Y368392I-944J1034D01*
G03X-37518Y368217I461J195D01*
G37*
G36*
G01X-48225Y363650D02*
G02X-48294Y361933I941J-897D01*
G03X-49044Y361964I-388J-315D01*
G02X-48975Y363680I-941J897D01*
G03X-48225Y363650I388J315D01*
G37*
G36*
G01X-80431Y361115D02*
X-80458Y361068D01*
G02X-80787Y362838I-1219J689D01*
G01X-80746Y362804D01*
X-80642Y362776D01*
X-80165Y362853D01*
X-80075Y362912D01*
X-80046Y362958D01*
G02X-79861Y363188I1100J-693D01*
G03X-79788Y363344I-176J178D01*
G01X-79774Y363499D01*
G03X-79819Y363665I-249J22D01*
G02X-77840Y363489I1064J747D01*
G03X-77913Y363333I176J-178D01*
G01X-77926Y363178D01*
G03X-77882Y363012I249J-22D01*
G02X-79724Y361223I-1064J-747D01*
G01X-79767Y361255D01*
X-79872Y361278D01*
X-80345Y361179D01*
X-80431Y361115D01*
G37*
G36*
G01X-184774Y356023D02*
G02X-185416Y354606I740J-1189D01*
G03X-186173Y354949I-493J-81D01*
G02X-185532Y356366I-740J1189D01*
G03X-184774Y356023I493J81D01*
G37*
G36*
G01X-73567Y350581D02*
G02X-75148I-790J-1033D01*
G03X-75049Y350780I-152J199D01*
G01Y351177D01*
G03X-75148Y351375I-250J0D01*
G02X-75272Y353332I790J1033D01*
G03X-75198Y353510I-176J178D01*
G01Y353865D01*
G03X-75272Y354043I-250J0D01*
G02X-73433Y355882I915J924D01*
G03X-73255Y355807I178J176D01*
G01X-72900D01*
G03X-72722Y355882I0J250D01*
G02Y354052I924J-915D01*
G03X-72900Y354126I-178J-176D01*
G01X-73255D01*
G03X-73433Y354052I0J-250D01*
G02X-73443Y354043I-924J915D01*
G03X-73517Y353865I176J-178D01*
G01Y353510D01*
G03X-73443Y353332I250J0D01*
G02X-73567Y351375I-915J-924D01*
G03X-73665Y351177I152J-199D01*
G01Y350780D01*
G03X-73567Y350581I250J0D01*
G37*
G36*
G01X-89356Y349078D02*
X-89306Y349043D01*
G02X-90919Y349048I-810J-1142D01*
G01X-90869Y349083D01*
X-90812Y349191D01*
X-90810Y349722D01*
X-90866Y349831D01*
X-90916Y349866D01*
G02X-91257Y350211I810J1142D01*
G01X-91291Y350260D01*
X-91396Y350317D01*
X-91920Y350330D01*
X-92027Y350279D01*
X-92064Y350231D01*
G02X-92022Y351883I-1109J855D01*
G01X-91988Y351834D01*
X-91883Y351777D01*
X-91359Y351764D01*
X-91252Y351815D01*
X-91215Y351863D01*
G02X-91176Y351910I1109J-855D01*
G01X-91148Y351945D01*
X-91117Y352029D01*
X-91121Y352444D01*
X-91152Y352528D01*
X-91182Y352561D01*
G02X-90708Y354754I1056J920D01*
G01X-90661Y354776D01*
X-90591Y354854D01*
X-90444Y355302D01*
X-90454Y355406D01*
X-90479Y355452D01*
G02X-88673Y354859I1224J680D01*
G01X-88720Y354837D01*
X-88790Y354759D01*
X-88937Y354311D01*
X-88927Y354207D01*
X-88902Y354161D01*
G02X-89056Y352578I-1224J-680D01*
G01X-89084Y352544D01*
X-89115Y352460D01*
X-89111Y352045D01*
X-89080Y351962D01*
X-89050Y351928D01*
G02X-89303Y349861I-1056J-920D01*
G01X-89353Y349826D01*
X-89410Y349718D01*
X-89412Y349187D01*
X-89356Y349078D01*
G37*
G36*
G01X-117161Y345478D02*
G02X-117238Y347478I-1017J963D01*
G03X-116539Y347505I336J370D01*
G02X-116486Y347558I1016J-963D01*
G01X-116435Y347606D01*
X-116398Y347742D01*
X-116563Y348303D01*
X-116666Y348398D01*
X-116735Y348411D01*
G02X-114580Y348561I795J4124D01*
G01X-114646Y348539D01*
X-114736Y348431D01*
X-114821Y347852D01*
X-114766Y347722D01*
X-114708Y347682D01*
G02X-116462Y345505I-814J-1140D01*
G03X-117161Y345478I-336J-370D01*
G37*
G36*
G01X-248739Y331195D02*
G02X-248774Y332673I-1206J711D01*
G03X-247924Y332693I418J274D01*
G02X-247890Y331215I1206J-711D01*
G03X-248739Y331195I-418J-274D01*
G37*
G36*
G01X-248663Y327612D02*
G02X-248698Y329090I-1206J711D01*
G03X-247848Y329110I418J274D01*
G02X-247814Y327632I1206J-711D01*
G03X-248663Y327612I-418J-274D01*
G37*
G36*
G01X-238072Y324616D02*
G02X-240153Y326481I-1105J861D01*
G01X-240117Y326516D01*
X-240078Y326609D01*
X-240076Y327066D01*
X-240114Y327159D01*
X-240150Y327195D01*
G02X-238053Y329041I985J995D01*
G01X-238018Y328996D01*
X-237917Y328944D01*
X-237412Y328933D01*
X-237309Y328980D01*
X-237272Y329024D01*
G02X-235112Y329010I1074J-898D01*
G01X-235074Y328963D01*
X-234962Y328915D01*
X-234433Y328951D01*
X-234329Y329014D01*
X-234298Y329066D01*
G02X-234187Y327455I1197J-727D01*
G01X-234225Y327502D01*
X-234337Y327550D01*
X-234866Y327514D01*
X-234970Y327451D01*
X-235002Y327399D01*
G02X-235187Y327157I-1196J727D01*
G01X-235221Y327122D01*
X-235257Y327031D01*
X-235254Y326585D01*
X-235216Y326495D01*
X-235182Y326460D01*
G02X-237284Y324616I-997J-983D01*
G03X-237481Y324713I-197J-154D01*
G01X-237875D01*
G03X-238072Y324616I0J-250D01*
G37*
G36*
G01X-306417Y303616D02*
X-306413Y303555D01*
G02X-309802Y303613I-1697J-109D01*
G01X-309797Y303668D01*
X-309833Y303773D01*
X-310180Y304126D01*
X-310284Y304165D01*
X-310339Y304160D01*
G02X-310569Y304151I-230J2891D01*
G01X-311869D01*
G02Y309952I0J2900D01*
G01X-310569D01*
G02X-307962Y305782I0J-2900D01*
G01X-307986Y305732D01*
X-307988Y305621D01*
X-307785Y305170D01*
X-307702Y305097D01*
X-307648Y305082D01*
G02X-307320Y304951I-462J-1636D01*
G03X-306963Y305241I116J221D01*
G02X-305781Y304069I1635J467D01*
G01X-305840Y304086D01*
X-305958Y304061D01*
X-306369Y303727D01*
X-306417Y303616D01*
G37*
G36*
G01X-164241Y277912D02*
X-164201Y277954D01*
G02X-164375Y276250I1015J-965D01*
G01X-164406Y276299D01*
X-164504Y276361D01*
X-165013Y276413D01*
X-165122Y276372D01*
X-165162Y276330D01*
G02X-167213Y278237I-1015J965D01*
G03X-167224Y278922I-370J336D01*
G02X-165183Y278955I1005J975D01*
G03X-165172Y278270I370J-336D01*
G02X-164988Y278034I-1005J-975D01*
G01X-164957Y277985D01*
X-164859Y277923D01*
X-164350Y277871D01*
X-164241Y277912D01*
G37*
G36*
G01X-205814Y275563D02*
G02X-207213Y275422I-578J-1275D01*
G03X-207300Y276283I-293J405D01*
G02X-205901Y276424I578J1275D01*
G03X-205814Y275563I293J-405D01*
G37*
G36*
G01X-187969Y255289D02*
G02X-188296Y253461I868J-1099D01*
G03X-189076Y253554I-427J-260D01*
G02X-188732Y255472I-1200J1204D01*
G03X-187969Y255289I454J210D01*
G37*
G36*
G01X-80046Y246520D02*
G02X-81479Y248106I-1388J187D01*
G03X-81035Y248799I-16J500D01*
G02X-79311Y246892I3594J1515D01*
G03X-80046Y246520I-240J-439D01*
G37*
G36*
G01X-52894Y246537D02*
G02X-54119Y247646I-1371J-284D01*
G03X-53577Y248244I52J497D01*
G02X-52352Y247135I1371J284D01*
G03X-52894Y246537I-52J-497D01*
G37*
G36*
G01X-259952Y239691D02*
X-267440D01*
G02Y248891I0J4600D01*
G01X-263763D01*
G03X-263586Y248964I0J250D01*
G01X-247113Y265437D01*
G03X-247040Y265614I-177J177D01*
G01Y299500D01*
G02X-246967Y299677I250J0D01*
G01X-226024Y320620D01*
G02X-225847Y320693I177J-177D01*
G01X-166160D01*
X-166128Y320725D01*
X-161606D01*
G02X-161429Y320652I0J-250D01*
G01X-156660Y315883D01*
G02X-156587Y315706I-177J-177D01*
G01Y307995D01*
G02X-156660Y307818I-250J0D01*
G01X-159040Y305438D01*
G02X-159217Y305365I-177J177D01*
G01X-160415D01*
G03X-160605Y305277I0J-250D01*
G01X-160888Y304944D01*
X-160917Y304838D01*
X-160908Y304784D01*
G02X-163672I-1382J-226D01*
G01X-163663Y304838D01*
X-163692Y304944D01*
X-163975Y305277D01*
G03X-164165Y305365I-190J-162D01*
G01X-164717D01*
G02X-164894Y305438I0J250D01*
G01X-166690Y307234D01*
G02X-166763Y307411I177J177D01*
G01Y310250D01*
G03X-166836Y310427I-250J0D01*
G01X-167829Y311420D01*
G03X-168006Y311493I-177J-177D01*
G01X-222036D01*
G03X-222213Y311420I0J-250D01*
G01X-227211Y306421D01*
G03X-227277Y306183I177J-177D01*
G01X-227155Y305703D01*
X-227063Y305607D01*
X-227000Y305588D01*
G02X-228740Y303848I-398J-1342D01*
G01X-228759Y303911D01*
X-228854Y304003D01*
X-229335Y304125D01*
G03X-229573Y304059I-62J-242D01*
G01X-237767Y295866D01*
G03X-237840Y295689I177J-177D01*
G01Y261803D01*
G02X-237913Y261626I-250J0D01*
G01X-251968Y247571D01*
G03X-252032Y247326I177J-177D01*
G01X-251894Y246841D01*
X-251796Y246747D01*
X-251730Y246731D01*
G02X-253416Y245045I-324J-1362D01*
G01X-253432Y245111D01*
X-253526Y245209D01*
X-254011Y245347D01*
G03X-254256Y245283I-68J-241D01*
G01X-259776Y239764D01*
G02X-259952Y239691I-177J177D01*
G37*
G36*
G01X-203137Y238755D02*
G02X-204837Y238818I-892J-1080D01*
G03X-204808Y239612I-289J408D01*
G02X-203108Y239548I892J1080D01*
G03X-203137Y238755I289J-408D01*
G37*
G36*
G01X-263076Y232606D02*
X-263009Y232634D01*
G02X-263851Y231209I551J-1287D01*
G01X-263858Y231281D01*
X-263947Y231395D01*
X-264508Y231597D01*
X-264649Y231566D01*
X-264700Y231515D01*
G02X-264464Y236811I-2740J2775D01*
G01X-264425Y236765D01*
X-264313Y236718D01*
X-263789Y236759D01*
X-263686Y236822D01*
X-263655Y236874D01*
G02X-262887Y234814I1197J-727D01*
G01X-262945Y234833D01*
X-263064Y234813D01*
X-263487Y234501D01*
X-263541Y234393D01*
X-263540Y234333D01*
G02X-263687Y233230I-3900J-42D01*
G01X-263707Y233160D01*
X-263666Y233022D01*
X-263218Y232628D01*
X-263076Y232606D01*
G37*
G36*
G01X-76609Y218101D02*
G02X-78662Y217995I-832J-3810D01*
G03X-78534Y218881I-157J475D01*
G02X-76827Y218970I796J1152D01*
G03X-76609Y218101I325J-380D01*
G37*
G36*
G01X-167753Y210014D02*
G02X-169343Y211011I-1347J-382D01*
G03X-168949Y211640I-87J492D01*
G02X-167359Y210643I1347J382D01*
G03X-167753Y210014I87J-492D01*
G37*
G36*
G01X-131002Y209797D02*
G02X-132766Y209780I-872J-1096D01*
G03X-132774Y210556I-319J385D01*
G02X-131010Y210573I872J1096D01*
G03X-131002Y209797I319J-385D01*
G37*
G36*
G01X-218342Y204886D02*
G02X-220509Y204864I-1075J-898D01*
G03X-220516Y205497I-390J313D01*
G02X-218558Y207482I1075J898D01*
G01X-218506Y207440D01*
X-218376Y207418D01*
X-217848Y207612D01*
X-217763Y207713D01*
X-217751Y207778D01*
G02X-217418Y208456I1377J-255D01*
G03X-217354Y208621I-186J167D01*
G01X-217353Y208777D01*
G03X-217414Y208943I-250J2D01*
G02X-215310Y208925I1060J915D01*
G03X-215374Y208760I186J-167D01*
G01X-215375Y208604D01*
G03X-215314Y208438I250J-2D01*
G02X-217257Y206436I-1060J-915D01*
G01X-217309Y206478D01*
X-217439Y206500D01*
X-217967Y206306D01*
X-218052Y206205D01*
X-218064Y206140D01*
G02X-218349Y205519I-1377J255D01*
G03X-218342Y204886I390J-313D01*
G37*
G36*
G01X-206314Y205240D02*
X-206257Y205208D01*
G02X-207719Y205132I-669J-1230D01*
G01X-207665Y205168D01*
X-207607Y205285D01*
X-207637Y205841D01*
X-207706Y205951D01*
X-207764Y205983D01*
G02X-208049Y208238I669J1230D01*
G03X-208026Y208948I-341J366D01*
G02X-206056Y208886I1016J963D01*
G03X-206078Y208176I341J-366D01*
G02X-206301Y206059I-1016J-963D01*
G01X-206355Y206023D01*
X-206413Y205906D01*
X-206383Y205350D01*
X-206314Y205240D01*
G37*
G36*
G01X-241062Y161053D02*
X-241008Y161056D01*
G02X-242328Y159768I76J-1398D01*
G01X-242324Y159822D01*
X-242361Y159923D01*
X-242699Y160270D01*
X-242800Y160309D01*
X-242854Y160306D01*
G02X-244014Y162590I-76J1398D01*
G03X-244046Y163259I-387J317D01*
G02X-241967Y163358I995J985D01*
G03X-241935Y162689I387J-317D01*
G02X-241534Y161594I-995J-985D01*
G01X-241538Y161540D01*
X-241502Y161439D01*
X-241163Y161092D01*
X-241062Y161053D01*
G37*
G36*
G01X-197732Y141503D02*
X-197691Y141553D01*
G02X-197889Y140092I1081J-890D01*
G01X-197915Y140152D01*
X-198019Y140230D01*
X-198569Y140304D01*
X-198690Y140257D01*
X-198731Y140207D01*
G02X-201186Y140825I-1081J890D01*
G03X-201705Y141227I-490J-97D01*
G02X-200413Y142897I-82J1398D01*
G03X-199894Y142495I490J97D01*
G02X-198533Y141668I82J-1398D01*
G01X-198507Y141608D01*
X-198403Y141530D01*
X-197853Y141456D01*
X-197732Y141503D01*
G37*
G36*
G01X-233497Y137118D02*
X-233457Y137078D01*
G02X-235205Y137283I-1001J-979D01*
G01X-235158Y137313D01*
X-235097Y137409D01*
X-235039Y137908D01*
X-235075Y138015D01*
X-235115Y138055D01*
G02X-233028Y139918I1001J979D01*
G01X-232992Y139874D01*
X-232888Y139826D01*
X-232384Y139830D01*
X-232282Y139880D01*
X-232246Y139926D01*
G02X-232230Y138178I1102J-863D01*
G01X-232266Y138222D01*
X-232369Y138271D01*
X-232874Y138266D01*
X-232976Y138216D01*
X-233011Y138171D01*
G02X-233366Y137850I-1102J864D01*
G01X-233414Y137820D01*
X-233474Y137724D01*
X-233533Y137226D01*
X-233497Y137118D01*
G37*
G36*
G01X-50457Y135092D02*
G02X-51826Y134220I-72J-1398D01*
G03X-52264Y134908I-463J188D01*
G02X-50894Y135780I72J1398D01*
G03X-50457Y135092I463J-188D01*
G37*
G36*
G01X-50441Y100069D02*
G02X-51842Y98947I-29J-1400D01*
G03X-52322Y99546I-490J99D01*
G02X-50921Y100668I29J1400D01*
G03X-50441Y100069I490J-99D01*
G37*
G36*
G01X-270603Y76574D02*
G02X-271318Y74711I3162J-2283D01*
G03X-272085Y75185I-497J54D01*
G02X-271491Y76734I-756J1179D01*
G03X-270603Y76574I482J132D01*
G37*
G36*
G01X-103633Y25141D02*
X-103620Y25073D01*
G02X-104642Y27008I-3821J-782D01*
G01X-104594Y26958D01*
X-104461Y26923D01*
X-103905Y27079D01*
X-103810Y27179D01*
X-103795Y27247D01*
G02X-101066Y27261I1366J-307D01*
G01X-101050Y27194D01*
X-100956Y27096D01*
X-100402Y26941D01*
X-100270Y26976D01*
X-100223Y27025D01*
G02X-101263Y25065I2782J-2733D01*
G01X-101250Y25132D01*
X-101294Y25261D01*
X-101733Y25632D01*
X-101867Y25656D01*
X-101931Y25631D01*
G02X-102945Y25638I-498J1309D01*
G01X-103009Y25664D01*
X-103145Y25642D01*
X-103588Y25271D01*
X-103633Y25141D01*
G37*
G54D17*
X-293433Y345506D03*
G54D18*
Y390506D03*
G54D21*
X-312671Y186379D03*
Y206379D03*
Y196379D03*
Y226379D03*
Y216379D03*
X-291466Y116719D03*
X-283043Y261780D03*
Y251780D03*
X-238849Y379056D03*
X-221793Y98229D03*
X-226793D03*
X-235894Y357969D03*
X-235843Y372778D03*
X-224061Y367495D03*
X-211793Y98229D03*
X-196793D03*
X-192508Y98493D03*
X-185797Y98814D03*
X-181417Y219731D03*
X-181620Y246633D03*
X-190282Y245820D03*
X-162464Y355948D03*
X-159595Y77487D03*
X-155302Y77462D03*
X-155251Y81704D03*
X-159544Y81729D03*
X-161276Y289942D03*
X-149724Y321363D03*
X-148179Y355948D03*
X-114195Y291373D03*
X-88372Y64925D03*
X-88321Y69167D03*
X-84079Y64900D03*
X-84028Y69142D03*
X-94025Y330686D03*
X-98853Y329771D03*
X-93872Y326214D03*
G54D25*
X-71798Y370321D03*
X-77966Y372280D03*
X-52170Y349264D03*
X-64108Y354967D03*
X-62352Y349127D03*
X-56444Y354967D03*
X-66680Y362644D03*
X-61562Y365203D03*
X-66680Y370321D03*
X-46631Y369529D03*
X-49797Y367798D03*
G54D22*
X-312724Y353104D03*
Y392908D03*
X-306741Y343104D03*
Y382908D03*
X-268472Y355506D03*
X-258473Y350506D03*
Y360506D03*
X-268472Y375506D03*
Y365506D03*
X-258473Y370506D03*
Y380506D03*
X-268472Y385506D03*
G54D20*
X-311585Y146793D03*
X-292854Y27004D03*
X-302784Y118698D03*
X-292383Y106387D03*
X-302785Y134806D03*
X-299541Y137451D03*
X-304209Y142009D03*
X-303812Y146736D03*
X-304209Y171691D03*
X-304565Y161757D03*
X-299895Y186314D03*
X-304318Y213671D03*
X-301990Y220927D03*
X-301988Y241883D03*
X-293868Y287814D03*
X-299483Y319458D03*
X-294436Y308607D03*
X-285722Y41710D03*
X-290758Y46140D03*
X-291772Y61084D03*
X-285722Y51642D03*
X-290834Y78749D03*
X-288526Y75082D03*
X-290815Y68543D03*
X-276966Y85358D03*
X-282635Y140544D03*
Y169197D03*
X-291402Y177129D03*
X-279524Y184335D03*
X-281928Y208468D03*
X-279039Y204416D03*
X-277571Y194401D03*
X-281544Y223890D03*
X-273920Y272194D03*
X-285418Y268202D03*
X-277008Y303522D03*
X-275005Y323853D03*
X-289777Y335689D03*
X-286500Y355026D03*
X-287106Y382617D03*
X-257865Y31393D03*
X-269593Y27950D03*
X-257984Y35429D03*
X-272771Y56723D03*
X-272940Y46783D03*
X-272469Y67303D03*
X-258063Y179804D03*
X-258290Y187175D03*
X-255497Y208254D03*
X-271529Y205832D03*
X-262327Y219527D03*
X-261072Y271991D03*
X-257827Y300594D03*
X-266011Y307371D03*
X-248169Y40653D03*
X-243464Y37606D03*
X-238660Y79333D03*
X-247557Y64795D03*
X-239225Y87710D03*
X-252918Y87472D03*
X-252939Y97664D03*
X-247818Y123209D03*
X-245723Y131948D03*
X-254494Y129311D03*
X-236310Y147933D03*
X-244965Y158334D03*
X-236292Y208169D03*
X-240922Y204226D03*
X-237112Y218638D03*
X-253601Y242422D03*
X-250158Y242509D03*
X-254462Y263614D03*
X-246189Y249455D03*
X-248210Y324504D03*
X-242209Y394719D03*
X-221041Y9184D03*
X-227312Y42078D03*
X-227441Y38754D03*
X-228860Y53512D03*
X-224603Y67508D03*
X-221297Y68524D03*
X-231172Y133032D03*
X-220887Y145850D03*
X-223467Y139062D03*
X-218482Y139689D03*
X-228564Y145850D03*
X-228170Y152128D03*
X-222089Y153099D03*
X-228906Y202217D03*
X-224250Y197297D03*
X-223455Y207730D03*
X-227730Y214573D03*
X-227756Y219794D03*
X-232709Y222901D03*
X-222081D03*
X-218224Y215927D03*
X-225827Y266710D03*
X-230440Y276116D03*
X-225798Y270985D03*
X-229814Y270441D03*
X-219703Y299112D03*
X-220465Y290272D03*
X-219677Y305819D03*
X-228010Y339972D03*
X-220198Y340010D03*
X-224285Y324556D03*
X-233101Y336250D03*
X-220871Y351201D03*
X-227530Y345261D03*
X-224531Y376392D03*
X-231358Y377737D03*
X-234127Y388572D03*
X-225436Y384872D03*
X-207440Y36652D03*
X-202617Y34717D03*
X-215530Y45041D03*
X-205016Y54185D03*
X-200103Y60909D03*
X-200074Y56724D03*
X-211693Y68970D03*
X-205408Y132991D03*
X-205501Y151958D03*
X-210706Y139059D03*
X-205598Y143374D03*
X-205520Y139073D03*
X-206134Y156392D03*
X-203935Y183811D03*
X-207103Y197996D03*
X-212501Y193804D03*
X-216671Y201488D03*
X-206376Y216135D03*
X-206500Y231328D03*
X-216914Y230405D03*
X-207115Y256930D03*
X-201908Y264539D03*
X-206876Y260872D03*
X-216845Y255406D03*
X-211939Y267004D03*
X-201908Y268032D03*
X-211980Y282880D03*
X-214851Y287338D03*
X-206595Y297131D03*
X-206747Y306149D03*
X-206438Y328249D03*
X-215311Y329208D03*
Y339410D03*
X-206290Y334067D03*
X-213367Y359772D03*
X-217061Y356017D03*
X-209689D03*
X-215541Y348015D03*
X-217032Y363532D03*
X-209718Y363475D03*
X-203595Y381130D03*
X-207052Y397777D03*
X-183296Y61233D03*
X-197802Y133007D03*
X-196996Y155348D03*
X-195828Y159115D03*
X-187954Y163178D03*
X-197912Y178376D03*
X-195773Y192655D03*
X-180565Y182644D03*
X-193101Y183651D03*
X-191429Y193474D03*
X-196687Y221862D03*
X-192953Y216654D03*
X-197475Y231235D03*
X-183796Y236827D03*
X-185645Y266636D03*
X-183122Y254119D03*
X-194059Y268001D03*
X-192459Y277134D03*
X-194446Y285183D03*
X-197824Y279442D03*
X-193512Y296521D03*
X-193817Y305844D03*
X-193220Y335349D03*
X-188642Y335090D03*
X-183549Y366659D03*
X-172341Y31390D03*
X-162526Y33649D03*
X-173686Y44829D03*
X-175425Y172730D03*
X-175545Y166928D03*
X-179617Y192725D03*
X-164611Y175517D03*
X-177314Y183829D03*
X-176060Y204181D03*
X-178114Y214218D03*
X-166176Y248366D03*
X-177989Y265185D03*
X-171226Y255243D03*
X-170712Y277407D03*
X-172431Y267969D03*
X-163452Y268070D03*
X-164243Y283791D03*
X-175498Y297604D03*
X-177965Y335108D03*
X-179274Y357447D03*
X-164071Y366896D03*
X-157341Y43028D03*
X-152809Y47156D03*
X-146387Y100003D03*
X-144914Y85771D03*
X-148190Y154597D03*
X-155760Y155283D03*
X-147120Y143795D03*
X-156652Y183616D03*
X-150274Y202043D03*
X-152328Y197282D03*
X-148132Y209122D03*
X-155979Y200095D03*
X-149565Y227933D03*
X-151400Y244500D03*
X-150900Y238000D03*
X-154700Y248500D03*
X-159800Y259500D03*
X-143926Y256130D03*
X-144858Y266631D03*
X-159870Y267427D03*
X-154767Y267672D03*
X-146364Y282524D03*
X-144535Y285815D03*
X-146809Y277215D03*
X-158670Y328882D03*
X-161316Y340905D03*
X-150057Y345091D03*
X-158631Y383632D03*
X-132290Y40653D03*
X-137114Y53849D03*
X-135099Y57315D03*
X-137720Y83916D03*
X-137470Y111336D03*
X-139807Y116577D03*
X-130966Y148145D03*
X-136984Y144310D03*
X-131500Y159574D03*
X-133303Y171132D03*
X-131500Y164669D03*
X-136051Y192745D03*
X-135073Y183795D03*
X-141549Y194342D03*
X-126575Y193461D03*
X-132105Y198421D03*
X-132162Y204937D03*
X-139933Y215775D03*
X-132517Y215580D03*
X-132342Y219220D03*
X-133917Y242540D03*
X-132037Y262859D03*
X-133376Y250234D03*
X-125555Y267280D03*
X-137700Y257800D03*
X-140749Y276990D03*
X-134301Y346275D03*
X-137401Y348283D03*
X-132962Y378831D03*
X-128406Y362729D03*
X-115514Y42470D03*
X-110325Y31390D03*
X-120792Y42079D03*
X-110441Y45174D03*
X-118754Y54996D03*
X-115078Y59528D03*
X-110681Y62104D03*
X-124480Y95269D03*
X-116501Y108023D03*
X-118795Y125030D03*
Y157392D03*
X-123603Y167880D03*
X-116378Y163027D03*
X-119208Y160720D03*
X-124010Y185866D03*
X-111081Y180750D03*
X-122857Y209657D03*
X-112858Y197145D03*
X-118421Y225139D03*
X-120500Y247120D03*
X-122600Y242718D03*
X-117236Y236808D03*
X-112699Y257215D03*
X-112916Y262102D03*
X-120223Y330470D03*
X-114303Y325985D03*
X-114473Y330692D03*
X-108941Y330711D03*
X-120045Y335641D03*
X-120071Y325960D03*
X-109043Y326239D03*
X-108865Y335794D03*
X-114531Y335590D03*
X-118665Y358917D03*
X-112854Y372385D03*
X-112549Y366947D03*
X-112422Y361153D03*
X-106447Y384431D03*
X-112773Y381891D03*
X-100068Y44260D03*
X-91748Y99546D03*
X-91045Y107891D03*
X-101600Y128763D03*
X-89661Y141667D03*
X-87984Y174477D03*
X-104856Y168287D03*
X-91743Y168823D03*
X-93725Y165495D03*
X-92380Y184167D03*
X-90245Y180788D03*
X-91115Y240787D03*
X-95017Y286967D03*
X-98804Y291345D03*
X-103808Y358701D03*
X-95359Y357088D03*
X-103147Y349566D03*
X-105075Y369722D03*
X-97555Y369391D03*
X-94923Y364487D03*
X-93615Y375867D03*
X-91852Y379007D03*
X-99232Y383796D03*
X-99572Y397777D03*
X-70353Y39545D03*
X-72529Y109355D03*
X-70273Y119173D03*
X-87291Y128672D03*
X-69496Y162048D03*
X-70930Y170966D03*
X-83971Y186986D03*
X-71209Y219600D03*
X-87571Y309690D03*
X-63268Y44526D03*
X-66830Y39387D03*
X-62372Y57990D03*
X-63965Y49492D03*
X-58466Y53774D03*
X-55855Y67845D03*
X-51228Y75075D03*
X-53874Y94731D03*
X-58662Y111317D03*
X-64020Y103144D03*
X-60740Y106109D03*
X-68156Y121963D03*
X-65168Y144185D03*
X-54554Y157519D03*
X-58400Y208576D03*
X-52014Y200803D03*
X-67151Y193576D03*
X-52147Y226623D03*
X-65034Y214627D03*
X-66909Y248509D03*
X-60908Y244072D03*
X-65030Y237427D03*
X-67092Y257548D03*
X-62877Y255193D03*
X-67081Y268162D03*
X-57542Y278467D03*
X-66805Y377840D03*
X-60217Y381965D03*
X-45300Y40000D03*
X-38121Y37228D03*
X-40751Y56980D03*
X-44731Y66474D03*
X-44447Y78594D03*
X-44350Y74597D03*
X-44395Y94711D03*
X-44261Y86627D03*
X-48657Y91724D03*
X-44370Y90636D03*
X-44194Y82602D03*
X-44316Y98659D03*
X-47996Y130489D03*
X-37662Y138130D03*
X-45108Y168896D03*
X-35604Y177333D03*
X-32795Y204381D03*
X-39606Y212094D03*
X-44316Y229112D03*
X-49302Y219218D03*
X-37239Y220275D03*
X-38098Y243838D03*
X-36698Y233486D03*
X-33433Y241935D03*
X-49540Y239248D03*
X-38181Y262063D03*
X-38023Y252621D03*
X-45083Y268138D03*
X-46977Y280314D03*
X-47461Y284535D03*
X-49540Y273411D03*
X-37425Y270157D03*
X-49676Y309773D03*
X-47472Y349484D03*
X-47264Y373922D03*
X-39804Y360407D03*
X-38740Y385185D03*
X-42016Y381960D03*
X-29818Y35754D03*
X-21348Y52462D03*
X-16857Y45889D03*
X-24811Y44905D03*
X-29289Y54042D03*
X-17580Y52261D03*
X-30220Y186123D03*
X-16843Y187441D03*
X-22628Y255312D03*
X-58459Y20717D03*
X-62662Y13532D03*
X-51831Y318717D03*
X-47156Y327609D03*
X-29282Y20543D03*
X-17065Y316857D03*
X-27276Y340961D03*
X-11267Y107607D03*
X-6973Y135599D03*
X-7176Y157981D03*
X-10513Y333815D03*
G54D23*
X-302032Y126790D03*
Y256790D03*
G54D19*
X-316179Y21682D03*
Y11683D03*
Y41682D03*
Y31682D03*
Y61683D03*
Y51683D03*
Y81682D03*
Y71682D03*
Y101683D03*
Y91683D03*
X-306179Y21682D03*
Y11683D03*
Y41682D03*
Y31682D03*
Y61683D03*
Y51683D03*
Y81682D03*
Y71682D03*
Y101683D03*
Y91683D03*
X-267440Y34291D03*
Y44291D03*
Y54291D03*
Y64291D03*
Y94291D03*
Y84291D03*
Y104291D03*
Y124291D03*
Y134291D03*
Y144291D03*
Y154291D03*
Y174291D03*
Y164291D03*
Y184291D03*
Y194291D03*
Y214291D03*
Y224291D03*
Y264291D03*
Y254291D03*
Y274291D03*
Y284291D03*
X-247441Y14291D03*
Y24291D03*
X-237441Y14291D03*
Y24291D03*
X-227441Y14291D03*
Y24291D03*
X-217440Y14291D03*
Y24291D03*
X-207440Y14291D03*
Y24291D03*
X-197440Y14291D03*
Y24291D03*
X-187440Y14291D03*
Y24291D03*
X-177440Y14291D03*
Y24291D03*
X-167440Y14291D03*
Y24291D03*
X-177441Y133779D03*
X-167441D03*
X-177441Y143779D03*
X-167441D03*
X-157440Y14291D03*
Y24291D03*
X-147440Y14291D03*
Y24291D03*
X-157441Y133779D03*
Y143779D03*
X-137440Y14291D03*
Y24291D03*
X-127440Y14291D03*
Y24291D03*
X-139543Y299272D03*
X-129543D03*
X-117440Y14291D03*
Y24291D03*
X-107440Y14291D03*
X-110295Y231679D03*
Y241679D03*
X-105891Y299280D03*
X-97440Y14291D03*
X-95891Y299280D03*
X-77441Y64291D03*
Y54291D03*
Y74291D03*
Y94291D03*
Y84291D03*
Y114291D03*
Y104291D03*
Y124291D03*
Y154291D03*
Y144291D03*
Y164291D03*
Y174291D03*
Y194291D03*
Y184291D03*
Y204291D03*
Y230314D03*
Y240314D03*
Y260314D03*
Y280314D03*
Y270314D03*
Y300314D03*
Y290314D03*
X-27441Y70275D03*
Y80275D03*
Y90275D03*
Y100275D03*
Y110275D03*
Y120275D03*
Y130275D03*
Y140275D03*
Y150275D03*
Y160275D03*
Y210275D03*
Y220275D03*
Y230275D03*
Y240275D03*
Y250275D03*
Y260275D03*
Y270275D03*
Y280275D03*
Y290275D03*
X-17441Y350275D03*
Y360275D03*
X-77440Y14291D03*
Y24291D03*
X-77441Y320314D03*
X-17441Y300275D03*
X-27441Y350275D03*
G54D24*
X-281426Y337396D03*
%LPD*%
G75*
G36*
G01X-165963Y307639D02*
Y319759D01*
X-165797Y319925D01*
X-161834D01*
X-161668Y319759D01*
X-157387Y315478D01*
Y308223D01*
X-159445Y306165D01*
X-164489D01*
X-165963Y307639D01*
G37*
G54D10*
X-316179Y11683D03*
X-306179D03*
X-267440Y244291D03*
Y254291D03*
Y274291D03*
X-110295Y241679D03*
X-95891Y299280D03*
X-77440Y14291D03*
Y24291D03*
X-17441Y70275D03*
Y210275D03*
Y350275D03*
X-27441D03*
G54D11*
X-304241Y247915D03*
X-303969Y264737D03*
X-245926Y369402D03*
X-234169Y98163D03*
X-161550Y307937D03*
X-161626Y311722D03*
X-161677Y315406D03*
X-150779Y336467D03*
X-99206Y316549D03*
X-94989Y316651D03*
X-91051Y316574D03*
X-91026Y320969D03*
X-94964Y321046D03*
X-102334Y338640D03*
X-92233Y341320D03*
X-91065Y337877D03*
X-99323Y342388D03*
X-95499Y342261D03*
G54D12*
X-237950Y53385D03*
X-237990Y57430D03*
X-238033Y61457D03*
X-236241Y336839D03*
X-231654Y152149D03*
X-220908Y139062D03*
X-223446Y145850D03*
X-228585Y139062D03*
X-231123Y145850D03*
X-221463Y371326D03*
X-236098Y386471D03*
X-236078Y390781D03*
X-207271Y63782D03*
X-214998Y154656D03*
X-215769Y145850D03*
X-203318Y334676D03*
X-201616Y325887D03*
X-197032Y152423D03*
X-196977Y335182D03*
X-185168Y325887D03*
X-196672D03*
X-191659D03*
X-196272Y347981D03*
X-186979Y369149D03*
X-126446Y325717D03*
X-135485Y325695D03*
X-117300Y200831D03*
X-109854Y195948D03*
X-122618Y218704D03*
X-122341Y230982D03*
X-123069Y328323D03*
X-89331Y382589D03*
X-46659Y311576D03*
X-47492Y339906D03*
X-47403Y351878D03*
G54D13*
X-71798Y362644D03*
X-74357D03*
X-66680Y354967D03*
X-68052Y349009D03*
X-61562Y372880D03*
X-66680Y365203D03*
X-64121Y362644D03*
X-53885Y365203D03*
G54D14*
G01X-224357Y-123985D02*
X-228557D01*
X-228561Y-119085D01*
G01X27143Y-123985D02*
X-224457D01*
G01X-228561Y-109085D02*
X-57757Y-108885D01*
G01X-228561Y-119085D02*
X-228557Y-74285D01*
X28039Y-74385D01*
G01X-217294Y-87885D02*
X-218627D01*
Y-84885D01*
X-217294D01*
G01X-217827Y-86335D02*
X-218627D01*
G01X-216461Y-87885D02*
Y-85885D01*
G01Y-86435D02*
X-216361Y-86185D01*
X-216194Y-85985D01*
X-215961Y-85885D01*
X-215727Y-85985D01*
X-215561Y-86185D01*
X-215461Y-86435D01*
Y-87885D01*
G01Y-86435D02*
X-215361Y-86185D01*
X-215194Y-85985D01*
X-214961Y-85885D01*
X-214727Y-85985D01*
X-214561Y-86185D01*
X-214461Y-86485D01*
Y-87885D01*
G01X-213561D02*
Y-84885D01*
G01Y-86385D02*
X-213394Y-86085D01*
X-213194Y-85935D01*
X-212994Y-85885D01*
X-212694Y-85985D01*
X-212494Y-86185D01*
X-212361Y-86535D01*
Y-86935D01*
X-212427Y-87335D01*
X-212561Y-87635D01*
X-212794Y-87835D01*
X-212994Y-87885D01*
X-213194Y-87835D01*
X-213394Y-87685D01*
X-213561Y-87435D01*
G01X-210961Y-86535D02*
X-209894D01*
X-209994Y-86185D01*
X-210161Y-85985D01*
X-210394Y-85885D01*
X-210627Y-85935D01*
X-210827Y-86085D01*
X-210961Y-86435D01*
X-211027Y-86735D01*
Y-87035D01*
X-210961Y-87335D01*
X-210794Y-87635D01*
X-210594Y-87835D01*
X-210361Y-87885D01*
X-210127Y-87785D01*
X-209894Y-87485D01*
G01X-208461Y-87535D02*
X-208294Y-87735D01*
X-208061Y-87885D01*
X-207861D01*
X-207661Y-87785D01*
X-207527Y-87635D01*
X-207461Y-87435D01*
X-207494Y-87135D01*
X-207627Y-86985D01*
X-208227Y-86685D01*
X-208361Y-86335D01*
X-208294Y-86085D01*
X-208161Y-85935D01*
X-207961Y-85885D01*
X-207761Y-85935D01*
X-207561Y-86085D01*
G01X-205461Y-84885D02*
Y-87885D01*
G01X-205927Y-85885D02*
X-204994D01*
G01X-228561Y-94085D02*
X40043D01*
G01X-210627Y-118385D02*
Y-115385D01*
X-209827D01*
X-209561Y-115535D01*
X-209361Y-115885D01*
X-209294Y-116285D01*
X-209361Y-116685D01*
X-209527Y-116985D01*
X-209827Y-117135D01*
X-210627D01*
G01X-206727Y-115635D02*
X-206927Y-115485D01*
X-207161Y-115385D01*
X-207427D01*
X-207727Y-115535D01*
X-207961Y-115785D01*
X-208127Y-116085D01*
X-208261Y-116585D01*
X-208294Y-117035D01*
X-208227Y-117485D01*
X-208127Y-117785D01*
X-207927Y-118085D01*
X-207694Y-118285D01*
X-207461Y-118385D01*
X-207227D01*
X-206994Y-118285D01*
X-206794Y-118135D01*
X-206627Y-117935D01*
G01X-204694Y-116785D02*
X-204561Y-116635D01*
X-204461Y-116385D01*
X-204394Y-116035D01*
X-204461Y-115735D01*
X-204594Y-115535D01*
X-204827Y-115385D01*
X-205727D01*
Y-118385D01*
X-204627D01*
X-204394Y-118185D01*
X-204261Y-117885D01*
X-204194Y-117535D01*
X-204261Y-117185D01*
X-204461Y-116885D01*
X-204694Y-116785D01*
X-205727D01*
G01X-203461Y-115385D02*
X-201461Y-119385D01*
G01X-200627Y-118385D02*
Y-115385D01*
X-199794D01*
X-199527Y-115535D01*
X-199361Y-115735D01*
X-199294Y-116135D01*
X-199361Y-116535D01*
X-199561Y-116785D01*
X-199794Y-116935D01*
X-200627D01*
G01X-199794D02*
X-199294Y-118385D01*
G01X-196794D02*
X-198127D01*
Y-115385D01*
X-196794D01*
G01X-197327Y-116835D02*
X-198127D01*
G01X-195794Y-115385D02*
X-194961Y-118385D01*
X-194127Y-115385D01*
G01X-210627Y-103719D02*
Y-100719D01*
X-209827D01*
X-209561Y-100869D01*
X-209361Y-101219D01*
X-209294Y-101619D01*
X-209361Y-102019D01*
X-209527Y-102319D01*
X-209827Y-102469D01*
X-210627D01*
G01X-208127Y-103719D02*
Y-100719D01*
X-207294D01*
X-207027Y-100869D01*
X-206861Y-101069D01*
X-206794Y-101469D01*
X-206861Y-101869D01*
X-207061Y-102119D01*
X-207294Y-102269D01*
X-208127D01*
G01X-207294D02*
X-206794Y-103719D01*
G01X-204961D02*
X-205227Y-103669D01*
X-205461Y-103469D01*
X-205661Y-103169D01*
X-205794Y-102819D01*
X-205861Y-102419D01*
Y-102019D01*
X-205794Y-101619D01*
X-205661Y-101269D01*
X-205461Y-100969D01*
X-205227Y-100769D01*
X-204961Y-100719D01*
X-204694Y-100769D01*
X-204461Y-100969D01*
X-204261Y-101269D01*
X-204127Y-101619D01*
X-204061Y-102019D01*
Y-102419D01*
X-204127Y-102819D01*
X-204261Y-103169D01*
X-204461Y-103469D01*
X-204694Y-103669D01*
X-204961Y-103719D01*
G01X-203127Y-103119D02*
X-202961Y-103419D01*
X-202761Y-103619D01*
X-202527Y-103719D01*
X-202261Y-103619D01*
X-202061Y-103419D01*
X-201861Y-103119D01*
X-201794Y-102719D01*
Y-100719D01*
G01X-199294Y-103719D02*
X-200627D01*
Y-100719D01*
X-199294D01*
G01X-199827Y-102169D02*
X-200627D01*
G01X-196727Y-100969D02*
X-196927Y-100819D01*
X-197161Y-100719D01*
X-197427D01*
X-197727Y-100869D01*
X-197961Y-101119D01*
X-198127Y-101419D01*
X-198261Y-101919D01*
X-198294Y-102369D01*
X-198227Y-102819D01*
X-198127Y-103119D01*
X-197927Y-103419D01*
X-197694Y-103619D01*
X-197461Y-103719D01*
X-197227D01*
X-196994Y-103619D01*
X-196794Y-103469D01*
X-196627Y-103269D01*
G01X-194961Y-100719D02*
Y-103719D01*
G01X-195727Y-100719D02*
X-194194D01*
G01X-167061Y-94085D02*
X-167057Y-123985D01*
G01X-156336Y-103768D02*
X-156070Y-104018D01*
X-155770Y-104168D01*
X-155503D01*
X-155236Y-104018D01*
X-155036Y-103768D01*
X-154936Y-103418D01*
X-155003Y-103068D01*
X-155170Y-102768D01*
X-155470Y-102568D01*
X-155870Y-102468D01*
X-156103Y-102268D01*
X-156203Y-101918D01*
X-156136Y-101568D01*
X-155970Y-101318D01*
X-155736Y-101168D01*
X-155503D01*
X-155270Y-101268D01*
X-155070Y-101518D01*
G01X-153970Y-104168D02*
X-153136Y-101168D01*
X-152303Y-104168D01*
G01X-152603Y-103118D02*
X-153670D01*
G01X-151503Y-104168D02*
Y-101168D01*
X-150636Y-103668D01*
X-149770Y-101168D01*
Y-104168D01*
G01X-147470D02*
X-148803D01*
Y-101168D01*
X-147470D01*
G01X-148003Y-102618D02*
X-148803D01*
G01X-145703Y-104168D02*
X-145636Y-103518D01*
X-145536Y-102968D01*
X-145403Y-102468D01*
X-145236Y-101918D01*
X-144970Y-101168D01*
X-146303D01*
G01X-143136D02*
X-143403Y-101268D01*
X-143603Y-101518D01*
X-143736Y-101818D01*
X-143836Y-102218D01*
X-143870Y-102668D01*
X-143836Y-103118D01*
X-143736Y-103518D01*
X-143603Y-103818D01*
X-143403Y-104068D01*
X-143136Y-104168D01*
X-142870Y-104068D01*
X-142670Y-103818D01*
X-142536Y-103518D01*
X-142436Y-103118D01*
X-142403Y-102668D01*
X-142436Y-102218D01*
X-142536Y-101818D01*
X-142670Y-101518D01*
X-142870Y-101268D01*
X-143136Y-101168D01*
G01X-141070Y-103168D02*
X-140203D01*
G01X-138836Y-104168D02*
X-137436Y-101168D01*
G01X-138836D02*
X-137436Y-104168D01*
G01X-136303D02*
Y-101168D01*
X-135503D01*
X-135236Y-101318D01*
X-135036Y-101668D01*
X-134970Y-102068D01*
X-135036Y-102468D01*
X-135203Y-102768D01*
X-135503Y-102918D01*
X-136303D01*
G01X-133803Y-101168D02*
Y-104168D01*
X-132470D01*
G01X-131370D02*
Y-101168D01*
X-130703D01*
X-130436Y-101318D01*
X-130236Y-101518D01*
X-130070Y-101818D01*
X-129937Y-102168D01*
X-129903Y-102668D01*
X-129937Y-103168D01*
X-130070Y-103518D01*
X-130236Y-103818D01*
X-130436Y-104018D01*
X-130703Y-104168D01*
X-131370D01*
G01X-155800Y-118600D02*
Y-115600D01*
X-156200Y-116200D01*
G01Y-118600D02*
X-155400D01*
G01X-154033Y-118150D02*
X-153833Y-118400D01*
X-153600Y-118550D01*
X-153300Y-118600D01*
X-153000Y-118500D01*
X-152767Y-118300D01*
X-152600Y-117950D01*
X-152567Y-117550D01*
X-152633Y-117150D01*
X-152800Y-116900D01*
X-153033Y-116700D01*
X-153267Y-116650D01*
X-153500Y-116700D01*
X-153800Y-116900D01*
X-153700Y-115600D01*
X-152800D01*
G01X-150800D02*
X-151067Y-115700D01*
X-151267Y-115950D01*
X-151400Y-116250D01*
X-151500Y-116650D01*
X-151533Y-117100D01*
X-151500Y-117550D01*
X-151400Y-117950D01*
X-151267Y-118250D01*
X-151067Y-118500D01*
X-150800Y-118600D01*
X-150533Y-118500D01*
X-150333Y-118250D01*
X-150200Y-117950D01*
X-150100Y-117550D01*
X-150067Y-117100D01*
X-150100Y-116650D01*
X-150200Y-116250D01*
X-150333Y-115950D01*
X-150533Y-115700D01*
X-150800Y-115600D01*
G01X-148933Y-117350D02*
X-148700Y-117000D01*
X-148500Y-116800D01*
X-148233Y-116700D01*
X-148000Y-116800D01*
X-147833Y-117000D01*
X-147700Y-117300D01*
X-147667Y-117650D01*
X-147700Y-117950D01*
X-147833Y-118250D01*
X-148033Y-118500D01*
X-148267Y-118600D01*
X-148533Y-118500D01*
X-148767Y-118200D01*
X-148900Y-117750D01*
X-148933Y-117250D01*
X-148867Y-116600D01*
X-148767Y-116250D01*
X-148600Y-115900D01*
X-148367Y-115650D01*
X-148133Y-115600D01*
X-147900Y-115700D01*
X-147733Y-115950D01*
G01X-145800Y-115600D02*
X-146067Y-115700D01*
X-146267Y-115950D01*
X-146400Y-116250D01*
X-146500Y-116650D01*
X-146533Y-117100D01*
X-146500Y-117550D01*
X-146400Y-117950D01*
X-146267Y-118250D01*
X-146067Y-118500D01*
X-145800Y-118600D01*
X-145533Y-118500D01*
X-145333Y-118250D01*
X-145200Y-117950D01*
X-145100Y-117550D01*
X-145067Y-117100D01*
X-145100Y-116650D01*
X-145200Y-116250D01*
X-145333Y-115950D01*
X-145533Y-115700D01*
X-145800Y-115600D01*
G01X-143300D02*
X-143567Y-115700D01*
X-143767Y-115950D01*
X-143900Y-116250D01*
X-144000Y-116650D01*
X-144033Y-117100D01*
X-144000Y-117550D01*
X-143900Y-117950D01*
X-143767Y-118250D01*
X-143567Y-118500D01*
X-143300Y-118600D01*
X-143033Y-118500D01*
X-142833Y-118250D01*
X-142700Y-117950D01*
X-142600Y-117550D01*
X-142567Y-117100D01*
X-142600Y-116650D01*
X-142700Y-116250D01*
X-142833Y-115950D01*
X-143033Y-115700D01*
X-143300Y-115600D01*
G01X-155127Y-85385D02*
Y-88385D01*
X-153794D01*
G01X-151361D02*
Y-86385D01*
G01Y-86735D02*
X-151494Y-86535D01*
X-151694Y-86435D01*
X-151927Y-86385D01*
X-152161Y-86485D01*
X-152361Y-86685D01*
X-152494Y-86985D01*
X-152561Y-87385D01*
X-152494Y-87785D01*
X-152361Y-88085D01*
X-152161Y-88285D01*
X-151927Y-88385D01*
X-151694Y-88335D01*
X-151494Y-88185D01*
X-151361Y-87985D01*
G01X-150161Y-89285D02*
X-149961Y-89385D01*
X-149694Y-89285D01*
X-149527Y-89085D01*
X-149394Y-88835D01*
X-149194Y-88035D01*
X-148761Y-86385D01*
G01X-149827D02*
X-149194Y-88035D01*
G01X-146961Y-88385D02*
X-147161Y-88335D01*
X-147361Y-88135D01*
X-147494Y-87785D01*
X-147561Y-87385D01*
X-147494Y-86985D01*
X-147361Y-86635D01*
X-147161Y-86435D01*
X-146961Y-86385D01*
X-146761Y-86435D01*
X-146561Y-86635D01*
X-146427Y-86985D01*
X-146394Y-87385D01*
X-146427Y-87785D01*
X-146561Y-88135D01*
X-146761Y-88335D01*
X-146961Y-88385D01*
G01X-145027Y-86385D02*
Y-87785D01*
X-144894Y-88135D01*
X-144694Y-88335D01*
X-144461Y-88385D01*
X-144227Y-88335D01*
X-144027Y-88135D01*
X-143894Y-87785D01*
G01Y-88385D02*
Y-86385D01*
G01X-141961Y-85385D02*
Y-88385D01*
G01X-142427Y-86385D02*
X-141494D01*
G01X-136227Y-85635D02*
X-136427Y-85485D01*
X-136661Y-85385D01*
X-136927D01*
X-137227Y-85535D01*
X-137461Y-85785D01*
X-137627Y-86085D01*
X-137761Y-86585D01*
X-137794Y-87035D01*
X-137727Y-87485D01*
X-137627Y-87785D01*
X-137427Y-88085D01*
X-137194Y-88285D01*
X-136961Y-88385D01*
X-136727D01*
X-136494Y-88285D01*
X-136294Y-88135D01*
X-136127Y-87935D01*
G01X-134961Y-87035D02*
X-133894D01*
X-133994Y-86685D01*
X-134161Y-86485D01*
X-134394Y-86385D01*
X-134627Y-86435D01*
X-134827Y-86585D01*
X-134961Y-86935D01*
X-135027Y-87235D01*
Y-87535D01*
X-134961Y-87835D01*
X-134794Y-88135D01*
X-134594Y-88335D01*
X-134361Y-88385D01*
X-134127Y-88285D01*
X-133894Y-87985D01*
G01X-132527Y-88385D02*
Y-86385D01*
G01Y-86885D02*
X-132394Y-86635D01*
X-132194Y-86435D01*
X-131927Y-86385D01*
X-131694Y-86435D01*
X-131494Y-86635D01*
X-131394Y-86985D01*
Y-88385D01*
G01X-129461Y-85385D02*
Y-88385D01*
G01X-129927Y-86385D02*
X-128994D01*
G01X-127461Y-87035D02*
X-126394D01*
X-126494Y-86685D01*
X-126661Y-86485D01*
X-126894Y-86385D01*
X-127127Y-86435D01*
X-127327Y-86585D01*
X-127461Y-86935D01*
X-127527Y-87235D01*
Y-87535D01*
X-127461Y-87835D01*
X-127294Y-88135D01*
X-127094Y-88335D01*
X-126861Y-88385D01*
X-126627Y-88285D01*
X-126394Y-87985D01*
G01X-124927Y-88385D02*
Y-86385D01*
G01Y-86785D02*
X-124761Y-86585D01*
X-124594Y-86435D01*
X-124361Y-86385D01*
X-124194Y-86435D01*
X-123994Y-86585D01*
G01X-57557Y-74385D02*
Y-124085D01*
G01X-54961Y-110485D02*
X-54694Y-110735D01*
X-54394Y-110885D01*
X-54127D01*
X-53861Y-110735D01*
X-53661Y-110485D01*
X-53561Y-110135D01*
X-53627Y-109785D01*
X-53794Y-109485D01*
X-54094Y-109285D01*
X-54494Y-109185D01*
X-54727Y-108985D01*
X-54827Y-108635D01*
X-54761Y-108285D01*
X-54594Y-108035D01*
X-54361Y-107885D01*
X-54127D01*
X-53894Y-107985D01*
X-53694Y-108235D01*
G01X-52461Y-110885D02*
Y-107885D01*
G01X-51061D02*
Y-110885D01*
G01Y-109385D02*
X-52461D01*
G01X-48594Y-110885D02*
X-49927D01*
Y-107885D01*
X-48594D01*
G01X-49127Y-109335D02*
X-49927D01*
G01X-46094Y-110885D02*
X-47427D01*
Y-107885D01*
X-46094D01*
G01X-46627Y-109335D02*
X-47427D01*
G01X-44261Y-107885D02*
Y-110885D01*
G01X-45027Y-107885D02*
X-43494D01*
G01X-54261Y-118385D02*
Y-121385D01*
G01X-55027Y-118385D02*
X-53494D01*
G01X-51761Y-121385D02*
X-52027Y-121335D01*
X-52261Y-121135D01*
X-52461Y-120835D01*
X-52594Y-120485D01*
X-52661Y-120085D01*
Y-119685D01*
X-52594Y-119285D01*
X-52461Y-118935D01*
X-52261Y-118635D01*
X-52027Y-118435D01*
X-51761Y-118385D01*
X-51494Y-118435D01*
X-51261Y-118635D01*
X-51061Y-118935D01*
X-50927Y-119285D01*
X-50861Y-119685D01*
Y-120085D01*
X-50927Y-120485D01*
X-51061Y-120835D01*
X-51261Y-121135D01*
X-51494Y-121335D01*
X-51761Y-121385D01*
G01X-49261Y-118385D02*
Y-121385D01*
G01X-50027Y-118385D02*
X-48494D01*
G01X-47594Y-121385D02*
X-46761Y-118385D01*
X-45927Y-121385D01*
G01X-46227Y-120335D02*
X-47294D01*
G01X-44927Y-118385D02*
Y-121385D01*
X-43594D01*
G01X-38861D02*
Y-118385D01*
X-40094Y-120535D01*
X-38427D01*
G01X-35094Y-121385D02*
X-34261Y-118385D01*
X-33427Y-121385D01*
G01X-33727Y-120335D02*
X-34794D01*
G01X-31761Y-121385D02*
Y-120035D01*
X-32427Y-118385D01*
G01X-31094D02*
X-31761Y-120035D01*
G01X-28594Y-121385D02*
X-29927D01*
Y-118385D01*
X-28594D01*
G01X-29127Y-119835D02*
X-29927D01*
G01X-27427Y-121385D02*
Y-118385D01*
X-26594D01*
X-26327Y-118535D01*
X-26161Y-118735D01*
X-26094Y-119135D01*
X-26161Y-119535D01*
X-26361Y-119785D01*
X-26594Y-119935D01*
X-27427D01*
G01X-26594D02*
X-26094Y-121385D01*
G01X-24961Y-120985D02*
X-24694Y-121235D01*
X-24394Y-121385D01*
X-24127D01*
X-23861Y-121235D01*
X-23661Y-120985D01*
X-23561Y-120635D01*
X-23627Y-120285D01*
X-23794Y-119985D01*
X-24094Y-119785D01*
X-24494Y-119685D01*
X-24727Y-119485D01*
X-24827Y-119135D01*
X-24761Y-118785D01*
X-24594Y-118535D01*
X-24361Y-118385D01*
X-24127D01*
X-23894Y-118485D01*
X-23694Y-118735D01*
G01X-57461Y-113885D02*
X40039D01*
G01X-53994Y-100885D02*
Y-97885D01*
X-53327D01*
X-53061Y-98035D01*
X-52861Y-98235D01*
X-52694Y-98535D01*
X-52561Y-98885D01*
X-52527Y-99385D01*
X-52561Y-99885D01*
X-52694Y-100235D01*
X-52861Y-100535D01*
X-53061Y-100735D01*
X-53327Y-100885D01*
X-53994D01*
G01X-51594D02*
X-50761Y-97885D01*
X-49927Y-100885D01*
G01X-50227Y-99835D02*
X-51294D01*
G01X-48261Y-97885D02*
Y-100885D01*
G01X-49027Y-97885D02*
X-47494D01*
G01X-45094Y-100885D02*
X-46427D01*
Y-97885D01*
X-45094D01*
G01X-45627Y-99335D02*
X-46427D01*
G01X-54023Y-85185D02*
Y-88185D01*
X-52690D01*
G01X-51690D02*
X-50857Y-85185D01*
X-50023Y-88185D01*
G01X-50323Y-87135D02*
X-51390D01*
G01X-48357Y-88185D02*
Y-86835D01*
X-49023Y-85185D01*
G01X-47690D02*
X-48357Y-86835D01*
G01X-45190Y-88185D02*
X-46523D01*
Y-85185D01*
X-45190D01*
G01X-45723Y-86635D02*
X-46523D01*
G01X-44023Y-88185D02*
Y-85185D01*
X-43190D01*
X-42923Y-85335D01*
X-42757Y-85535D01*
X-42690Y-85935D01*
X-42757Y-86335D01*
X-42957Y-86585D01*
X-43190Y-86735D01*
X-44023D01*
G01X-43190D02*
X-42690Y-88185D01*
G01X-57461Y-103885D02*
X40039D01*
G01X-24657Y-74285D02*
X-24561Y-94085D01*
X-24557Y-113785D01*
G01X-20594Y-98385D02*
X-20394Y-98085D01*
X-20161Y-97935D01*
X-19894Y-97885D01*
X-19561Y-97985D01*
X-19327Y-98235D01*
X-19261Y-98535D01*
X-19294Y-98835D01*
X-19427Y-99085D01*
X-20094Y-99585D01*
X-20394Y-99935D01*
X-20594Y-100435D01*
X-20661Y-100885D01*
X-19261D01*
G01X-17461Y-97885D02*
X-17727Y-97985D01*
X-17927Y-98235D01*
X-18061Y-98535D01*
X-18161Y-98935D01*
X-18194Y-99385D01*
X-18161Y-99835D01*
X-18061Y-100235D01*
X-17927Y-100535D01*
X-17727Y-100785D01*
X-17461Y-100885D01*
X-17194Y-100785D01*
X-16994Y-100535D01*
X-16861Y-100235D01*
X-16761Y-99835D01*
X-16727Y-99385D01*
X-16761Y-98935D01*
X-16861Y-98535D01*
X-16994Y-98235D01*
X-17194Y-97985D01*
X-17461Y-97885D01*
G01X-14961Y-100885D02*
Y-97885D01*
X-15361Y-98485D01*
G01Y-100885D02*
X-14561D01*
G01X-13194Y-100435D02*
X-12994Y-100685D01*
X-12761Y-100835D01*
X-12461Y-100885D01*
X-12161Y-100785D01*
X-11927Y-100585D01*
X-11761Y-100235D01*
X-11727Y-99835D01*
X-11794Y-99435D01*
X-11961Y-99185D01*
X-12194Y-98985D01*
X-12427Y-98935D01*
X-12661Y-98985D01*
X-12961Y-99185D01*
X-12861Y-97885D01*
X-11961D01*
G01X-10394Y-99885D02*
X-9527D01*
G01X-7461Y-100885D02*
Y-97885D01*
X-7861Y-98485D01*
G01Y-100885D02*
X-7061D01*
G01X-4961Y-97885D02*
X-5227Y-97985D01*
X-5427Y-98235D01*
X-5561Y-98535D01*
X-5661Y-98935D01*
X-5694Y-99385D01*
X-5661Y-99835D01*
X-5561Y-100235D01*
X-5427Y-100535D01*
X-5227Y-100785D01*
X-4961Y-100885D01*
X-4694Y-100785D01*
X-4494Y-100535D01*
X-4361Y-100235D01*
X-4261Y-99835D01*
X-4227Y-99385D01*
X-4261Y-98935D01*
X-4361Y-98535D01*
X-4494Y-98235D01*
X-4694Y-97985D01*
X-4961Y-97885D01*
G01X-2894Y-99885D02*
X-2027D01*
G01X39Y-100885D02*
Y-97885D01*
X-361Y-98485D01*
G01Y-100885D02*
X439D01*
G01X1806Y-100285D02*
X2006Y-100635D01*
X2273Y-100835D01*
X2573Y-100885D01*
X2839Y-100835D01*
X3106Y-100585D01*
X3273Y-100285D01*
X3306Y-99985D01*
X3239Y-99635D01*
X3006Y-99385D01*
X2773Y-99285D01*
X2473D01*
G01X2773D02*
X2973Y-99135D01*
X3139Y-98885D01*
X3206Y-98585D01*
X3139Y-98285D01*
X2973Y-98035D01*
X2673Y-97885D01*
X2373Y-97935D01*
X2073Y-98135D01*
G01X28039Y-74385D02*
X40039D01*
X40043Y-123985D01*
X26943D01*
G01X-328740Y0D02*
Y413385D01*
X0D01*
Y0D01*
X-328740D01*
G54D15*
G01X-319364Y8498D02*
X-316179Y11683D01*
G01D02*
X-312995Y14867D01*
G01X-319364D02*
X-316179Y11683D01*
G01D02*
X-312995Y8498D01*
G01X-309364D02*
X-306179Y11683D01*
G01D02*
X-302995Y14867D01*
G01X-309364D02*
X-306179Y11683D01*
G01D02*
X-302995Y8498D01*
G01X-270625Y251106D02*
X-267440Y254291D01*
G01D02*
X-264256Y257475D01*
G01X-270625D02*
X-267440Y254291D01*
G01D02*
X-264256Y251106D01*
G01X-270625Y271106D02*
X-267440Y274291D01*
G01D02*
X-264256Y277475D01*
G01X-270625D02*
X-267440Y274291D01*
G01D02*
X-264256Y271106D01*
G01X-113479Y238495D02*
X-110295Y241679D01*
G01D02*
X-107110Y244864D01*
G01X-113479D02*
X-110295Y241679D01*
G01D02*
X-107110Y238495D01*
G01X-99076Y296096D02*
X-95891Y299280D01*
G01D02*
X-92706Y302465D01*
G01X-99076D02*
X-95891Y299280D01*
G01D02*
X-92706Y296096D01*
G01X-80625Y21107D02*
X-77440Y24291D01*
G01D02*
X-74256Y27476D01*
G01X-80625D02*
X-77440Y24291D01*
G01D02*
X-74256Y21107D01*
G01X-80625Y11107D02*
X-77440Y14291D01*
G01D02*
X-74256Y17476D01*
G01X-80625D02*
X-77440Y14291D01*
G01D02*
X-74256Y11107D01*
G01X-16036Y75297D02*
Y71680D01*
X-17441Y70275D01*
G01X-15815Y64752D02*
Y68650D01*
X-17441Y70275D01*
G01X-20626Y67091D02*
X-17441Y70275D01*
G01X-20626Y73460D02*
X-17441Y70275D01*
G01X-15968Y215083D02*
Y211748D01*
X-17441Y210275D01*
G01X-15968Y205319D02*
Y208802D01*
X-17441Y210275D01*
G01X-20626Y207091D02*
X-17441Y210275D01*
G01X-20626Y213460D02*
X-17441Y210275D01*
G01X-30626Y347090D02*
X-27441Y350275D01*
G01D02*
X-24256Y353460D01*
G01X-30626D02*
X-27441Y350275D01*
G01D02*
X-24256Y347090D01*
G01X-20626D02*
X-17441Y350275D01*
G01D02*
X-14256Y353460D01*
G01X-20626D02*
X-17441Y350275D01*
G01D02*
X-14256Y347090D01*
G54D16*
G01X-161626Y311722D02*
X-165997Y316093D01*
X-224045D01*
X-242440Y297698D01*
Y263605D01*
X-261754Y244291D01*
X-267440D01*
M02*
