G04 ================== begin FILE IDENTIFICATION RECORD ==================*
G04 Layout Name:  E:/øÔ√¿¿º/new/SAME70-XPLD/gerber/SAME70-XPLD_150600-151013.brd*
G04 Film Name:    SOLDMASK-TOP*
G04 File Format:  Gerber RS274X*
G04 File Origin:  Cadence Allegro 16.6-S006*
G04 Origin Date:  Tue Oct 13 10:22:20 2015*
G04 *
G04 Layer:  PIN/SOLDERMASK_TOP*
G04 Layer:  PACKAGE GEOMETRY/SOLDERMASK_TOP*
G04 Layer:  BOARD GEOMETRY/SOLDERMASK_TOP*
G04 Layer:  BOARD GEOMETRY/OUTLINE*
G04 *
G04 Offset:    (0.000 0.000)*
G04 Mirror:    No*
G04 Mode:      Positive*
G04 Rotation:  0*
G04 FullContactRelief:  No*
G04 UndefLineWidth:     5.000*
G04 ================== end FILE IDENTIFICATION RECORD ====================*
%FSLAX55Y55*MOIN*%
%IR0*IPPOS*OFA0.00000B0.00000*MIA0B0*SFA1.00000B1.00000*%
%ADD48O,.038X.112*%
%ADD11R,.125X.05*%
%ADD17C,.12*%
%ADD12R,.08X.108*%
%ADD47R,.108X.08*%
%ADD41R,.102X.102*%
%ADD23C,.138*%
%ADD51R,.04X.02*%
%ADD22R,.02X.04*%
%ADD34O,.014X.042*%
%ADD30R,.04X.012*%
%ADD37R,.012X.06*%
%ADD35O,.042X.014*%
%ADD45R,.143X.123*%
%ADD38R,.06X.012*%
%ADD26R,.024X.022*%
%ADD27R,.035X.03*%
%ADD19R,.022X.024*%
%ADD29R,.03X.035*%
%ADD44R,.025X.05*%
%ADD36R,.042X.052*%
%ADD43R,.052X.042*%
%ADD14O,.06X.047*%
%ADD13R,.057X.02*%
%ADD50O,.047X.06*%
%ADD49R,.02X.057*%
%ADD42R,.028X.04*%
%ADD40C,.052*%
%ADD31C,.016*%
%ADD32R,.045X.075*%
%ADD24C,.035*%
%ADD10C,.062*%
%ADD20C,.072*%
%ADD46R,.058X.083*%
%ADD39R,.083X.058*%
%ADD21R,.04X.04*%
%ADD33R,.059X.049*%
%ADD16C,.059*%
%ADD15R,.079X.075*%
%ADD52R,.075X.079*%
%ADD25C,.087*%
%ADD18R,.062X.062*%
%ADD28R,.059X.059*%
%ADD53C,.005*%
G75*
%LPD*%
G75*
G54D10*
X-316179Y21682D03*
Y11683D03*
Y41682D03*
Y31682D03*
Y61683D03*
Y51683D03*
Y81682D03*
Y71682D03*
Y101683D03*
Y91683D03*
X-306179Y21682D03*
Y41682D03*
Y31682D03*
Y61683D03*
Y51683D03*
Y81682D03*
Y71682D03*
Y101683D03*
Y91683D03*
X-267440Y34291D03*
Y44291D03*
Y54291D03*
Y64291D03*
Y74291D03*
Y94291D03*
Y84291D03*
Y124291D03*
Y134291D03*
Y144291D03*
Y154291D03*
Y174291D03*
Y164291D03*
Y184291D03*
Y214291D03*
Y224291D03*
Y234291D03*
Y244291D03*
Y264291D03*
Y254291D03*
Y274291D03*
X-247441Y14291D03*
Y24291D03*
X-237441Y14291D03*
Y24291D03*
X-227441Y14291D03*
Y24291D03*
X-217440Y14291D03*
Y24291D03*
X-207440Y14291D03*
Y24291D03*
X-197440Y14291D03*
Y24291D03*
X-187440Y14291D03*
Y24291D03*
X-177440Y14291D03*
Y24291D03*
X-167440Y14291D03*
Y24291D03*
X-177441Y133779D03*
X-167441D03*
X-177441Y143779D03*
X-167441D03*
X-157440Y14291D03*
Y24291D03*
X-147440Y14291D03*
Y24291D03*
X-157441Y133779D03*
X-137440Y14291D03*
Y24291D03*
X-127440Y14291D03*
Y24291D03*
X-139543Y299272D03*
X-117440Y14291D03*
Y24291D03*
X-107440Y14291D03*
Y24291D03*
X-110295Y241679D03*
X-105891Y299280D03*
X-97440Y14291D03*
Y24291D03*
X-87440Y14291D03*
Y24291D03*
X-77440Y14291D03*
X-77441Y64291D03*
Y74291D03*
Y94291D03*
Y84291D03*
Y114291D03*
Y104291D03*
Y124291D03*
Y154291D03*
Y164291D03*
Y174291D03*
Y194291D03*
Y184291D03*
Y204291D03*
Y214291D03*
Y240314D03*
Y250314D03*
Y260314D03*
Y280314D03*
Y270314D03*
Y300314D03*
Y290314D03*
Y320314D03*
Y310314D03*
X-17441Y70275D03*
X-27441D03*
X-17441Y80275D03*
X-27441D03*
X-17441Y90275D03*
X-27441D03*
X-17441Y100275D03*
X-27441D03*
X-17441Y110275D03*
X-27441D03*
X-17441Y120275D03*
X-27441D03*
X-17441Y130275D03*
X-27441D03*
X-17441Y140275D03*
X-27441D03*
X-17441Y150275D03*
X-27441D03*
X-17441Y160275D03*
Y210275D03*
X-27441D03*
X-17441Y220275D03*
X-27441D03*
X-17441Y230275D03*
X-27441D03*
X-17441Y240275D03*
X-27441D03*
X-17441Y250275D03*
X-27441D03*
X-17441Y260275D03*
X-27441D03*
X-17441Y270275D03*
X-27441D03*
X-17441Y280275D03*
X-27441D03*
X-17441Y290275D03*
X-27441D03*
X-17441Y300275D03*
Y350275D03*
X-27441D03*
X-17441Y360275D03*
G54D20*
X-302032Y126790D03*
Y256790D03*
X-115940Y352535D03*
G54D11*
X-312662Y121790D03*
Y131790D03*
Y141790D03*
Y151790D03*
Y161790D03*
Y171790D03*
Y181790D03*
Y191790D03*
Y201790D03*
Y211790D03*
Y221790D03*
Y231790D03*
Y241790D03*
Y251790D03*
Y261790D03*
X-291402Y121790D03*
Y131790D03*
Y141790D03*
Y151790D03*
Y161790D03*
Y171790D03*
Y181790D03*
Y191790D03*
Y201790D03*
Y211790D03*
Y221790D03*
Y231790D03*
Y241790D03*
Y251790D03*
Y261790D03*
G54D21*
X-294443Y304011D03*
X-58339Y385645D03*
G54D30*
X-224894Y54360D03*
Y56329D03*
Y58297D03*
Y60266D03*
X-213870D03*
Y58297D03*
Y56329D03*
Y54360D03*
G54D12*
X-323030Y281855D03*
Y314728D03*
G54D31*
X-219633Y134790D03*
X-222192D03*
X-224751D03*
X-227310D03*
X-229869D03*
X-232428D03*
X-219633Y150144D03*
Y147585D03*
Y137349D03*
X-222192Y150144D03*
Y147585D03*
Y137349D03*
X-224751Y150144D03*
Y147585D03*
Y137349D03*
X-227310Y150144D03*
Y147585D03*
Y137349D03*
X-229869Y150144D03*
Y147585D03*
Y137349D03*
X-232428Y150144D03*
Y147585D03*
Y137349D03*
X-201719Y134790D03*
X-204278D03*
X-206837D03*
X-209396D03*
X-211955D03*
X-214514D03*
X-217074D03*
X-201719Y150144D03*
Y147585D03*
Y137349D03*
X-204278Y150144D03*
Y147585D03*
Y137349D03*
X-206837Y150144D03*
Y147585D03*
Y137349D03*
X-209396Y150144D03*
Y147585D03*
Y137349D03*
X-211955Y150144D03*
Y147585D03*
Y137349D03*
X-214514Y150144D03*
Y147585D03*
Y137349D03*
X-217074Y150144D03*
Y147585D03*
Y137349D03*
X-196601Y134790D03*
X-199160D03*
X-196601Y150144D03*
Y147585D03*
Y137349D03*
X-199160Y150144D03*
Y147585D03*
Y137349D03*
G54D40*
X-198618Y352535D03*
G54D13*
X-312499Y303410D03*
Y300851D03*
Y298292D03*
Y295732D03*
Y293173D03*
G54D22*
X-293655Y294956D03*
X-301214Y304011D03*
Y294956D03*
G54D32*
X-222189Y217464D03*
X-233213D03*
G54D50*
X-64089Y395865D03*
X-46569D03*
G54D14*
X-311219Y289532D03*
Y307051D03*
G54D23*
X-293434Y345506D03*
Y390506D03*
G54D41*
X-213367Y359772D03*
G54D15*
X-323030Y302820D03*
Y293764D03*
G54D33*
X-219963Y336098D03*
X-228626D03*
Y329012D03*
X-219963D03*
G54D24*
X-282707Y284247D03*
X-150776Y169415D03*
X-119158Y219521D03*
X-118202Y256951D03*
G54D42*
X-158979Y355948D03*
X-155239D03*
X-151499D03*
Y366185D03*
X-155239D03*
X-158979D03*
X-142937Y355948D03*
X-139197D03*
X-135457D03*
Y366185D03*
X-139197D03*
X-142937D03*
G54D51*
X-58339Y378873D03*
X-49284Y386432D03*
Y378873D03*
G54D25*
X-281426Y337396D03*
Y398616D03*
G54D52*
X-50801Y407676D03*
X-59857D03*
G54D16*
X-312724Y353104D03*
Y392908D03*
X-306741Y343104D03*
Y382908D03*
X-268472Y355506D03*
X-258473Y350506D03*
Y360506D03*
X-268472Y375506D03*
Y365506D03*
X-258473Y370506D03*
Y380506D03*
G54D43*
X-111019Y211024D03*
Y218024D03*
G54D34*
X-218288Y351898D03*
Y367646D03*
X-208446Y351898D03*
X-210414D03*
X-212383D03*
X-214351D03*
X-216320D03*
Y367646D03*
X-214351D03*
X-212383D03*
X-210414D03*
X-208446D03*
G54D53*
G01X-224357Y-123985D02*
X-228557D01*
X-228561Y-119085D01*
G01X27143Y-123985D02*
X-224457D01*
G01X-228561Y-109085D02*
X-57757Y-108885D01*
G01X-228561Y-119085D02*
X-228557Y-74285D01*
X28039Y-74385D01*
G01X-217294Y-87885D02*
X-218627D01*
Y-84885D01*
X-217294D01*
G01X-217827Y-86335D02*
X-218627D01*
G01X-216461Y-87885D02*
Y-85885D01*
G01Y-86435D02*
X-216361Y-86185D01*
X-216194Y-85985D01*
X-215961Y-85885D01*
X-215727Y-85985D01*
X-215561Y-86185D01*
X-215461Y-86435D01*
Y-87885D01*
G01Y-86435D02*
X-215361Y-86185D01*
X-215194Y-85985D01*
X-214961Y-85885D01*
X-214727Y-85985D01*
X-214561Y-86185D01*
X-214461Y-86485D01*
Y-87885D01*
G01X-213561D02*
Y-84885D01*
G01Y-86385D02*
X-213394Y-86085D01*
X-213194Y-85935D01*
X-212994Y-85885D01*
X-212694Y-85985D01*
X-212494Y-86185D01*
X-212361Y-86535D01*
Y-86935D01*
X-212427Y-87335D01*
X-212561Y-87635D01*
X-212794Y-87835D01*
X-212994Y-87885D01*
X-213194Y-87835D01*
X-213394Y-87685D01*
X-213561Y-87435D01*
G01X-210961Y-86535D02*
X-209894D01*
X-209994Y-86185D01*
X-210161Y-85985D01*
X-210394Y-85885D01*
X-210627Y-85935D01*
X-210827Y-86085D01*
X-210961Y-86435D01*
X-211027Y-86735D01*
Y-87035D01*
X-210961Y-87335D01*
X-210794Y-87635D01*
X-210594Y-87835D01*
X-210361Y-87885D01*
X-210127Y-87785D01*
X-209894Y-87485D01*
G01X-208461Y-87535D02*
X-208294Y-87735D01*
X-208061Y-87885D01*
X-207861D01*
X-207661Y-87785D01*
X-207527Y-87635D01*
X-207461Y-87435D01*
X-207494Y-87135D01*
X-207627Y-86985D01*
X-208227Y-86685D01*
X-208361Y-86335D01*
X-208294Y-86085D01*
X-208161Y-85935D01*
X-207961Y-85885D01*
X-207761Y-85935D01*
X-207561Y-86085D01*
G01X-205461Y-84885D02*
Y-87885D01*
G01X-205927Y-85885D02*
X-204994D01*
G01X-228561Y-94085D02*
X40043D01*
G01X-210627Y-118385D02*
Y-115385D01*
X-209827D01*
X-209561Y-115535D01*
X-209361Y-115885D01*
X-209294Y-116285D01*
X-209361Y-116685D01*
X-209527Y-116985D01*
X-209827Y-117135D01*
X-210627D01*
G01X-206727Y-115635D02*
X-206927Y-115485D01*
X-207161Y-115385D01*
X-207427D01*
X-207727Y-115535D01*
X-207961Y-115785D01*
X-208127Y-116085D01*
X-208261Y-116585D01*
X-208294Y-117035D01*
X-208227Y-117485D01*
X-208127Y-117785D01*
X-207927Y-118085D01*
X-207694Y-118285D01*
X-207461Y-118385D01*
X-207227D01*
X-206994Y-118285D01*
X-206794Y-118135D01*
X-206627Y-117935D01*
G01X-204694Y-116785D02*
X-204561Y-116635D01*
X-204461Y-116385D01*
X-204394Y-116035D01*
X-204461Y-115735D01*
X-204594Y-115535D01*
X-204827Y-115385D01*
X-205727D01*
Y-118385D01*
X-204627D01*
X-204394Y-118185D01*
X-204261Y-117885D01*
X-204194Y-117535D01*
X-204261Y-117185D01*
X-204461Y-116885D01*
X-204694Y-116785D01*
X-205727D01*
G01X-203461Y-115385D02*
X-201461Y-119385D01*
G01X-200627Y-118385D02*
Y-115385D01*
X-199794D01*
X-199527Y-115535D01*
X-199361Y-115735D01*
X-199294Y-116135D01*
X-199361Y-116535D01*
X-199561Y-116785D01*
X-199794Y-116935D01*
X-200627D01*
G01X-199794D02*
X-199294Y-118385D01*
G01X-196794D02*
X-198127D01*
Y-115385D01*
X-196794D01*
G01X-197327Y-116835D02*
X-198127D01*
G01X-195794Y-115385D02*
X-194961Y-118385D01*
X-194127Y-115385D01*
G01X-210627Y-103719D02*
Y-100719D01*
X-209827D01*
X-209561Y-100869D01*
X-209361Y-101219D01*
X-209294Y-101619D01*
X-209361Y-102019D01*
X-209527Y-102319D01*
X-209827Y-102469D01*
X-210627D01*
G01X-208127Y-103719D02*
Y-100719D01*
X-207294D01*
X-207027Y-100869D01*
X-206861Y-101069D01*
X-206794Y-101469D01*
X-206861Y-101869D01*
X-207061Y-102119D01*
X-207294Y-102269D01*
X-208127D01*
G01X-207294D02*
X-206794Y-103719D01*
G01X-204961D02*
X-205227Y-103669D01*
X-205461Y-103469D01*
X-205661Y-103169D01*
X-205794Y-102819D01*
X-205861Y-102419D01*
Y-102019D01*
X-205794Y-101619D01*
X-205661Y-101269D01*
X-205461Y-100969D01*
X-205227Y-100769D01*
X-204961Y-100719D01*
X-204694Y-100769D01*
X-204461Y-100969D01*
X-204261Y-101269D01*
X-204127Y-101619D01*
X-204061Y-102019D01*
Y-102419D01*
X-204127Y-102819D01*
X-204261Y-103169D01*
X-204461Y-103469D01*
X-204694Y-103669D01*
X-204961Y-103719D01*
G01X-203127Y-103119D02*
X-202961Y-103419D01*
X-202761Y-103619D01*
X-202527Y-103719D01*
X-202261Y-103619D01*
X-202061Y-103419D01*
X-201861Y-103119D01*
X-201794Y-102719D01*
Y-100719D01*
G01X-199294Y-103719D02*
X-200627D01*
Y-100719D01*
X-199294D01*
G01X-199827Y-102169D02*
X-200627D01*
G01X-196727Y-100969D02*
X-196927Y-100819D01*
X-197161Y-100719D01*
X-197427D01*
X-197727Y-100869D01*
X-197961Y-101119D01*
X-198127Y-101419D01*
X-198261Y-101919D01*
X-198294Y-102369D01*
X-198227Y-102819D01*
X-198127Y-103119D01*
X-197927Y-103419D01*
X-197694Y-103619D01*
X-197461Y-103719D01*
X-197227D01*
X-196994Y-103619D01*
X-196794Y-103469D01*
X-196627Y-103269D01*
G01X-194961Y-100719D02*
Y-103719D01*
G01X-195727Y-100719D02*
X-194194D01*
G01X-167061Y-94085D02*
X-167057Y-123985D01*
G01X-156336Y-103768D02*
X-156070Y-104018D01*
X-155770Y-104168D01*
X-155503D01*
X-155236Y-104018D01*
X-155036Y-103768D01*
X-154936Y-103418D01*
X-155003Y-103068D01*
X-155170Y-102768D01*
X-155470Y-102568D01*
X-155870Y-102468D01*
X-156103Y-102268D01*
X-156203Y-101918D01*
X-156136Y-101568D01*
X-155970Y-101318D01*
X-155736Y-101168D01*
X-155503D01*
X-155270Y-101268D01*
X-155070Y-101518D01*
G01X-153970Y-104168D02*
X-153136Y-101168D01*
X-152303Y-104168D01*
G01X-152603Y-103118D02*
X-153670D01*
G01X-151503Y-104168D02*
Y-101168D01*
X-150636Y-103668D01*
X-149770Y-101168D01*
Y-104168D01*
G01X-147470D02*
X-148803D01*
Y-101168D01*
X-147470D01*
G01X-148003Y-102618D02*
X-148803D01*
G01X-145703Y-104168D02*
X-145636Y-103518D01*
X-145536Y-102968D01*
X-145403Y-102468D01*
X-145236Y-101918D01*
X-144970Y-101168D01*
X-146303D01*
G01X-143136D02*
X-143403Y-101268D01*
X-143603Y-101518D01*
X-143736Y-101818D01*
X-143836Y-102218D01*
X-143870Y-102668D01*
X-143836Y-103118D01*
X-143736Y-103518D01*
X-143603Y-103818D01*
X-143403Y-104068D01*
X-143136Y-104168D01*
X-142870Y-104068D01*
X-142670Y-103818D01*
X-142536Y-103518D01*
X-142436Y-103118D01*
X-142403Y-102668D01*
X-142436Y-102218D01*
X-142536Y-101818D01*
X-142670Y-101518D01*
X-142870Y-101268D01*
X-143136Y-101168D01*
G01X-141070Y-103168D02*
X-140203D01*
G01X-138836Y-104168D02*
X-137436Y-101168D01*
G01X-138836D02*
X-137436Y-104168D01*
G01X-136303D02*
Y-101168D01*
X-135503D01*
X-135236Y-101318D01*
X-135036Y-101668D01*
X-134970Y-102068D01*
X-135036Y-102468D01*
X-135203Y-102768D01*
X-135503Y-102918D01*
X-136303D01*
G01X-133803Y-101168D02*
Y-104168D01*
X-132470D01*
G01X-131370D02*
Y-101168D01*
X-130703D01*
X-130436Y-101318D01*
X-130236Y-101518D01*
X-130070Y-101818D01*
X-129937Y-102168D01*
X-129903Y-102668D01*
X-129937Y-103168D01*
X-130070Y-103518D01*
X-130236Y-103818D01*
X-130436Y-104018D01*
X-130703Y-104168D01*
X-131370D01*
G01X-155800Y-118600D02*
Y-115600D01*
X-156200Y-116200D01*
G01Y-118600D02*
X-155400D01*
G01X-154033Y-118150D02*
X-153833Y-118400D01*
X-153600Y-118550D01*
X-153300Y-118600D01*
X-153000Y-118500D01*
X-152767Y-118300D01*
X-152600Y-117950D01*
X-152567Y-117550D01*
X-152633Y-117150D01*
X-152800Y-116900D01*
X-153033Y-116700D01*
X-153267Y-116650D01*
X-153500Y-116700D01*
X-153800Y-116900D01*
X-153700Y-115600D01*
X-152800D01*
G01X-150800D02*
X-151067Y-115700D01*
X-151267Y-115950D01*
X-151400Y-116250D01*
X-151500Y-116650D01*
X-151533Y-117100D01*
X-151500Y-117550D01*
X-151400Y-117950D01*
X-151267Y-118250D01*
X-151067Y-118500D01*
X-150800Y-118600D01*
X-150533Y-118500D01*
X-150333Y-118250D01*
X-150200Y-117950D01*
X-150100Y-117550D01*
X-150067Y-117100D01*
X-150100Y-116650D01*
X-150200Y-116250D01*
X-150333Y-115950D01*
X-150533Y-115700D01*
X-150800Y-115600D01*
G01X-148933Y-117350D02*
X-148700Y-117000D01*
X-148500Y-116800D01*
X-148233Y-116700D01*
X-148000Y-116800D01*
X-147833Y-117000D01*
X-147700Y-117300D01*
X-147667Y-117650D01*
X-147700Y-117950D01*
X-147833Y-118250D01*
X-148033Y-118500D01*
X-148267Y-118600D01*
X-148533Y-118500D01*
X-148767Y-118200D01*
X-148900Y-117750D01*
X-148933Y-117250D01*
X-148867Y-116600D01*
X-148767Y-116250D01*
X-148600Y-115900D01*
X-148367Y-115650D01*
X-148133Y-115600D01*
X-147900Y-115700D01*
X-147733Y-115950D01*
G01X-145800Y-115600D02*
X-146067Y-115700D01*
X-146267Y-115950D01*
X-146400Y-116250D01*
X-146500Y-116650D01*
X-146533Y-117100D01*
X-146500Y-117550D01*
X-146400Y-117950D01*
X-146267Y-118250D01*
X-146067Y-118500D01*
X-145800Y-118600D01*
X-145533Y-118500D01*
X-145333Y-118250D01*
X-145200Y-117950D01*
X-145100Y-117550D01*
X-145067Y-117100D01*
X-145100Y-116650D01*
X-145200Y-116250D01*
X-145333Y-115950D01*
X-145533Y-115700D01*
X-145800Y-115600D01*
G01X-143300D02*
X-143567Y-115700D01*
X-143767Y-115950D01*
X-143900Y-116250D01*
X-144000Y-116650D01*
X-144033Y-117100D01*
X-144000Y-117550D01*
X-143900Y-117950D01*
X-143767Y-118250D01*
X-143567Y-118500D01*
X-143300Y-118600D01*
X-143033Y-118500D01*
X-142833Y-118250D01*
X-142700Y-117950D01*
X-142600Y-117550D01*
X-142567Y-117100D01*
X-142600Y-116650D01*
X-142700Y-116250D01*
X-142833Y-115950D01*
X-143033Y-115700D01*
X-143300Y-115600D01*
G01X-155127Y-85385D02*
Y-88385D01*
X-153794D01*
G01X-151361D02*
Y-86385D01*
G01Y-86735D02*
X-151494Y-86535D01*
X-151694Y-86435D01*
X-151927Y-86385D01*
X-152161Y-86485D01*
X-152361Y-86685D01*
X-152494Y-86985D01*
X-152561Y-87385D01*
X-152494Y-87785D01*
X-152361Y-88085D01*
X-152161Y-88285D01*
X-151927Y-88385D01*
X-151694Y-88335D01*
X-151494Y-88185D01*
X-151361Y-87985D01*
G01X-150161Y-89285D02*
X-149961Y-89385D01*
X-149694Y-89285D01*
X-149527Y-89085D01*
X-149394Y-88835D01*
X-149194Y-88035D01*
X-148761Y-86385D01*
G01X-149827D02*
X-149194Y-88035D01*
G01X-146961Y-88385D02*
X-147161Y-88335D01*
X-147361Y-88135D01*
X-147494Y-87785D01*
X-147561Y-87385D01*
X-147494Y-86985D01*
X-147361Y-86635D01*
X-147161Y-86435D01*
X-146961Y-86385D01*
X-146761Y-86435D01*
X-146561Y-86635D01*
X-146427Y-86985D01*
X-146394Y-87385D01*
X-146427Y-87785D01*
X-146561Y-88135D01*
X-146761Y-88335D01*
X-146961Y-88385D01*
G01X-145027Y-86385D02*
Y-87785D01*
X-144894Y-88135D01*
X-144694Y-88335D01*
X-144461Y-88385D01*
X-144227Y-88335D01*
X-144027Y-88135D01*
X-143894Y-87785D01*
G01Y-88385D02*
Y-86385D01*
G01X-141961Y-85385D02*
Y-88385D01*
G01X-142427Y-86385D02*
X-141494D01*
G01X-136227Y-85635D02*
X-136427Y-85485D01*
X-136661Y-85385D01*
X-136927D01*
X-137227Y-85535D01*
X-137461Y-85785D01*
X-137627Y-86085D01*
X-137761Y-86585D01*
X-137794Y-87035D01*
X-137727Y-87485D01*
X-137627Y-87785D01*
X-137427Y-88085D01*
X-137194Y-88285D01*
X-136961Y-88385D01*
X-136727D01*
X-136494Y-88285D01*
X-136294Y-88135D01*
X-136127Y-87935D01*
G01X-134961Y-87035D02*
X-133894D01*
X-133994Y-86685D01*
X-134161Y-86485D01*
X-134394Y-86385D01*
X-134627Y-86435D01*
X-134827Y-86585D01*
X-134961Y-86935D01*
X-135027Y-87235D01*
Y-87535D01*
X-134961Y-87835D01*
X-134794Y-88135D01*
X-134594Y-88335D01*
X-134361Y-88385D01*
X-134127Y-88285D01*
X-133894Y-87985D01*
G01X-132527Y-88385D02*
Y-86385D01*
G01Y-86885D02*
X-132394Y-86635D01*
X-132194Y-86435D01*
X-131927Y-86385D01*
X-131694Y-86435D01*
X-131494Y-86635D01*
X-131394Y-86985D01*
Y-88385D01*
G01X-129461Y-85385D02*
Y-88385D01*
G01X-129927Y-86385D02*
X-128994D01*
G01X-127461Y-87035D02*
X-126394D01*
X-126494Y-86685D01*
X-126661Y-86485D01*
X-126894Y-86385D01*
X-127127Y-86435D01*
X-127327Y-86585D01*
X-127461Y-86935D01*
X-127527Y-87235D01*
Y-87535D01*
X-127461Y-87835D01*
X-127294Y-88135D01*
X-127094Y-88335D01*
X-126861Y-88385D01*
X-126627Y-88285D01*
X-126394Y-87985D01*
G01X-124927Y-88385D02*
Y-86385D01*
G01Y-86785D02*
X-124761Y-86585D01*
X-124594Y-86435D01*
X-124361Y-86385D01*
X-124194Y-86435D01*
X-123994Y-86585D01*
G01X-57557Y-74385D02*
Y-124085D01*
G01X-54961Y-110485D02*
X-54694Y-110735D01*
X-54394Y-110885D01*
X-54127D01*
X-53861Y-110735D01*
X-53661Y-110485D01*
X-53561Y-110135D01*
X-53627Y-109785D01*
X-53794Y-109485D01*
X-54094Y-109285D01*
X-54494Y-109185D01*
X-54727Y-108985D01*
X-54827Y-108635D01*
X-54761Y-108285D01*
X-54594Y-108035D01*
X-54361Y-107885D01*
X-54127D01*
X-53894Y-107985D01*
X-53694Y-108235D01*
G01X-52461Y-110885D02*
Y-107885D01*
G01X-51061D02*
Y-110885D01*
G01Y-109385D02*
X-52461D01*
G01X-48594Y-110885D02*
X-49927D01*
Y-107885D01*
X-48594D01*
G01X-49127Y-109335D02*
X-49927D01*
G01X-46094Y-110885D02*
X-47427D01*
Y-107885D01*
X-46094D01*
G01X-46627Y-109335D02*
X-47427D01*
G01X-44261Y-107885D02*
Y-110885D01*
G01X-45027Y-107885D02*
X-43494D01*
G01X-54261Y-118385D02*
Y-121385D01*
G01X-55027Y-118385D02*
X-53494D01*
G01X-51761Y-121385D02*
X-52027Y-121335D01*
X-52261Y-121135D01*
X-52461Y-120835D01*
X-52594Y-120485D01*
X-52661Y-120085D01*
Y-119685D01*
X-52594Y-119285D01*
X-52461Y-118935D01*
X-52261Y-118635D01*
X-52027Y-118435D01*
X-51761Y-118385D01*
X-51494Y-118435D01*
X-51261Y-118635D01*
X-51061Y-118935D01*
X-50927Y-119285D01*
X-50861Y-119685D01*
Y-120085D01*
X-50927Y-120485D01*
X-51061Y-120835D01*
X-51261Y-121135D01*
X-51494Y-121335D01*
X-51761Y-121385D01*
G01X-49261Y-118385D02*
Y-121385D01*
G01X-50027Y-118385D02*
X-48494D01*
G01X-47594Y-121385D02*
X-46761Y-118385D01*
X-45927Y-121385D01*
G01X-46227Y-120335D02*
X-47294D01*
G01X-44927Y-118385D02*
Y-121385D01*
X-43594D01*
G01X-38861D02*
Y-118385D01*
X-40094Y-120535D01*
X-38427D01*
G01X-35094Y-121385D02*
X-34261Y-118385D01*
X-33427Y-121385D01*
G01X-33727Y-120335D02*
X-34794D01*
G01X-31761Y-121385D02*
Y-120035D01*
X-32427Y-118385D01*
G01X-31094D02*
X-31761Y-120035D01*
G01X-28594Y-121385D02*
X-29927D01*
Y-118385D01*
X-28594D01*
G01X-29127Y-119835D02*
X-29927D01*
G01X-27427Y-121385D02*
Y-118385D01*
X-26594D01*
X-26327Y-118535D01*
X-26161Y-118735D01*
X-26094Y-119135D01*
X-26161Y-119535D01*
X-26361Y-119785D01*
X-26594Y-119935D01*
X-27427D01*
G01X-26594D02*
X-26094Y-121385D01*
G01X-24961Y-120985D02*
X-24694Y-121235D01*
X-24394Y-121385D01*
X-24127D01*
X-23861Y-121235D01*
X-23661Y-120985D01*
X-23561Y-120635D01*
X-23627Y-120285D01*
X-23794Y-119985D01*
X-24094Y-119785D01*
X-24494Y-119685D01*
X-24727Y-119485D01*
X-24827Y-119135D01*
X-24761Y-118785D01*
X-24594Y-118535D01*
X-24361Y-118385D01*
X-24127D01*
X-23894Y-118485D01*
X-23694Y-118735D01*
G01X-57461Y-113885D02*
X40039D01*
G01X-53994Y-100885D02*
Y-97885D01*
X-53327D01*
X-53061Y-98035D01*
X-52861Y-98235D01*
X-52694Y-98535D01*
X-52561Y-98885D01*
X-52527Y-99385D01*
X-52561Y-99885D01*
X-52694Y-100235D01*
X-52861Y-100535D01*
X-53061Y-100735D01*
X-53327Y-100885D01*
X-53994D01*
G01X-51594D02*
X-50761Y-97885D01*
X-49927Y-100885D01*
G01X-50227Y-99835D02*
X-51294D01*
G01X-48261Y-97885D02*
Y-100885D01*
G01X-49027Y-97885D02*
X-47494D01*
G01X-45094Y-100885D02*
X-46427D01*
Y-97885D01*
X-45094D01*
G01X-45627Y-99335D02*
X-46427D01*
G01X-54023Y-85185D02*
Y-88185D01*
X-52690D01*
G01X-51690D02*
X-50857Y-85185D01*
X-50023Y-88185D01*
G01X-50323Y-87135D02*
X-51390D01*
G01X-48357Y-88185D02*
Y-86835D01*
X-49023Y-85185D01*
G01X-47690D02*
X-48357Y-86835D01*
G01X-45190Y-88185D02*
X-46523D01*
Y-85185D01*
X-45190D01*
G01X-45723Y-86635D02*
X-46523D01*
G01X-44023Y-88185D02*
Y-85185D01*
X-43190D01*
X-42923Y-85335D01*
X-42757Y-85535D01*
X-42690Y-85935D01*
X-42757Y-86335D01*
X-42957Y-86585D01*
X-43190Y-86735D01*
X-44023D01*
G01X-43190D02*
X-42690Y-88185D01*
G01X-57461Y-103885D02*
X40039D01*
G01X-24657Y-74285D02*
X-24561Y-94085D01*
X-24557Y-113785D01*
G01X-20594Y-98385D02*
X-20394Y-98085D01*
X-20161Y-97935D01*
X-19894Y-97885D01*
X-19561Y-97985D01*
X-19327Y-98235D01*
X-19261Y-98535D01*
X-19294Y-98835D01*
X-19427Y-99085D01*
X-20094Y-99585D01*
X-20394Y-99935D01*
X-20594Y-100435D01*
X-20661Y-100885D01*
X-19261D01*
G01X-17461Y-97885D02*
X-17727Y-97985D01*
X-17927Y-98235D01*
X-18061Y-98535D01*
X-18161Y-98935D01*
X-18194Y-99385D01*
X-18161Y-99835D01*
X-18061Y-100235D01*
X-17927Y-100535D01*
X-17727Y-100785D01*
X-17461Y-100885D01*
X-17194Y-100785D01*
X-16994Y-100535D01*
X-16861Y-100235D01*
X-16761Y-99835D01*
X-16727Y-99385D01*
X-16761Y-98935D01*
X-16861Y-98535D01*
X-16994Y-98235D01*
X-17194Y-97985D01*
X-17461Y-97885D01*
G01X-14961Y-100885D02*
Y-97885D01*
X-15361Y-98485D01*
G01Y-100885D02*
X-14561D01*
G01X-13194Y-100435D02*
X-12994Y-100685D01*
X-12761Y-100835D01*
X-12461Y-100885D01*
X-12161Y-100785D01*
X-11927Y-100585D01*
X-11761Y-100235D01*
X-11727Y-99835D01*
X-11794Y-99435D01*
X-11961Y-99185D01*
X-12194Y-98985D01*
X-12427Y-98935D01*
X-12661Y-98985D01*
X-12961Y-99185D01*
X-12861Y-97885D01*
X-11961D01*
G01X-10394Y-99885D02*
X-9527D01*
G01X-7461Y-100885D02*
Y-97885D01*
X-7861Y-98485D01*
G01Y-100885D02*
X-7061D01*
G01X-4961Y-97885D02*
X-5227Y-97985D01*
X-5427Y-98235D01*
X-5561Y-98535D01*
X-5661Y-98935D01*
X-5694Y-99385D01*
X-5661Y-99835D01*
X-5561Y-100235D01*
X-5427Y-100535D01*
X-5227Y-100785D01*
X-4961Y-100885D01*
X-4694Y-100785D01*
X-4494Y-100535D01*
X-4361Y-100235D01*
X-4261Y-99835D01*
X-4227Y-99385D01*
X-4261Y-98935D01*
X-4361Y-98535D01*
X-4494Y-98235D01*
X-4694Y-97985D01*
X-4961Y-97885D01*
G01X-2894Y-99885D02*
X-2027D01*
G01X39Y-100885D02*
Y-97885D01*
X-361Y-98485D01*
G01Y-100885D02*
X439D01*
G01X1806Y-100285D02*
X2006Y-100635D01*
X2273Y-100835D01*
X2573Y-100885D01*
X2839Y-100835D01*
X3106Y-100585D01*
X3273Y-100285D01*
X3306Y-99985D01*
X3239Y-99635D01*
X3006Y-99385D01*
X2773Y-99285D01*
X2473D01*
G01X2773D02*
X2973Y-99135D01*
X3139Y-98885D01*
X3206Y-98585D01*
X3139Y-98285D01*
X2973Y-98035D01*
X2673Y-97885D01*
X2373Y-97935D01*
X2073Y-98135D01*
G01X28039Y-74385D02*
X40039D01*
X40043Y-123985D01*
X26943D01*
G01X-328740Y0D02*
Y413385D01*
X0D01*
Y0D01*
X-328740D01*
G54D44*
X-121974Y319669D03*
X-116974D03*
X-111973D03*
X-106973D03*
Y341716D03*
X-111973D03*
X-116974D03*
X-121974D03*
G54D26*
X-257939Y173209D03*
Y177009D03*
X-258018Y190437D03*
Y194237D03*
X-236760Y186050D03*
Y189849D03*
X-254518Y238744D03*
Y234945D03*
X-232752Y186053D03*
Y189853D03*
X-231367Y375054D03*
Y371254D03*
X-227151Y375082D03*
Y371282D03*
X-231418Y367410D03*
Y363610D03*
X-227228Y367430D03*
Y363630D03*
X-200969Y337811D03*
Y341611D03*
X-197480Y171075D03*
X-192238Y164346D03*
Y168146D03*
X-197480Y174875D03*
X-188642Y337781D03*
X-196977Y337782D03*
X-192778Y337781D03*
X-188642Y341581D03*
X-196977Y341582D03*
X-192778Y341581D03*
X-178422Y163486D03*
Y167286D03*
X-168499Y180108D03*
Y176308D03*
X-158888Y180202D03*
Y176402D03*
X-150760Y180202D03*
Y176402D03*
X-161316Y344281D03*
Y348081D03*
X-132191Y179456D03*
Y175656D03*
X-128428Y359729D03*
Y355929D03*
X-109869Y198684D03*
Y202484D03*
X-117338Y198105D03*
Y194304D03*
X-98903Y35246D03*
Y39046D03*
X-94686Y39021D03*
Y35221D03*
X-94070Y334036D03*
Y337836D03*
X-91220Y364497D03*
Y368297D03*
X-91069Y375861D03*
Y372061D03*
X-79360Y350690D03*
Y346890D03*
X-83376Y350709D03*
Y346909D03*
X-74236Y368741D03*
Y364941D03*
X-69484Y368741D03*
Y364941D03*
X-67090Y251105D03*
Y254905D03*
X-67045Y264139D03*
Y260339D03*
X-64057Y368741D03*
Y364941D03*
X-64046Y377860D03*
Y374060D03*
X-37776Y226518D03*
Y230318D03*
X-38177Y240982D03*
Y237182D03*
X-38073Y258891D03*
Y255091D03*
G54D35*
X-221241Y354851D03*
Y356819D03*
Y358788D03*
Y360756D03*
Y362725D03*
Y364693D03*
X-205493Y358788D03*
Y356819D03*
Y354851D03*
Y364693D03*
Y362725D03*
Y360756D03*
G54D17*
X-318888Y407053D03*
X-291458Y19251D03*
X-10496Y403561D03*
G54D18*
X-306179Y11683D03*
X-267440Y104291D03*
Y194291D03*
Y284291D03*
X-157441Y143779D03*
X-129543Y299272D03*
X-110295Y231679D03*
X-95891Y299280D03*
X-77440Y24291D03*
X-77441Y54291D03*
Y144291D03*
Y230314D03*
X-27441Y160275D03*
Y300275D03*
Y360275D03*
G54D36*
X-218442Y380678D03*
X-225442D03*
X-192132Y349974D03*
X-185132D03*
X-145122Y343928D03*
X-138122D03*
X-105822Y286991D03*
X-98822D03*
G54D27*
X-257757Y214268D03*
Y219868D03*
X-241885Y369310D03*
Y363710D03*
X-236310Y369300D03*
Y363700D03*
X-206323Y337180D03*
X-211985Y337104D03*
X-206323Y342780D03*
X-211985Y342704D03*
X-98790Y320735D03*
X-98841Y333293D03*
Y338893D03*
X-98790Y326335D03*
G54D45*
X-114473Y330692D03*
G54D28*
X-268472Y385506D03*
G54D46*
X-107853Y378050D03*
Y363483D03*
X-99192D03*
Y378050D03*
G54D19*
X-294744Y41710D03*
Y51642D03*
Y81668D03*
Y71644D03*
X-290944Y41710D03*
Y51642D03*
Y81668D03*
Y71644D03*
X-256739Y84238D03*
Y94261D03*
Y104132D03*
X-257514Y124250D03*
Y134270D03*
Y144326D03*
X-252939Y84238D03*
Y94261D03*
Y104132D03*
X-253714Y124250D03*
Y134270D03*
Y144326D03*
X-237938Y193879D03*
X-237961Y197766D03*
X-237947Y201567D03*
X-236553Y246234D03*
X-236586Y242201D03*
X-236590Y237675D03*
X-236601Y233673D03*
X-242966Y336749D03*
X-239167D03*
X-238849Y357993D03*
X-242650D03*
X-238849Y375896D03*
X-242650D03*
X-238830Y390729D03*
X-242630D03*
X-242650Y386419D03*
X-238849D03*
X-235456Y57430D03*
X-231656D03*
X-235416Y53385D03*
X-231616D03*
X-235499Y61457D03*
X-231699D03*
X-229890Y182163D03*
X-226090D03*
X-229876Y178152D03*
X-226076D03*
X-222145Y175769D03*
X-218345D03*
X-234139Y193879D03*
X-234162Y197766D03*
X-234147Y201567D03*
X-229655Y205575D03*
X-233455D03*
X-225331Y210147D03*
X-221531D03*
X-233443Y210074D03*
X-229643D03*
X-220306Y228571D03*
X-224105D03*
X-220306Y240513D03*
X-224105D03*
X-220306Y244484D03*
X-224105D03*
X-220306Y235264D03*
X-224105D03*
X-232752Y246234D03*
X-232786Y242201D03*
X-232789Y237675D03*
X-232800Y233673D03*
X-223189Y266769D03*
X-219389D03*
X-223160Y271044D03*
X-219360D03*
X-218368Y342484D03*
X-222168D03*
X-229890Y342467D03*
X-226090D03*
X-218418Y374204D03*
X-222218D03*
X-207011Y56724D03*
X-203211D03*
X-203501Y60909D03*
X-207301D03*
X-201421Y166851D03*
X-204197Y281657D03*
X-200397D03*
X-211909Y285854D03*
X-208109D03*
X-204110Y285879D03*
X-200310D03*
X-197621Y166851D03*
X-189632Y356132D03*
X-193432D03*
X-181629Y360480D03*
X-185429D03*
X-193464Y360484D03*
X-189664D03*
X-189700Y364636D03*
X-193500D03*
X-189698Y369143D03*
X-193498D03*
X-116497Y203817D03*
X-120297D03*
X-91045Y114143D03*
Y104265D03*
Y124299D03*
X-91743Y171718D03*
X-87943D03*
X-91782Y177110D03*
X-87982D03*
X-87245Y114143D03*
Y104265D03*
Y124299D03*
X-51297Y346858D03*
X-51259Y342741D03*
X-63681Y346567D03*
X-67481D03*
X-63680Y352370D03*
X-67480D03*
X-51412Y360050D03*
X-51526Y365256D03*
X-41628Y62235D03*
X-37829D03*
Y70522D03*
X-41628D03*
X-37876Y78581D03*
X-41676D03*
X-37829Y74564D03*
X-41628D03*
Y66474D03*
X-37829D03*
X-37916Y90636D03*
X-41716D03*
X-37896Y86627D03*
X-41696D03*
X-37886Y82599D03*
X-41686D03*
X-41737Y94667D03*
X-37936D03*
X-41756Y98633D03*
X-37956D03*
X-41756Y125160D03*
X-37956D03*
X-47497Y346858D03*
X-47459Y342741D03*
X-47612Y360050D03*
X-47726Y365256D03*
G54D37*
X-199976Y188218D03*
X-201944D03*
X-203913D03*
Y272470D03*
X-201944D03*
X-199976D03*
X-182259Y188218D03*
X-184228D03*
X-186196D03*
X-188165D03*
X-190133D03*
X-192102D03*
X-194070D03*
X-196039D03*
X-198007D03*
Y272470D03*
X-196039D03*
X-194070D03*
X-192102D03*
X-190133D03*
X-188165D03*
X-186196D03*
X-184228D03*
X-182259D03*
X-164543Y188218D03*
X-166511D03*
X-168480D03*
X-170448D03*
X-172417D03*
X-174385D03*
X-176354D03*
X-178322D03*
X-180291D03*
Y272470D03*
X-178322D03*
X-176354D03*
X-174385D03*
X-172417D03*
X-170448D03*
X-168480D03*
X-166511D03*
X-164543D03*
X-144858Y188218D03*
X-146826D03*
X-148795D03*
X-150763D03*
X-152732D03*
X-154700D03*
X-156669D03*
X-158637D03*
X-160606D03*
X-162574D03*
Y272470D03*
X-160606D03*
X-158637D03*
X-156669D03*
X-154700D03*
X-152732D03*
X-150763D03*
X-148795D03*
X-146826D03*
X-144858D03*
X-135015Y188218D03*
X-136984D03*
X-138952D03*
X-140921D03*
X-142889D03*
Y272470D03*
X-140921D03*
X-138952D03*
X-136984D03*
X-135015D03*
G54D29*
X-237096Y331298D03*
X-242696D03*
X-53031Y355229D03*
X-47431D03*
G54D38*
X-211590Y195895D03*
Y197864D03*
Y199832D03*
Y201801D03*
Y203769D03*
Y205738D03*
Y207706D03*
Y209675D03*
Y211643D03*
Y213612D03*
Y215580D03*
Y217549D03*
Y219517D03*
Y221486D03*
Y223454D03*
Y225423D03*
Y227391D03*
Y229360D03*
Y231328D03*
Y233297D03*
Y235265D03*
Y237234D03*
Y239202D03*
Y241171D03*
Y243139D03*
Y245108D03*
Y247076D03*
Y249045D03*
Y251013D03*
Y252982D03*
Y254950D03*
Y256919D03*
Y258887D03*
Y260856D03*
Y262824D03*
Y264793D03*
X-127338Y209675D03*
Y207706D03*
Y205738D03*
Y203769D03*
Y201801D03*
Y199832D03*
Y197864D03*
Y195895D03*
Y229360D03*
Y227391D03*
Y225423D03*
Y223454D03*
Y221486D03*
Y219517D03*
Y217549D03*
Y215580D03*
Y213612D03*
Y211643D03*
Y247076D03*
Y245108D03*
Y243139D03*
Y241171D03*
Y239202D03*
Y237234D03*
Y235265D03*
Y233297D03*
Y231328D03*
Y264793D03*
Y262824D03*
Y260856D03*
Y258887D03*
Y256919D03*
Y254950D03*
Y252982D03*
Y251013D03*
Y249045D03*
G54D47*
X-71766Y407676D03*
X-38892D03*
G54D39*
X-213939Y292597D03*
X-199372D03*
Y301258D03*
X-213939D03*
G54D48*
X-58466Y13535D03*
Y46063D03*
X-40751Y13535D03*
Y46063D03*
X-29289Y13360D03*
Y45889D03*
X-11574Y13360D03*
Y45889D03*
G54D49*
X-52770Y397145D03*
X-55329D03*
X-57888D03*
X-60447D03*
X-50211D03*
M02*
